M48
METRIC,LZ,000.000
;FILE_FORMAT=3:3
;TYPE=PLATED
;Layer: PTH_Through
;EasyEDA v6.5.48, 2025-01-26 00:11:38
;fc4346687c6f4b058559f65778573f7f,9c8959dc7a574dada6669a69c5c32939,10
;Gerber Generator version 0.2
;Holesize 1 = 0.310 mm
T01C0.310
;Holesize 2 = 0.800 mm
T02C0.800
;Holesize 3 = 0.900 mm
T03C0.900
;Holesize 4 = 0.901 mm
T04C0.901
;Holesize 5 = 1.000 mm
T05C1.000
;Holesize 6 = 1.200 mm
T06C1.200
;Holesize 7 = 1.301 mm
T07C1.301
;Holesize 8 = 1.400 mm
T08C1.400
;Holesize 9 = 2.532 mm
T09C2.532
%
G05
G90
T01
X092200Y065100
X055500Y019400
X062300Y017900
X072200Y028100
X079600Y027900
X087300Y028000
X094900Y027900
X102800Y027920
X110600Y027900
X118400Y027900
X126100Y027900
T02
X074360Y029900
X076900Y029900
X082060Y029800
X084600Y029800
X089860Y029700
X092400Y029700
X097360Y029700
X099900Y029700
X105260Y029700
X107800Y029700
X112760Y029700
X115300Y029700
X120660Y029800
X123200Y029800
X128160Y029800
X130700Y029800
X066760Y029900
X069300Y029900
T03
X127420Y058600
X137580Y058600
X127420Y055600
X137580Y055600
X127420Y052600
X137580Y052600
X127420Y049600
X137580Y049600
X127420Y046600
X137580Y046600
X127420Y043600
X137580Y043600
X127420Y040600
X137580Y040600
X127420Y037600
X137580Y037600
X072180Y039200
X062020Y039200
T04
X068300Y044200
X070840Y044200
T05
X076330Y043000
X078870Y043000
X117780Y054200
X115240Y054200
X112700Y054200
X110160Y054200
X107620Y054200
X105080Y054200
X102540Y054200
X100000Y054200
X117780Y038960
X115240Y038960
X112700Y038960
X110160Y038960
X107620Y038960
X105080Y038960
X102540Y038960
X100000Y038960
X044700Y022100
X014700Y022100
X039700Y052100
X019700Y052100
T06
X077100Y004140
X077100Y006680
X077100Y016840
X077100Y024460
X084600Y004140
X084600Y006680
X084600Y016840
X084600Y024460
X092300Y004140
X092300Y006680
X092300Y016840
X092300Y024460
X099900Y004140
X099900Y006680
X099900Y016840
X099900Y024460
X107600Y004140
X107600Y006680
X107600Y016840
X107600Y024460
X115400Y004240
X115400Y006780
X115400Y016940
X115400Y024560
X123300Y004240
X123300Y006780
X123300Y016940
X123300Y024560
X130900Y004340
X130900Y006880
X130900Y017040
X130900Y024660
X092200Y049700
X092200Y065100
X062800Y054900
X062800Y059900
T07
X098950Y062800
X120850Y062800
T08
X028000Y006200
X033000Y006200
X038120Y006200
X043200Y006200
X048280Y006200
X053360Y006200
X058440Y006200
X063520Y006200
X068600Y006200
X012700Y006200
X017700Y006200
T09
X052200Y037100
X007200Y037100
M30
