G04 Layer: BottomLayer*
G04 EasyEDA v6.5.48, 2025-01-26 00:11:38*
G04 fc4346687c6f4b058559f65778573f7f,9c8959dc7a574dada6669a69c5c32939,10*
G04 Gerber Generator version 0.2*
G04 Scale: 100 percent, Rotated: No, Reflected: No *
G04 Dimensions in millimeters *
G04 leading zeros omitted , absolute positions ,4 integer and 5 decimal *
%FSLAX45Y45*%
%MOMM*%

%ADD10C,0.5000*%
%ADD11C,0.2540*%
%ADD12C,1.0000*%
%ADD13C,2.2000*%
%ADD14C,1.8796*%
%ADD15C,1.5240*%
%ADD16C,2.0000*%
%ADD17C,1.6500*%
%ADD18C,1.8000*%
%ADD19C,3.0000*%
%ADD20C,1.5000*%
%ADD21C,2.5000*%
%ADD22C,0.6200*%
%ADD23C,0.0109*%

%LPD*%
G36*
X5970168Y25908D02*
G01*
X5966256Y26670D01*
X5962954Y28905D01*
X5960770Y32156D01*
X5960008Y36068D01*
X5960008Y144068D01*
X5960770Y147929D01*
X5962954Y151231D01*
X5966256Y153466D01*
X5970168Y154228D01*
X6472783Y154279D01*
X6481622Y155092D01*
X6484061Y155498D01*
X6492697Y157632D01*
X6495034Y158394D01*
X6503263Y161798D01*
X6505448Y162915D01*
X6513068Y167538D01*
X6521907Y174599D01*
X6830364Y483006D01*
X6832803Y484784D01*
X6835698Y485800D01*
X6838746Y485901D01*
X6852107Y484327D01*
X6867906Y484327D01*
X6883603Y486156D01*
X6898944Y489813D01*
X6913829Y495198D01*
X6927951Y502310D01*
X6941159Y510997D01*
X6953250Y521157D01*
X6964070Y532638D01*
X6973519Y545338D01*
X6981444Y559003D01*
X6987692Y573532D01*
X6992213Y588670D01*
X6994956Y604215D01*
X6995871Y620014D01*
X6994956Y635762D01*
X6992213Y651357D01*
X6987692Y666496D01*
X6981444Y680974D01*
X6973519Y694690D01*
X6964070Y707339D01*
X6953250Y718820D01*
X6941159Y728980D01*
X6927951Y737666D01*
X6913829Y744778D01*
X6898944Y750163D01*
X6883603Y753821D01*
X6867906Y755650D01*
X6852107Y755650D01*
X6836409Y753821D01*
X6821017Y750163D01*
X6806184Y744778D01*
X6792061Y737666D01*
X6778853Y728980D01*
X6766763Y718820D01*
X6755892Y707339D01*
X6746443Y694690D01*
X6738569Y680974D01*
X6732320Y666496D01*
X6727748Y651357D01*
X6725005Y635762D01*
X6724091Y620014D01*
X6725005Y604215D01*
X6725869Y599338D01*
X6725920Y596087D01*
X6724954Y593039D01*
X6723075Y590397D01*
X6441694Y309016D01*
X6438392Y306781D01*
X6434480Y306019D01*
X5970168Y306019D01*
X5966256Y306781D01*
X5962954Y309016D01*
X5960770Y312318D01*
X5960008Y316179D01*
X5960008Y546862D01*
X5960313Y549503D01*
X5961329Y551942D01*
X5965444Y559003D01*
X5971692Y573532D01*
X5976213Y588670D01*
X5978956Y604215D01*
X5979871Y620014D01*
X5978956Y635762D01*
X5976213Y651357D01*
X5971692Y666496D01*
X5965444Y680974D01*
X5961329Y688035D01*
X5960313Y690524D01*
X5960008Y693115D01*
X5960008Y1728927D01*
X5960770Y1732788D01*
X5962954Y1736089D01*
X5966256Y1738325D01*
X5970168Y1739087D01*
X6202730Y1739087D01*
X6206540Y1738325D01*
X6213348Y1735632D01*
X6222746Y1733600D01*
X6232398Y1733143D01*
X6241948Y1734413D01*
X6251194Y1737207D01*
X6259779Y1741576D01*
X6267551Y1747316D01*
X6274257Y1754276D01*
X6279642Y1762252D01*
X6283604Y1771040D01*
X6286042Y1780387D01*
X6286855Y1789988D01*
X6286042Y1799589D01*
X6283604Y1808937D01*
X6279642Y1817725D01*
X6274257Y1825701D01*
X6267551Y1832660D01*
X6259779Y1838401D01*
X6251194Y1842770D01*
X6241948Y1845564D01*
X6232398Y1846834D01*
X6222746Y1846376D01*
X6213348Y1844344D01*
X6206540Y1841652D01*
X6202730Y1840890D01*
X5970168Y1840890D01*
X5966256Y1841652D01*
X5962954Y1843887D01*
X5960770Y1847189D01*
X5960008Y1851050D01*
X5960008Y4195013D01*
X5960465Y4198061D01*
X5961786Y4200804D01*
X5963920Y4203039D01*
X7078878Y5069128D01*
X7079945Y5070957D01*
X7079996Y6963918D01*
X7080758Y6967829D01*
X7082942Y6971080D01*
X7086244Y6973316D01*
X7090156Y6974078D01*
X13963904Y6974078D01*
X13967815Y6973316D01*
X13971117Y6971080D01*
X13973301Y6967829D01*
X13974063Y6963918D01*
X13974063Y36068D01*
X13973301Y32156D01*
X13971066Y28905D01*
X13967815Y26670D01*
X13963904Y25908D01*
G37*

%LPC*%
G36*
X13605205Y219151D02*
G01*
X13626185Y220573D01*
X13646962Y223926D01*
X13667333Y229108D01*
X13687094Y236169D01*
X13706195Y244957D01*
X13724382Y255473D01*
X13741552Y267614D01*
X13757554Y281228D01*
X13772286Y296265D01*
X13785545Y312572D01*
X13797280Y329996D01*
X13807338Y348437D01*
X13815720Y367741D01*
X13822324Y387705D01*
X13827048Y408178D01*
X13829893Y429006D01*
X13830858Y449986D01*
X13829893Y470966D01*
X13827048Y491794D01*
X13822324Y512267D01*
X13815720Y532231D01*
X13807338Y551535D01*
X13797280Y569976D01*
X13785545Y587400D01*
X13772286Y603707D01*
X13757554Y618744D01*
X13741552Y632358D01*
X13724382Y644499D01*
X13706195Y655015D01*
X13687094Y663803D01*
X13667333Y670864D01*
X13646962Y676046D01*
X13626185Y679399D01*
X13605205Y680821D01*
X13584224Y680364D01*
X13563346Y677976D01*
X13542772Y673658D01*
X13522655Y667562D01*
X13503198Y659638D01*
X13484504Y649935D01*
X13466826Y638606D01*
X13450214Y625754D01*
X13434872Y611378D01*
X13420851Y595680D01*
X13408355Y578815D01*
X13397433Y560832D01*
X13388187Y541985D01*
X13380719Y522325D01*
X13375030Y502107D01*
X13371220Y481431D01*
X13369290Y460501D01*
X13369290Y439470D01*
X13371220Y418541D01*
X13375030Y397865D01*
X13380719Y377647D01*
X13388187Y357987D01*
X13397433Y339140D01*
X13408355Y321157D01*
X13420851Y304292D01*
X13434872Y288594D01*
X13450214Y274218D01*
X13466826Y261366D01*
X13484504Y250037D01*
X13503198Y240334D01*
X13522655Y232410D01*
X13542772Y226314D01*
X13563346Y221996D01*
X13584224Y219608D01*
G37*
G36*
X9178645Y310337D02*
G01*
X9178645Y362661D01*
X9126220Y362661D01*
X9132112Y351891D01*
X9140698Y340106D01*
X9150654Y329539D01*
X9161881Y320243D01*
X9174124Y312420D01*
G37*
G36*
X9938613Y310337D02*
G01*
X9938613Y362661D01*
X9886238Y362661D01*
X9892131Y351891D01*
X9900666Y340106D01*
X9910622Y329539D01*
X9921849Y320243D01*
X9934143Y312420D01*
G37*
G36*
X9281312Y310337D02*
G01*
X9285782Y312420D01*
X9298076Y320243D01*
X9309303Y329539D01*
X9319260Y340106D01*
X9327845Y351891D01*
X9333738Y362661D01*
X9281312Y362661D01*
G37*
G36*
X10811306Y310337D02*
G01*
X10815828Y312420D01*
X10828070Y320243D01*
X10839297Y329539D01*
X10849254Y340106D01*
X10857839Y351891D01*
X10863732Y362661D01*
X10811306Y362661D01*
G37*
G36*
X8511336Y310337D02*
G01*
X8515807Y312420D01*
X8528100Y320243D01*
X8539327Y329539D01*
X8549284Y340106D01*
X8557818Y351891D01*
X8563711Y362661D01*
X8511336Y362661D01*
G37*
G36*
X10041331Y310337D02*
G01*
X10045801Y312420D01*
X10058095Y320243D01*
X10069322Y329539D01*
X10079278Y340106D01*
X10087813Y351891D01*
X10093706Y362661D01*
X10041331Y362661D01*
G37*
G36*
X10708640Y310337D02*
G01*
X10708640Y362661D01*
X10656214Y362661D01*
X10662107Y351891D01*
X10670692Y340106D01*
X10680649Y329539D01*
X10691876Y320243D01*
X10704118Y312420D01*
G37*
G36*
X8408619Y310337D02*
G01*
X8408619Y362661D01*
X8356244Y362661D01*
X8362137Y351891D01*
X8370671Y340106D01*
X8380628Y329539D01*
X8391855Y320243D01*
X8404148Y312420D01*
G37*
G36*
X7658608Y310337D02*
G01*
X7658608Y362661D01*
X7606233Y362661D01*
X7612125Y351891D01*
X7620711Y340106D01*
X7630668Y329539D01*
X7641844Y320243D01*
X7654137Y312420D01*
G37*
G36*
X7761325Y310337D02*
G01*
X7765796Y312420D01*
X7778089Y320243D01*
X7789316Y329539D01*
X7799273Y340106D01*
X7807807Y351891D01*
X7813751Y362661D01*
X7761325Y362661D01*
G37*
G36*
X12381331Y320344D02*
G01*
X12385802Y322427D01*
X12398095Y330250D01*
X12409322Y339496D01*
X12419279Y350113D01*
X12427813Y361899D01*
X12433706Y372668D01*
X12381331Y372668D01*
G37*
G36*
X12278614Y320344D02*
G01*
X12278614Y372668D01*
X12226239Y372668D01*
X12232132Y361899D01*
X12240666Y350113D01*
X12250623Y339496D01*
X12261850Y330250D01*
X12274143Y322427D01*
G37*
G36*
X11591340Y320344D02*
G01*
X11595811Y322427D01*
X11608104Y330250D01*
X11619280Y339496D01*
X11629288Y350113D01*
X11637822Y361899D01*
X11643715Y372668D01*
X11591340Y372668D01*
G37*
G36*
X11488623Y320344D02*
G01*
X11488623Y372668D01*
X11436197Y372668D01*
X11442141Y361899D01*
X11450675Y350113D01*
X11460632Y339496D01*
X11471859Y330250D01*
X11484152Y322427D01*
G37*
G36*
X13141299Y330352D02*
G01*
X13145820Y332435D01*
X13158063Y340258D01*
X13169290Y349504D01*
X13179247Y360121D01*
X13187832Y371906D01*
X13193725Y382625D01*
X13141299Y382625D01*
G37*
G36*
X13038632Y330352D02*
G01*
X13038632Y382625D01*
X12986207Y382625D01*
X12992100Y371906D01*
X13000685Y360121D01*
X13010642Y349504D01*
X13021868Y340258D01*
X13034162Y332435D01*
G37*
G36*
X9126220Y465328D02*
G01*
X9178645Y465328D01*
X9178645Y517651D01*
X9174124Y515569D01*
X9161881Y507746D01*
X9150654Y498500D01*
X9140698Y487883D01*
X9132112Y476097D01*
G37*
G36*
X9886238Y465328D02*
G01*
X9938613Y465328D01*
X9938613Y517651D01*
X9934143Y515569D01*
X9921849Y507746D01*
X9910622Y498500D01*
X9900666Y487883D01*
X9892131Y476097D01*
G37*
G36*
X9281312Y465328D02*
G01*
X9333738Y465328D01*
X9327845Y476097D01*
X9319260Y487883D01*
X9309303Y498500D01*
X9298076Y507746D01*
X9285782Y515569D01*
X9281312Y517651D01*
G37*
G36*
X8511336Y465328D02*
G01*
X8563711Y465328D01*
X8557818Y476097D01*
X8549284Y487883D01*
X8539327Y498500D01*
X8528100Y507746D01*
X8515807Y515569D01*
X8511336Y517651D01*
G37*
G36*
X10811306Y465328D02*
G01*
X10863732Y465328D01*
X10857839Y476097D01*
X10849254Y487883D01*
X10839297Y498500D01*
X10828070Y507746D01*
X10815828Y515569D01*
X10811306Y517651D01*
G37*
G36*
X10041331Y465328D02*
G01*
X10093706Y465328D01*
X10087813Y476097D01*
X10079278Y487883D01*
X10069322Y498500D01*
X10058095Y507746D01*
X10045801Y515569D01*
X10041331Y517651D01*
G37*
G36*
X10656214Y465328D02*
G01*
X10708640Y465328D01*
X10708640Y517651D01*
X10704118Y515569D01*
X10691876Y507746D01*
X10680649Y498500D01*
X10670692Y487883D01*
X10662107Y476097D01*
G37*
G36*
X7606233Y465328D02*
G01*
X7658608Y465328D01*
X7658608Y517651D01*
X7654137Y515569D01*
X7641844Y507746D01*
X7630668Y498500D01*
X7620711Y487883D01*
X7612125Y476097D01*
G37*
G36*
X7761325Y465328D02*
G01*
X7813751Y465328D01*
X7807807Y476097D01*
X7799273Y487883D01*
X7789316Y498500D01*
X7778089Y507746D01*
X7765796Y515569D01*
X7761325Y517651D01*
G37*
G36*
X8356244Y465328D02*
G01*
X8408619Y465328D01*
X8408619Y517651D01*
X8404148Y515569D01*
X8391855Y507746D01*
X8380628Y498500D01*
X8370671Y487883D01*
X8362137Y476097D01*
G37*
G36*
X12381331Y475335D02*
G01*
X12433706Y475335D01*
X12427813Y486105D01*
X12419279Y497890D01*
X12409322Y508457D01*
X12398095Y517753D01*
X12385802Y525526D01*
X12381331Y527659D01*
G37*
G36*
X11436197Y475335D02*
G01*
X11488623Y475335D01*
X11488623Y527659D01*
X11484152Y525526D01*
X11471859Y517753D01*
X11460632Y508457D01*
X11450675Y497890D01*
X11442141Y486105D01*
G37*
G36*
X11591340Y475335D02*
G01*
X11643715Y475335D01*
X11637822Y486105D01*
X11629288Y497890D01*
X11619280Y508457D01*
X11608104Y517753D01*
X11595811Y525526D01*
X11591340Y527659D01*
G37*
G36*
X12226239Y475335D02*
G01*
X12278614Y475335D01*
X12278614Y527659D01*
X12274143Y525526D01*
X12261850Y517753D01*
X12250623Y508457D01*
X12240666Y497890D01*
X12232132Y486105D01*
G37*
G36*
X6344107Y484327D02*
G01*
X6359906Y484327D01*
X6375603Y486156D01*
X6390944Y489813D01*
X6405829Y495198D01*
X6419951Y502310D01*
X6433159Y510997D01*
X6445250Y521157D01*
X6456070Y532638D01*
X6465519Y545338D01*
X6473444Y559003D01*
X6479692Y573532D01*
X6484213Y588670D01*
X6486956Y604215D01*
X6487871Y620014D01*
X6486956Y635762D01*
X6484213Y651357D01*
X6479692Y666496D01*
X6473444Y680974D01*
X6465519Y694690D01*
X6456070Y707339D01*
X6445250Y718820D01*
X6433159Y728980D01*
X6419951Y737666D01*
X6405829Y744778D01*
X6390944Y750163D01*
X6375603Y753821D01*
X6359906Y755650D01*
X6344107Y755650D01*
X6328410Y753821D01*
X6313017Y750163D01*
X6298184Y744778D01*
X6284061Y737666D01*
X6270853Y728980D01*
X6258763Y718820D01*
X6247892Y707339D01*
X6238443Y694690D01*
X6230569Y680974D01*
X6224320Y666496D01*
X6219748Y651357D01*
X6217005Y635762D01*
X6216091Y620014D01*
X6217005Y604215D01*
X6219748Y588670D01*
X6224320Y573532D01*
X6230569Y559003D01*
X6238443Y545338D01*
X6247892Y532638D01*
X6258763Y521157D01*
X6270853Y510997D01*
X6284061Y502310D01*
X6298184Y495198D01*
X6313017Y489813D01*
X6328410Y486156D01*
G37*
G36*
X12986207Y485343D02*
G01*
X13038632Y485343D01*
X13038632Y537667D01*
X13034162Y535533D01*
X13021868Y527761D01*
X13010642Y518464D01*
X13000685Y507847D01*
X12992100Y496112D01*
G37*
G36*
X13141299Y485343D02*
G01*
X13193725Y485343D01*
X13187832Y496112D01*
X13179247Y507847D01*
X13169290Y518464D01*
X13158063Y527761D01*
X13145820Y535533D01*
X13141299Y537667D01*
G37*
G36*
X10759998Y552094D02*
G01*
X10774476Y553008D01*
X10788802Y555752D01*
X10802620Y560222D01*
X10815828Y566420D01*
X10828070Y574243D01*
X10839297Y583539D01*
X10849254Y594106D01*
X10857839Y605891D01*
X10864850Y618642D01*
X10870184Y632206D01*
X10873790Y646277D01*
X10875619Y660704D01*
X10875619Y675284D01*
X10873790Y689711D01*
X10870184Y703783D01*
X10864850Y717346D01*
X10857839Y730097D01*
X10849254Y741883D01*
X10839297Y752500D01*
X10828070Y761746D01*
X10815828Y769569D01*
X10802620Y775766D01*
X10788802Y780237D01*
X10774476Y782980D01*
X10759998Y783894D01*
X10745470Y782980D01*
X10731144Y780237D01*
X10717326Y775766D01*
X10704118Y769569D01*
X10691876Y761746D01*
X10680649Y752500D01*
X10670692Y741883D01*
X10662107Y730097D01*
X10659516Y725373D01*
X10657179Y722477D01*
X10653877Y720648D01*
X10650169Y720140D01*
X10646562Y721004D01*
X10643463Y723087D01*
X10481564Y884986D01*
X10479379Y888288D01*
X10478566Y892200D01*
X10478566Y2569921D01*
X10477500Y2578862D01*
X10475061Y2586024D01*
X10470997Y2592984D01*
X10338054Y2777388D01*
X10336530Y2780639D01*
X10336174Y2784195D01*
X10336834Y2791968D01*
X10336022Y2801569D01*
X10333634Y2810916D01*
X10329621Y2819704D01*
X10324236Y2827731D01*
X10317581Y2834690D01*
X10309809Y2840431D01*
X10301173Y2844749D01*
X10291978Y2847594D01*
X10282377Y2848813D01*
X10272776Y2848406D01*
X10263327Y2846374D01*
X10254386Y2842768D01*
X10246156Y2837688D01*
X10238943Y2831338D01*
X10232847Y2823819D01*
X10228173Y2815386D01*
X10224973Y2806293D01*
X10223296Y2796794D01*
X10223296Y2787142D01*
X10224973Y2777642D01*
X10228173Y2768549D01*
X10232847Y2760116D01*
X10238943Y2752648D01*
X10246156Y2746248D01*
X10254386Y2741218D01*
X10263327Y2737612D01*
X10269270Y2736291D01*
X10272725Y2734868D01*
X10275366Y2732328D01*
X10399471Y2560167D01*
X10400893Y2557373D01*
X10401350Y2554274D01*
X10401350Y872490D01*
X10402163Y864463D01*
X10404348Y857199D01*
X10407904Y850544D01*
X10413034Y844346D01*
X10624312Y633069D01*
X10630509Y627938D01*
X10637215Y624382D01*
X10644428Y622198D01*
X10648340Y621792D01*
X10651490Y620979D01*
X10654233Y619150D01*
X10656265Y616559D01*
X10662107Y605891D01*
X10670692Y594106D01*
X10680649Y583539D01*
X10691876Y574243D01*
X10704118Y566420D01*
X10717326Y560222D01*
X10731144Y555752D01*
X10745470Y553008D01*
G37*
G36*
X7709966Y552094D02*
G01*
X7724495Y553008D01*
X7738821Y555752D01*
X7752638Y560222D01*
X7765796Y566420D01*
X7778089Y574243D01*
X7789316Y583539D01*
X7799273Y594106D01*
X7807807Y605891D01*
X7814818Y618642D01*
X7820202Y632206D01*
X7823809Y646277D01*
X7825638Y660704D01*
X7825638Y675284D01*
X7823809Y689711D01*
X7820202Y703783D01*
X7814818Y717346D01*
X7807807Y730097D01*
X7799273Y741883D01*
X7789316Y752500D01*
X7778089Y761746D01*
X7765796Y769569D01*
X7752638Y775766D01*
X7738821Y780237D01*
X7724495Y782980D01*
X7709966Y783894D01*
X7695438Y782980D01*
X7681163Y780237D01*
X7667294Y775766D01*
X7659878Y772261D01*
X7655864Y771296D01*
X7651800Y772007D01*
X7648397Y774242D01*
X7531608Y891032D01*
X7529372Y894334D01*
X7528610Y898245D01*
X7528610Y2539492D01*
X7527798Y2547518D01*
X7525613Y2554732D01*
X7522057Y2561437D01*
X7516926Y2567635D01*
X7279690Y2804871D01*
X7277658Y2807766D01*
X7276744Y2811221D01*
X7276033Y2819603D01*
X7273594Y2828950D01*
X7269632Y2837738D01*
X7264247Y2845714D01*
X7257542Y2852674D01*
X7249820Y2858414D01*
X7241184Y2862783D01*
X7231989Y2865577D01*
X7222388Y2866796D01*
X7212787Y2866390D01*
X7203338Y2864358D01*
X7194397Y2860802D01*
X7186168Y2855722D01*
X7178903Y2849321D01*
X7172858Y2841853D01*
X7168184Y2833420D01*
X7164933Y2824327D01*
X7163308Y2814828D01*
X7163308Y2805176D01*
X7164933Y2795676D01*
X7168184Y2786583D01*
X7172858Y2778150D01*
X7178903Y2770632D01*
X7186168Y2764282D01*
X7194397Y2759202D01*
X7203338Y2755595D01*
X7212787Y2753563D01*
X7218222Y2753360D01*
X7221880Y2752496D01*
X7224979Y2750362D01*
X7448397Y2526995D01*
X7450581Y2523693D01*
X7451394Y2519781D01*
X7451394Y878535D01*
X7452207Y870508D01*
X7454392Y863295D01*
X7457948Y856589D01*
X7463078Y850392D01*
X7597851Y715568D01*
X7600035Y712368D01*
X7600797Y708507D01*
X7599781Y703783D01*
X7596124Y689711D01*
X7594295Y675284D01*
X7594295Y660704D01*
X7596124Y646277D01*
X7599781Y632206D01*
X7605115Y618642D01*
X7612125Y605891D01*
X7620711Y594106D01*
X7630668Y583539D01*
X7641844Y574243D01*
X7654137Y566420D01*
X7667294Y560222D01*
X7681163Y555752D01*
X7695438Y553008D01*
G37*
G36*
X9989972Y552094D02*
G01*
X10004501Y553008D01*
X10018776Y555752D01*
X10032644Y560222D01*
X10045801Y566420D01*
X10058095Y574243D01*
X10069322Y583539D01*
X10079278Y594106D01*
X10087813Y605891D01*
X10094823Y618642D01*
X10100208Y632206D01*
X10103815Y646277D01*
X10105644Y660704D01*
X10105644Y675284D01*
X10103815Y689711D01*
X10100208Y703783D01*
X10094823Y717346D01*
X10087813Y730097D01*
X10079278Y741883D01*
X10069322Y752500D01*
X10058095Y761746D01*
X10045801Y769569D01*
X10032644Y775766D01*
X10018776Y780237D01*
X10004501Y782980D01*
X9989972Y783894D01*
X9975443Y782980D01*
X9961168Y780237D01*
X9947300Y775766D01*
X9934143Y769569D01*
X9921849Y761746D01*
X9913112Y754481D01*
X9909810Y752703D01*
X9906152Y752195D01*
X9902494Y753008D01*
X9899446Y755142D01*
X9751568Y903020D01*
X9749332Y906322D01*
X9748570Y910183D01*
X9748570Y2539644D01*
X9747859Y2547366D01*
X9745726Y2554579D01*
X9742170Y2561285D01*
X9738766Y2565755D01*
X9549231Y2781096D01*
X9547199Y2784652D01*
X9546031Y2799588D01*
X9543592Y2808935D01*
X9539630Y2817723D01*
X9534245Y2825699D01*
X9527540Y2832709D01*
X9519818Y2838399D01*
X9511182Y2842768D01*
X9501987Y2845612D01*
X9492386Y2846832D01*
X9482734Y2846425D01*
X9473336Y2844393D01*
X9464395Y2840786D01*
X9456166Y2835706D01*
X9448901Y2829356D01*
X9442856Y2821838D01*
X9438182Y2813405D01*
X9434931Y2804312D01*
X9433306Y2794812D01*
X9433306Y2785160D01*
X9434931Y2775661D01*
X9438182Y2766568D01*
X9442856Y2758135D01*
X9448901Y2750667D01*
X9456166Y2744266D01*
X9464395Y2739186D01*
X9473336Y2735630D01*
X9488017Y2732532D01*
X9491268Y2730093D01*
X9668814Y2528316D01*
X9670694Y2525166D01*
X9671354Y2521610D01*
X9671354Y890473D01*
X9672167Y882497D01*
X9674352Y875233D01*
X9677908Y868578D01*
X9683038Y862330D01*
X9871354Y674014D01*
X9873538Y670712D01*
X9874300Y666851D01*
X9874300Y660704D01*
X9876129Y646277D01*
X9879736Y632206D01*
X9885121Y618642D01*
X9892131Y605891D01*
X9900666Y594106D01*
X9910622Y583539D01*
X9921849Y574243D01*
X9934143Y566420D01*
X9947300Y560222D01*
X9961168Y555752D01*
X9975443Y553008D01*
G37*
G36*
X8459978Y552094D02*
G01*
X8474506Y553008D01*
X8488781Y555752D01*
X8502650Y560222D01*
X8515807Y566420D01*
X8528100Y574243D01*
X8539327Y583539D01*
X8549284Y594106D01*
X8557818Y605891D01*
X8564829Y618642D01*
X8570214Y632206D01*
X8573820Y646277D01*
X8575649Y660704D01*
X8575649Y675284D01*
X8573820Y689711D01*
X8570214Y703783D01*
X8564829Y717346D01*
X8557818Y730097D01*
X8549284Y741883D01*
X8539327Y752500D01*
X8528100Y761746D01*
X8515807Y769569D01*
X8502650Y775766D01*
X8488781Y780237D01*
X8474506Y782980D01*
X8459978Y783894D01*
X8445449Y782980D01*
X8431174Y780237D01*
X8417306Y775766D01*
X8412632Y774496D01*
X8408568Y775157D01*
X8405164Y777443D01*
X8301532Y881024D01*
X8299348Y884326D01*
X8298586Y888237D01*
X8298484Y2532583D01*
X8297265Y2540050D01*
X8294573Y2547162D01*
X8290559Y2553563D01*
X8287156Y2557373D01*
X8285124Y2559304D01*
X8019796Y2789224D01*
X8017408Y2792323D01*
X8016341Y2796032D01*
X8016036Y2799588D01*
X8013598Y2808935D01*
X8009636Y2817723D01*
X8004251Y2825699D01*
X7997545Y2832709D01*
X7989824Y2838399D01*
X7981188Y2842768D01*
X7971942Y2845612D01*
X7962392Y2846832D01*
X7952740Y2846425D01*
X7943342Y2844393D01*
X7934401Y2840786D01*
X7926171Y2835706D01*
X7918907Y2829356D01*
X7912862Y2821838D01*
X7908137Y2813405D01*
X7904937Y2804312D01*
X7903311Y2794812D01*
X7903311Y2785160D01*
X7904937Y2775661D01*
X7908137Y2766568D01*
X7912862Y2758135D01*
X7918907Y2750667D01*
X7926171Y2744266D01*
X7934401Y2739186D01*
X7943342Y2735630D01*
X7952740Y2733598D01*
X7963255Y2733141D01*
X7966608Y2732430D01*
X7969503Y2730652D01*
X8217865Y2515412D01*
X8220456Y2511958D01*
X8221370Y2507742D01*
X8221370Y868527D01*
X8222132Y860501D01*
X8224367Y853236D01*
X8227923Y846582D01*
X8233003Y840384D01*
X8350656Y722731D01*
X8352840Y719480D01*
X8353653Y715619D01*
X8352942Y711809D01*
X8349742Y703783D01*
X8346135Y689711D01*
X8344306Y675284D01*
X8344306Y660704D01*
X8346135Y646277D01*
X8349742Y632206D01*
X8355126Y618642D01*
X8362137Y605891D01*
X8370671Y594106D01*
X8380628Y583539D01*
X8391855Y574243D01*
X8404148Y566420D01*
X8417306Y560222D01*
X8431174Y555752D01*
X8445449Y553008D01*
G37*
G36*
X9229953Y552094D02*
G01*
X9244482Y553008D01*
X9258808Y555752D01*
X9272625Y560222D01*
X9285782Y566420D01*
X9298076Y574243D01*
X9309303Y583539D01*
X9319260Y594106D01*
X9327845Y605891D01*
X9334855Y618642D01*
X9340189Y632206D01*
X9343796Y646277D01*
X9345625Y660704D01*
X9345625Y675284D01*
X9343796Y689711D01*
X9340189Y703783D01*
X9334855Y717346D01*
X9327845Y730097D01*
X9319260Y741883D01*
X9309303Y752500D01*
X9298076Y761746D01*
X9285782Y769569D01*
X9272625Y775766D01*
X9258808Y780237D01*
X9244482Y782980D01*
X9229953Y783894D01*
X9215475Y782980D01*
X9201150Y780237D01*
X9187332Y775766D01*
X9174378Y769670D01*
X9170416Y768705D01*
X9166352Y769416D01*
X9162897Y771702D01*
X9041536Y893013D01*
X9039352Y896315D01*
X9038590Y900176D01*
X9038590Y2539492D01*
X9037777Y2547518D01*
X9035592Y2554732D01*
X9032087Y2561386D01*
X9026347Y2568194D01*
X8789720Y2796082D01*
X8787587Y2799029D01*
X8786622Y2802534D01*
X8786012Y2809595D01*
X8783624Y2818942D01*
X8779611Y2827731D01*
X8774226Y2835706D01*
X8767572Y2842666D01*
X8759799Y2848406D01*
X8751163Y2852775D01*
X8741968Y2855569D01*
X8732418Y2856839D01*
X8722766Y2856382D01*
X8713317Y2854350D01*
X8704376Y2850794D01*
X8696147Y2845714D01*
X8688933Y2839364D01*
X8682888Y2831846D01*
X8678164Y2823413D01*
X8674963Y2814320D01*
X8673338Y2804820D01*
X8673338Y2795168D01*
X8674963Y2785668D01*
X8678164Y2776575D01*
X8682888Y2768142D01*
X8688933Y2760624D01*
X8696147Y2754274D01*
X8704376Y2749194D01*
X8713317Y2745638D01*
X8722766Y2743606D01*
X8729522Y2743301D01*
X8733078Y2742488D01*
X8736126Y2740456D01*
X8958275Y2526588D01*
X8960561Y2523236D01*
X8961374Y2519273D01*
X8961374Y880516D01*
X8962136Y872490D01*
X8964320Y865225D01*
X8967927Y858570D01*
X8973007Y852322D01*
X9116009Y709320D01*
X9118041Y706475D01*
X9118955Y703122D01*
X9118701Y699617D01*
X9116161Y689711D01*
X9114332Y675284D01*
X9114332Y660704D01*
X9116161Y646277D01*
X9119768Y632206D01*
X9125102Y618642D01*
X9132112Y605891D01*
X9140698Y594106D01*
X9150654Y583539D01*
X9161881Y574243D01*
X9174124Y566420D01*
X9187332Y560222D01*
X9201150Y555752D01*
X9215475Y553008D01*
G37*
G36*
X11539982Y562102D02*
G01*
X11554510Y563016D01*
X11568785Y565759D01*
X11582654Y570230D01*
X11595811Y576427D01*
X11608104Y584250D01*
X11619280Y593496D01*
X11629288Y604113D01*
X11637822Y615899D01*
X11644833Y628650D01*
X11650167Y642162D01*
X11653824Y656285D01*
X11655653Y670712D01*
X11655653Y685292D01*
X11653824Y699719D01*
X11650167Y713790D01*
X11644833Y727354D01*
X11637822Y740105D01*
X11629288Y751890D01*
X11619280Y762457D01*
X11608104Y771753D01*
X11595811Y779526D01*
X11582654Y785723D01*
X11568785Y790244D01*
X11554510Y792988D01*
X11539982Y793902D01*
X11525453Y792988D01*
X11511127Y790244D01*
X11497310Y785723D01*
X11484152Y779526D01*
X11471859Y771753D01*
X11460632Y762457D01*
X11458854Y760577D01*
X11455552Y758240D01*
X11451590Y757326D01*
X11447627Y758088D01*
X11444224Y760323D01*
X11281562Y923036D01*
X11279327Y926287D01*
X11278565Y930198D01*
X11278565Y2539898D01*
X11277498Y2548839D01*
X11275060Y2556002D01*
X11270996Y2562961D01*
X11118088Y2775407D01*
X11116513Y2778607D01*
X11116208Y2782214D01*
X11116868Y2789986D01*
X11116056Y2799588D01*
X11113617Y2808935D01*
X11109604Y2817723D01*
X11104219Y2825699D01*
X11097564Y2832709D01*
X11089792Y2838399D01*
X11081207Y2842768D01*
X11071961Y2845612D01*
X11062411Y2846832D01*
X11052759Y2846425D01*
X11043310Y2844393D01*
X11034369Y2840786D01*
X11026140Y2835706D01*
X11018926Y2829356D01*
X11012881Y2821838D01*
X11008156Y2813405D01*
X11004956Y2804312D01*
X11003330Y2794812D01*
X11003330Y2785160D01*
X11004956Y2775661D01*
X11008156Y2766568D01*
X11012881Y2758135D01*
X11018926Y2750667D01*
X11026140Y2744266D01*
X11034369Y2739186D01*
X11043310Y2735630D01*
X11049254Y2734360D01*
X11052657Y2732887D01*
X11055350Y2730347D01*
X11199469Y2530195D01*
X11200892Y2527401D01*
X11201349Y2524252D01*
X11201349Y910488D01*
X11202162Y902462D01*
X11204346Y895248D01*
X11207902Y888593D01*
X11213033Y882345D01*
X11421821Y673557D01*
X11423751Y670864D01*
X11424716Y667664D01*
X11426139Y656285D01*
X11429746Y642162D01*
X11435130Y628650D01*
X11442141Y615899D01*
X11450675Y604113D01*
X11460632Y593496D01*
X11471859Y584250D01*
X11484152Y576427D01*
X11497310Y570230D01*
X11511127Y565759D01*
X11525453Y563016D01*
G37*
G36*
X12329972Y562102D02*
G01*
X12344501Y563016D01*
X12358776Y565759D01*
X12372644Y570230D01*
X12385802Y576427D01*
X12398095Y584250D01*
X12409322Y593496D01*
X12419279Y604113D01*
X12427813Y615899D01*
X12434824Y628650D01*
X12440208Y642162D01*
X12443815Y656285D01*
X12445644Y670712D01*
X12445644Y685292D01*
X12443815Y699719D01*
X12440208Y713790D01*
X12434824Y727354D01*
X12427813Y740105D01*
X12419279Y751890D01*
X12409322Y762457D01*
X12398095Y771753D01*
X12385802Y779526D01*
X12372644Y785723D01*
X12358776Y790244D01*
X12344501Y792988D01*
X12329972Y793902D01*
X12315444Y792988D01*
X12301169Y790244D01*
X12287300Y785723D01*
X12274143Y779526D01*
X12261850Y771753D01*
X12258548Y769010D01*
X12255296Y767232D01*
X12251588Y766724D01*
X12247981Y767537D01*
X12244882Y769670D01*
X12061545Y953008D01*
X12059361Y956310D01*
X12058548Y960221D01*
X12058599Y2539898D01*
X12057532Y2548839D01*
X12055043Y2556002D01*
X12051030Y2562961D01*
X11898071Y2775407D01*
X11896496Y2778607D01*
X11896191Y2782214D01*
X11896852Y2789986D01*
X11896039Y2799588D01*
X11893600Y2808935D01*
X11889638Y2817723D01*
X11884202Y2825699D01*
X11877548Y2832709D01*
X11869775Y2838399D01*
X11861190Y2842768D01*
X11851944Y2845612D01*
X11842394Y2846832D01*
X11832742Y2846425D01*
X11823344Y2844393D01*
X11814352Y2840786D01*
X11806174Y2835706D01*
X11798909Y2829356D01*
X11792864Y2821838D01*
X11788140Y2813405D01*
X11784939Y2804312D01*
X11783314Y2794812D01*
X11783314Y2785160D01*
X11784939Y2775661D01*
X11788140Y2766568D01*
X11792864Y2758135D01*
X11798909Y2750667D01*
X11806174Y2744266D01*
X11814352Y2739186D01*
X11823344Y2735630D01*
X11829237Y2734360D01*
X11832691Y2732887D01*
X11835333Y2730347D01*
X11979452Y2530195D01*
X11980875Y2527401D01*
X11981383Y2524252D01*
X11981332Y940511D01*
X11982145Y932484D01*
X11984329Y925220D01*
X11987885Y918565D01*
X11993016Y912368D01*
X12211456Y693928D01*
X12213285Y691438D01*
X12214250Y688543D01*
X12214301Y670712D01*
X12216130Y656285D01*
X12219736Y642162D01*
X12225121Y628650D01*
X12232132Y615899D01*
X12240666Y604113D01*
X12250623Y593496D01*
X12261850Y584250D01*
X12274143Y576427D01*
X12287300Y570230D01*
X12301169Y565759D01*
X12315444Y563016D01*
G37*
G36*
X13089991Y572109D02*
G01*
X13104469Y573024D01*
X13118795Y575767D01*
X13132612Y580237D01*
X13145820Y586435D01*
X13158063Y594258D01*
X13169290Y603504D01*
X13179247Y614121D01*
X13187832Y625906D01*
X13194842Y638657D01*
X13200176Y652170D01*
X13203783Y666292D01*
X13205612Y680720D01*
X13205612Y695248D01*
X13203783Y709726D01*
X13200176Y723798D01*
X13194842Y737362D01*
X13187832Y750112D01*
X13179247Y761847D01*
X13169290Y772464D01*
X13158063Y781761D01*
X13145820Y789533D01*
X13132612Y795731D01*
X13118795Y800252D01*
X13104469Y802995D01*
X13089991Y803910D01*
X13075462Y802995D01*
X13061137Y800252D01*
X13047319Y795731D01*
X13034162Y789533D01*
X13021868Y781761D01*
X13018566Y779018D01*
X13015315Y777240D01*
X13011607Y776681D01*
X13007949Y777544D01*
X13004901Y779678D01*
X12861544Y923036D01*
X12859359Y926287D01*
X12858546Y930198D01*
X12858597Y2529789D01*
X12858394Y2533446D01*
X12857835Y2537561D01*
X12857022Y2540863D01*
X12855600Y2544826D01*
X12854178Y2547874D01*
X12852044Y2551480D01*
X12849860Y2554427D01*
X12668707Y2778709D01*
X12666929Y2782112D01*
X12666522Y2785973D01*
X12666827Y2789986D01*
X12666014Y2799588D01*
X12663576Y2808935D01*
X12659614Y2817723D01*
X12654229Y2825699D01*
X12647523Y2832709D01*
X12639802Y2838399D01*
X12631166Y2842768D01*
X12621971Y2845612D01*
X12612370Y2846832D01*
X12602768Y2846425D01*
X12593320Y2844393D01*
X12584379Y2840786D01*
X12576149Y2835706D01*
X12568936Y2829356D01*
X12562840Y2821838D01*
X12558166Y2813405D01*
X12554915Y2804312D01*
X12553289Y2794812D01*
X12553289Y2785160D01*
X12554915Y2775661D01*
X12558166Y2766568D01*
X12562840Y2758135D01*
X12568936Y2750667D01*
X12576149Y2744266D01*
X12584379Y2739186D01*
X12593320Y2735630D01*
X12603073Y2733497D01*
X12606274Y2732227D01*
X12608814Y2729992D01*
X12779095Y2519121D01*
X12780772Y2516124D01*
X12781381Y2512771D01*
X12781330Y910488D01*
X12782143Y902462D01*
X12784328Y895248D01*
X12787884Y888593D01*
X12793014Y882345D01*
X12971424Y703935D01*
X12973253Y701446D01*
X12974269Y698550D01*
X12974320Y680720D01*
X12976148Y666292D01*
X12979755Y652170D01*
X12985089Y638657D01*
X12992100Y625906D01*
X13000685Y614121D01*
X13010642Y603504D01*
X13021868Y594258D01*
X13034162Y586435D01*
X13047319Y580237D01*
X13061137Y575767D01*
X13075462Y573024D01*
G37*
G36*
X10759998Y1568094D02*
G01*
X10774476Y1569008D01*
X10788802Y1571752D01*
X10802620Y1576222D01*
X10815828Y1582420D01*
X10828070Y1590243D01*
X10839297Y1599539D01*
X10849254Y1610106D01*
X10857839Y1621891D01*
X10864850Y1634642D01*
X10870184Y1648206D01*
X10873790Y1662277D01*
X10875619Y1676704D01*
X10875619Y1691284D01*
X10873790Y1705711D01*
X10870184Y1719783D01*
X10864850Y1733346D01*
X10857839Y1746097D01*
X10849254Y1757883D01*
X10839297Y1768500D01*
X10828070Y1777746D01*
X10815828Y1785569D01*
X10802620Y1791766D01*
X10788802Y1796237D01*
X10774476Y1798980D01*
X10759998Y1799894D01*
X10745470Y1798980D01*
X10731144Y1796237D01*
X10717326Y1791766D01*
X10704118Y1785569D01*
X10691876Y1777746D01*
X10680649Y1768500D01*
X10670692Y1757883D01*
X10662107Y1746097D01*
X10655096Y1733346D01*
X10649762Y1719783D01*
X10646156Y1705711D01*
X10644327Y1691284D01*
X10644327Y1676704D01*
X10646156Y1662277D01*
X10649762Y1648206D01*
X10655096Y1634642D01*
X10662107Y1621891D01*
X10670692Y1610106D01*
X10680649Y1599539D01*
X10691876Y1590243D01*
X10704118Y1582420D01*
X10717326Y1576222D01*
X10731144Y1571752D01*
X10745470Y1569008D01*
G37*
G36*
X9989972Y1568094D02*
G01*
X10004501Y1569008D01*
X10018776Y1571752D01*
X10032644Y1576222D01*
X10045801Y1582420D01*
X10058095Y1590243D01*
X10069322Y1599539D01*
X10079278Y1610106D01*
X10087813Y1621891D01*
X10094823Y1634642D01*
X10100208Y1648206D01*
X10103815Y1662277D01*
X10105644Y1676704D01*
X10105644Y1691284D01*
X10103815Y1705711D01*
X10100208Y1719783D01*
X10094823Y1733346D01*
X10087813Y1746097D01*
X10079278Y1757883D01*
X10069322Y1768500D01*
X10058095Y1777746D01*
X10045801Y1785569D01*
X10032644Y1791766D01*
X10018776Y1796237D01*
X10004501Y1798980D01*
X9989972Y1799894D01*
X9975443Y1798980D01*
X9961168Y1796237D01*
X9947300Y1791766D01*
X9934143Y1785569D01*
X9921849Y1777746D01*
X9910622Y1768500D01*
X9900666Y1757883D01*
X9892131Y1746097D01*
X9885121Y1733346D01*
X9879736Y1719783D01*
X9876129Y1705711D01*
X9874300Y1691284D01*
X9874300Y1676704D01*
X9876129Y1662277D01*
X9879736Y1648206D01*
X9885121Y1634642D01*
X9892131Y1621891D01*
X9900666Y1610106D01*
X9910622Y1599539D01*
X9921849Y1590243D01*
X9934143Y1582420D01*
X9947300Y1576222D01*
X9961168Y1571752D01*
X9975443Y1569008D01*
G37*
G36*
X7709966Y1568094D02*
G01*
X7724495Y1569008D01*
X7738821Y1571752D01*
X7752638Y1576222D01*
X7765796Y1582420D01*
X7778089Y1590243D01*
X7789316Y1599539D01*
X7799273Y1610106D01*
X7807807Y1621891D01*
X7814818Y1634642D01*
X7820202Y1648206D01*
X7823809Y1662277D01*
X7825638Y1676704D01*
X7825638Y1691284D01*
X7823809Y1705711D01*
X7820202Y1719783D01*
X7814818Y1733346D01*
X7807807Y1746097D01*
X7799273Y1757883D01*
X7789316Y1768500D01*
X7778089Y1777746D01*
X7765796Y1785569D01*
X7752638Y1791766D01*
X7738821Y1796237D01*
X7724495Y1798980D01*
X7709966Y1799894D01*
X7695438Y1798980D01*
X7681163Y1796237D01*
X7667294Y1791766D01*
X7654137Y1785569D01*
X7641844Y1777746D01*
X7630668Y1768500D01*
X7620711Y1757883D01*
X7612125Y1746097D01*
X7605115Y1733346D01*
X7599781Y1719783D01*
X7596124Y1705711D01*
X7594295Y1691284D01*
X7594295Y1676704D01*
X7596124Y1662277D01*
X7599781Y1648206D01*
X7605115Y1634642D01*
X7612125Y1621891D01*
X7620711Y1610106D01*
X7630668Y1599539D01*
X7641844Y1590243D01*
X7654137Y1582420D01*
X7667294Y1576222D01*
X7681163Y1571752D01*
X7695438Y1569008D01*
G37*
G36*
X9229953Y1568094D02*
G01*
X9244482Y1569008D01*
X9258808Y1571752D01*
X9272625Y1576222D01*
X9285782Y1582420D01*
X9298076Y1590243D01*
X9309303Y1599539D01*
X9319260Y1610106D01*
X9327845Y1621891D01*
X9334855Y1634642D01*
X9340189Y1648206D01*
X9343796Y1662277D01*
X9345625Y1676704D01*
X9345625Y1691284D01*
X9343796Y1705711D01*
X9340189Y1719783D01*
X9334855Y1733346D01*
X9327845Y1746097D01*
X9319260Y1757883D01*
X9309303Y1768500D01*
X9298076Y1777746D01*
X9285782Y1785569D01*
X9272625Y1791766D01*
X9258808Y1796237D01*
X9244482Y1798980D01*
X9229953Y1799894D01*
X9215475Y1798980D01*
X9201150Y1796237D01*
X9187332Y1791766D01*
X9174124Y1785569D01*
X9161881Y1777746D01*
X9150654Y1768500D01*
X9140698Y1757883D01*
X9132112Y1746097D01*
X9125102Y1733346D01*
X9119768Y1719783D01*
X9116161Y1705711D01*
X9114332Y1691284D01*
X9114332Y1676704D01*
X9116161Y1662277D01*
X9119768Y1648206D01*
X9125102Y1634642D01*
X9132112Y1621891D01*
X9140698Y1610106D01*
X9150654Y1599539D01*
X9161881Y1590243D01*
X9174124Y1582420D01*
X9187332Y1576222D01*
X9201150Y1571752D01*
X9215475Y1569008D01*
G37*
G36*
X8459978Y1568094D02*
G01*
X8474506Y1569008D01*
X8488781Y1571752D01*
X8502650Y1576222D01*
X8515807Y1582420D01*
X8528100Y1590243D01*
X8539327Y1599539D01*
X8549284Y1610106D01*
X8557818Y1621891D01*
X8564829Y1634642D01*
X8570214Y1648206D01*
X8573820Y1662277D01*
X8575649Y1676704D01*
X8575649Y1691284D01*
X8573820Y1705711D01*
X8570214Y1719783D01*
X8564829Y1733346D01*
X8557818Y1746097D01*
X8549284Y1757883D01*
X8539327Y1768500D01*
X8528100Y1777746D01*
X8515807Y1785569D01*
X8502650Y1791766D01*
X8488781Y1796237D01*
X8474506Y1798980D01*
X8459978Y1799894D01*
X8445449Y1798980D01*
X8431174Y1796237D01*
X8417306Y1791766D01*
X8404148Y1785569D01*
X8391855Y1777746D01*
X8380628Y1768500D01*
X8370671Y1757883D01*
X8362137Y1746097D01*
X8355126Y1733346D01*
X8349742Y1719783D01*
X8346135Y1705711D01*
X8344306Y1691284D01*
X8344306Y1676704D01*
X8346135Y1662277D01*
X8349742Y1648206D01*
X8355126Y1634642D01*
X8362137Y1621891D01*
X8370671Y1610106D01*
X8380628Y1599539D01*
X8391855Y1590243D01*
X8404148Y1582420D01*
X8417306Y1576222D01*
X8431174Y1571752D01*
X8445449Y1569008D01*
G37*
G36*
X11539982Y1578102D02*
G01*
X11554510Y1579016D01*
X11568785Y1581759D01*
X11582654Y1586230D01*
X11595811Y1592427D01*
X11608104Y1600250D01*
X11619280Y1609496D01*
X11629288Y1620113D01*
X11637822Y1631899D01*
X11644833Y1644650D01*
X11650167Y1658162D01*
X11653824Y1672285D01*
X11655653Y1686712D01*
X11655653Y1701292D01*
X11653824Y1715719D01*
X11650167Y1729790D01*
X11644833Y1743354D01*
X11637822Y1756105D01*
X11629288Y1767890D01*
X11619280Y1778457D01*
X11608104Y1787753D01*
X11595811Y1795525D01*
X11582654Y1801723D01*
X11568785Y1806244D01*
X11554510Y1808988D01*
X11539982Y1809902D01*
X11525453Y1808988D01*
X11511127Y1806244D01*
X11497310Y1801723D01*
X11484152Y1795525D01*
X11471859Y1787753D01*
X11460632Y1778457D01*
X11450675Y1767890D01*
X11442141Y1756105D01*
X11435130Y1743354D01*
X11429746Y1729790D01*
X11426139Y1715719D01*
X11424310Y1701292D01*
X11424310Y1686712D01*
X11426139Y1672285D01*
X11429746Y1658162D01*
X11435130Y1644650D01*
X11442141Y1631899D01*
X11450675Y1620113D01*
X11460632Y1609496D01*
X11471859Y1600250D01*
X11484152Y1592427D01*
X11497310Y1586230D01*
X11511127Y1581759D01*
X11525453Y1579016D01*
G37*
G36*
X12329972Y1578102D02*
G01*
X12344501Y1579016D01*
X12358776Y1581759D01*
X12372644Y1586230D01*
X12385802Y1592427D01*
X12398095Y1600250D01*
X12409322Y1609496D01*
X12419279Y1620113D01*
X12427813Y1631899D01*
X12434824Y1644650D01*
X12440208Y1658162D01*
X12443815Y1672285D01*
X12445644Y1686712D01*
X12445644Y1701292D01*
X12443815Y1715719D01*
X12440208Y1729790D01*
X12434824Y1743354D01*
X12427813Y1756105D01*
X12419279Y1767890D01*
X12409322Y1778457D01*
X12398095Y1787753D01*
X12385802Y1795525D01*
X12372644Y1801723D01*
X12358776Y1806244D01*
X12344501Y1808988D01*
X12329972Y1809902D01*
X12315444Y1808988D01*
X12301169Y1806244D01*
X12287300Y1801723D01*
X12274143Y1795525D01*
X12261850Y1787753D01*
X12250623Y1778457D01*
X12240666Y1767890D01*
X12232132Y1756105D01*
X12225121Y1743354D01*
X12219736Y1729790D01*
X12216130Y1715719D01*
X12214301Y1701292D01*
X12214301Y1686712D01*
X12216130Y1672285D01*
X12219736Y1658162D01*
X12225121Y1644650D01*
X12232132Y1631899D01*
X12240666Y1620113D01*
X12250623Y1609496D01*
X12261850Y1600250D01*
X12274143Y1592427D01*
X12287300Y1586230D01*
X12301169Y1581759D01*
X12315444Y1579016D01*
G37*
G36*
X13089991Y1588109D02*
G01*
X13104469Y1589024D01*
X13118795Y1591767D01*
X13132612Y1596237D01*
X13145820Y1602435D01*
X13158063Y1610258D01*
X13169290Y1619504D01*
X13179247Y1630121D01*
X13187832Y1641906D01*
X13194842Y1654657D01*
X13200176Y1668170D01*
X13203783Y1682292D01*
X13205612Y1696720D01*
X13205612Y1711248D01*
X13203783Y1725726D01*
X13200176Y1739798D01*
X13194842Y1753362D01*
X13187832Y1766112D01*
X13179247Y1777847D01*
X13169290Y1788464D01*
X13158063Y1797761D01*
X13145820Y1805533D01*
X13132612Y1811731D01*
X13118795Y1816252D01*
X13104469Y1818995D01*
X13089991Y1819910D01*
X13075462Y1818995D01*
X13061137Y1816252D01*
X13047319Y1811731D01*
X13034162Y1805533D01*
X13021868Y1797761D01*
X13010642Y1788464D01*
X13000685Y1777847D01*
X12992100Y1766112D01*
X12985089Y1753362D01*
X12979755Y1739798D01*
X12976148Y1725726D01*
X12974320Y1711248D01*
X12974320Y1696720D01*
X12976148Y1682292D01*
X12979755Y1668170D01*
X12985089Y1654657D01*
X12992100Y1641906D01*
X13000685Y1630121D01*
X13010642Y1619504D01*
X13021868Y1610258D01*
X13034162Y1602435D01*
X13047319Y1596237D01*
X13061137Y1591767D01*
X13075462Y1589024D01*
G37*
G36*
X7709966Y2330094D02*
G01*
X7724495Y2331008D01*
X7738821Y2333752D01*
X7752638Y2338222D01*
X7765796Y2344420D01*
X7778089Y2352243D01*
X7789316Y2361539D01*
X7799273Y2372106D01*
X7807807Y2383891D01*
X7814818Y2396642D01*
X7820202Y2410206D01*
X7823809Y2424277D01*
X7825638Y2438704D01*
X7825638Y2453284D01*
X7823809Y2467711D01*
X7820202Y2481783D01*
X7814818Y2495346D01*
X7807807Y2508097D01*
X7799273Y2519883D01*
X7789316Y2530500D01*
X7778089Y2539746D01*
X7765796Y2547569D01*
X7752638Y2553766D01*
X7738821Y2558237D01*
X7724495Y2560980D01*
X7709966Y2561894D01*
X7695438Y2560980D01*
X7681163Y2558237D01*
X7667294Y2553766D01*
X7654137Y2547569D01*
X7641844Y2539746D01*
X7630668Y2530500D01*
X7620711Y2519883D01*
X7612125Y2508097D01*
X7605115Y2495346D01*
X7599781Y2481783D01*
X7596124Y2467711D01*
X7594295Y2453284D01*
X7594295Y2438704D01*
X7596124Y2424277D01*
X7599781Y2410206D01*
X7605115Y2396642D01*
X7612125Y2383891D01*
X7620711Y2372106D01*
X7630668Y2361539D01*
X7641844Y2352243D01*
X7654137Y2344420D01*
X7667294Y2338222D01*
X7681163Y2333752D01*
X7695438Y2331008D01*
G37*
G36*
X9229953Y2330094D02*
G01*
X9244482Y2331008D01*
X9258808Y2333752D01*
X9272625Y2338222D01*
X9285782Y2344420D01*
X9298076Y2352243D01*
X9309303Y2361539D01*
X9319260Y2372106D01*
X9327845Y2383891D01*
X9334855Y2396642D01*
X9340189Y2410206D01*
X9343796Y2424277D01*
X9345625Y2438704D01*
X9345625Y2453284D01*
X9343796Y2467711D01*
X9340189Y2481783D01*
X9334855Y2495346D01*
X9327845Y2508097D01*
X9319260Y2519883D01*
X9309303Y2530500D01*
X9298076Y2539746D01*
X9285782Y2547569D01*
X9272625Y2553766D01*
X9258808Y2558237D01*
X9244482Y2560980D01*
X9229953Y2561894D01*
X9215475Y2560980D01*
X9201150Y2558237D01*
X9187332Y2553766D01*
X9174124Y2547569D01*
X9161881Y2539746D01*
X9150654Y2530500D01*
X9140698Y2519883D01*
X9132112Y2508097D01*
X9125102Y2495346D01*
X9119768Y2481783D01*
X9116161Y2467711D01*
X9114332Y2453284D01*
X9114332Y2438704D01*
X9116161Y2424277D01*
X9119768Y2410206D01*
X9125102Y2396642D01*
X9132112Y2383891D01*
X9140698Y2372106D01*
X9150654Y2361539D01*
X9161881Y2352243D01*
X9174124Y2344420D01*
X9187332Y2338222D01*
X9201150Y2333752D01*
X9215475Y2331008D01*
G37*
G36*
X8459978Y2330094D02*
G01*
X8474506Y2331008D01*
X8488781Y2333752D01*
X8502650Y2338222D01*
X8515807Y2344420D01*
X8528100Y2352243D01*
X8539327Y2361539D01*
X8549284Y2372106D01*
X8557818Y2383891D01*
X8564829Y2396642D01*
X8570214Y2410206D01*
X8573820Y2424277D01*
X8575649Y2438704D01*
X8575649Y2453284D01*
X8573820Y2467711D01*
X8570214Y2481783D01*
X8564829Y2495346D01*
X8557818Y2508097D01*
X8549284Y2519883D01*
X8539327Y2530500D01*
X8528100Y2539746D01*
X8515807Y2547569D01*
X8502650Y2553766D01*
X8488781Y2558237D01*
X8474506Y2560980D01*
X8459978Y2561894D01*
X8445449Y2560980D01*
X8431174Y2558237D01*
X8417306Y2553766D01*
X8404148Y2547569D01*
X8391855Y2539746D01*
X8380628Y2530500D01*
X8370671Y2519883D01*
X8362137Y2508097D01*
X8355126Y2495346D01*
X8349742Y2481783D01*
X8346135Y2467711D01*
X8344306Y2453284D01*
X8344306Y2438704D01*
X8346135Y2424277D01*
X8349742Y2410206D01*
X8355126Y2396642D01*
X8362137Y2383891D01*
X8370671Y2372106D01*
X8380628Y2361539D01*
X8391855Y2352243D01*
X8404148Y2344420D01*
X8417306Y2338222D01*
X8431174Y2333752D01*
X8445449Y2331008D01*
G37*
G36*
X9989972Y2330094D02*
G01*
X10004501Y2331008D01*
X10018776Y2333752D01*
X10032644Y2338222D01*
X10045801Y2344420D01*
X10058095Y2352243D01*
X10069322Y2361539D01*
X10079278Y2372106D01*
X10087813Y2383891D01*
X10094823Y2396642D01*
X10100208Y2410206D01*
X10103815Y2424277D01*
X10105644Y2438704D01*
X10105644Y2453284D01*
X10103815Y2467711D01*
X10100208Y2481783D01*
X10094823Y2495346D01*
X10087813Y2508097D01*
X10079278Y2519883D01*
X10069322Y2530500D01*
X10058095Y2539746D01*
X10045801Y2547569D01*
X10032644Y2553766D01*
X10018776Y2558237D01*
X10004501Y2560980D01*
X9989972Y2561894D01*
X9975443Y2560980D01*
X9961168Y2558237D01*
X9947300Y2553766D01*
X9934143Y2547569D01*
X9921849Y2539746D01*
X9910622Y2530500D01*
X9900666Y2519883D01*
X9892131Y2508097D01*
X9885121Y2495346D01*
X9879736Y2481783D01*
X9876129Y2467711D01*
X9874300Y2453284D01*
X9874300Y2438704D01*
X9876129Y2424277D01*
X9879736Y2410206D01*
X9885121Y2396642D01*
X9892131Y2383891D01*
X9900666Y2372106D01*
X9910622Y2361539D01*
X9921849Y2352243D01*
X9934143Y2344420D01*
X9947300Y2338222D01*
X9961168Y2333752D01*
X9975443Y2331008D01*
G37*
G36*
X10759998Y2330094D02*
G01*
X10774476Y2331008D01*
X10788802Y2333752D01*
X10802620Y2338222D01*
X10815828Y2344420D01*
X10828070Y2352243D01*
X10839297Y2361539D01*
X10849254Y2372106D01*
X10857839Y2383891D01*
X10864850Y2396642D01*
X10870184Y2410206D01*
X10873790Y2424277D01*
X10875619Y2438704D01*
X10875619Y2453284D01*
X10873790Y2467711D01*
X10870184Y2481783D01*
X10864850Y2495346D01*
X10857839Y2508097D01*
X10849254Y2519883D01*
X10839297Y2530500D01*
X10828070Y2539746D01*
X10815828Y2547569D01*
X10802620Y2553766D01*
X10788802Y2558237D01*
X10774476Y2560980D01*
X10759998Y2561894D01*
X10745470Y2560980D01*
X10731144Y2558237D01*
X10717326Y2553766D01*
X10704118Y2547569D01*
X10691876Y2539746D01*
X10680649Y2530500D01*
X10670692Y2519883D01*
X10662107Y2508097D01*
X10655096Y2495346D01*
X10649762Y2481783D01*
X10646156Y2467711D01*
X10644327Y2453284D01*
X10644327Y2438704D01*
X10646156Y2424277D01*
X10649762Y2410206D01*
X10655096Y2396642D01*
X10662107Y2383891D01*
X10670692Y2372106D01*
X10680649Y2361539D01*
X10691876Y2352243D01*
X10704118Y2344420D01*
X10717326Y2338222D01*
X10731144Y2333752D01*
X10745470Y2331008D01*
G37*
G36*
X11539982Y2340102D02*
G01*
X11554510Y2341016D01*
X11568785Y2343759D01*
X11582654Y2348230D01*
X11595811Y2354427D01*
X11608104Y2362250D01*
X11619280Y2371496D01*
X11629288Y2382113D01*
X11637822Y2393899D01*
X11644833Y2406650D01*
X11650167Y2420162D01*
X11653824Y2434285D01*
X11655653Y2448712D01*
X11655653Y2463292D01*
X11653824Y2477719D01*
X11650167Y2491790D01*
X11644833Y2505354D01*
X11637822Y2518105D01*
X11629288Y2529890D01*
X11619280Y2540457D01*
X11608104Y2549753D01*
X11595811Y2557526D01*
X11582654Y2563723D01*
X11568785Y2568244D01*
X11554510Y2570988D01*
X11539982Y2571902D01*
X11525453Y2570988D01*
X11511127Y2568244D01*
X11497310Y2563723D01*
X11484152Y2557526D01*
X11471859Y2549753D01*
X11460632Y2540457D01*
X11450675Y2529890D01*
X11442141Y2518105D01*
X11435130Y2505354D01*
X11429746Y2491790D01*
X11426139Y2477719D01*
X11424310Y2463292D01*
X11424310Y2448712D01*
X11426139Y2434285D01*
X11429746Y2420162D01*
X11435130Y2406650D01*
X11442141Y2393899D01*
X11450675Y2382113D01*
X11460632Y2371496D01*
X11471859Y2362250D01*
X11484152Y2354427D01*
X11497310Y2348230D01*
X11511127Y2343759D01*
X11525453Y2341016D01*
G37*
G36*
X12329972Y2340102D02*
G01*
X12344501Y2341016D01*
X12358776Y2343759D01*
X12372644Y2348230D01*
X12385802Y2354427D01*
X12398095Y2362250D01*
X12409322Y2371496D01*
X12419279Y2382113D01*
X12427813Y2393899D01*
X12434824Y2406650D01*
X12440208Y2420162D01*
X12443815Y2434285D01*
X12445644Y2448712D01*
X12445644Y2463292D01*
X12443815Y2477719D01*
X12440208Y2491790D01*
X12434824Y2505354D01*
X12427813Y2518105D01*
X12419279Y2529890D01*
X12409322Y2540457D01*
X12398095Y2549753D01*
X12385802Y2557526D01*
X12372644Y2563723D01*
X12358776Y2568244D01*
X12344501Y2570988D01*
X12329972Y2571902D01*
X12315444Y2570988D01*
X12301169Y2568244D01*
X12287300Y2563723D01*
X12274143Y2557526D01*
X12261850Y2549753D01*
X12250623Y2540457D01*
X12240666Y2529890D01*
X12232132Y2518105D01*
X12225121Y2505354D01*
X12219736Y2491790D01*
X12216130Y2477719D01*
X12214301Y2463292D01*
X12214301Y2448712D01*
X12216130Y2434285D01*
X12219736Y2420162D01*
X12225121Y2406650D01*
X12232132Y2393899D01*
X12240666Y2382113D01*
X12250623Y2371496D01*
X12261850Y2362250D01*
X12274143Y2354427D01*
X12287300Y2348230D01*
X12301169Y2343759D01*
X12315444Y2341016D01*
G37*
G36*
X13089991Y2350109D02*
G01*
X13104469Y2351024D01*
X13118795Y2353767D01*
X13132612Y2358237D01*
X13145820Y2364435D01*
X13158063Y2372258D01*
X13169290Y2381504D01*
X13179247Y2392121D01*
X13187832Y2403906D01*
X13194842Y2416657D01*
X13200176Y2430170D01*
X13203783Y2444292D01*
X13205612Y2458720D01*
X13205612Y2473248D01*
X13203783Y2487726D01*
X13200176Y2501798D01*
X13194842Y2515362D01*
X13187832Y2528112D01*
X13179247Y2539847D01*
X13169290Y2550464D01*
X13158063Y2559761D01*
X13145820Y2567533D01*
X13132612Y2573731D01*
X13118795Y2578252D01*
X13104469Y2580995D01*
X13089991Y2581910D01*
X13075462Y2580995D01*
X13061137Y2578252D01*
X13047319Y2573731D01*
X13034162Y2567533D01*
X13021868Y2559761D01*
X13010642Y2550464D01*
X13000685Y2539847D01*
X12992100Y2528112D01*
X12985089Y2515362D01*
X12979755Y2501798D01*
X12976148Y2487726D01*
X12974320Y2473248D01*
X12974320Y2458720D01*
X12976148Y2444292D01*
X12979755Y2430170D01*
X12985089Y2416657D01*
X12992100Y2403906D01*
X13000685Y2392121D01*
X13010642Y2381504D01*
X13021868Y2372258D01*
X13034162Y2364435D01*
X13047319Y2358237D01*
X13061137Y2353767D01*
X13075462Y2351024D01*
G37*
G36*
X8985961Y2861614D02*
G01*
X9000134Y2862529D01*
X9014002Y2865323D01*
X9027464Y2869844D01*
X9040164Y2876143D01*
X9051950Y2884017D01*
X9062618Y2893364D01*
X9071965Y2904032D01*
X9079839Y2915818D01*
X9086088Y2928518D01*
X9090660Y2941929D01*
X9093454Y2955848D01*
X9094368Y2969971D01*
X9093454Y2984144D01*
X9090660Y2998063D01*
X9087104Y3008528D01*
X9086596Y3012236D01*
X9087408Y3015843D01*
X9089542Y3018942D01*
X9488982Y3418433D01*
X9492284Y3420618D01*
X9496196Y3421379D01*
X10110165Y3421379D01*
X10114534Y3420414D01*
X10118039Y3417671D01*
X10120020Y3413709D01*
X10120122Y3409238D01*
X10118344Y3405174D01*
X10108336Y3396945D01*
X9784943Y3073552D01*
X9781895Y3071469D01*
X9778238Y3070606D01*
X9774529Y3071114D01*
X9764014Y3074670D01*
X9750094Y3077464D01*
X9735972Y3078378D01*
X9721799Y3077464D01*
X9707930Y3074670D01*
X9694468Y3070148D01*
X9681768Y3063849D01*
X9669983Y3055975D01*
X9659315Y3046628D01*
X9649968Y3035960D01*
X9642094Y3024174D01*
X9635845Y3011474D01*
X9631273Y2998063D01*
X9628530Y2984144D01*
X9627565Y2969971D01*
X9628530Y2955848D01*
X9631273Y2941929D01*
X9635845Y2928518D01*
X9642094Y2915818D01*
X9649968Y2904032D01*
X9659315Y2893364D01*
X9669983Y2884017D01*
X9681768Y2876143D01*
X9694468Y2869844D01*
X9707930Y2865323D01*
X9721799Y2862529D01*
X9735972Y2861614D01*
X9750094Y2862529D01*
X9764014Y2865323D01*
X9777425Y2869844D01*
X9790176Y2876143D01*
X9801961Y2884017D01*
X9812629Y2893364D01*
X9821976Y2904032D01*
X9829850Y2915818D01*
X9836099Y2928518D01*
X9840671Y2941929D01*
X9843414Y2955848D01*
X9844379Y2969971D01*
X9843414Y2984144D01*
X9840671Y2998063D01*
X9837115Y3008477D01*
X9836607Y3012186D01*
X9837420Y3015843D01*
X9839553Y3018942D01*
X10149027Y3328415D01*
X10152329Y3330600D01*
X10156190Y3331362D01*
X10808208Y3331362D01*
X10812119Y3330600D01*
X10815421Y3328415D01*
X10817606Y3325114D01*
X10818368Y3321202D01*
X10817606Y3317341D01*
X10815421Y3314039D01*
X10574934Y3073552D01*
X10571835Y3071469D01*
X10568178Y3070606D01*
X10564469Y3071114D01*
X10554004Y3074670D01*
X10540136Y3077464D01*
X10525963Y3078378D01*
X10511840Y3077464D01*
X10497921Y3074670D01*
X10484510Y3070148D01*
X10471759Y3063849D01*
X10459974Y3055975D01*
X10449306Y3046628D01*
X10439958Y3035960D01*
X10432084Y3024174D01*
X10425836Y3011474D01*
X10421264Y2998063D01*
X10418521Y2984144D01*
X10417606Y2969971D01*
X10418521Y2955848D01*
X10421264Y2941929D01*
X10425836Y2928518D01*
X10432084Y2915818D01*
X10439958Y2904032D01*
X10449306Y2893364D01*
X10459974Y2884017D01*
X10471759Y2876143D01*
X10484510Y2869844D01*
X10497921Y2865323D01*
X10511840Y2862529D01*
X10525963Y2861614D01*
X10540136Y2862529D01*
X10554004Y2865323D01*
X10567466Y2869844D01*
X10580166Y2876143D01*
X10591952Y2884017D01*
X10602620Y2893364D01*
X10611967Y2904032D01*
X10619841Y2915818D01*
X10626090Y2928518D01*
X10630662Y2941929D01*
X10633405Y2955848D01*
X10634370Y2969971D01*
X10633405Y2984144D01*
X10630662Y2998063D01*
X10627106Y3008528D01*
X10626598Y3012236D01*
X10627410Y3015894D01*
X10629544Y3018993D01*
X10858957Y3248406D01*
X10862259Y3250590D01*
X10866170Y3251403D01*
X11478260Y3251403D01*
X11482120Y3250590D01*
X11485422Y3248406D01*
X11487607Y3245104D01*
X11488420Y3241243D01*
X11487607Y3237331D01*
X11485422Y3234029D01*
X11324945Y3073552D01*
X11321846Y3071469D01*
X11318189Y3070606D01*
X11314480Y3071114D01*
X11304016Y3074670D01*
X11290147Y3077464D01*
X11275974Y3078378D01*
X11261852Y3077464D01*
X11247932Y3074670D01*
X11234521Y3070148D01*
X11221770Y3063849D01*
X11209985Y3055975D01*
X11199317Y3046628D01*
X11189970Y3035960D01*
X11182096Y3024174D01*
X11175847Y3011474D01*
X11171275Y2998063D01*
X11168532Y2984144D01*
X11167567Y2969971D01*
X11168532Y2955848D01*
X11171275Y2941929D01*
X11175847Y2928518D01*
X11182096Y2915818D01*
X11189970Y2904032D01*
X11199317Y2893364D01*
X11209985Y2884017D01*
X11221770Y2876143D01*
X11234521Y2869844D01*
X11247932Y2865323D01*
X11261852Y2862529D01*
X11275974Y2861614D01*
X11290147Y2862529D01*
X11304016Y2865323D01*
X11317478Y2869844D01*
X11330178Y2876143D01*
X11341963Y2884017D01*
X11352631Y2893364D01*
X11361978Y2904032D01*
X11369852Y2915818D01*
X11376101Y2928518D01*
X11380673Y2941929D01*
X11383416Y2955848D01*
X11384381Y2969971D01*
X11383416Y2984144D01*
X11380673Y2998063D01*
X11377117Y3008528D01*
X11376558Y3012236D01*
X11377422Y3015894D01*
X11379555Y3018993D01*
X11529009Y3168396D01*
X11532260Y3170631D01*
X11536172Y3171393D01*
X12159488Y3171393D01*
X12167514Y3172155D01*
X12174728Y3174390D01*
X12180925Y3177692D01*
X12184837Y3178860D01*
X12188952Y3178352D01*
X12192457Y3176270D01*
X12194946Y3173018D01*
X12195860Y3169005D01*
X12195149Y3164941D01*
X12192914Y3161538D01*
X12114936Y3083560D01*
X12111837Y3081477D01*
X12108180Y3080613D01*
X12104471Y3081121D01*
X12094006Y3084677D01*
X12080087Y3087471D01*
X12065965Y3088386D01*
X12051842Y3087471D01*
X12037923Y3084677D01*
X12024512Y3080105D01*
X12011761Y3073857D01*
X11999976Y3065983D01*
X11989308Y3056636D01*
X11979960Y3045968D01*
X11972086Y3034182D01*
X11965838Y3021482D01*
X11961266Y3008071D01*
X11958523Y2994152D01*
X11957558Y2979978D01*
X11958523Y2965856D01*
X11961266Y2951937D01*
X11965838Y2938526D01*
X11972086Y2925826D01*
X11979960Y2913989D01*
X11989308Y2903372D01*
X11999976Y2894025D01*
X12011761Y2886151D01*
X12024512Y2879852D01*
X12037923Y2875280D01*
X12051842Y2872536D01*
X12065965Y2871622D01*
X12080087Y2872536D01*
X12094006Y2875280D01*
X12107418Y2879852D01*
X12120168Y2886151D01*
X12131954Y2894025D01*
X12142622Y2903372D01*
X12151969Y2913989D01*
X12159843Y2925826D01*
X12166092Y2938526D01*
X12170664Y2951937D01*
X12173407Y2965856D01*
X12174372Y2979978D01*
X12173407Y2994152D01*
X12170664Y3008071D01*
X12167108Y3018536D01*
X12166549Y3022244D01*
X12167412Y3025902D01*
X12169546Y3029000D01*
X12388951Y3248406D01*
X12392253Y3250590D01*
X12396165Y3251403D01*
X12987477Y3251403D01*
X12995503Y3252165D01*
X13002717Y3254349D01*
X13009371Y3257956D01*
X13015620Y3263036D01*
X13700048Y3947464D01*
X13703147Y3949598D01*
X13706856Y3950411D01*
X13710615Y3949852D01*
X13725194Y3944721D01*
X13739571Y3941521D01*
X13754303Y3940200D01*
X13769035Y3940657D01*
X13783614Y3942892D01*
X13797788Y3946956D01*
X13811402Y3952697D01*
X13824204Y3960063D01*
X13835938Y3968953D01*
X13846556Y3979214D01*
X13855801Y3990746D01*
X13863574Y4003294D01*
X13869771Y4016705D01*
X13874242Y4030776D01*
X13876934Y4045254D01*
X13877848Y4059986D01*
X13876934Y4074718D01*
X13874242Y4089247D01*
X13869771Y4103268D01*
X13863574Y4116679D01*
X13855801Y4129227D01*
X13846556Y4140758D01*
X13835938Y4151020D01*
X13824204Y4159910D01*
X13811402Y4167276D01*
X13797788Y4173067D01*
X13783614Y4177080D01*
X13769035Y4179366D01*
X13754303Y4179824D01*
X13739571Y4178452D01*
X13725194Y4175302D01*
X13711275Y4170375D01*
X13698016Y4163822D01*
X13685723Y4155643D01*
X13674547Y4146042D01*
X13664590Y4135120D01*
X13656056Y4123080D01*
X13649096Y4110075D01*
X13643762Y4096308D01*
X13640155Y4082034D01*
X13638326Y4067352D01*
X13638326Y4052620D01*
X13640155Y4037990D01*
X13643762Y4023664D01*
X13647877Y4013047D01*
X13648537Y4009237D01*
X13647724Y4005427D01*
X13645591Y4002176D01*
X12974980Y3331565D01*
X12971678Y3329381D01*
X12967766Y3328619D01*
X12376454Y3328619D01*
X12368428Y3327806D01*
X12361214Y3325622D01*
X12355017Y3322320D01*
X12351054Y3321151D01*
X12346990Y3321608D01*
X12343434Y3323691D01*
X12340996Y3326993D01*
X12340082Y3331006D01*
X12340793Y3335020D01*
X12343028Y3338474D01*
X12352985Y3348431D01*
X12356287Y3350615D01*
X12360198Y3351377D01*
X12919506Y3351377D01*
X12927177Y3352088D01*
X12934442Y3354273D01*
X12941147Y3357778D01*
X12947396Y3362807D01*
X13586713Y3992118D01*
X13591844Y3998315D01*
X13595502Y4004970D01*
X13597737Y4012133D01*
X13598601Y4020515D01*
X13598601Y4209796D01*
X13599363Y4213656D01*
X13601547Y4216958D01*
X13659357Y4274769D01*
X13662761Y4277055D01*
X13666774Y4277766D01*
X13670788Y4276852D01*
X13674547Y4273956D01*
X13685723Y4264355D01*
X13698016Y4256176D01*
X13711275Y4249623D01*
X13725194Y4244695D01*
X13739571Y4241546D01*
X13754303Y4240174D01*
X13769035Y4240631D01*
X13783614Y4242917D01*
X13797788Y4246930D01*
X13811402Y4252671D01*
X13824204Y4260088D01*
X13835938Y4268978D01*
X13846556Y4279239D01*
X13855801Y4290720D01*
X13863574Y4303268D01*
X13869771Y4316679D01*
X13874242Y4330750D01*
X13876934Y4345279D01*
X13877848Y4360011D01*
X13876934Y4374743D01*
X13874242Y4389221D01*
X13869771Y4403293D01*
X13863574Y4416704D01*
X13855801Y4429252D01*
X13846556Y4440732D01*
X13835938Y4451045D01*
X13824204Y4459935D01*
X13811402Y4467301D01*
X13797788Y4473041D01*
X13783614Y4477105D01*
X13769035Y4479340D01*
X13754303Y4479798D01*
X13739571Y4478426D01*
X13725194Y4475276D01*
X13711275Y4470400D01*
X13698016Y4463796D01*
X13685723Y4455668D01*
X13674547Y4446066D01*
X13664590Y4435144D01*
X13656056Y4423105D01*
X13649096Y4410100D01*
X13643762Y4396333D01*
X13640155Y4382008D01*
X13638326Y4367174D01*
X13637564Y4363262D01*
X13635380Y4359960D01*
X13533018Y4257649D01*
X13527887Y4251401D01*
X13524331Y4244746D01*
X13522147Y4237532D01*
X13521385Y4229506D01*
X13521385Y4040428D01*
X13520572Y4036517D01*
X13518337Y4033164D01*
X12907111Y3431540D01*
X12903860Y3429355D01*
X12899999Y3428593D01*
X12340488Y3428593D01*
X12332462Y3427831D01*
X12325197Y3425596D01*
X12318542Y3422040D01*
X12312345Y3416960D01*
X12146940Y3251555D01*
X12143638Y3249371D01*
X12139777Y3248609D01*
X12137593Y3248609D01*
X12133732Y3249371D01*
X12130430Y3251504D01*
X12128246Y3254756D01*
X12127433Y3258565D01*
X12128093Y3262426D01*
X12130227Y3265779D01*
X12303556Y3448202D01*
X12306909Y3450539D01*
X12310922Y3451402D01*
X12879476Y3451402D01*
X12887502Y3452164D01*
X12894716Y3454349D01*
X12901371Y3457956D01*
X12907619Y3463036D01*
X13486942Y4042359D01*
X13492022Y4048556D01*
X13495578Y4055211D01*
X13497813Y4062476D01*
X13498576Y4070502D01*
X13498576Y4359808D01*
X13499338Y4363669D01*
X13501573Y4366971D01*
X13688009Y4553407D01*
X13691514Y4555744D01*
X13695680Y4556404D01*
X13699744Y4555337D01*
X13711275Y4549597D01*
X13725194Y4544720D01*
X13739571Y4541520D01*
X13754303Y4540199D01*
X13769035Y4540656D01*
X13783614Y4542891D01*
X13797788Y4546955D01*
X13811402Y4552696D01*
X13824204Y4560062D01*
X13835938Y4568952D01*
X13846556Y4579213D01*
X13855801Y4590745D01*
X13863574Y4603292D01*
X13869771Y4616704D01*
X13874242Y4630775D01*
X13876934Y4645253D01*
X13877848Y4659985D01*
X13876934Y4674717D01*
X13874242Y4689246D01*
X13869771Y4703267D01*
X13863574Y4716678D01*
X13855801Y4729226D01*
X13846556Y4740757D01*
X13835938Y4751019D01*
X13824204Y4759909D01*
X13811402Y4767275D01*
X13797788Y4773066D01*
X13783614Y4777079D01*
X13769035Y4779365D01*
X13754303Y4779822D01*
X13739571Y4778451D01*
X13725194Y4775301D01*
X13711275Y4770374D01*
X13698016Y4763820D01*
X13685723Y4755642D01*
X13674547Y4746040D01*
X13664590Y4735118D01*
X13656056Y4723079D01*
X13649096Y4710074D01*
X13643762Y4696307D01*
X13640155Y4682032D01*
X13638326Y4667351D01*
X13638326Y4652619D01*
X13640155Y4637989D01*
X13643406Y4625035D01*
X13643660Y4621530D01*
X13642746Y4618177D01*
X13640714Y4615332D01*
X13433044Y4407662D01*
X13427913Y4401413D01*
X13424357Y4394758D01*
X13422172Y4387494D01*
X13421360Y4379468D01*
X13421360Y4090212D01*
X13420598Y4086301D01*
X13418413Y4082999D01*
X12866979Y3531565D01*
X12863677Y3529380D01*
X12859766Y3528618D01*
X12467742Y3528618D01*
X12463881Y3529380D01*
X12460579Y3531565D01*
X12458344Y3534867D01*
X12457582Y3538778D01*
X12458344Y3542639D01*
X12460579Y3545941D01*
X12576860Y3662476D01*
X12581940Y3668674D01*
X12585496Y3675329D01*
X12587681Y3682593D01*
X12588494Y3690620D01*
X12588748Y4729835D01*
X12589510Y4733747D01*
X12591694Y4737049D01*
X12623088Y4768392D01*
X12626390Y4770628D01*
X12630302Y4771390D01*
X12660630Y4771390D01*
X12664643Y4770577D01*
X12667996Y4768240D01*
X12670180Y4764735D01*
X12670790Y4760722D01*
X12669774Y4756759D01*
X12667234Y4753508D01*
X12658547Y4746040D01*
X12648590Y4735118D01*
X12640056Y4723079D01*
X12633096Y4710074D01*
X12627762Y4696307D01*
X12624155Y4682032D01*
X12622326Y4667351D01*
X12622326Y4652619D01*
X12624155Y4637989D01*
X12627762Y4623663D01*
X12633096Y4609896D01*
X12640056Y4596892D01*
X12648590Y4584852D01*
X12658547Y4573930D01*
X12669723Y4564329D01*
X12682016Y4556201D01*
X12695275Y4549597D01*
X12709194Y4544720D01*
X12723571Y4541520D01*
X12738303Y4540199D01*
X12753035Y4540656D01*
X12767614Y4542891D01*
X12781788Y4546955D01*
X12795402Y4552696D01*
X12808204Y4560062D01*
X12819938Y4568952D01*
X12830556Y4579213D01*
X12839801Y4590745D01*
X12847574Y4603292D01*
X12853771Y4616704D01*
X12858242Y4630775D01*
X12860934Y4645253D01*
X12861848Y4659985D01*
X12860934Y4674717D01*
X12858242Y4689246D01*
X12853771Y4703267D01*
X12847574Y4716678D01*
X12839801Y4729226D01*
X12830556Y4740757D01*
X12819938Y4751019D01*
X12817195Y4753102D01*
X12814401Y4756302D01*
X12813182Y4760315D01*
X12813690Y4764481D01*
X12815773Y4768088D01*
X12819176Y4770526D01*
X12823291Y4771390D01*
X13607542Y4771390D01*
X13615568Y4772202D01*
X13622782Y4774387D01*
X13629487Y4777943D01*
X13635685Y4783023D01*
X13699998Y4847437D01*
X13703147Y4849571D01*
X13706805Y4850434D01*
X13710564Y4849876D01*
X13725194Y4844694D01*
X13739571Y4841544D01*
X13754303Y4840173D01*
X13769035Y4840630D01*
X13783614Y4842916D01*
X13797788Y4846929D01*
X13811402Y4852670D01*
X13824204Y4860086D01*
X13835938Y4868976D01*
X13846556Y4879238D01*
X13855801Y4890719D01*
X13863574Y4903266D01*
X13869771Y4916678D01*
X13874242Y4930749D01*
X13876934Y4945278D01*
X13877848Y4960010D01*
X13876934Y4974742D01*
X13874242Y4989220D01*
X13869771Y5003292D01*
X13863574Y5016703D01*
X13855801Y5029250D01*
X13846556Y5040731D01*
X13835938Y5051044D01*
X13824204Y5059934D01*
X13811402Y5067300D01*
X13797788Y5073040D01*
X13783614Y5077104D01*
X13769035Y5079339D01*
X13754303Y5079796D01*
X13739571Y5078425D01*
X13725194Y5075275D01*
X13711275Y5070398D01*
X13698016Y5063794D01*
X13685723Y5055666D01*
X13674547Y5046065D01*
X13664590Y5035143D01*
X13656056Y5023104D01*
X13649096Y5010099D01*
X13643762Y4996332D01*
X13640155Y4982006D01*
X13638326Y4967376D01*
X13638326Y4952593D01*
X13640155Y4937963D01*
X13643762Y4923637D01*
X13647826Y4913071D01*
X13648537Y4909261D01*
X13647724Y4905451D01*
X13645540Y4902200D01*
X13594994Y4851603D01*
X13591692Y4849368D01*
X13587831Y4848606D01*
X12823342Y4848606D01*
X12819227Y4849469D01*
X12815824Y4851908D01*
X12813690Y4855514D01*
X12813182Y4859680D01*
X12814452Y4863693D01*
X12817195Y4866894D01*
X12819938Y4868976D01*
X12830556Y4879238D01*
X12839801Y4890719D01*
X12847574Y4903266D01*
X12853771Y4916678D01*
X12858242Y4930749D01*
X12860934Y4945278D01*
X12861848Y4960010D01*
X12860934Y4974742D01*
X12858242Y4989220D01*
X12853771Y5003292D01*
X12847574Y5016703D01*
X12839801Y5029250D01*
X12830556Y5040731D01*
X12819938Y5051044D01*
X12817195Y5053076D01*
X12814452Y5056276D01*
X12813233Y5060289D01*
X12813690Y5064455D01*
X12815824Y5068062D01*
X12819227Y5070500D01*
X12823342Y5071364D01*
X13607542Y5071364D01*
X13615568Y5072176D01*
X13622782Y5074361D01*
X13629487Y5077917D01*
X13635685Y5082997D01*
X13699998Y5147462D01*
X13703147Y5149596D01*
X13706856Y5150408D01*
X13710564Y5149850D01*
X13725194Y5144719D01*
X13739571Y5141518D01*
X13754303Y5140198D01*
X13769035Y5140655D01*
X13783614Y5142890D01*
X13797788Y5146954D01*
X13811402Y5152694D01*
X13824204Y5160060D01*
X13835938Y5168950D01*
X13846556Y5179212D01*
X13855801Y5190744D01*
X13863574Y5203291D01*
X13869771Y5216702D01*
X13874242Y5230774D01*
X13876934Y5245252D01*
X13877848Y5259984D01*
X13876934Y5274716D01*
X13874242Y5289245D01*
X13869771Y5303266D01*
X13863574Y5316677D01*
X13855801Y5329224D01*
X13846556Y5340756D01*
X13835938Y5351018D01*
X13824204Y5359908D01*
X13811402Y5367274D01*
X13797788Y5373065D01*
X13783614Y5377078D01*
X13769035Y5379364D01*
X13754303Y5379821D01*
X13739571Y5378450D01*
X13725194Y5375300D01*
X13711275Y5370372D01*
X13698016Y5363819D01*
X13685723Y5355640D01*
X13674547Y5346039D01*
X13664590Y5335117D01*
X13656056Y5323078D01*
X13649096Y5310073D01*
X13643762Y5296306D01*
X13640155Y5282031D01*
X13638326Y5267350D01*
X13638326Y5252618D01*
X13640155Y5237988D01*
X13643762Y5223662D01*
X13647877Y5213045D01*
X13648537Y5209235D01*
X13647724Y5205425D01*
X13645591Y5202224D01*
X13594994Y5151577D01*
X13591692Y5149342D01*
X13587831Y5148580D01*
X12823291Y5148580D01*
X12819176Y5149443D01*
X12815773Y5151882D01*
X12813639Y5155488D01*
X12813182Y5159654D01*
X12814401Y5163667D01*
X12817144Y5166868D01*
X12819938Y5168950D01*
X12830556Y5179212D01*
X12839801Y5190744D01*
X12847574Y5203291D01*
X12853771Y5216702D01*
X12858242Y5230774D01*
X12860934Y5245252D01*
X12861848Y5259984D01*
X12860934Y5274716D01*
X12858242Y5289245D01*
X12853771Y5303266D01*
X12847574Y5316677D01*
X12839801Y5329224D01*
X12830556Y5340756D01*
X12819938Y5351018D01*
X12817246Y5353050D01*
X12814503Y5356250D01*
X12813233Y5360263D01*
X12813741Y5364429D01*
X12815874Y5368036D01*
X12819278Y5370474D01*
X12823393Y5371338D01*
X13607542Y5371338D01*
X13615568Y5372150D01*
X13622782Y5374335D01*
X13629487Y5377891D01*
X13635685Y5382971D01*
X13700048Y5447436D01*
X13703147Y5449570D01*
X13706856Y5450433D01*
X13710615Y5449824D01*
X13725194Y5444693D01*
X13739571Y5441543D01*
X13754303Y5440172D01*
X13769035Y5440629D01*
X13783614Y5442915D01*
X13797788Y5446928D01*
X13811402Y5452668D01*
X13824204Y5460085D01*
X13835938Y5468975D01*
X13846556Y5479237D01*
X13855801Y5490718D01*
X13863574Y5503265D01*
X13869771Y5516676D01*
X13874242Y5530748D01*
X13876934Y5545277D01*
X13877848Y5560009D01*
X13876934Y5574741D01*
X13874242Y5589219D01*
X13869771Y5603290D01*
X13863574Y5616702D01*
X13855801Y5629249D01*
X13846556Y5640730D01*
X13835938Y5651042D01*
X13824204Y5659932D01*
X13811402Y5667298D01*
X13797788Y5673039D01*
X13783614Y5677103D01*
X13769035Y5679338D01*
X13754303Y5679795D01*
X13739571Y5678424D01*
X13725194Y5675274D01*
X13711275Y5670397D01*
X13698016Y5663793D01*
X13685723Y5655665D01*
X13674547Y5646064D01*
X13664590Y5635142D01*
X13656056Y5623102D01*
X13649096Y5610098D01*
X13643762Y5596331D01*
X13640155Y5582005D01*
X13638326Y5567375D01*
X13638326Y5552592D01*
X13640155Y5537962D01*
X13643762Y5523636D01*
X13647877Y5513019D01*
X13648537Y5509209D01*
X13647724Y5505399D01*
X13645591Y5502198D01*
X13594994Y5451551D01*
X13591692Y5449316D01*
X13587831Y5448554D01*
X12823240Y5448554D01*
X12819126Y5449417D01*
X12815722Y5451856D01*
X12813639Y5455462D01*
X12813131Y5459628D01*
X12814401Y5463641D01*
X12817144Y5466842D01*
X12819938Y5468975D01*
X12830556Y5479237D01*
X12839801Y5490718D01*
X12847574Y5503265D01*
X12853771Y5516676D01*
X12858242Y5530748D01*
X12860934Y5545277D01*
X12861848Y5560009D01*
X12860934Y5574741D01*
X12858242Y5589219D01*
X12853771Y5603290D01*
X12847574Y5616702D01*
X12839801Y5629249D01*
X12830556Y5640730D01*
X12819938Y5651042D01*
X12817195Y5653125D01*
X12814452Y5656275D01*
X12813182Y5660288D01*
X12813690Y5664454D01*
X12815824Y5668060D01*
X12819227Y5670499D01*
X12823291Y5671362D01*
X13607491Y5671362D01*
X13615517Y5672175D01*
X13622731Y5674360D01*
X13629386Y5677916D01*
X13635634Y5683046D01*
X13700048Y5747461D01*
X13703147Y5749594D01*
X13706856Y5750407D01*
X13710615Y5749848D01*
X13725194Y5744718D01*
X13739571Y5741517D01*
X13754303Y5740196D01*
X13769035Y5740654D01*
X13783614Y5742889D01*
X13797788Y5746953D01*
X13811402Y5752693D01*
X13824204Y5760059D01*
X13835938Y5768949D01*
X13846556Y5779211D01*
X13855801Y5790742D01*
X13863574Y5803290D01*
X13869771Y5816701D01*
X13874242Y5830773D01*
X13876934Y5845251D01*
X13877848Y5859983D01*
X13876934Y5874715D01*
X13874242Y5889244D01*
X13869771Y5903264D01*
X13863574Y5916676D01*
X13855801Y5929223D01*
X13846556Y5940755D01*
X13835938Y5951016D01*
X13824204Y5959906D01*
X13811402Y5967272D01*
X13797788Y5973064D01*
X13783614Y5977077D01*
X13769035Y5979363D01*
X13754303Y5979820D01*
X13739571Y5978448D01*
X13725194Y5975299D01*
X13711275Y5970371D01*
X13698016Y5963818D01*
X13685723Y5955639D01*
X13674547Y5946038D01*
X13664590Y5935116D01*
X13656056Y5923076D01*
X13649096Y5910072D01*
X13643762Y5896305D01*
X13640155Y5882030D01*
X13638326Y5867349D01*
X13638326Y5852617D01*
X13640155Y5837986D01*
X13643762Y5823661D01*
X13647877Y5813044D01*
X13648537Y5809234D01*
X13647724Y5805424D01*
X13645591Y5802172D01*
X13594943Y5751576D01*
X13591641Y5749391D01*
X13587780Y5748578D01*
X12823291Y5748578D01*
X12819227Y5749442D01*
X12815824Y5751931D01*
X12813690Y5755538D01*
X12813182Y5759704D01*
X12814452Y5763717D01*
X12817195Y5766866D01*
X12819938Y5768949D01*
X12830556Y5779211D01*
X12839801Y5790742D01*
X12847574Y5803290D01*
X12853771Y5816701D01*
X12858242Y5830773D01*
X12860934Y5845251D01*
X12861848Y5859983D01*
X12860934Y5874715D01*
X12858242Y5889244D01*
X12853771Y5903264D01*
X12847574Y5916676D01*
X12839801Y5929223D01*
X12830556Y5940755D01*
X12819938Y5951016D01*
X12808204Y5959906D01*
X12795402Y5967272D01*
X12781788Y5973064D01*
X12767614Y5977077D01*
X12753035Y5979363D01*
X12738303Y5979820D01*
X12723571Y5978448D01*
X12709194Y5975299D01*
X12695275Y5970371D01*
X12682016Y5963818D01*
X12669723Y5955639D01*
X12658547Y5946038D01*
X12648590Y5935116D01*
X12640056Y5923076D01*
X12633096Y5910072D01*
X12627762Y5896305D01*
X12624155Y5882030D01*
X12622326Y5867349D01*
X12622326Y5852617D01*
X12624155Y5837986D01*
X12627762Y5823661D01*
X12633096Y5809894D01*
X12640056Y5796889D01*
X12648590Y5784850D01*
X12658547Y5773928D01*
X12667234Y5766460D01*
X12669723Y5763260D01*
X12670790Y5759297D01*
X12670180Y5755233D01*
X12667996Y5751779D01*
X12664643Y5749442D01*
X12660630Y5748578D01*
X12360452Y5748578D01*
X12352477Y5747816D01*
X12345212Y5745632D01*
X12338558Y5742025D01*
X12332309Y5736945D01*
X12223038Y5627624D01*
X12217908Y5621426D01*
X12214352Y5614720D01*
X12212167Y5607507D01*
X12211354Y5599480D01*
X12211354Y3910177D01*
X12210592Y3906316D01*
X12208408Y3903014D01*
X12166955Y3861562D01*
X12163653Y3859377D01*
X12159792Y3858615D01*
X12030456Y3858615D01*
X12022429Y3857802D01*
X12015216Y3855618D01*
X12008561Y3852062D01*
X12002312Y3846931D01*
X11816943Y3661562D01*
X11813641Y3659378D01*
X11809780Y3658615D01*
X8066481Y3658615D01*
X8058454Y3657803D01*
X8051241Y3655618D01*
X8044586Y3652062D01*
X8038338Y3646932D01*
X7484973Y3093567D01*
X7481874Y3091434D01*
X7478217Y3090621D01*
X7474508Y3091129D01*
X7464044Y3094685D01*
X7450124Y3097428D01*
X7435951Y3098393D01*
X7421829Y3097428D01*
X7407909Y3094685D01*
X7394498Y3090113D01*
X7381798Y3083864D01*
X7370013Y3075990D01*
X7359345Y3066643D01*
X7349998Y3055975D01*
X7342124Y3044190D01*
X7335824Y3031490D01*
X7331303Y3018028D01*
X7328509Y3004159D01*
X7327595Y2989986D01*
X7328509Y2975864D01*
X7331303Y2961944D01*
X7335824Y2948533D01*
X7342124Y2935782D01*
X7349998Y2923997D01*
X7359345Y2913329D01*
X7370013Y2903982D01*
X7381798Y2896108D01*
X7394498Y2889859D01*
X7407909Y2885287D01*
X7421829Y2882544D01*
X7435951Y2881630D01*
X7450124Y2882544D01*
X7464044Y2885287D01*
X7477455Y2889859D01*
X7490155Y2896108D01*
X7501940Y2903982D01*
X7512608Y2913329D01*
X7521956Y2923997D01*
X7529830Y2935782D01*
X7536129Y2948533D01*
X7540650Y2961944D01*
X7543444Y2975864D01*
X7544358Y2989986D01*
X7543444Y3004159D01*
X7540650Y3018028D01*
X7537094Y3028492D01*
X7536586Y3032201D01*
X7537450Y3035858D01*
X7539532Y3038957D01*
X8078978Y3578402D01*
X8082280Y3580587D01*
X8086191Y3581400D01*
X8729878Y3581400D01*
X8734247Y3580384D01*
X8737752Y3577691D01*
X8739733Y3573678D01*
X8739835Y3569258D01*
X8738057Y3565194D01*
X8728252Y3557015D01*
X8255000Y3083560D01*
X8251901Y3081426D01*
X8248243Y3080613D01*
X8244535Y3081121D01*
X8234019Y3084677D01*
X8220100Y3087471D01*
X8205978Y3088386D01*
X8191804Y3087471D01*
X8177936Y3084677D01*
X8164474Y3080105D01*
X8151774Y3073857D01*
X8139988Y3065983D01*
X8129320Y3056636D01*
X8119973Y3045968D01*
X8112099Y3034182D01*
X8105851Y3021482D01*
X8101279Y3008071D01*
X8098536Y2994152D01*
X8097570Y2979978D01*
X8098536Y2965856D01*
X8101279Y2951937D01*
X8105851Y2938526D01*
X8112099Y2925826D01*
X8119973Y2913989D01*
X8129320Y2903372D01*
X8139988Y2894025D01*
X8151774Y2886151D01*
X8164474Y2879852D01*
X8177936Y2875280D01*
X8191804Y2872536D01*
X8205978Y2871622D01*
X8220100Y2872536D01*
X8234019Y2875280D01*
X8247430Y2879852D01*
X8260181Y2886151D01*
X8271967Y2894025D01*
X8282635Y2903372D01*
X8291982Y2913989D01*
X8299856Y2925826D01*
X8306104Y2938526D01*
X8310676Y2951937D01*
X8313420Y2965856D01*
X8314334Y2979978D01*
X8313420Y2994152D01*
X8310676Y3008071D01*
X8307120Y3018485D01*
X8306612Y3022193D01*
X8307425Y3025851D01*
X8309559Y3028950D01*
X8768892Y3488486D01*
X8772194Y3490722D01*
X8776106Y3491484D01*
X9428327Y3491484D01*
X9432239Y3490722D01*
X9435541Y3488486D01*
X9437725Y3485235D01*
X9438487Y3481324D01*
X9437725Y3477412D01*
X9435541Y3474161D01*
X9034932Y3073552D01*
X9031884Y3071469D01*
X9028226Y3070606D01*
X9024518Y3071114D01*
X9014002Y3074670D01*
X9000134Y3077464D01*
X8985961Y3078378D01*
X8971838Y3077464D01*
X8957919Y3074670D01*
X8944508Y3070148D01*
X8931757Y3063849D01*
X8919972Y3055975D01*
X8909354Y3046628D01*
X8900007Y3035960D01*
X8892082Y3024174D01*
X8885834Y3011474D01*
X8881262Y2998063D01*
X8878519Y2984144D01*
X8877604Y2969971D01*
X8878519Y2955848D01*
X8881262Y2941929D01*
X8885834Y2928518D01*
X8892082Y2915818D01*
X8900007Y2904032D01*
X8909354Y2893364D01*
X8919972Y2884017D01*
X8931757Y2876143D01*
X8944508Y2869844D01*
X8957919Y2865323D01*
X8971838Y2862529D01*
G37*
G36*
X12815976Y2871622D02*
G01*
X12830098Y2872536D01*
X12844018Y2875280D01*
X12857429Y2879852D01*
X12870180Y2886151D01*
X12881965Y2894025D01*
X12892582Y2903372D01*
X12901930Y2913989D01*
X12909804Y2925826D01*
X12916103Y2938526D01*
X12920675Y2951937D01*
X12923418Y2965856D01*
X12924332Y2979978D01*
X12923418Y2994152D01*
X12920675Y3008071D01*
X12917119Y3018536D01*
X12916560Y3022244D01*
X12917424Y3025851D01*
X12919557Y3028950D01*
X13608964Y3718407D01*
X13612266Y3720592D01*
X13616178Y3721404D01*
X13637666Y3721404D01*
X13641628Y3720592D01*
X13644981Y3718306D01*
X13647115Y3714902D01*
X13649096Y3709873D01*
X13656056Y3696868D01*
X13664590Y3684828D01*
X13674547Y3673957D01*
X13685723Y3664356D01*
X13698016Y3656177D01*
X13711275Y3649624D01*
X13725194Y3644696D01*
X13739571Y3641547D01*
X13754303Y3640175D01*
X13769035Y3640632D01*
X13783614Y3642918D01*
X13797788Y3646932D01*
X13811402Y3652672D01*
X13824204Y3660089D01*
X13835938Y3668979D01*
X13846556Y3679240D01*
X13855801Y3690721D01*
X13863574Y3703269D01*
X13869771Y3716680D01*
X13874242Y3730751D01*
X13876934Y3745280D01*
X13877848Y3760012D01*
X13876934Y3774744D01*
X13874242Y3789222D01*
X13869771Y3803294D01*
X13863574Y3816705D01*
X13855801Y3829253D01*
X13846556Y3840734D01*
X13835938Y3851046D01*
X13824204Y3859936D01*
X13811402Y3867302D01*
X13797788Y3873042D01*
X13783614Y3877106D01*
X13769035Y3879342D01*
X13754303Y3879799D01*
X13739571Y3878427D01*
X13725194Y3875278D01*
X13711275Y3870401D01*
X13698016Y3863797D01*
X13685723Y3855669D01*
X13674547Y3846068D01*
X13664590Y3835146D01*
X13656056Y3823106D01*
X13649096Y3810101D01*
X13647115Y3805072D01*
X13644981Y3801668D01*
X13641628Y3799382D01*
X13637666Y3798620D01*
X13596467Y3798620D01*
X13588441Y3797808D01*
X13581227Y3795623D01*
X13574522Y3792067D01*
X13568324Y3786936D01*
X12864947Y3083560D01*
X12861848Y3081477D01*
X12858191Y3080613D01*
X12854482Y3081121D01*
X12844018Y3084677D01*
X12830098Y3087471D01*
X12815976Y3088386D01*
X12801803Y3087471D01*
X12787934Y3084677D01*
X12774472Y3080105D01*
X12761772Y3073857D01*
X12749987Y3065983D01*
X12739319Y3056636D01*
X12729972Y3045968D01*
X12722098Y3034182D01*
X12715849Y3021482D01*
X12711277Y3008071D01*
X12708483Y2994152D01*
X12707569Y2979978D01*
X12708483Y2965856D01*
X12711277Y2951937D01*
X12715849Y2938526D01*
X12722098Y2925826D01*
X12729972Y2913989D01*
X12739319Y2903372D01*
X12749987Y2894025D01*
X12761772Y2886151D01*
X12774472Y2879852D01*
X12787934Y2875280D01*
X12801803Y2872536D01*
G37*
G36*
X9287560Y2872892D02*
G01*
X9294164Y2876143D01*
X9305950Y2884017D01*
X9316618Y2893364D01*
X9325965Y2904032D01*
X9333839Y2915818D01*
X9337090Y2922371D01*
X9287560Y2922371D01*
G37*
G36*
X9942372Y2872892D02*
G01*
X9942372Y2922371D01*
X9892842Y2922371D01*
X9896094Y2915818D01*
X9903968Y2904032D01*
X9913315Y2893364D01*
X9923983Y2884017D01*
X9935768Y2876143D01*
G37*
G36*
X11577574Y2872892D02*
G01*
X11584178Y2876143D01*
X11595963Y2884017D01*
X11606631Y2893364D01*
X11615978Y2904032D01*
X11623852Y2915818D01*
X11627104Y2922371D01*
X11577574Y2922371D01*
G37*
G36*
X10827562Y2872892D02*
G01*
X10834166Y2876143D01*
X10845952Y2884017D01*
X10856620Y2893364D01*
X10865967Y2904032D01*
X10873841Y2915818D01*
X10877092Y2922371D01*
X10827562Y2922371D01*
G37*
G36*
X10037572Y2872892D02*
G01*
X10044176Y2876143D01*
X10055961Y2884017D01*
X10066629Y2893364D01*
X10075976Y2904032D01*
X10083850Y2915818D01*
X10087102Y2922371D01*
X10037572Y2922371D01*
G37*
G36*
X10732363Y2872892D02*
G01*
X10732363Y2922371D01*
X10682833Y2922371D01*
X10686084Y2915818D01*
X10693958Y2904032D01*
X10703306Y2893364D01*
X10713974Y2884017D01*
X10725759Y2876143D01*
G37*
G36*
X11482374Y2872892D02*
G01*
X11482374Y2922371D01*
X11432844Y2922371D01*
X11436096Y2915818D01*
X11443970Y2904032D01*
X11453317Y2893364D01*
X11463985Y2884017D01*
X11475770Y2876143D01*
G37*
G36*
X9192361Y2872892D02*
G01*
X9192361Y2922371D01*
X9142831Y2922371D01*
X9146082Y2915818D01*
X9154007Y2904032D01*
X9163354Y2893364D01*
X9173972Y2884017D01*
X9185757Y2876143D01*
G37*
G36*
X6675983Y2881630D02*
G01*
X6690156Y2882544D01*
X6704025Y2885287D01*
X6717487Y2889859D01*
X6730187Y2896108D01*
X6741972Y2903982D01*
X6752640Y2913329D01*
X6761988Y2923997D01*
X6769862Y2935782D01*
X6776110Y2948533D01*
X6780682Y2961944D01*
X6783425Y2975864D01*
X6784390Y2989986D01*
X6783425Y3004159D01*
X6780682Y3018028D01*
X6776110Y3031490D01*
X6769862Y3044190D01*
X6761988Y3055975D01*
X6752640Y3066643D01*
X6741972Y3075990D01*
X6730187Y3083864D01*
X6717487Y3090113D01*
X6704025Y3094685D01*
X6690156Y3097428D01*
X6675983Y3098393D01*
X6661861Y3097428D01*
X6647942Y3094685D01*
X6637477Y3091129D01*
X6633768Y3090621D01*
X6630111Y3091484D01*
X6627012Y3093567D01*
X6243574Y3477056D01*
X6241389Y3480358D01*
X6240576Y3484219D01*
X6240576Y3799535D01*
X6241440Y3803599D01*
X6243828Y3807002D01*
X6261912Y3816197D01*
X6274206Y3824325D01*
X6285433Y3833926D01*
X6295390Y3844848D01*
X6303924Y3856888D01*
X6310884Y3869893D01*
X6316218Y3883660D01*
X6319824Y3897985D01*
X6321602Y3912615D01*
X6321602Y3927348D01*
X6319824Y3942029D01*
X6316218Y3956354D01*
X6310884Y3970070D01*
X6303924Y3983075D01*
X6295390Y3995115D01*
X6285433Y4006037D01*
X6274206Y4015638D01*
X6261912Y4023817D01*
X6248704Y4030370D01*
X6234785Y4035298D01*
X6220358Y4038447D01*
X6205677Y4039819D01*
X6190945Y4039362D01*
X6176365Y4037076D01*
X6162141Y4033062D01*
X6148578Y4027271D01*
X6135776Y4019905D01*
X6123990Y4011015D01*
X6113424Y4000754D01*
X6104128Y3989273D01*
X6096355Y3976725D01*
X6090208Y3963314D01*
X6085738Y3949242D01*
X6083046Y3934714D01*
X6082131Y3919982D01*
X6083046Y3905250D01*
X6085738Y3890772D01*
X6090208Y3876700D01*
X6096355Y3863289D01*
X6104128Y3850741D01*
X6113424Y3839260D01*
X6123990Y3828948D01*
X6135776Y3820058D01*
X6148578Y3812692D01*
X6157163Y3809034D01*
X6160414Y3806850D01*
X6162598Y3803548D01*
X6163360Y3799687D01*
X6163360Y3464509D01*
X6164173Y3456482D01*
X6166358Y3449269D01*
X6169914Y3442614D01*
X6175044Y3436365D01*
X6572402Y3039008D01*
X6574536Y3035909D01*
X6575399Y3032252D01*
X6574840Y3028543D01*
X6571284Y3018028D01*
X6568541Y3004159D01*
X6567576Y2989986D01*
X6568541Y2975864D01*
X6571284Y2961944D01*
X6575856Y2948533D01*
X6582105Y2935782D01*
X6589979Y2923997D01*
X6599326Y2913329D01*
X6609994Y2903982D01*
X6621780Y2896108D01*
X6634530Y2889859D01*
X6647942Y2885287D01*
X6661861Y2882544D01*
G37*
G36*
X13022376Y2882900D02*
G01*
X13022376Y2932379D01*
X12972846Y2932379D01*
X12976098Y2925826D01*
X12983972Y2913989D01*
X12993319Y2903372D01*
X13003987Y2894025D01*
X13015772Y2886151D01*
G37*
G36*
X8507577Y2882900D02*
G01*
X8514181Y2886151D01*
X8525967Y2894025D01*
X8536635Y2903372D01*
X8545982Y2913989D01*
X8553856Y2925826D01*
X8557107Y2932379D01*
X8507577Y2932379D01*
G37*
G36*
X12367564Y2882900D02*
G01*
X12374168Y2886151D01*
X12385954Y2894025D01*
X12396622Y2903372D01*
X12405969Y2913989D01*
X12413843Y2925826D01*
X12417094Y2932379D01*
X12367564Y2932379D01*
G37*
G36*
X12272365Y2882900D02*
G01*
X12272365Y2932379D01*
X12222835Y2932379D01*
X12226086Y2925826D01*
X12233960Y2913989D01*
X12243308Y2903372D01*
X12253976Y2894025D01*
X12265761Y2886151D01*
G37*
G36*
X8412378Y2882900D02*
G01*
X8412378Y2932379D01*
X8362848Y2932379D01*
X8366099Y2925826D01*
X8373973Y2913989D01*
X8383320Y2903372D01*
X8393988Y2894025D01*
X8405774Y2886151D01*
G37*
G36*
X13117576Y2882900D02*
G01*
X13124180Y2886151D01*
X13135965Y2894025D01*
X13146582Y2903372D01*
X13155930Y2913989D01*
X13163804Y2925826D01*
X13167055Y2932379D01*
X13117576Y2932379D01*
G37*
G36*
X7737551Y2892856D02*
G01*
X7744155Y2896108D01*
X7755940Y2903982D01*
X7766608Y2913329D01*
X7775956Y2923997D01*
X7783830Y2935782D01*
X7787081Y2942386D01*
X7737551Y2942386D01*
G37*
G36*
X7642352Y2892856D02*
G01*
X7642352Y2942386D01*
X7592872Y2942386D01*
X7596124Y2935782D01*
X7603998Y2923997D01*
X7613345Y2913329D01*
X7624013Y2903982D01*
X7635798Y2896108D01*
G37*
G36*
X6882384Y2892856D02*
G01*
X6882384Y2942386D01*
X6832853Y2942386D01*
X6836105Y2935782D01*
X6843979Y2923997D01*
X6853326Y2913329D01*
X6863994Y2903982D01*
X6875780Y2896108D01*
G37*
G36*
X6977583Y2892856D02*
G01*
X6984187Y2896108D01*
X6995972Y2903982D01*
X7006640Y2913329D01*
X7015988Y2923997D01*
X7023862Y2935782D01*
X7027113Y2942386D01*
X6977583Y2942386D01*
G37*
G36*
X10827562Y3017570D02*
G01*
X10877092Y3017570D01*
X10873841Y3024174D01*
X10865967Y3035960D01*
X10856620Y3046628D01*
X10845952Y3055975D01*
X10834166Y3063849D01*
X10827562Y3067100D01*
G37*
G36*
X9142831Y3017570D02*
G01*
X9192361Y3017570D01*
X9192361Y3067100D01*
X9185757Y3063849D01*
X9173972Y3055975D01*
X9163354Y3046628D01*
X9154007Y3035960D01*
X9146082Y3024174D01*
G37*
G36*
X10037572Y3017570D02*
G01*
X10087102Y3017570D01*
X10083850Y3024174D01*
X10075976Y3035960D01*
X10066629Y3046628D01*
X10055961Y3055975D01*
X10044176Y3063849D01*
X10037572Y3067100D01*
G37*
G36*
X9287560Y3017570D02*
G01*
X9337090Y3017570D01*
X9333839Y3024174D01*
X9325965Y3035960D01*
X9316618Y3046628D01*
X9305950Y3055975D01*
X9294164Y3063849D01*
X9287560Y3067100D01*
G37*
G36*
X10682833Y3017570D02*
G01*
X10732363Y3017570D01*
X10732363Y3067100D01*
X10725759Y3063849D01*
X10713974Y3055975D01*
X10703306Y3046628D01*
X10693958Y3035960D01*
X10686084Y3024174D01*
G37*
G36*
X9892842Y3017570D02*
G01*
X9942372Y3017570D01*
X9942372Y3067100D01*
X9935768Y3063849D01*
X9923983Y3055975D01*
X9913315Y3046628D01*
X9903968Y3035960D01*
X9896094Y3024174D01*
G37*
G36*
X11577574Y3017570D02*
G01*
X11627104Y3017570D01*
X11623852Y3024174D01*
X11615978Y3035960D01*
X11606631Y3046628D01*
X11595963Y3055975D01*
X11584178Y3063849D01*
X11577574Y3067100D01*
G37*
G36*
X11432844Y3017570D02*
G01*
X11482374Y3017570D01*
X11482374Y3067100D01*
X11475770Y3063849D01*
X11463985Y3055975D01*
X11453317Y3046628D01*
X11443970Y3035960D01*
X11436096Y3024174D01*
G37*
G36*
X12367564Y3027578D02*
G01*
X12417094Y3027578D01*
X12413843Y3034182D01*
X12405969Y3045968D01*
X12396622Y3056636D01*
X12385954Y3065983D01*
X12374168Y3073857D01*
X12367564Y3077108D01*
G37*
G36*
X12972846Y3027578D02*
G01*
X13022376Y3027578D01*
X13022376Y3077108D01*
X13015772Y3073857D01*
X13003987Y3065983D01*
X12993319Y3056636D01*
X12983972Y3045968D01*
X12976098Y3034182D01*
G37*
G36*
X8362848Y3027578D02*
G01*
X8412378Y3027578D01*
X8412378Y3077108D01*
X8405774Y3073857D01*
X8393988Y3065983D01*
X8383320Y3056636D01*
X8373973Y3045968D01*
X8366099Y3034182D01*
G37*
G36*
X13117576Y3027578D02*
G01*
X13167055Y3027578D01*
X13163804Y3034182D01*
X13155930Y3045968D01*
X13146582Y3056636D01*
X13135965Y3065983D01*
X13124180Y3073857D01*
X13117576Y3077108D01*
G37*
G36*
X12222835Y3027578D02*
G01*
X12272365Y3027578D01*
X12272365Y3077108D01*
X12265761Y3073857D01*
X12253976Y3065983D01*
X12243308Y3056636D01*
X12233960Y3045968D01*
X12226086Y3034182D01*
G37*
G36*
X8507577Y3027578D02*
G01*
X8557107Y3027578D01*
X8553856Y3034182D01*
X8545982Y3045968D01*
X8536635Y3056636D01*
X8525967Y3065983D01*
X8514181Y3073857D01*
X8507577Y3077108D01*
G37*
G36*
X6832853Y3037586D02*
G01*
X6882384Y3037586D01*
X6882384Y3087116D01*
X6875780Y3083864D01*
X6863994Y3075990D01*
X6853326Y3066643D01*
X6843979Y3055975D01*
X6836105Y3044190D01*
G37*
G36*
X7737551Y3037586D02*
G01*
X7787081Y3037586D01*
X7783830Y3044190D01*
X7775956Y3055975D01*
X7766608Y3066643D01*
X7755940Y3075990D01*
X7744155Y3083864D01*
X7737551Y3087116D01*
G37*
G36*
X7592872Y3037586D02*
G01*
X7642352Y3037586D01*
X7642352Y3087116D01*
X7635798Y3083864D01*
X7624013Y3075990D01*
X7613345Y3066643D01*
X7603998Y3055975D01*
X7596124Y3044190D01*
G37*
G36*
X6977583Y3037586D02*
G01*
X7027113Y3037586D01*
X7023862Y3044190D01*
X7015988Y3055975D01*
X7006640Y3066643D01*
X6995972Y3075990D01*
X6984187Y3083864D01*
X6977583Y3087116D01*
G37*
G36*
X12738303Y3640175D02*
G01*
X12753035Y3640632D01*
X12767614Y3642918D01*
X12781788Y3646932D01*
X12795402Y3652672D01*
X12808204Y3660089D01*
X12819938Y3668979D01*
X12830556Y3679240D01*
X12839801Y3690721D01*
X12847574Y3703269D01*
X12853771Y3716680D01*
X12858242Y3730751D01*
X12860934Y3745280D01*
X12861848Y3760012D01*
X12860934Y3774744D01*
X12858242Y3789222D01*
X12853771Y3803294D01*
X12847574Y3816705D01*
X12839801Y3829253D01*
X12830556Y3840734D01*
X12819938Y3851046D01*
X12808204Y3859936D01*
X12795402Y3867302D01*
X12781788Y3873042D01*
X12767614Y3877106D01*
X12753035Y3879342D01*
X12738303Y3879799D01*
X12723571Y3878427D01*
X12709194Y3875278D01*
X12695275Y3870401D01*
X12682016Y3863797D01*
X12669723Y3855669D01*
X12658547Y3846068D01*
X12648590Y3835146D01*
X12640056Y3823106D01*
X12633096Y3810101D01*
X12627762Y3796334D01*
X12624155Y3782009D01*
X12622326Y3767378D01*
X12622326Y3752596D01*
X12624155Y3737965D01*
X12627762Y3723640D01*
X12633096Y3709873D01*
X12640056Y3696868D01*
X12648590Y3684828D01*
X12658547Y3673957D01*
X12669723Y3664356D01*
X12682016Y3656177D01*
X12695275Y3649624D01*
X12709194Y3644696D01*
X12723571Y3641547D01*
G37*
G36*
X10253980Y3780078D02*
G01*
X10268508Y3780993D01*
X10282783Y3783736D01*
X10296652Y3788257D01*
X10309809Y3794455D01*
X10322102Y3802227D01*
X10333329Y3811524D01*
X10343286Y3822141D01*
X10351820Y3833876D01*
X10358831Y3846626D01*
X10364216Y3860190D01*
X10367822Y3874262D01*
X10369651Y3888689D01*
X10369651Y3903268D01*
X10367822Y3917696D01*
X10364216Y3931818D01*
X10358831Y3945331D01*
X10351820Y3958082D01*
X10343286Y3969867D01*
X10333329Y3980484D01*
X10322102Y3989730D01*
X10309809Y3997553D01*
X10296652Y4003751D01*
X10282783Y4008221D01*
X10268508Y4010964D01*
X10253980Y4011879D01*
X10239451Y4010964D01*
X10225176Y4008221D01*
X10211308Y4003751D01*
X10198150Y3997553D01*
X10185857Y3989730D01*
X10174630Y3980484D01*
X10164673Y3969867D01*
X10156139Y3958082D01*
X10149128Y3945331D01*
X10143744Y3931818D01*
X10140137Y3917696D01*
X10138308Y3903268D01*
X10138308Y3888689D01*
X10140137Y3874262D01*
X10143744Y3860190D01*
X10149128Y3846626D01*
X10156139Y3833876D01*
X10164673Y3822141D01*
X10174630Y3811524D01*
X10185857Y3802227D01*
X10198150Y3794455D01*
X10211308Y3788257D01*
X10225176Y3783736D01*
X10239451Y3780993D01*
G37*
G36*
X10507980Y3780078D02*
G01*
X10522508Y3780993D01*
X10536783Y3783736D01*
X10550652Y3788257D01*
X10563809Y3794455D01*
X10576102Y3802227D01*
X10587329Y3811524D01*
X10597286Y3822141D01*
X10605820Y3833876D01*
X10612831Y3846626D01*
X10618216Y3860190D01*
X10621822Y3874262D01*
X10623651Y3888689D01*
X10623651Y3903268D01*
X10621822Y3917696D01*
X10618216Y3931818D01*
X10612831Y3945331D01*
X10605820Y3958082D01*
X10597286Y3969867D01*
X10587329Y3980484D01*
X10576102Y3989730D01*
X10563809Y3997553D01*
X10550652Y4003751D01*
X10536783Y4008221D01*
X10522508Y4010964D01*
X10507980Y4011879D01*
X10493451Y4010964D01*
X10479176Y4008221D01*
X10465308Y4003751D01*
X10452150Y3997553D01*
X10439857Y3989730D01*
X10428630Y3980484D01*
X10418673Y3969867D01*
X10410139Y3958082D01*
X10403128Y3945331D01*
X10397744Y3931818D01*
X10394137Y3917696D01*
X10392308Y3903268D01*
X10392308Y3888689D01*
X10394137Y3874262D01*
X10397744Y3860190D01*
X10403128Y3846626D01*
X10410139Y3833876D01*
X10418673Y3822141D01*
X10428630Y3811524D01*
X10439857Y3802227D01*
X10452150Y3794455D01*
X10465308Y3788257D01*
X10479176Y3783736D01*
X10493451Y3780993D01*
G37*
G36*
X11777980Y3780078D02*
G01*
X11792508Y3780993D01*
X11806783Y3783736D01*
X11820652Y3788257D01*
X11833809Y3794455D01*
X11846102Y3802227D01*
X11857329Y3811524D01*
X11867286Y3822141D01*
X11875820Y3833876D01*
X11882831Y3846626D01*
X11888216Y3860190D01*
X11891822Y3874262D01*
X11893651Y3888689D01*
X11893651Y3903268D01*
X11891822Y3917696D01*
X11888216Y3931818D01*
X11882831Y3945331D01*
X11875820Y3958082D01*
X11867286Y3969867D01*
X11857329Y3980484D01*
X11846102Y3989730D01*
X11833809Y3997553D01*
X11820652Y4003751D01*
X11806783Y4008221D01*
X11792508Y4010964D01*
X11777980Y4011879D01*
X11763451Y4010964D01*
X11749176Y4008221D01*
X11735308Y4003751D01*
X11722150Y3997553D01*
X11709857Y3989730D01*
X11698630Y3980484D01*
X11688673Y3969867D01*
X11680139Y3958082D01*
X11673128Y3945331D01*
X11667744Y3931818D01*
X11664137Y3917696D01*
X11662308Y3903268D01*
X11662308Y3888689D01*
X11664137Y3874262D01*
X11667744Y3860190D01*
X11673128Y3846626D01*
X11680139Y3833876D01*
X11688673Y3822141D01*
X11698630Y3811524D01*
X11709857Y3802227D01*
X11722150Y3794455D01*
X11735308Y3788257D01*
X11749176Y3783736D01*
X11763451Y3780993D01*
G37*
G36*
X9999980Y3780078D02*
G01*
X10014508Y3780993D01*
X10028783Y3783736D01*
X10042652Y3788257D01*
X10055809Y3794455D01*
X10068102Y3802227D01*
X10079329Y3811524D01*
X10089286Y3822141D01*
X10097820Y3833876D01*
X10104831Y3846626D01*
X10110216Y3860190D01*
X10113822Y3874262D01*
X10115651Y3888689D01*
X10115651Y3903268D01*
X10113822Y3917696D01*
X10110216Y3931818D01*
X10104831Y3945331D01*
X10097820Y3958082D01*
X10089286Y3969867D01*
X10079329Y3980484D01*
X10068102Y3989730D01*
X10055809Y3997553D01*
X10042652Y4003751D01*
X10028783Y4008221D01*
X10014508Y4010964D01*
X9999980Y4011879D01*
X9985451Y4010964D01*
X9971176Y4008221D01*
X9957308Y4003751D01*
X9944150Y3997553D01*
X9931857Y3989730D01*
X9920630Y3980484D01*
X9910673Y3969867D01*
X9902139Y3958082D01*
X9895128Y3945331D01*
X9889744Y3931818D01*
X9886137Y3917696D01*
X9884308Y3903268D01*
X9884308Y3888689D01*
X9886137Y3874262D01*
X9889744Y3860190D01*
X9895128Y3846626D01*
X9902139Y3833876D01*
X9910673Y3822141D01*
X9920630Y3811524D01*
X9931857Y3802227D01*
X9944150Y3794455D01*
X9957308Y3788257D01*
X9971176Y3783736D01*
X9985451Y3780993D01*
G37*
G36*
X10761980Y3780078D02*
G01*
X10776508Y3780993D01*
X10790783Y3783736D01*
X10804652Y3788257D01*
X10817809Y3794455D01*
X10830102Y3802227D01*
X10841329Y3811524D01*
X10851286Y3822141D01*
X10859820Y3833876D01*
X10866831Y3846626D01*
X10872216Y3860190D01*
X10875822Y3874262D01*
X10877651Y3888689D01*
X10877651Y3903268D01*
X10875822Y3917696D01*
X10872216Y3931818D01*
X10866831Y3945331D01*
X10859820Y3958082D01*
X10851286Y3969867D01*
X10841329Y3980484D01*
X10830102Y3989730D01*
X10817809Y3997553D01*
X10806430Y4002887D01*
X10803331Y4005122D01*
X10801299Y4008374D01*
X10800588Y4012082D01*
X10800588Y4017518D01*
X10799775Y4025493D01*
X10797590Y4032758D01*
X10794034Y4039412D01*
X10788904Y4045661D01*
X10587634Y4246930D01*
X10581386Y4252061D01*
X10574731Y4255617D01*
X10567517Y4257802D01*
X10559491Y4258614D01*
X8380475Y4258614D01*
X8372449Y4257802D01*
X8365236Y4255617D01*
X8358581Y4252061D01*
X8352332Y4246930D01*
X8066938Y3961587D01*
X8063687Y3959351D01*
X8059775Y3958590D01*
X7338314Y3958590D01*
X7334351Y3959402D01*
X7330998Y3961688D01*
X7328814Y3965092D01*
X7326884Y3970070D01*
X7319924Y3983075D01*
X7311390Y3995115D01*
X7301433Y4006037D01*
X7290206Y4015638D01*
X7277912Y4023817D01*
X7264704Y4030370D01*
X7250785Y4035298D01*
X7236358Y4038447D01*
X7221677Y4039819D01*
X7206945Y4039362D01*
X7192365Y4037076D01*
X7178141Y4033062D01*
X7164578Y4027271D01*
X7151776Y4019905D01*
X7139990Y4011015D01*
X7129424Y4000754D01*
X7120128Y3989273D01*
X7112355Y3976725D01*
X7106208Y3963314D01*
X7101738Y3949242D01*
X7099046Y3934714D01*
X7098131Y3919982D01*
X7099046Y3905250D01*
X7101738Y3890772D01*
X7106208Y3876700D01*
X7112355Y3863289D01*
X7120128Y3850741D01*
X7129424Y3839260D01*
X7139990Y3828948D01*
X7151776Y3820058D01*
X7164578Y3812692D01*
X7178141Y3806951D01*
X7192365Y3802887D01*
X7206945Y3800652D01*
X7221677Y3800195D01*
X7236358Y3801567D01*
X7250785Y3804716D01*
X7264704Y3809593D01*
X7277912Y3816197D01*
X7290206Y3824325D01*
X7301433Y3833926D01*
X7311390Y3844848D01*
X7319924Y3856888D01*
X7326884Y3869893D01*
X7328814Y3874871D01*
X7330998Y3878275D01*
X7334351Y3880561D01*
X7338314Y3881374D01*
X8079486Y3881374D01*
X8087512Y3882186D01*
X8094725Y3884371D01*
X8101380Y3887927D01*
X8107629Y3893058D01*
X8392972Y4178401D01*
X8396274Y4180586D01*
X8400186Y4181398D01*
X10539780Y4181398D01*
X10543641Y4180586D01*
X10546943Y4178401D01*
X10710672Y4014724D01*
X10712856Y4011472D01*
X10713618Y4007713D01*
X10712958Y4003903D01*
X10710926Y4000601D01*
X10707827Y3998315D01*
X10706150Y3997553D01*
X10693857Y3989730D01*
X10682630Y3980484D01*
X10672673Y3969867D01*
X10664139Y3958082D01*
X10657128Y3945331D01*
X10651744Y3931818D01*
X10648137Y3917696D01*
X10646308Y3903268D01*
X10646308Y3888689D01*
X10648137Y3874262D01*
X10651744Y3860190D01*
X10657128Y3846626D01*
X10664139Y3833876D01*
X10672673Y3822141D01*
X10682630Y3811524D01*
X10693857Y3802227D01*
X10706150Y3794455D01*
X10719308Y3788257D01*
X10733176Y3783736D01*
X10747451Y3780993D01*
G37*
G36*
X11015980Y3780078D02*
G01*
X11030508Y3780993D01*
X11044783Y3783736D01*
X11058652Y3788257D01*
X11071809Y3794455D01*
X11084102Y3802227D01*
X11095329Y3811524D01*
X11105286Y3822141D01*
X11113820Y3833876D01*
X11120831Y3846626D01*
X11126216Y3860190D01*
X11129822Y3874262D01*
X11131651Y3888689D01*
X11131651Y3903268D01*
X11129822Y3917696D01*
X11126216Y3931818D01*
X11120577Y3945940D01*
X11119866Y3949801D01*
X11120678Y3953662D01*
X11122914Y3956913D01*
X11126216Y3959098D01*
X11130076Y3959860D01*
X11133937Y3959047D01*
X11137239Y3956862D01*
X11156188Y3937914D01*
X11158169Y3935069D01*
X11159134Y3931665D01*
X11158829Y3928211D01*
X11156137Y3917696D01*
X11154308Y3903268D01*
X11154308Y3888689D01*
X11156137Y3874262D01*
X11159744Y3860190D01*
X11165128Y3846626D01*
X11172139Y3833876D01*
X11180673Y3822141D01*
X11190630Y3811524D01*
X11201857Y3802227D01*
X11214150Y3794455D01*
X11227308Y3788257D01*
X11241176Y3783736D01*
X11255451Y3780993D01*
X11269980Y3780078D01*
X11284508Y3780993D01*
X11298783Y3783736D01*
X11312652Y3788257D01*
X11325809Y3794455D01*
X11338102Y3802227D01*
X11349329Y3811524D01*
X11359286Y3822141D01*
X11367820Y3833876D01*
X11374831Y3846626D01*
X11380216Y3860190D01*
X11383822Y3874262D01*
X11385651Y3888689D01*
X11385651Y3903268D01*
X11383822Y3917696D01*
X11380216Y3931818D01*
X11374831Y3945331D01*
X11367820Y3958082D01*
X11359286Y3969867D01*
X11349329Y3980484D01*
X11338102Y3989730D01*
X11325809Y3997553D01*
X11312652Y4003751D01*
X11298783Y4008221D01*
X11284508Y4010964D01*
X11269980Y4011879D01*
X11255451Y4010964D01*
X11241176Y4008221D01*
X11238534Y4007408D01*
X11234877Y4006900D01*
X11231270Y4007764D01*
X11228222Y4009847D01*
X10782147Y4455972D01*
X10778693Y4459122D01*
X10775188Y4461814D01*
X10771428Y4464202D01*
X10767466Y4466234D01*
X10763402Y4467961D01*
X10759135Y4469282D01*
X10754817Y4470247D01*
X10750397Y4470806D01*
X10745774Y4471009D01*
X9679736Y4470908D01*
X9676739Y4471365D01*
X9673996Y4472686D01*
X9671761Y4474819D01*
X9334804Y4905756D01*
X9333128Y4909007D01*
X9332671Y4912614D01*
X9333534Y4916170D01*
X9337700Y4925364D01*
X9342221Y4939893D01*
X9344964Y4954828D01*
X9345879Y4970018D01*
X9344964Y4985156D01*
X9342221Y5000142D01*
X9337700Y5014620D01*
X9331452Y5028488D01*
X9323578Y5041493D01*
X9314230Y5053482D01*
X9303461Y5064252D01*
X9291472Y5073599D01*
X9278467Y5081473D01*
X9264650Y5087721D01*
X9250121Y5092242D01*
X9235135Y5094986D01*
X9219996Y5095900D01*
X9204807Y5094986D01*
X9189872Y5092242D01*
X9175343Y5087721D01*
X9161475Y5081473D01*
X9148470Y5073599D01*
X9136481Y5064252D01*
X9125762Y5053482D01*
X9116364Y5041493D01*
X9108490Y5028488D01*
X9107779Y5026863D01*
X9105544Y5023713D01*
X9102293Y5021630D01*
X9098534Y5020868D01*
X7380173Y5020868D01*
X7375550Y5020665D01*
X7371130Y5020106D01*
X7366812Y5019141D01*
X7362545Y5017820D01*
X7358481Y5016093D01*
X7354519Y5014061D01*
X7350759Y5011674D01*
X7347254Y5008981D01*
X7343800Y5005832D01*
X6879793Y4541774D01*
X6876796Y4539691D01*
X6873240Y4538827D01*
X6869582Y4539284D01*
X6860133Y4542231D01*
X6845147Y4544974D01*
X6830009Y4545888D01*
X6814820Y4544974D01*
X6799834Y4542231D01*
X6785356Y4537710D01*
X6771487Y4531461D01*
X6758482Y4523587D01*
X6746494Y4514240D01*
X6735775Y4503470D01*
X6726377Y4491482D01*
X6718503Y4478477D01*
X6712254Y4464608D01*
X6707733Y4450130D01*
X6704990Y4435144D01*
X6704075Y4420006D01*
X6704990Y4404817D01*
X6707733Y4389882D01*
X6712254Y4375353D01*
X6718503Y4361484D01*
X6726377Y4348480D01*
X6735775Y4336491D01*
X6746494Y4325772D01*
X6758482Y4316374D01*
X6771487Y4308500D01*
X6785356Y4302302D01*
X6799834Y4297781D01*
X6814820Y4295038D01*
X6830009Y4294124D01*
X6845147Y4295038D01*
X6860133Y4297781D01*
X6874611Y4302302D01*
X6888480Y4308500D01*
X6901484Y4316374D01*
X6913473Y4325772D01*
X6924192Y4336491D01*
X6933590Y4348480D01*
X6941464Y4361484D01*
X6947712Y4375404D01*
X6952234Y4389882D01*
X6954977Y4404817D01*
X6955891Y4420006D01*
X6954977Y4435144D01*
X6952234Y4450130D01*
X6949287Y4459579D01*
X6948830Y4463237D01*
X6949694Y4466793D01*
X6951776Y4469790D01*
X6955383Y4473346D01*
X6958634Y4475581D01*
X6962546Y4476343D01*
X7027621Y4476343D01*
X7027621Y4541418D01*
X7028434Y4545330D01*
X7030618Y4548632D01*
X7398105Y4916068D01*
X7401356Y4918303D01*
X7405268Y4919065D01*
X8155533Y4919065D01*
X8159394Y4918303D01*
X8162696Y4916068D01*
X8164931Y4912817D01*
X8165693Y4908905D01*
X8164931Y4904994D01*
X8162696Y4901742D01*
X7663484Y4402480D01*
X7660843Y4400600D01*
X7657795Y4399635D01*
X7654594Y4399635D01*
X7643215Y4401566D01*
X7629550Y4402023D01*
X7615986Y4400651D01*
X7602728Y4397502D01*
X7590028Y4392574D01*
X7578039Y4386021D01*
X7567066Y4377944D01*
X7557262Y4368444D01*
X7548829Y4357776D01*
X7541869Y4346041D01*
X7536535Y4333494D01*
X7532928Y4320336D01*
X7531150Y4306824D01*
X7531150Y4293158D01*
X7532928Y4279646D01*
X7536535Y4266488D01*
X7541869Y4253941D01*
X7548829Y4242206D01*
X7557262Y4231538D01*
X7567066Y4222038D01*
X7578039Y4213961D01*
X7590028Y4207408D01*
X7602728Y4202480D01*
X7615986Y4199331D01*
X7629550Y4197959D01*
X7643215Y4198416D01*
X7656626Y4200702D01*
X7669682Y4204716D01*
X7682026Y4210456D01*
X7693558Y4217822D01*
X7703972Y4226610D01*
X7713116Y4236720D01*
X7720838Y4247946D01*
X7726984Y4260138D01*
X7731455Y4273042D01*
X7734147Y4286402D01*
X7735062Y4299966D01*
X7734147Y4313580D01*
X7732623Y4321200D01*
X7732471Y4324502D01*
X7733436Y4327702D01*
X7735366Y4330395D01*
X8321090Y4916068D01*
X8324392Y4918303D01*
X8328253Y4919065D01*
X9098534Y4919065D01*
X9102344Y4918354D01*
X9105595Y4916220D01*
X9116364Y4898491D01*
X9125762Y4886502D01*
X9136481Y4875784D01*
X9148470Y4866386D01*
X9161475Y4858512D01*
X9175343Y4852314D01*
X9189872Y4847793D01*
X9204807Y4845050D01*
X9219996Y4844135D01*
X9235135Y4845050D01*
X9244736Y4846777D01*
X9248444Y4846777D01*
X9251848Y4845507D01*
X9254591Y4843068D01*
X9610750Y4387545D01*
X9617303Y4381042D01*
X9624568Y4375912D01*
X9632594Y4372203D01*
X9641128Y4369917D01*
X9650425Y4369104D01*
X10720679Y4369206D01*
X10724591Y4368444D01*
X10727893Y4366209D01*
X11077397Y4016705D01*
X11079581Y4013352D01*
X11080343Y4009390D01*
X11079480Y4005478D01*
X11077194Y4002176D01*
X11073739Y4000042D01*
X11069777Y3999382D01*
X11065865Y4000347D01*
X11058652Y4003751D01*
X11044783Y4008221D01*
X11030508Y4010964D01*
X11015980Y4011879D01*
X11001451Y4010964D01*
X10987176Y4008221D01*
X10973308Y4003751D01*
X10960150Y3997553D01*
X10947857Y3989730D01*
X10936630Y3980484D01*
X10926673Y3969867D01*
X10918139Y3958082D01*
X10911128Y3945331D01*
X10905744Y3931818D01*
X10902137Y3917696D01*
X10900308Y3903268D01*
X10900308Y3888689D01*
X10902137Y3874262D01*
X10905744Y3860190D01*
X10911128Y3846626D01*
X10918139Y3833876D01*
X10926673Y3822141D01*
X10936630Y3811524D01*
X10947857Y3802227D01*
X10960150Y3794455D01*
X10973308Y3788257D01*
X10987176Y3783736D01*
X11001451Y3780993D01*
G37*
G36*
X11575338Y3792321D02*
G01*
X11579809Y3794455D01*
X11592102Y3802227D01*
X11603329Y3811524D01*
X11613286Y3822141D01*
X11621820Y3833876D01*
X11627713Y3844645D01*
X11575338Y3844645D01*
G37*
G36*
X11472621Y3792321D02*
G01*
X11472621Y3844645D01*
X11420246Y3844645D01*
X11426139Y3833876D01*
X11434673Y3822141D01*
X11444630Y3811524D01*
X11455857Y3802227D01*
X11468150Y3794455D01*
G37*
G36*
X12738303Y3940200D02*
G01*
X12753035Y3940657D01*
X12767614Y3942892D01*
X12781788Y3946956D01*
X12795402Y3952697D01*
X12808204Y3960063D01*
X12819938Y3968953D01*
X12830556Y3979214D01*
X12839801Y3990746D01*
X12847574Y4003294D01*
X12853771Y4016705D01*
X12858242Y4030776D01*
X12860934Y4045254D01*
X12861848Y4059986D01*
X12860934Y4074718D01*
X12858242Y4089247D01*
X12853771Y4103268D01*
X12847574Y4116679D01*
X12839801Y4129227D01*
X12830556Y4140758D01*
X12819938Y4151020D01*
X12808204Y4159910D01*
X12795402Y4167276D01*
X12781788Y4173067D01*
X12767614Y4177080D01*
X12753035Y4179366D01*
X12738303Y4179824D01*
X12723571Y4178452D01*
X12709194Y4175302D01*
X12695275Y4170375D01*
X12682016Y4163822D01*
X12669723Y4155643D01*
X12658547Y4146042D01*
X12648590Y4135120D01*
X12640056Y4123080D01*
X12633096Y4110075D01*
X12627762Y4096308D01*
X12624155Y4082034D01*
X12622326Y4067352D01*
X12622326Y4052620D01*
X12624155Y4037990D01*
X12627762Y4023664D01*
X12633096Y4009898D01*
X12640056Y3996893D01*
X12648590Y3984853D01*
X12658547Y3973931D01*
X12669723Y3964330D01*
X12682016Y3956202D01*
X12695275Y3949598D01*
X12709194Y3944721D01*
X12723571Y3941521D01*
G37*
G36*
X11575338Y3947363D02*
G01*
X11627713Y3947363D01*
X11621820Y3958082D01*
X11613286Y3969867D01*
X11603329Y3980484D01*
X11592102Y3989730D01*
X11579809Y3997553D01*
X11575338Y3999636D01*
G37*
G36*
X11420246Y3947363D02*
G01*
X11472621Y3947363D01*
X11472621Y3999636D01*
X11468150Y3997553D01*
X11455857Y3989730D01*
X11444630Y3980484D01*
X11434673Y3969867D01*
X11426139Y3958082D01*
G37*
G36*
X7842554Y4208221D02*
G01*
X7842554Y4255516D01*
X7795209Y4255516D01*
X7795869Y4253941D01*
X7802829Y4242206D01*
X7811262Y4231538D01*
X7821066Y4222038D01*
X7832039Y4213961D01*
G37*
G36*
X7931454Y4208322D02*
G01*
X7936026Y4210456D01*
X7947558Y4217822D01*
X7957972Y4226610D01*
X7967116Y4236720D01*
X7974838Y4247946D01*
X7978648Y4255516D01*
X7931454Y4255516D01*
G37*
G36*
X12738303Y4240174D02*
G01*
X12753035Y4240631D01*
X12767614Y4242917D01*
X12781788Y4246930D01*
X12795402Y4252671D01*
X12808204Y4260088D01*
X12819938Y4268978D01*
X12830556Y4279239D01*
X12839801Y4290720D01*
X12847574Y4303268D01*
X12853771Y4316679D01*
X12858242Y4330750D01*
X12860934Y4345279D01*
X12861848Y4360011D01*
X12860934Y4374743D01*
X12858242Y4389221D01*
X12853771Y4403293D01*
X12847574Y4416704D01*
X12839801Y4429252D01*
X12830556Y4440732D01*
X12819938Y4451045D01*
X12808204Y4459935D01*
X12795402Y4467301D01*
X12781788Y4473041D01*
X12767614Y4477105D01*
X12753035Y4479340D01*
X12738303Y4479798D01*
X12723571Y4478426D01*
X12709194Y4475276D01*
X12695275Y4470400D01*
X12682016Y4463796D01*
X12669723Y4455668D01*
X12658547Y4446066D01*
X12648590Y4435144D01*
X12640056Y4423105D01*
X12633096Y4410100D01*
X12627762Y4396333D01*
X12624155Y4382008D01*
X12622326Y4367377D01*
X12622326Y4352594D01*
X12624155Y4337964D01*
X12627762Y4323638D01*
X12633096Y4309872D01*
X12640056Y4296867D01*
X12648590Y4284827D01*
X12658547Y4273956D01*
X12669723Y4264355D01*
X12682016Y4256176D01*
X12695275Y4249623D01*
X12709194Y4244695D01*
X12723571Y4241546D01*
G37*
G36*
X7140346Y4307535D02*
G01*
X7142480Y4308500D01*
X7155484Y4316374D01*
X7167473Y4325772D01*
X7178192Y4336491D01*
X7187590Y4348480D01*
X7195464Y4361484D01*
X7196429Y4363618D01*
X7140346Y4363618D01*
G37*
G36*
X7027621Y4307535D02*
G01*
X7027621Y4363618D01*
X6971538Y4363618D01*
X6972503Y4361484D01*
X6980377Y4348480D01*
X6989775Y4336491D01*
X7000494Y4325772D01*
X7012482Y4316374D01*
X7025487Y4308500D01*
G37*
G36*
X7931454Y4344416D02*
G01*
X7978648Y4344416D01*
X7974838Y4352036D01*
X7967116Y4363262D01*
X7957972Y4373372D01*
X7947558Y4382160D01*
X7936026Y4389526D01*
X7931454Y4391660D01*
G37*
G36*
X7795209Y4344416D02*
G01*
X7842554Y4344416D01*
X7842554Y4391761D01*
X7832039Y4386021D01*
X7821066Y4377944D01*
X7811262Y4368444D01*
X7802829Y4357776D01*
X7795869Y4346041D01*
G37*
G36*
X7140346Y4476343D02*
G01*
X7196429Y4476343D01*
X7195464Y4478477D01*
X7187590Y4491482D01*
X7178192Y4503470D01*
X7167473Y4514240D01*
X7155484Y4523587D01*
X7142480Y4531461D01*
X7140346Y4532426D01*
G37*
G36*
X11523980Y5304078D02*
G01*
X11538508Y5304993D01*
X11552783Y5307736D01*
X11566652Y5312257D01*
X11579809Y5318455D01*
X11592102Y5326227D01*
X11603329Y5335524D01*
X11613286Y5346141D01*
X11621820Y5357876D01*
X11628831Y5370626D01*
X11634216Y5384190D01*
X11637822Y5398262D01*
X11639651Y5412689D01*
X11639651Y5427268D01*
X11637822Y5441696D01*
X11634216Y5455818D01*
X11628831Y5469331D01*
X11621820Y5482082D01*
X11613286Y5493867D01*
X11603329Y5504484D01*
X11592102Y5513730D01*
X11579809Y5521553D01*
X11566652Y5527751D01*
X11552783Y5532221D01*
X11538508Y5534964D01*
X11523980Y5535879D01*
X11509451Y5534964D01*
X11495176Y5532221D01*
X11481308Y5527751D01*
X11468150Y5521553D01*
X11455857Y5513730D01*
X11444630Y5504484D01*
X11434673Y5493867D01*
X11426139Y5482082D01*
X11419128Y5469331D01*
X11413744Y5455818D01*
X11410137Y5441696D01*
X11408308Y5427268D01*
X11408308Y5412689D01*
X11410137Y5398262D01*
X11413744Y5384190D01*
X11419128Y5370626D01*
X11426139Y5357876D01*
X11434673Y5346141D01*
X11444630Y5335524D01*
X11455857Y5326227D01*
X11468150Y5318455D01*
X11481308Y5312257D01*
X11495176Y5307736D01*
X11509451Y5304993D01*
G37*
G36*
X10253980Y5304078D02*
G01*
X10268508Y5304993D01*
X10282783Y5307736D01*
X10296652Y5312257D01*
X10309809Y5318455D01*
X10322102Y5326227D01*
X10333329Y5335524D01*
X10343286Y5346141D01*
X10351820Y5357876D01*
X10358831Y5370626D01*
X10364216Y5384190D01*
X10367822Y5398262D01*
X10369651Y5412689D01*
X10369651Y5427268D01*
X10367822Y5441696D01*
X10364216Y5455818D01*
X10358831Y5469331D01*
X10351820Y5482082D01*
X10343286Y5493867D01*
X10333329Y5504484D01*
X10322102Y5513730D01*
X10309809Y5521553D01*
X10296652Y5527751D01*
X10282783Y5532221D01*
X10268508Y5534964D01*
X10253980Y5535879D01*
X10239451Y5534964D01*
X10225176Y5532221D01*
X10211308Y5527751D01*
X10198150Y5521553D01*
X10185857Y5513730D01*
X10174630Y5504484D01*
X10164673Y5493867D01*
X10156139Y5482082D01*
X10149128Y5469331D01*
X10143744Y5455818D01*
X10140137Y5441696D01*
X10138308Y5427268D01*
X10138308Y5412689D01*
X10140137Y5398262D01*
X10143744Y5384190D01*
X10149128Y5370626D01*
X10156139Y5357876D01*
X10164673Y5346141D01*
X10174630Y5335524D01*
X10185857Y5326227D01*
X10198150Y5318455D01*
X10211308Y5312257D01*
X10225176Y5307736D01*
X10239451Y5304993D01*
G37*
G36*
X11015980Y5304078D02*
G01*
X11030508Y5304993D01*
X11044783Y5307736D01*
X11058652Y5312257D01*
X11071809Y5318455D01*
X11084102Y5326227D01*
X11095329Y5335524D01*
X11105286Y5346141D01*
X11113820Y5357876D01*
X11120831Y5370626D01*
X11126216Y5384190D01*
X11129822Y5398262D01*
X11131651Y5412689D01*
X11131651Y5427268D01*
X11129822Y5441696D01*
X11126216Y5455818D01*
X11120831Y5469331D01*
X11113820Y5482082D01*
X11105286Y5493867D01*
X11095329Y5504484D01*
X11084102Y5513730D01*
X11071809Y5521553D01*
X11058652Y5527751D01*
X11044783Y5532221D01*
X11030508Y5534964D01*
X11015980Y5535879D01*
X11001451Y5534964D01*
X10987176Y5532221D01*
X10973308Y5527751D01*
X10960150Y5521553D01*
X10947857Y5513730D01*
X10936630Y5504484D01*
X10926673Y5493867D01*
X10918139Y5482082D01*
X10911128Y5469331D01*
X10905744Y5455818D01*
X10902137Y5441696D01*
X10900308Y5427268D01*
X10900308Y5412689D01*
X10902137Y5398262D01*
X10905744Y5384190D01*
X10911128Y5370626D01*
X10918139Y5357876D01*
X10926673Y5346141D01*
X10936630Y5335524D01*
X10947857Y5326227D01*
X10960150Y5318455D01*
X10973308Y5312257D01*
X10987176Y5307736D01*
X11001451Y5304993D01*
G37*
G36*
X10507980Y5304078D02*
G01*
X10522508Y5304993D01*
X10536783Y5307736D01*
X10550652Y5312257D01*
X10563809Y5318455D01*
X10576102Y5326227D01*
X10587329Y5335524D01*
X10597286Y5346141D01*
X10605820Y5357876D01*
X10612831Y5370626D01*
X10618216Y5384190D01*
X10621822Y5398262D01*
X10623651Y5412689D01*
X10623651Y5427268D01*
X10621822Y5441696D01*
X10618216Y5455818D01*
X10612831Y5469331D01*
X10605820Y5482082D01*
X10597286Y5493867D01*
X10587329Y5504484D01*
X10576102Y5513730D01*
X10563809Y5521553D01*
X10550652Y5527751D01*
X10536783Y5532221D01*
X10522508Y5534964D01*
X10507980Y5535879D01*
X10493451Y5534964D01*
X10479176Y5532221D01*
X10465308Y5527751D01*
X10452150Y5521553D01*
X10439857Y5513730D01*
X10428630Y5504484D01*
X10418673Y5493867D01*
X10410139Y5482082D01*
X10403128Y5469331D01*
X10397744Y5455818D01*
X10394137Y5441696D01*
X10392308Y5427268D01*
X10392308Y5412689D01*
X10394137Y5398262D01*
X10397744Y5384190D01*
X10403128Y5370626D01*
X10410139Y5357876D01*
X10418673Y5346141D01*
X10428630Y5335524D01*
X10439857Y5326227D01*
X10452150Y5318455D01*
X10465308Y5312257D01*
X10479176Y5307736D01*
X10493451Y5304993D01*
G37*
G36*
X11269980Y5304078D02*
G01*
X11284508Y5304993D01*
X11298783Y5307736D01*
X11312652Y5312257D01*
X11325809Y5318455D01*
X11338102Y5326227D01*
X11349329Y5335524D01*
X11359286Y5346141D01*
X11367820Y5357876D01*
X11374831Y5370626D01*
X11380216Y5384190D01*
X11383822Y5398262D01*
X11385651Y5412689D01*
X11385651Y5427268D01*
X11383822Y5441696D01*
X11380216Y5455818D01*
X11374831Y5469331D01*
X11367820Y5482082D01*
X11359286Y5493867D01*
X11349329Y5504484D01*
X11338102Y5513730D01*
X11325809Y5521553D01*
X11312652Y5527751D01*
X11298783Y5532221D01*
X11284508Y5534964D01*
X11269980Y5535879D01*
X11255451Y5534964D01*
X11241176Y5532221D01*
X11227308Y5527751D01*
X11214150Y5521553D01*
X11201857Y5513730D01*
X11190630Y5504484D01*
X11180673Y5493867D01*
X11172139Y5482082D01*
X11165128Y5469331D01*
X11159744Y5455818D01*
X11156137Y5441696D01*
X11154308Y5427268D01*
X11154308Y5412689D01*
X11156137Y5398262D01*
X11159744Y5384190D01*
X11165128Y5370626D01*
X11172139Y5357876D01*
X11180673Y5346141D01*
X11190630Y5335524D01*
X11201857Y5326227D01*
X11214150Y5318455D01*
X11227308Y5312257D01*
X11241176Y5307736D01*
X11255451Y5304993D01*
G37*
G36*
X9999980Y5304078D02*
G01*
X10014508Y5304993D01*
X10028783Y5307736D01*
X10042652Y5312257D01*
X10055809Y5318455D01*
X10068102Y5326227D01*
X10079329Y5335524D01*
X10089286Y5346141D01*
X10097820Y5357876D01*
X10104831Y5370626D01*
X10110216Y5384190D01*
X10113822Y5398262D01*
X10115651Y5412689D01*
X10115651Y5427268D01*
X10113822Y5441696D01*
X10110216Y5455818D01*
X10104831Y5469331D01*
X10097820Y5482082D01*
X10089286Y5493867D01*
X10079329Y5504484D01*
X10068102Y5513730D01*
X10055809Y5521553D01*
X10042652Y5527751D01*
X10028783Y5532221D01*
X10014508Y5534964D01*
X9999980Y5535879D01*
X9985451Y5534964D01*
X9971176Y5532221D01*
X9957308Y5527751D01*
X9944150Y5521553D01*
X9931857Y5513730D01*
X9920630Y5504484D01*
X9910673Y5493867D01*
X9902139Y5482082D01*
X9895128Y5469331D01*
X9889744Y5455818D01*
X9886137Y5441696D01*
X9884308Y5427268D01*
X9884308Y5412689D01*
X9886137Y5398262D01*
X9889744Y5384190D01*
X9895128Y5370626D01*
X9902139Y5357876D01*
X9910673Y5346141D01*
X9920630Y5335524D01*
X9931857Y5326227D01*
X9944150Y5318455D01*
X9957308Y5312257D01*
X9971176Y5307736D01*
X9985451Y5304993D01*
G37*
G36*
X10761980Y5304078D02*
G01*
X10776508Y5304993D01*
X10790783Y5307736D01*
X10804652Y5312257D01*
X10817809Y5318455D01*
X10830102Y5326227D01*
X10841329Y5335524D01*
X10851286Y5346141D01*
X10859820Y5357876D01*
X10866831Y5370626D01*
X10872216Y5384190D01*
X10875822Y5398262D01*
X10877651Y5412689D01*
X10877651Y5427268D01*
X10875822Y5441696D01*
X10872216Y5455818D01*
X10866831Y5469331D01*
X10859820Y5482082D01*
X10851286Y5493867D01*
X10841329Y5504484D01*
X10830102Y5513730D01*
X10817809Y5521553D01*
X10804652Y5527751D01*
X10790783Y5532221D01*
X10776508Y5534964D01*
X10761980Y5535879D01*
X10747451Y5534964D01*
X10733176Y5532221D01*
X10719308Y5527751D01*
X10706150Y5521553D01*
X10693857Y5513730D01*
X10682630Y5504484D01*
X10672673Y5493867D01*
X10664139Y5482082D01*
X10657128Y5469331D01*
X10651744Y5455818D01*
X10648137Y5441696D01*
X10646308Y5427268D01*
X10646308Y5412689D01*
X10648137Y5398262D01*
X10651744Y5384190D01*
X10657128Y5370626D01*
X10664139Y5357876D01*
X10672673Y5346141D01*
X10682630Y5335524D01*
X10693857Y5326227D01*
X10706150Y5318455D01*
X10719308Y5312257D01*
X10733176Y5307736D01*
X10747451Y5304993D01*
G37*
G36*
X11777980Y5304078D02*
G01*
X11792508Y5304993D01*
X11806783Y5307736D01*
X11820652Y5312257D01*
X11833809Y5318455D01*
X11846102Y5326227D01*
X11857329Y5335524D01*
X11867286Y5346141D01*
X11875820Y5357876D01*
X11882831Y5370626D01*
X11888216Y5384190D01*
X11891822Y5398262D01*
X11893651Y5412689D01*
X11893651Y5427268D01*
X11891822Y5441696D01*
X11888216Y5455818D01*
X11882831Y5469331D01*
X11875820Y5482082D01*
X11867286Y5493867D01*
X11857329Y5504484D01*
X11846102Y5513730D01*
X11833809Y5521553D01*
X11820652Y5527751D01*
X11806783Y5532221D01*
X11792508Y5534964D01*
X11777980Y5535879D01*
X11763451Y5534964D01*
X11749176Y5532221D01*
X11735308Y5527751D01*
X11722150Y5521553D01*
X11709857Y5513730D01*
X11698630Y5504484D01*
X11688673Y5493867D01*
X11680139Y5482082D01*
X11673128Y5469331D01*
X11667744Y5455818D01*
X11664137Y5441696D01*
X11662308Y5427268D01*
X11662308Y5412689D01*
X11664137Y5398262D01*
X11667744Y5384190D01*
X11673128Y5370626D01*
X11680139Y5357876D01*
X11688673Y5346141D01*
X11698630Y5335524D01*
X11709857Y5326227D01*
X11722150Y5318455D01*
X11735308Y5312257D01*
X11749176Y5307736D01*
X11763451Y5304993D01*
G37*
G36*
X9894976Y6129121D02*
G01*
X9911842Y6130036D01*
X9928555Y6132880D01*
X9944811Y6137554D01*
X9960457Y6144056D01*
X9975240Y6152235D01*
X9989058Y6162040D01*
X10001656Y6173317D01*
X10012934Y6185916D01*
X10022738Y6199733D01*
X10030917Y6214516D01*
X10037419Y6230162D01*
X10042093Y6246418D01*
X10044938Y6263081D01*
X10045852Y6279997D01*
X10044938Y6296914D01*
X10042093Y6313576D01*
X10037419Y6329832D01*
X10030917Y6345478D01*
X10022738Y6360261D01*
X10012934Y6374079D01*
X10001656Y6386677D01*
X9989058Y6397955D01*
X9975240Y6407759D01*
X9960457Y6415938D01*
X9944811Y6422440D01*
X9928555Y6427114D01*
X9911842Y6429959D01*
X9894976Y6430873D01*
X9878060Y6429959D01*
X9861397Y6427114D01*
X9845141Y6422440D01*
X9829495Y6415938D01*
X9814712Y6407759D01*
X9800894Y6397955D01*
X9788296Y6386677D01*
X9777018Y6374079D01*
X9767214Y6360261D01*
X9759035Y6345478D01*
X9752533Y6329832D01*
X9747859Y6313576D01*
X9745014Y6296914D01*
X9744100Y6279997D01*
X9745014Y6263081D01*
X9747859Y6246418D01*
X9752533Y6230162D01*
X9759035Y6214516D01*
X9767214Y6199733D01*
X9777018Y6185916D01*
X9788296Y6173317D01*
X9800894Y6162040D01*
X9814712Y6152235D01*
X9829495Y6144056D01*
X9845141Y6137554D01*
X9861397Y6132880D01*
X9878060Y6130036D01*
G37*
G36*
X12084964Y6129121D02*
G01*
X12101880Y6130036D01*
X12118543Y6132880D01*
X12134799Y6137554D01*
X12150445Y6144056D01*
X12165228Y6152235D01*
X12179046Y6162040D01*
X12191644Y6173317D01*
X12202922Y6185916D01*
X12212726Y6199733D01*
X12220905Y6214516D01*
X12227407Y6230162D01*
X12232081Y6246418D01*
X12234926Y6263081D01*
X12235840Y6279997D01*
X12234926Y6296914D01*
X12232081Y6313576D01*
X12227407Y6329832D01*
X12220905Y6345478D01*
X12212726Y6360261D01*
X12202922Y6374079D01*
X12191644Y6386677D01*
X12179046Y6397955D01*
X12165228Y6407759D01*
X12150445Y6415938D01*
X12134799Y6422440D01*
X12118543Y6427114D01*
X12101880Y6429959D01*
X12084964Y6430873D01*
X12068098Y6429959D01*
X12051385Y6427114D01*
X12035129Y6422440D01*
X12019483Y6415938D01*
X12004700Y6407759D01*
X11990882Y6397955D01*
X11978284Y6386677D01*
X11967006Y6374079D01*
X11957202Y6360261D01*
X11949023Y6345478D01*
X11942572Y6329832D01*
X11937847Y6313576D01*
X11935053Y6296914D01*
X11934088Y6279997D01*
X11935053Y6263081D01*
X11937847Y6246418D01*
X11942572Y6230162D01*
X11949023Y6214516D01*
X11957202Y6199733D01*
X11967006Y6185916D01*
X11978284Y6173317D01*
X11990882Y6162040D01*
X12004700Y6152235D01*
X12019483Y6144056D01*
X12035129Y6137554D01*
X12051385Y6132880D01*
X12068098Y6130036D01*
G37*
G36*
X13605205Y6319113D02*
G01*
X13626185Y6320586D01*
X13646962Y6323888D01*
X13667333Y6329121D01*
X13687094Y6336131D01*
X13706195Y6344970D01*
X13724382Y6355486D01*
X13741552Y6367576D01*
X13757554Y6381242D01*
X13772286Y6396278D01*
X13785545Y6412534D01*
X13797280Y6430010D01*
X13807338Y6448450D01*
X13815720Y6467703D01*
X13822324Y6487668D01*
X13827048Y6508140D01*
X13829893Y6528968D01*
X13830858Y6549948D01*
X13829893Y6570980D01*
X13827048Y6591808D01*
X13822324Y6612280D01*
X13815720Y6632244D01*
X13807338Y6651498D01*
X13797280Y6669938D01*
X13785545Y6687362D01*
X13772286Y6703669D01*
X13757554Y6718706D01*
X13741552Y6732371D01*
X13724382Y6744462D01*
X13706195Y6754977D01*
X13687094Y6763816D01*
X13667333Y6770827D01*
X13646962Y6776059D01*
X13626185Y6779361D01*
X13605205Y6780834D01*
X13584224Y6780326D01*
X13563346Y6777939D01*
X13542772Y6773672D01*
X13522655Y6767525D01*
X13503198Y6759600D01*
X13484504Y6749948D01*
X13466826Y6738620D01*
X13450214Y6725716D01*
X13434872Y6711391D01*
X13420851Y6695694D01*
X13408355Y6678777D01*
X13397433Y6660845D01*
X13388187Y6641947D01*
X13380719Y6622338D01*
X13375030Y6602069D01*
X13371220Y6581394D01*
X13369290Y6560464D01*
X13369290Y6539484D01*
X13371220Y6518554D01*
X13375030Y6497878D01*
X13380719Y6477609D01*
X13388187Y6458000D01*
X13397433Y6439103D01*
X13408355Y6421170D01*
X13420851Y6404254D01*
X13434872Y6388557D01*
X13450214Y6374231D01*
X13466826Y6361328D01*
X13484504Y6350000D01*
X13503198Y6340348D01*
X13522655Y6332423D01*
X13542772Y6326276D01*
X13563346Y6322009D01*
X13584224Y6319621D01*
G37*
G36*
X9276334Y6397548D02*
G01*
X9278467Y6398514D01*
X9291472Y6406388D01*
X9303461Y6415786D01*
X9314230Y6426504D01*
X9323578Y6438493D01*
X9331452Y6451498D01*
X9332417Y6453632D01*
X9276334Y6453632D01*
G37*
G36*
X9163659Y6397548D02*
G01*
X9163659Y6453632D01*
X9107525Y6453632D01*
X9108490Y6451498D01*
X9116364Y6438493D01*
X9125762Y6426504D01*
X9136481Y6415786D01*
X9148470Y6406388D01*
X9161475Y6398514D01*
G37*
G36*
X9107525Y6566357D02*
G01*
X9163659Y6566357D01*
X9163659Y6622440D01*
X9161475Y6621475D01*
X9148470Y6613601D01*
X9136481Y6604253D01*
X9125762Y6593484D01*
X9116364Y6581495D01*
X9108490Y6568490D01*
G37*
G36*
X9276334Y6566357D02*
G01*
X9332417Y6566357D01*
X9331452Y6568490D01*
X9323578Y6581495D01*
X9314230Y6593484D01*
X9303461Y6604253D01*
X9291472Y6613601D01*
X9278467Y6621475D01*
X9276334Y6622440D01*
G37*

%LPD*%
D10*
X11269979Y3896105D02*
G01*
X10745977Y4420107D01*
X9649980Y4419991D01*
X9219945Y4970018D01*
X5550001Y1940001D02*
G01*
X5399994Y1940001D01*
X4699993Y1239997D01*
X3420008Y1239997D01*
X2799989Y619986D01*
X6229984Y1789988D02*
G01*
X5739942Y1789988D01*
X4970015Y1020061D01*
X3700015Y1020061D01*
X3299965Y620011D01*
D11*
X7959984Y2789994D02*
G01*
X8259983Y2529994D01*
X8259968Y868017D01*
X8459967Y668014D01*
X7219985Y2809994D02*
G01*
X7489985Y2539994D01*
X7490002Y878034D01*
X7690002Y678032D01*
X9229968Y668014D02*
G01*
X9211960Y668014D01*
X8999966Y879995D01*
X8999981Y2539994D01*
X8729982Y2799994D01*
X9989972Y668014D02*
G01*
X9931953Y668014D01*
X9709975Y889998D01*
X9709980Y2539994D01*
X9489981Y2789994D01*
X10759978Y659998D02*
G01*
X10651954Y659998D01*
X10439974Y871979D01*
X10439979Y2569994D01*
X10279987Y2791978D01*
X11539966Y678017D02*
G01*
X11471953Y678017D01*
X11239967Y909998D01*
X11239977Y2539994D01*
X11059977Y2789994D01*
X12329970Y678017D02*
G01*
X12281949Y678017D01*
X12019963Y940000D01*
X12019975Y2539994D01*
X11839976Y2789994D01*
X13089961Y688014D02*
G01*
X13041952Y688014D01*
X12819961Y909998D01*
X12819974Y2529994D01*
X12609974Y2789994D01*
X13757973Y3759992D02*
G01*
X13595964Y3759992D01*
X12815976Y2980004D01*
X12065965Y2980004D02*
G01*
X12375954Y3289993D01*
X12987975Y3289993D01*
X13757973Y4059991D01*
X13757973Y4359991D02*
G01*
X13689972Y4359991D01*
X13559972Y4229991D01*
X13559972Y4019991D01*
X12919974Y3389993D01*
X12339975Y3389993D01*
X13757973Y4659990D02*
G01*
X13739972Y4659990D01*
X13459973Y4379991D01*
X13459973Y4069991D01*
X12879974Y3489993D01*
X12289975Y3489993D01*
X10525963Y2969996D02*
G01*
X10845960Y3289993D01*
X12099975Y3289993D01*
X12099975Y3289993D01*
X12289975Y3489993D01*
X9735997Y2969996D02*
G01*
X10135994Y3369993D01*
X12039975Y3369993D01*
X12199975Y3529992D01*
X8985986Y2969996D02*
G01*
X9475983Y3459993D01*
X11979976Y3459993D01*
X12129975Y3609992D01*
X7436002Y2990011D02*
G01*
X8065983Y3619992D01*
X11769976Y3619992D01*
X8205977Y2979928D02*
G01*
X8755888Y3530092D01*
X11880088Y3530092D01*
X11979147Y3629152D01*
X12039854Y3690112D01*
X12199874Y3530092D02*
G01*
X12240006Y3569970D01*
X12429997Y3569970D01*
X12549886Y3690112D01*
X12550140Y4750054D01*
X12610084Y4809997D01*
X13608050Y4809997D01*
X13757909Y4960112D01*
X12130024Y3610102D02*
G01*
X12169902Y3649979D01*
X12370054Y3649979D01*
X12459970Y3739895D01*
X12459970Y5029962D01*
X12539979Y5109971D01*
X13608050Y5109971D01*
X13757909Y5260086D01*
X12039854Y3690112D02*
G01*
X12079731Y3729989D01*
X12309856Y3729989D01*
X12349988Y3769868D01*
X12349988Y5320029D01*
X12439904Y5409945D01*
X13608050Y5409945D01*
X13757909Y5560060D01*
X11769976Y3619992D02*
G01*
X11829976Y3619992D01*
X12029975Y3819992D01*
X12179975Y3819992D01*
X12249975Y3889992D01*
X12249975Y5599988D01*
X12359975Y5709988D01*
X13607973Y5709988D01*
X13757973Y5859988D01*
X12339975Y3389993D02*
G01*
X12159975Y3209993D01*
X11515971Y3209993D01*
X11275974Y2969996D01*
D10*
X9220001Y4969972D02*
G01*
X8302960Y4969972D01*
X7632979Y4299991D01*
X6829978Y4419978D02*
G01*
X7379972Y4969972D01*
X8302960Y4969972D01*
D11*
X10761972Y3895979D02*
G01*
X10761972Y4017992D01*
X10559976Y4219991D01*
X8379978Y4219991D01*
X8079978Y3919992D01*
X7217986Y3919992D01*
X6201986Y3919992D02*
G01*
X6201986Y3464021D01*
X6675996Y2990011D01*
D12*
X6860031Y620013D02*
G01*
X6470141Y230123D01*
X2759963Y230123D01*
X2540000Y450087D01*
X2540000Y3780028D01*
X3970020Y5210047D01*
D13*
G01*
X2799968Y620013D03*
G01*
X3299968Y620013D03*
G01*
X3811981Y620013D03*
G01*
X4319981Y620013D03*
G01*
X4827981Y620013D03*
G01*
X5335981Y620013D03*
G01*
X5843981Y620013D03*
G01*
X6351981Y620013D03*
G01*
X6859981Y620013D03*
D14*
G01*
X12741986Y5859983D03*
G01*
X13757986Y5859983D03*
G01*
X12741986Y5559983D03*
G01*
X13757986Y5559983D03*
G01*
X12741986Y5259984D03*
G01*
X13757986Y5259984D03*
G01*
X12741986Y4959985D03*
G01*
X13757986Y4959985D03*
G01*
X12741986Y4659985D03*
G01*
X13757986Y4659985D03*
G01*
X12741986Y4359986D03*
G01*
X13757986Y4359986D03*
G01*
X12741986Y4059986D03*
G01*
X13757986Y4059986D03*
G01*
X12741986Y3759987D03*
G01*
X13757986Y3759987D03*
G01*
X7217994Y3919981D03*
G01*
X6201994Y3919981D03*
D15*
G01*
X7632979Y4299991D03*
G01*
X7886979Y4299991D03*
D16*
G01*
X6829983Y4419980D03*
G01*
X7083983Y4419980D03*
D17*
G01*
X7436002Y2990011D03*
G01*
X7690002Y2990011D03*
G01*
X8205977Y2980004D03*
G01*
X8459977Y2980004D03*
G01*
X8985986Y2969996D03*
G01*
X9239986Y2969996D03*
G01*
X9735997Y2969996D03*
G01*
X9989997Y2969996D03*
G01*
X10525963Y2969996D03*
G01*
X10779963Y2969996D03*
G01*
X11275974Y2969996D03*
G01*
X11529974Y2969996D03*
G01*
X12065965Y2980004D03*
G01*
X12319965Y2980004D03*
G01*
X12815976Y2980004D03*
G01*
X13069976Y2980004D03*
G01*
X6676009Y2990011D03*
G01*
X6930009Y2990011D03*
D18*
G01*
X11777979Y5419979D03*
G01*
X11523979Y5419979D03*
G01*
X11269979Y5419979D03*
G01*
X11015979Y5419979D03*
G01*
X10761979Y5419979D03*
G01*
X10507979Y5419979D03*
G01*
X10253979Y5419979D03*
G01*
X9999979Y5419979D03*
G01*
X11777979Y3895979D03*
G01*
X11523979Y3895979D03*
G01*
X11269979Y3895979D03*
G01*
X11015979Y3895979D03*
G01*
X10761979Y3895979D03*
G01*
X10507979Y3895979D03*
G01*
X10253979Y3895979D03*
G01*
X9999979Y3895979D03*
G01*
X7709992Y414020D03*
G01*
X7709992Y668020D03*
G01*
X7709992Y1684020D03*
G01*
X7709992Y2446020D03*
G01*
X8459977Y414020D03*
G01*
X8459977Y668020D03*
G01*
X8459977Y1684020D03*
G01*
X8459977Y2446020D03*
G01*
X9229979Y414020D03*
G01*
X9229979Y668020D03*
G01*
X9229979Y1684020D03*
G01*
X9229979Y2446020D03*
G01*
X9989972Y414020D03*
G01*
X9989972Y668020D03*
G01*
X9989972Y1684020D03*
G01*
X9989972Y2446020D03*
G01*
X10759973Y414020D03*
G01*
X10759973Y668020D03*
G01*
X10759973Y1684020D03*
G01*
X10759973Y2446020D03*
G01*
X11539981Y424027D03*
G01*
X11539981Y678027D03*
G01*
X11539981Y1694027D03*
G01*
X11539981Y2456027D03*
G01*
X12329972Y424027D03*
G01*
X12329972Y678027D03*
G01*
X12329972Y1694027D03*
G01*
X12329972Y2456027D03*
G01*
X13089966Y434009D03*
G01*
X13089966Y688009D03*
G01*
X13089966Y1704009D03*
G01*
X13089966Y2466009D03*
D19*
G01*
X5219979Y3710000D03*
G01*
X719988Y3710000D03*
D20*
G01*
X4469993Y2210003D03*
G01*
X1469999Y2210003D03*
G01*
X3969994Y5209997D03*
G01*
X1969998Y5209997D03*
D16*
G01*
X9219996Y4969967D03*
G01*
X9219996Y6509969D03*
G01*
X6279997Y5489981D03*
G01*
X6279997Y5989980D03*
D13*
G01*
X1270000Y619988D03*
G01*
X1769998Y619988D03*
D21*
G01*
X9894976Y6279997D03*
G01*
X12084989Y6279997D03*
D22*
G01*
X9219996Y6509969D03*
G01*
X5550001Y1940001D03*
G01*
X6229984Y1789988D03*
G01*
X7219975Y2810002D03*
G01*
X7959979Y2789986D03*
G01*
X8729979Y2799994D03*
G01*
X9489973Y2789986D03*
G01*
X10279989Y2791968D03*
G01*
X11059972Y2789986D03*
G01*
X11839981Y2789986D03*
G01*
X12609982Y2789986D03*
M02*
