G04 Layer: TopSilkscreenLayer*
G04 EasyEDA v6.5.47, 2024-12-30 22:35:42*
G04 2db7030655034aad9c8ba42670310047,9c8959dc7a574dada6669a69c5c32939,10*
G04 Gerber Generator version 0.2*
G04 Scale: 100 percent, Rotated: No, Reflected: No *
G04 Dimensions in millimeters *
G04 leading zeros omitted , absolute positions ,4 integer and 5 decimal *
%FSLAX45Y45*%
%MOMM*%

%ADD10C,0.2032*%
%ADD11C,0.1524*%
%ADD12C,0.1500*%
%ADD13C,0.2540*%

%LPD*%
D10*
X13675045Y5551551D02*
G01*
X13675045Y5449951D01*
X13601131Y5505322D01*
X13601131Y5477637D01*
X13591987Y5459095D01*
X13582589Y5449951D01*
X13554903Y5440553D01*
X13536361Y5440553D01*
X13508675Y5449951D01*
X13490387Y5468493D01*
X13480989Y5496179D01*
X13480989Y5523864D01*
X13490387Y5551551D01*
X13499531Y5560695D01*
X13518073Y5570093D01*
X13675045Y5324220D02*
G01*
X13665901Y5351906D01*
X13637961Y5370448D01*
X13591987Y5379593D01*
X13564301Y5379593D01*
X13518073Y5370448D01*
X13490387Y5351906D01*
X13480989Y5324220D01*
X13480989Y5305932D01*
X13490387Y5277993D01*
X13518073Y5259704D01*
X13564301Y5250306D01*
X13591987Y5250306D01*
X13637961Y5259704D01*
X13665901Y5277993D01*
X13675045Y5305932D01*
X13675045Y5324220D01*
X13675045Y5189346D02*
G01*
X13480989Y5189346D01*
X13573445Y5189346D02*
G01*
X13601131Y5161661D01*
X13610275Y5143372D01*
X13610275Y5115432D01*
X13601131Y5097145D01*
X13573445Y5087746D01*
X13480989Y5087746D01*
X13610275Y4980812D02*
G01*
X13601131Y4999101D01*
X13582589Y5017643D01*
X13554903Y5026787D01*
X13536361Y5026787D01*
X13508675Y5017643D01*
X13490387Y4999101D01*
X13480989Y4980812D01*
X13480989Y4952872D01*
X13490387Y4934585D01*
X13508675Y4916043D01*
X13536361Y4906898D01*
X13554903Y4906898D01*
X13582589Y4916043D01*
X13601131Y4934585D01*
X13610275Y4952872D01*
X13610275Y4980812D01*
X13610275Y4845938D02*
G01*
X13518073Y4845938D01*
X13490387Y4836540D01*
X13480989Y4818253D01*
X13480989Y4790312D01*
X13490387Y4772025D01*
X13518073Y4744338D01*
X13610275Y4744338D02*
G01*
X13480989Y4744338D01*
X13610275Y4683379D02*
G01*
X13480989Y4683379D01*
X13554903Y4683379D02*
G01*
X13582589Y4673980D01*
X13601131Y4655693D01*
X13610275Y4637151D01*
X13610275Y4609464D01*
X13582589Y4446904D02*
G01*
X13601131Y4456048D01*
X13610275Y4483735D01*
X13610275Y4511420D01*
X13601131Y4539106D01*
X13582589Y4548504D01*
X13564301Y4539106D01*
X13554903Y4520819D01*
X13545759Y4474590D01*
X13536361Y4456048D01*
X13518073Y4446904D01*
X13508675Y4446904D01*
X13490387Y4456048D01*
X13480989Y4483735D01*
X13480989Y4511420D01*
X13490387Y4539106D01*
X13508675Y4548504D01*
X13527217Y4376546D02*
G01*
X13518073Y4385945D01*
X13508675Y4376546D01*
X13518073Y4367403D01*
X13527217Y4376546D01*
X13675045Y4195698D02*
G01*
X13480989Y4195698D01*
X13582589Y4195698D02*
G01*
X13601131Y4213987D01*
X13610275Y4232529D01*
X13610275Y4260214D01*
X13601131Y4278756D01*
X13582589Y4297298D01*
X13554903Y4306443D01*
X13536361Y4306443D01*
X13508675Y4297298D01*
X13490387Y4278756D01*
X13480989Y4260214D01*
X13480989Y4232529D01*
X13490387Y4213987D01*
X13508675Y4195698D01*
X13554903Y4134738D02*
G01*
X13554903Y4023740D01*
X13573445Y4023740D01*
X13591987Y4033138D01*
X13601131Y4042282D01*
X13610275Y4060825D01*
X13610275Y4088511D01*
X13601131Y4107053D01*
X13582589Y4125340D01*
X13554903Y4134738D01*
X13536361Y4134738D01*
X13508675Y4125340D01*
X13490387Y4107053D01*
X13480989Y4088511D01*
X13480989Y4060825D01*
X13490387Y4042282D01*
X13508675Y4023740D01*
X13610275Y3962780D02*
G01*
X13480989Y3907409D01*
X13610275Y3852037D02*
G01*
X13480989Y3907409D01*
X1290068Y6645109D02*
G01*
X1290068Y6451053D01*
X1351028Y6645109D02*
G01*
X1351028Y6451053D01*
X1351028Y6645109D02*
G01*
X1434086Y6645109D01*
X1461772Y6635711D01*
X1470916Y6626567D01*
X1480314Y6608025D01*
X1480314Y6589737D01*
X1470916Y6571195D01*
X1461772Y6561797D01*
X1434086Y6552653D01*
X1351028Y6552653D01*
X1415544Y6552653D02*
G01*
X1480314Y6451053D01*
X1541274Y6645109D02*
G01*
X1541274Y6451053D01*
X1541274Y6645109D02*
G01*
X1624332Y6645109D01*
X1652018Y6635711D01*
X1661416Y6626567D01*
X1670560Y6608025D01*
X1670560Y6589737D01*
X1661416Y6571195D01*
X1652018Y6561797D01*
X1624332Y6552653D01*
X1541274Y6552653D01*
X1605790Y6552653D02*
G01*
X1670560Y6451053D01*
X1731520Y6645109D02*
G01*
X1731520Y6451053D01*
X1930910Y6598881D02*
G01*
X1921766Y6617423D01*
X1903224Y6635711D01*
X1884936Y6645109D01*
X1847852Y6645109D01*
X1829310Y6635711D01*
X1811022Y6617423D01*
X1801624Y6598881D01*
X1792480Y6571195D01*
X1792480Y6524967D01*
X1801624Y6497281D01*
X1811022Y6478739D01*
X1829310Y6460197D01*
X1847852Y6451053D01*
X1884936Y6451053D01*
X1903224Y6460197D01*
X1921766Y6478739D01*
X1930910Y6497281D01*
X1930910Y6524967D01*
X1884936Y6524967D02*
G01*
X1930910Y6524967D01*
X2065784Y6645109D02*
G01*
X1991870Y6451053D01*
X2065784Y6645109D02*
G01*
X2139698Y6451053D01*
X2019556Y6515823D02*
G01*
X2112012Y6515823D01*
X2265428Y6645109D02*
G01*
X2265428Y6451053D01*
X2200658Y6645109D02*
G01*
X2329944Y6645109D01*
X2390904Y6645109D02*
G01*
X2390904Y6451053D01*
X2507236Y6645109D02*
G01*
X2488948Y6635711D01*
X2470406Y6617423D01*
X2461262Y6598881D01*
X2451864Y6571195D01*
X2451864Y6524967D01*
X2461262Y6497281D01*
X2470406Y6478739D01*
X2488948Y6460197D01*
X2507236Y6451053D01*
X2544320Y6451053D01*
X2562862Y6460197D01*
X2581150Y6478739D01*
X2590548Y6497281D01*
X2599692Y6524967D01*
X2599692Y6571195D01*
X2590548Y6598881D01*
X2581150Y6617423D01*
X2562862Y6635711D01*
X2544320Y6645109D01*
X2507236Y6645109D01*
X2660652Y6645109D02*
G01*
X2660652Y6451053D01*
X2660652Y6645109D02*
G01*
X2789938Y6451053D01*
X2789938Y6645109D02*
G01*
X2789938Y6451053D01*
X3131822Y6598881D02*
G01*
X3122424Y6617423D01*
X3104136Y6635711D01*
X3085594Y6645109D01*
X3048510Y6645109D01*
X3030222Y6635711D01*
X3011680Y6617423D01*
X3002536Y6598881D01*
X2993138Y6571195D01*
X2993138Y6524967D01*
X3002536Y6497281D01*
X3011680Y6478739D01*
X3030222Y6460197D01*
X3048510Y6451053D01*
X3085594Y6451053D01*
X3104136Y6460197D01*
X3122424Y6478739D01*
X3131822Y6497281D01*
X3248154Y6645109D02*
G01*
X3229612Y6635711D01*
X3211070Y6617423D01*
X3201926Y6598881D01*
X3192782Y6571195D01*
X3192782Y6524967D01*
X3201926Y6497281D01*
X3211070Y6478739D01*
X3229612Y6460197D01*
X3248154Y6451053D01*
X3284984Y6451053D01*
X3303526Y6460197D01*
X3322068Y6478739D01*
X3331212Y6497281D01*
X3340356Y6524967D01*
X3340356Y6571195D01*
X3331212Y6598881D01*
X3322068Y6617423D01*
X3303526Y6635711D01*
X3284984Y6645109D01*
X3248154Y6645109D01*
X3401316Y6645109D02*
G01*
X3401316Y6451053D01*
X3401316Y6645109D02*
G01*
X3530856Y6451053D01*
X3530856Y6645109D02*
G01*
X3530856Y6451053D01*
X3656332Y6645109D02*
G01*
X3656332Y6451053D01*
X3591816Y6645109D02*
G01*
X3721102Y6645109D01*
X3782062Y6645109D02*
G01*
X3782062Y6451053D01*
X3782062Y6645109D02*
G01*
X3865120Y6645109D01*
X3892806Y6635711D01*
X3901950Y6626567D01*
X3911348Y6608025D01*
X3911348Y6589737D01*
X3901950Y6571195D01*
X3892806Y6561797D01*
X3865120Y6552653D01*
X3782062Y6552653D01*
X3846578Y6552653D02*
G01*
X3911348Y6451053D01*
X4027680Y6645109D02*
G01*
X4009138Y6635711D01*
X3990596Y6617423D01*
X3981452Y6598881D01*
X3972308Y6571195D01*
X3972308Y6524967D01*
X3981452Y6497281D01*
X3990596Y6478739D01*
X4009138Y6460197D01*
X4027680Y6451053D01*
X4064510Y6451053D01*
X4083052Y6460197D01*
X4101594Y6478739D01*
X4110738Y6497281D01*
X4120136Y6524967D01*
X4120136Y6571195D01*
X4110738Y6598881D01*
X4101594Y6617423D01*
X4083052Y6635711D01*
X4064510Y6645109D01*
X4027680Y6645109D01*
X4181096Y6645109D02*
G01*
X4181096Y6451053D01*
X4181096Y6451053D02*
G01*
X4291840Y6451053D01*
X4352800Y6645109D02*
G01*
X4352800Y6451053D01*
X4352800Y6451053D02*
G01*
X4463544Y6451053D01*
X4524504Y6645109D02*
G01*
X4524504Y6451053D01*
X4524504Y6645109D02*
G01*
X4644646Y6645109D01*
X4524504Y6552653D02*
G01*
X4598418Y6552653D01*
X4524504Y6451053D02*
G01*
X4644646Y6451053D01*
X4705606Y6645109D02*
G01*
X4705606Y6451053D01*
X4705606Y6645109D02*
G01*
X4788664Y6645109D01*
X4816350Y6635711D01*
X4825748Y6626567D01*
X4834892Y6608025D01*
X4834892Y6589737D01*
X4825748Y6571195D01*
X4816350Y6561797D01*
X4788664Y6552653D01*
X4705606Y6552653D01*
X4770376Y6552653D02*
G01*
X4834892Y6451053D01*
X5038092Y6645109D02*
G01*
X5112006Y6451053D01*
X5185920Y6645109D02*
G01*
X5112006Y6451053D01*
X5256024Y6598881D02*
G01*
X5256024Y6608025D01*
X5265422Y6626567D01*
X5274566Y6635711D01*
X5293108Y6645109D01*
X5329938Y6645109D01*
X5348480Y6635711D01*
X5357624Y6626567D01*
X5367022Y6608025D01*
X5367022Y6589737D01*
X5357624Y6571195D01*
X5339336Y6543509D01*
X5246880Y6451053D01*
X5376166Y6451053D01*
D11*
X7082563Y4644999D02*
G01*
X7077229Y4655413D01*
X7066815Y4665827D01*
X7056655Y4670907D01*
X7035827Y4670907D01*
X7025413Y4665827D01*
X7014999Y4655413D01*
X7009665Y4644999D01*
X7004585Y4629251D01*
X7004585Y4603343D01*
X7009665Y4587849D01*
X7014999Y4577435D01*
X7025413Y4567021D01*
X7035827Y4561941D01*
X7056655Y4561941D01*
X7066815Y4567021D01*
X7077229Y4577435D01*
X7082563Y4587849D01*
X7116853Y4650079D02*
G01*
X7127267Y4655413D01*
X7142761Y4670907D01*
X7142761Y4561941D01*
D10*
X6897651Y4396841D02*
G01*
X6897651Y4331309D01*
X6864885Y4364075D02*
G01*
X6930417Y4364075D01*
X7118885Y4364075D02*
G01*
X7184417Y4364075D01*
X6928385Y4050385D02*
G01*
X6935751Y4053941D01*
X6946673Y4064863D01*
X6946673Y3988409D01*
X6992393Y4064863D02*
G01*
X6981471Y4061307D01*
X6974105Y4050385D01*
X6970549Y4032097D01*
X6970549Y4021175D01*
X6974105Y4002887D01*
X6981471Y3991965D01*
X6992393Y3988409D01*
X6999759Y3988409D01*
X7010681Y3991965D01*
X7017793Y4002887D01*
X7021349Y4021175D01*
X7021349Y4032097D01*
X7017793Y4050385D01*
X7010681Y4061307D01*
X6999759Y4064863D01*
X6992393Y4064863D01*
X7045479Y4039463D02*
G01*
X7045479Y4002887D01*
X7049035Y3991965D01*
X7056401Y3988409D01*
X7067323Y3988409D01*
X7074689Y3991965D01*
X7085357Y4002887D01*
X7085357Y4039463D02*
G01*
X7085357Y3988409D01*
X7138443Y4064863D02*
G01*
X7131331Y4064863D01*
X7123965Y4061307D01*
X7120409Y4050385D01*
X7120409Y3988409D01*
X7109487Y4039463D02*
G01*
X7134887Y4039463D01*
D11*
X7894962Y4591799D02*
G01*
X7889628Y4602213D01*
X7879214Y4612627D01*
X7869054Y4617707D01*
X7848226Y4617707D01*
X7837812Y4612627D01*
X7827398Y4602213D01*
X7822064Y4591799D01*
X7816984Y4576051D01*
X7816984Y4550143D01*
X7822064Y4534649D01*
X7827398Y4524235D01*
X7837812Y4513821D01*
X7848226Y4508741D01*
X7869054Y4508741D01*
X7879214Y4513821D01*
X7889628Y4524235D01*
X7894962Y4534649D01*
X7934332Y4591799D02*
G01*
X7934332Y4596879D01*
X7939666Y4607293D01*
X7944746Y4612627D01*
X7955160Y4617707D01*
X7975988Y4617707D01*
X7986402Y4612627D01*
X7991482Y4607293D01*
X7996816Y4596879D01*
X7996816Y4586465D01*
X7991482Y4576051D01*
X7981068Y4560557D01*
X7929252Y4508741D01*
X8001896Y4508741D01*
D12*
X7689984Y4178795D02*
G01*
X7699128Y4183367D01*
X7712590Y4196829D01*
X7712590Y4101325D01*
X7769994Y4196829D02*
G01*
X7756278Y4192257D01*
X7747134Y4178795D01*
X7742816Y4155935D01*
X7742816Y4142473D01*
X7747134Y4119613D01*
X7756278Y4105897D01*
X7769994Y4101325D01*
X7779138Y4101325D01*
X7792600Y4105897D01*
X7801744Y4119613D01*
X7806316Y4142473D01*
X7806316Y4155935D01*
X7801744Y4178795D01*
X7792600Y4192257D01*
X7779138Y4196829D01*
X7769994Y4196829D01*
X7836288Y4165079D02*
G01*
X7836288Y4101325D01*
X7836288Y4146791D02*
G01*
X7850004Y4160507D01*
X7859148Y4165079D01*
X7872610Y4165079D01*
X7881754Y4160507D01*
X7886326Y4146791D01*
X7886326Y4101325D01*
X7916298Y4196829D02*
G01*
X7916298Y4101325D01*
X7916298Y4196829D02*
G01*
X7975480Y4196829D01*
X7916298Y4151363D02*
G01*
X7952620Y4151363D01*
D11*
X7537574Y3384710D02*
G01*
X7537574Y3275744D01*
X7537574Y3275744D02*
G01*
X7599804Y3275744D01*
X7634094Y3384710D02*
G01*
X7634094Y3275744D01*
X7634094Y3384710D02*
G01*
X7701658Y3384710D01*
X7634094Y3332894D02*
G01*
X7675750Y3332894D01*
X7634094Y3275744D02*
G01*
X7701658Y3275744D01*
X7735948Y3384710D02*
G01*
X7735948Y3275744D01*
X7735948Y3384710D02*
G01*
X7772524Y3384710D01*
X7788018Y3379630D01*
X7798432Y3369216D01*
X7803512Y3358802D01*
X7808846Y3343054D01*
X7808846Y3317146D01*
X7803512Y3301652D01*
X7798432Y3291238D01*
X7788018Y3280824D01*
X7772524Y3275744D01*
X7735948Y3275744D01*
X7843136Y3363882D02*
G01*
X7853550Y3369216D01*
X7869044Y3384710D01*
X7869044Y3275744D01*
D10*
X7494140Y3161444D02*
G01*
X7494140Y3095912D01*
X7461374Y3128678D02*
G01*
X7526906Y3128678D01*
D11*
X8307572Y3374710D02*
G01*
X8307572Y3265744D01*
X8307572Y3265744D02*
G01*
X8369802Y3265744D01*
X8404092Y3374710D02*
G01*
X8404092Y3265744D01*
X8404092Y3374710D02*
G01*
X8471656Y3374710D01*
X8404092Y3322894D02*
G01*
X8445748Y3322894D01*
X8404092Y3265744D02*
G01*
X8471656Y3265744D01*
X8505946Y3374710D02*
G01*
X8505946Y3265744D01*
X8505946Y3374710D02*
G01*
X8542522Y3374710D01*
X8558016Y3369630D01*
X8568430Y3359216D01*
X8573510Y3348802D01*
X8578844Y3333054D01*
X8578844Y3307146D01*
X8573510Y3291652D01*
X8568430Y3281238D01*
X8558016Y3270824D01*
X8542522Y3265744D01*
X8505946Y3265744D01*
X8618214Y3348802D02*
G01*
X8618214Y3353882D01*
X8623548Y3364296D01*
X8628628Y3369630D01*
X8639042Y3374710D01*
X8659870Y3374710D01*
X8670284Y3369630D01*
X8675364Y3364296D01*
X8680698Y3353882D01*
X8680698Y3343468D01*
X8675364Y3333054D01*
X8664950Y3317560D01*
X8613134Y3265744D01*
X8685778Y3265744D01*
D10*
X8264138Y3151444D02*
G01*
X8264138Y3085912D01*
X8231372Y3118678D02*
G01*
X8296904Y3118678D01*
D11*
X9087571Y3364710D02*
G01*
X9087571Y3255744D01*
X9087571Y3255744D02*
G01*
X9149801Y3255744D01*
X9184091Y3364710D02*
G01*
X9184091Y3255744D01*
X9184091Y3364710D02*
G01*
X9251655Y3364710D01*
X9184091Y3312894D02*
G01*
X9225747Y3312894D01*
X9184091Y3255744D02*
G01*
X9251655Y3255744D01*
X9285945Y3364710D02*
G01*
X9285945Y3255744D01*
X9285945Y3364710D02*
G01*
X9322521Y3364710D01*
X9338015Y3359630D01*
X9348429Y3349216D01*
X9353509Y3338802D01*
X9358843Y3323054D01*
X9358843Y3297146D01*
X9353509Y3281652D01*
X9348429Y3271238D01*
X9338015Y3260824D01*
X9322521Y3255744D01*
X9285945Y3255744D01*
X9403547Y3364710D02*
G01*
X9460697Y3364710D01*
X9429455Y3323054D01*
X9444949Y3323054D01*
X9455363Y3317974D01*
X9460697Y3312894D01*
X9465777Y3297146D01*
X9465777Y3286732D01*
X9460697Y3271238D01*
X9450283Y3260824D01*
X9434535Y3255744D01*
X9419041Y3255744D01*
X9403547Y3260824D01*
X9398213Y3265904D01*
X9393133Y3276318D01*
D10*
X9044137Y3141444D02*
G01*
X9044137Y3075912D01*
X9011371Y3108678D02*
G01*
X9076903Y3108678D01*
D11*
X9837569Y3364710D02*
G01*
X9837569Y3255744D01*
X9837569Y3255744D02*
G01*
X9899799Y3255744D01*
X9934089Y3364710D02*
G01*
X9934089Y3255744D01*
X9934089Y3364710D02*
G01*
X10001653Y3364710D01*
X9934089Y3312894D02*
G01*
X9975745Y3312894D01*
X9934089Y3255744D02*
G01*
X10001653Y3255744D01*
X10035943Y3364710D02*
G01*
X10035943Y3255744D01*
X10035943Y3364710D02*
G01*
X10072519Y3364710D01*
X10088013Y3359630D01*
X10098427Y3349216D01*
X10103507Y3338802D01*
X10108841Y3323054D01*
X10108841Y3297146D01*
X10103507Y3281652D01*
X10098427Y3271238D01*
X10088013Y3260824D01*
X10072519Y3255744D01*
X10035943Y3255744D01*
X10194947Y3364710D02*
G01*
X10143131Y3292066D01*
X10221109Y3292066D01*
X10194947Y3364710D02*
G01*
X10194947Y3255744D01*
D10*
X9794135Y3141444D02*
G01*
X9794135Y3075912D01*
X9761369Y3108678D02*
G01*
X9826901Y3108678D01*
D11*
X10627568Y3364710D02*
G01*
X10627568Y3255744D01*
X10627568Y3255744D02*
G01*
X10689798Y3255744D01*
X10724088Y3364710D02*
G01*
X10724088Y3255744D01*
X10724088Y3364710D02*
G01*
X10791652Y3364710D01*
X10724088Y3312894D02*
G01*
X10765744Y3312894D01*
X10724088Y3255744D02*
G01*
X10791652Y3255744D01*
X10825942Y3364710D02*
G01*
X10825942Y3255744D01*
X10825942Y3364710D02*
G01*
X10862518Y3364710D01*
X10878012Y3359630D01*
X10888426Y3349216D01*
X10893506Y3338802D01*
X10898840Y3323054D01*
X10898840Y3297146D01*
X10893506Y3281652D01*
X10888426Y3271238D01*
X10878012Y3260824D01*
X10862518Y3255744D01*
X10825942Y3255744D01*
X10995360Y3364710D02*
G01*
X10943544Y3364710D01*
X10938210Y3317974D01*
X10943544Y3323054D01*
X10959038Y3328388D01*
X10974532Y3328388D01*
X10990280Y3323054D01*
X11000694Y3312894D01*
X11005774Y3297146D01*
X11005774Y3286732D01*
X11000694Y3271238D01*
X10990280Y3260824D01*
X10974532Y3255744D01*
X10959038Y3255744D01*
X10943544Y3260824D01*
X10938210Y3265904D01*
X10933130Y3276318D01*
D10*
X10584134Y3141444D02*
G01*
X10584134Y3075912D01*
X10551368Y3108678D02*
G01*
X10616900Y3108678D01*
D11*
X11377566Y3364710D02*
G01*
X11377566Y3255744D01*
X11377566Y3255744D02*
G01*
X11439796Y3255744D01*
X11474086Y3364710D02*
G01*
X11474086Y3255744D01*
X11474086Y3364710D02*
G01*
X11541650Y3364710D01*
X11474086Y3312894D02*
G01*
X11515742Y3312894D01*
X11474086Y3255744D02*
G01*
X11541650Y3255744D01*
X11575940Y3364710D02*
G01*
X11575940Y3255744D01*
X11575940Y3364710D02*
G01*
X11612516Y3364710D01*
X11628010Y3359630D01*
X11638424Y3349216D01*
X11643504Y3338802D01*
X11648838Y3323054D01*
X11648838Y3297146D01*
X11643504Y3281652D01*
X11638424Y3271238D01*
X11628010Y3260824D01*
X11612516Y3255744D01*
X11575940Y3255744D01*
X11745358Y3349216D02*
G01*
X11740278Y3359630D01*
X11724530Y3364710D01*
X11714116Y3364710D01*
X11698622Y3359630D01*
X11688208Y3343882D01*
X11683128Y3317974D01*
X11683128Y3292066D01*
X11688208Y3271238D01*
X11698622Y3260824D01*
X11714116Y3255744D01*
X11719450Y3255744D01*
X11734944Y3260824D01*
X11745358Y3271238D01*
X11750692Y3286732D01*
X11750692Y3292066D01*
X11745358Y3307560D01*
X11734944Y3317974D01*
X11719450Y3323054D01*
X11714116Y3323054D01*
X11698622Y3317974D01*
X11688208Y3307560D01*
X11683128Y3292066D01*
D10*
X11334132Y3141444D02*
G01*
X11334132Y3075912D01*
X11301366Y3108678D02*
G01*
X11366898Y3108678D01*
D11*
X12167565Y3374710D02*
G01*
X12167565Y3265744D01*
X12167565Y3265744D02*
G01*
X12229795Y3265744D01*
X12264085Y3374710D02*
G01*
X12264085Y3265744D01*
X12264085Y3374710D02*
G01*
X12331649Y3374710D01*
X12264085Y3322894D02*
G01*
X12305741Y3322894D01*
X12264085Y3265744D02*
G01*
X12331649Y3265744D01*
X12365939Y3374710D02*
G01*
X12365939Y3265744D01*
X12365939Y3374710D02*
G01*
X12402515Y3374710D01*
X12418009Y3369630D01*
X12428423Y3359216D01*
X12433503Y3348802D01*
X12438837Y3333054D01*
X12438837Y3307146D01*
X12433503Y3291652D01*
X12428423Y3281238D01*
X12418009Y3270824D01*
X12402515Y3265744D01*
X12365939Y3265744D01*
X12545771Y3374710D02*
G01*
X12493955Y3265744D01*
X12473127Y3374710D02*
G01*
X12545771Y3374710D01*
D10*
X12124131Y3151444D02*
G01*
X12124131Y3085912D01*
X12091365Y3118678D02*
G01*
X12156897Y3118678D01*
D11*
X12917563Y3374710D02*
G01*
X12917563Y3265744D01*
X12917563Y3265744D02*
G01*
X12979793Y3265744D01*
X13014083Y3374710D02*
G01*
X13014083Y3265744D01*
X13014083Y3374710D02*
G01*
X13081647Y3374710D01*
X13014083Y3322894D02*
G01*
X13055739Y3322894D01*
X13014083Y3265744D02*
G01*
X13081647Y3265744D01*
X13115937Y3374710D02*
G01*
X13115937Y3265744D01*
X13115937Y3374710D02*
G01*
X13152513Y3374710D01*
X13168007Y3369630D01*
X13178421Y3359216D01*
X13183501Y3348802D01*
X13188835Y3333054D01*
X13188835Y3307146D01*
X13183501Y3291652D01*
X13178421Y3281238D01*
X13168007Y3270824D01*
X13152513Y3265744D01*
X13115937Y3265744D01*
X13249033Y3374710D02*
G01*
X13233539Y3369630D01*
X13228205Y3359216D01*
X13228205Y3348802D01*
X13233539Y3338388D01*
X13243953Y3333054D01*
X13264527Y3327974D01*
X13280275Y3322894D01*
X13290689Y3312480D01*
X13295769Y3302066D01*
X13295769Y3286318D01*
X13290689Y3275904D01*
X13285355Y3270824D01*
X13269861Y3265744D01*
X13249033Y3265744D01*
X13233539Y3270824D01*
X13228205Y3275904D01*
X13223125Y3286318D01*
X13223125Y3302066D01*
X13228205Y3312480D01*
X13238619Y3322894D01*
X13254113Y3327974D01*
X13274941Y3333054D01*
X13285355Y3338388D01*
X13290689Y3348802D01*
X13290689Y3359216D01*
X13285355Y3369630D01*
X13269861Y3374710D01*
X13249033Y3374710D01*
D10*
X12874129Y3151444D02*
G01*
X12874129Y3085912D01*
X12841363Y3118678D02*
G01*
X12906895Y3118678D01*
D11*
X6847575Y3384710D02*
G01*
X6847575Y3275744D01*
X6847575Y3275744D02*
G01*
X6909805Y3275744D01*
X6944095Y3384710D02*
G01*
X6944095Y3275744D01*
X6944095Y3384710D02*
G01*
X7011659Y3384710D01*
X6944095Y3332894D02*
G01*
X6985751Y3332894D01*
X6944095Y3275744D02*
G01*
X7011659Y3275744D01*
X7045949Y3384710D02*
G01*
X7045949Y3275744D01*
X7045949Y3384710D02*
G01*
X7082525Y3384710D01*
X7098019Y3379630D01*
X7108433Y3369216D01*
X7113513Y3358802D01*
X7118847Y3343054D01*
X7118847Y3317146D01*
X7113513Y3301652D01*
X7108433Y3291238D01*
X7098019Y3280824D01*
X7082525Y3275744D01*
X7045949Y3275744D01*
X7220701Y3348388D02*
G01*
X7215367Y3332894D01*
X7204953Y3322480D01*
X7189459Y3317146D01*
X7184125Y3317146D01*
X7168631Y3322480D01*
X7158217Y3332894D01*
X7153137Y3348388D01*
X7153137Y3353468D01*
X7158217Y3369216D01*
X7168631Y3379630D01*
X7184125Y3384710D01*
X7189459Y3384710D01*
X7204953Y3379630D01*
X7215367Y3369216D01*
X7220701Y3348388D01*
X7220701Y3322480D01*
X7215367Y3296318D01*
X7204953Y3280824D01*
X7189459Y3275744D01*
X7179045Y3275744D01*
X7163551Y3280824D01*
X7158217Y3291238D01*
D10*
X6804141Y3161444D02*
G01*
X6804141Y3095912D01*
X6771375Y3128678D02*
G01*
X6836907Y3128678D01*
D11*
X6507703Y3499993D02*
G01*
X6398737Y3499993D01*
X6507703Y3499993D02*
G01*
X6507703Y3453256D01*
X6502623Y3437762D01*
X6497289Y3432429D01*
X6486875Y3427348D01*
X6476461Y3427348D01*
X6466047Y3432429D01*
X6460967Y3437762D01*
X6455887Y3453256D01*
X6455887Y3499993D01*
X6455887Y3463670D02*
G01*
X6398737Y3427348D01*
X6486875Y3393059D02*
G01*
X6492209Y3382645D01*
X6507703Y3366896D01*
X6398737Y3366896D01*
X6507703Y3301619D02*
G01*
X6502623Y3317112D01*
X6486875Y3327527D01*
X6460967Y3332606D01*
X6445473Y3332606D01*
X6419311Y3327527D01*
X6403817Y3317112D01*
X6398737Y3301619D01*
X6398737Y3291204D01*
X6403817Y3275456D01*
X6419311Y3265043D01*
X6445473Y3259962D01*
X6460967Y3259962D01*
X6486875Y3265043D01*
X6502623Y3275456D01*
X6507703Y3291204D01*
X6507703Y3301619D01*
X12426695Y4683389D02*
G01*
X12348718Y4683389D01*
X12333224Y4678309D01*
X12322809Y4667895D01*
X12317729Y4652147D01*
X12317729Y4641733D01*
X12322809Y4626239D01*
X12333224Y4615825D01*
X12348718Y4610745D01*
X12426695Y4610745D01*
X12405868Y4576455D02*
G01*
X12411202Y4566041D01*
X12426695Y4550293D01*
X12317729Y4550293D01*
D10*
X11881358Y4886589D02*
G01*
X11742927Y4886589D01*
X11715241Y4877445D01*
X11696700Y4858903D01*
X11687556Y4831217D01*
X11687556Y4812675D01*
X11696700Y4784989D01*
X11715241Y4766447D01*
X11742927Y4757303D01*
X11881358Y4757303D01*
X11853672Y4567057D02*
G01*
X11872213Y4585599D01*
X11881358Y4613285D01*
X11881358Y4650115D01*
X11872213Y4677801D01*
X11853672Y4696343D01*
X11835129Y4696343D01*
X11816841Y4687199D01*
X11807443Y4677801D01*
X11798300Y4659259D01*
X11779758Y4603887D01*
X11770613Y4585599D01*
X11761470Y4576201D01*
X11742927Y4567057D01*
X11715241Y4567057D01*
X11696700Y4585599D01*
X11687556Y4613285D01*
X11687556Y4650115D01*
X11696700Y4677801D01*
X11715241Y4696343D01*
X11881358Y4506097D02*
G01*
X11687556Y4506097D01*
X11881358Y4506097D02*
G01*
X11881358Y4423039D01*
X11872213Y4395099D01*
X11863070Y4385955D01*
X11844527Y4376811D01*
X11825986Y4376811D01*
X11807443Y4385955D01*
X11798300Y4395099D01*
X11789156Y4423039D01*
X11789156Y4506097D02*
G01*
X11789156Y4423039D01*
X11779758Y4395099D01*
X11770613Y4385955D01*
X11752072Y4376811D01*
X11724386Y4376811D01*
X11705843Y4385955D01*
X11696700Y4395099D01*
X11687556Y4423039D01*
X11687556Y4506097D01*
D11*
X7144164Y1430797D02*
G01*
X7222142Y1430797D01*
X7237636Y1435877D01*
X7248050Y1446291D01*
X7253130Y1462039D01*
X7253130Y1472453D01*
X7248050Y1487947D01*
X7237636Y1498361D01*
X7222142Y1503441D01*
X7144164Y1503441D01*
X7170072Y1543065D02*
G01*
X7164992Y1543065D01*
X7154578Y1548145D01*
X7149244Y1553479D01*
X7144164Y1563893D01*
X7144164Y1584467D01*
X7149244Y1594881D01*
X7154578Y1600215D01*
X7164992Y1605295D01*
X7175406Y1605295D01*
X7185820Y1600215D01*
X7201314Y1589801D01*
X7253130Y1537731D01*
X7253130Y1610629D01*
X7894162Y1430797D02*
G01*
X7972140Y1430797D01*
X7987634Y1435877D01*
X7998048Y1446291D01*
X8003128Y1462039D01*
X8003128Y1472453D01*
X7998048Y1487947D01*
X7987634Y1498361D01*
X7972140Y1503441D01*
X7894162Y1503441D01*
X7894162Y1548145D02*
G01*
X7894162Y1605295D01*
X7935818Y1574307D01*
X7935818Y1589801D01*
X7940898Y1600215D01*
X7945978Y1605295D01*
X7961726Y1610629D01*
X7972140Y1610629D01*
X7987634Y1605295D01*
X7998048Y1594881D01*
X8003128Y1579387D01*
X8003128Y1563893D01*
X7998048Y1548145D01*
X7992968Y1543065D01*
X7982554Y1537731D01*
X8664160Y1430797D02*
G01*
X8742138Y1430797D01*
X8757632Y1435877D01*
X8768046Y1446291D01*
X8773126Y1462039D01*
X8773126Y1472453D01*
X8768046Y1487947D01*
X8757632Y1498361D01*
X8742138Y1503441D01*
X8664160Y1503441D01*
X8664160Y1589801D02*
G01*
X8736804Y1537731D01*
X8736804Y1615709D01*
X8664160Y1589801D02*
G01*
X8773126Y1589801D01*
X9424159Y1430797D02*
G01*
X9502137Y1430797D01*
X9517631Y1435877D01*
X9528045Y1446291D01*
X9533125Y1462039D01*
X9533125Y1472453D01*
X9528045Y1487947D01*
X9517631Y1498361D01*
X9502137Y1503441D01*
X9424159Y1503441D01*
X9424159Y1600215D02*
G01*
X9424159Y1548145D01*
X9470895Y1543065D01*
X9465815Y1548145D01*
X9460481Y1563893D01*
X9460481Y1579387D01*
X9465815Y1594881D01*
X9475975Y1605295D01*
X9491723Y1610629D01*
X9502137Y1610629D01*
X9517631Y1605295D01*
X9528045Y1594881D01*
X9533125Y1579387D01*
X9533125Y1563893D01*
X9528045Y1548145D01*
X9522965Y1543065D01*
X9512551Y1537731D01*
X10194157Y1430797D02*
G01*
X10272135Y1430797D01*
X10287629Y1435877D01*
X10298043Y1446291D01*
X10303123Y1462039D01*
X10303123Y1472453D01*
X10298043Y1487947D01*
X10287629Y1498361D01*
X10272135Y1503441D01*
X10194157Y1503441D01*
X10209651Y1600215D02*
G01*
X10199237Y1594881D01*
X10194157Y1579387D01*
X10194157Y1568973D01*
X10199237Y1553479D01*
X10214985Y1543065D01*
X10240893Y1537731D01*
X10266801Y1537731D01*
X10287629Y1543065D01*
X10298043Y1553479D01*
X10303123Y1568973D01*
X10303123Y1574307D01*
X10298043Y1589801D01*
X10287629Y1600215D01*
X10272135Y1605295D01*
X10266801Y1605295D01*
X10251307Y1600215D01*
X10240893Y1589801D01*
X10235813Y1574307D01*
X10235813Y1568973D01*
X10240893Y1553479D01*
X10251307Y1543065D01*
X10266801Y1537731D01*
X10974156Y1440797D02*
G01*
X11052134Y1440797D01*
X11067628Y1445877D01*
X11078042Y1456291D01*
X11083122Y1472039D01*
X11083122Y1482453D01*
X11078042Y1497947D01*
X11067628Y1508361D01*
X11052134Y1513441D01*
X10974156Y1513441D01*
X10974156Y1620629D02*
G01*
X11083122Y1568559D01*
X10974156Y1547731D02*
G01*
X10974156Y1620629D01*
X11764154Y1440797D02*
G01*
X11842132Y1440797D01*
X11857626Y1445877D01*
X11868040Y1456291D01*
X11873120Y1472039D01*
X11873120Y1482453D01*
X11868040Y1497947D01*
X11857626Y1508361D01*
X11842132Y1513441D01*
X11764154Y1513441D01*
X11764154Y1573893D02*
G01*
X11769234Y1558145D01*
X11779648Y1553065D01*
X11790062Y1553065D01*
X11800476Y1558145D01*
X11805810Y1568559D01*
X11810890Y1589387D01*
X11815970Y1604881D01*
X11826384Y1615295D01*
X11836798Y1620629D01*
X11852546Y1620629D01*
X11862960Y1615295D01*
X11868040Y1610215D01*
X11873120Y1594467D01*
X11873120Y1573893D01*
X11868040Y1558145D01*
X11862960Y1553065D01*
X11852546Y1547731D01*
X11836798Y1547731D01*
X11826384Y1553065D01*
X11815970Y1563479D01*
X11810890Y1578973D01*
X11805810Y1599801D01*
X11800476Y1610215D01*
X11790062Y1615295D01*
X11779648Y1615295D01*
X11769234Y1610215D01*
X11764154Y1594467D01*
X11764154Y1573893D01*
X12524153Y1450797D02*
G01*
X12602131Y1450797D01*
X12617625Y1455877D01*
X12628039Y1466291D01*
X12633119Y1482039D01*
X12633119Y1492453D01*
X12628039Y1507947D01*
X12617625Y1518361D01*
X12602131Y1523441D01*
X12524153Y1523441D01*
X12560475Y1625295D02*
G01*
X12575969Y1620215D01*
X12586383Y1609801D01*
X12591717Y1594307D01*
X12591717Y1588973D01*
X12586383Y1573479D01*
X12575969Y1563065D01*
X12560475Y1557731D01*
X12555395Y1557731D01*
X12539647Y1563065D01*
X12529233Y1573479D01*
X12524153Y1588973D01*
X12524153Y1594307D01*
X12529233Y1609801D01*
X12539647Y1620215D01*
X12560475Y1625295D01*
X12586383Y1625295D01*
X12612545Y1620215D01*
X12628039Y1609801D01*
X12633119Y1594307D01*
X12633119Y1583893D01*
X12628039Y1568145D01*
X12617625Y1563065D01*
X4798593Y1040114D02*
G01*
X4798593Y962136D01*
X4803673Y946642D01*
X4814087Y936228D01*
X4829835Y931148D01*
X4840249Y931148D01*
X4855743Y936228D01*
X4866157Y946642D01*
X4871237Y962136D01*
X4871237Y1040114D01*
X4905527Y1019286D02*
G01*
X4915941Y1024620D01*
X4931689Y1040114D01*
X4931689Y931148D01*
X4996967Y1040114D02*
G01*
X4981473Y1035034D01*
X4971059Y1019286D01*
X4965979Y993378D01*
X4965979Y977884D01*
X4971059Y951722D01*
X4981473Y936228D01*
X4996967Y931148D01*
X5007381Y931148D01*
X5023129Y936228D01*
X5033543Y951722D01*
X5038623Y977884D01*
X5038623Y993378D01*
X5033543Y1019286D01*
X5023129Y1035034D01*
X5007381Y1040114D01*
X4996967Y1040114D01*
X2995394Y1207076D02*
G01*
X2995394Y1285054D01*
X2990314Y1300548D01*
X2979900Y1310962D01*
X2964152Y1316042D01*
X2953738Y1316042D01*
X2938244Y1310962D01*
X2927830Y1300548D01*
X2922750Y1285054D01*
X2922750Y1207076D01*
X2888460Y1227904D02*
G01*
X2878046Y1222570D01*
X2862298Y1207076D01*
X2862298Y1316042D01*
X2828008Y1227904D02*
G01*
X2817594Y1222570D01*
X2802100Y1207076D01*
X2802100Y1316042D01*
X7619977Y6665315D02*
G01*
X7619977Y6587337D01*
X7625057Y6571843D01*
X7635471Y6561429D01*
X7651219Y6556349D01*
X7661633Y6556349D01*
X7677127Y6561429D01*
X7687541Y6571843D01*
X7692621Y6587337D01*
X7692621Y6665315D01*
X7726911Y6644487D02*
G01*
X7737325Y6649821D01*
X7753073Y6665315D01*
X7753073Y6556349D01*
X7792443Y6639407D02*
G01*
X7792443Y6644487D01*
X7797777Y6654901D01*
X7802857Y6660235D01*
X7813271Y6665315D01*
X7834099Y6665315D01*
X7844513Y6660235D01*
X7849593Y6654901D01*
X7854927Y6644487D01*
X7854927Y6634073D01*
X7849593Y6623659D01*
X7839179Y6608165D01*
X7787363Y6556349D01*
X7860007Y6556349D01*
X1541396Y1192514D02*
G01*
X1541396Y1114536D01*
X1546476Y1099042D01*
X1556890Y1088628D01*
X1572638Y1083548D01*
X1583052Y1083548D01*
X1598546Y1088628D01*
X1608960Y1099042D01*
X1614040Y1114536D01*
X1614040Y1192514D01*
X1648330Y1171686D02*
G01*
X1658744Y1177020D01*
X1674492Y1192514D01*
X1674492Y1083548D01*
X1719196Y1192514D02*
G01*
X1776346Y1192514D01*
X1745104Y1150858D01*
X1760598Y1150858D01*
X1771012Y1145778D01*
X1776346Y1140698D01*
X1781426Y1124950D01*
X1781426Y1114536D01*
X1776346Y1099042D01*
X1765932Y1088628D01*
X1750184Y1083548D01*
X1734690Y1083548D01*
X1719196Y1088628D01*
X1713862Y1093708D01*
X1708782Y1104122D01*
X10869965Y6655305D02*
G01*
X10869965Y6577327D01*
X10875045Y6561833D01*
X10885459Y6551419D01*
X10901207Y6546339D01*
X10911621Y6546339D01*
X10927115Y6551419D01*
X10937529Y6561833D01*
X10942609Y6577327D01*
X10942609Y6655305D01*
X10976899Y6634477D02*
G01*
X10987313Y6639811D01*
X11003061Y6655305D01*
X11003061Y6546339D01*
X11089167Y6655305D02*
G01*
X11037351Y6582661D01*
X11115075Y6582661D01*
X11089167Y6655305D02*
G01*
X11089167Y6546339D01*
D13*
X7562984Y4476991D02*
G01*
X8070984Y4476991D01*
X8070984Y4222991D01*
X7562984Y4222991D01*
X7562984Y4476991D01*
X7753220Y2863199D02*
G01*
X7753753Y3117987D01*
X8523218Y2853199D02*
G01*
X8523752Y3107987D01*
X9303217Y2843199D02*
G01*
X9303750Y3097987D01*
X10053215Y2843199D02*
G01*
X10053749Y3097987D01*
X10843214Y2843199D02*
G01*
X10843747Y3097987D01*
X11593212Y2843199D02*
G01*
X11593746Y3097987D01*
X12383211Y2853199D02*
G01*
X12383744Y3107987D01*
X13133209Y2853199D02*
G01*
X13133743Y3107987D01*
X7063221Y2863199D02*
G01*
X7063755Y3117987D01*
X6120607Y3814953D02*
G01*
X6359367Y3814953D01*
X6359367Y3814953D02*
G01*
X6359367Y3185032D01*
X6359367Y3185032D02*
G01*
X6120607Y3185032D01*
X6120607Y3185032D02*
G01*
X6120607Y3814953D01*
X12031979Y5572389D02*
G01*
X12031979Y3768989D01*
X9745979Y3768989D01*
X9745979Y5572389D01*
X12031979Y5572389D01*
X12285979Y5000889D02*
G01*
X12285979Y4276989D01*
X11536679Y4276989D01*
X11536679Y5000889D01*
X12285979Y5000889D01*
X7290577Y210799D02*
G01*
X7290577Y2649199D01*
X7849377Y2649199D01*
X7849377Y210799D01*
X7290577Y210799D01*
X8040575Y210799D02*
G01*
X8040575Y2649199D01*
X8599375Y2649199D01*
X8599375Y210799D01*
X8040575Y210799D01*
X8810574Y210799D02*
G01*
X8810574Y2649199D01*
X9369374Y2649199D01*
X9369374Y210799D01*
X8810574Y210799D01*
X9570572Y210799D02*
G01*
X9570572Y2649199D01*
X10129372Y2649199D01*
X10129372Y210799D01*
X9570572Y210799D01*
X10340571Y210799D02*
G01*
X10340571Y2649199D01*
X10899371Y2649199D01*
X10899371Y210799D01*
X10340571Y210799D01*
X11120569Y220799D02*
G01*
X11120569Y2659199D01*
X11679369Y2659199D01*
X11679369Y220799D01*
X11120569Y220799D01*
X11910568Y220799D02*
G01*
X11910568Y2659199D01*
X12469368Y2659199D01*
X12469368Y220799D01*
X11910568Y220799D01*
X12670566Y230799D02*
G01*
X12670566Y2669199D01*
X13229366Y2669199D01*
X13229366Y230799D01*
X12670566Y230799D01*
X7049983Y374408D02*
G01*
X7099985Y374434D01*
X2549992Y374408D02*
G01*
X7049983Y374408D01*
X7049983Y99999D02*
G01*
X7099985Y99999D01*
X7049983Y869998D02*
G01*
X7099985Y869998D01*
X7099985Y869998D02*
G01*
X7099985Y99999D01*
X2549992Y869998D02*
G01*
X2549992Y99997D01*
X2549992Y99999D02*
G01*
X7049983Y99999D01*
X2549992Y869998D02*
G01*
X7049983Y869998D01*
X5814794Y1347792D02*
G01*
X174800Y1347792D01*
X174800Y6077780D01*
X5814794Y6077780D01*
X5814794Y1347792D01*
X6025984Y6760001D02*
G01*
X9480384Y6760001D01*
X9480384Y4728001D01*
X6025984Y4728001D01*
X6025984Y6760001D01*
X1019995Y1019997D02*
G01*
X2019995Y1019997D01*
X2019995Y1019997D02*
G01*
X2019995Y249999D01*
X1019995Y1019997D02*
G01*
X1019995Y249999D01*
X1019995Y249999D02*
G01*
X2019995Y249999D01*
X1019995Y840054D02*
G01*
X2019995Y840054D01*
X1019995Y435538D02*
G01*
X2019995Y435538D01*
X2027996Y886698D02*
G01*
X2090795Y886698D01*
X2090795Y782637D01*
X2027996Y782637D01*
X9694565Y6764985D02*
G01*
X12294560Y6764985D01*
X12294560Y5794984D01*
X9694565Y5794984D01*
X9694565Y6764985D01*
G75*
G01*
X7753220Y3116740D02*
G03*
X7753220Y2863248I-190245J-126746D01*
G75*
G01*
X8523219Y3106740D02*
G03*
X8523219Y2853248I-190246J-126746D01*
G75*
G01*
X9303217Y3096740D02*
G03*
X9303217Y2843248I-190245J-126746D01*
G75*
G01*
X10053216Y3096740D02*
G03*
X10053216Y2843248I-190246J-126746D01*
G75*
G01*
X10843214Y3096740D02*
G03*
X10843214Y2843248I-190245J-126746D01*
G75*
G01*
X11593213Y3096740D02*
G03*
X11593213Y2843248I-190246J-126746D01*
G75*
G01*
X12383211Y3106740D02*
G03*
X12383211Y2853248I-190245J-126746D01*
G75*
G01*
X13133210Y3106740D02*
G03*
X13133210Y2853248I-190246J-126746D01*
G75*
G01*
X7063222Y3116740D02*
G03*
X7063222Y2863248I-190246J-126746D01*
G75*
G01
X7344994Y4199992D02*
G03X7344994Y4199992I-315011J0D01*
G75*
G01
X7963992Y2471420D02*
G03X7963992Y2471420I-25400J0D01*
G75*
G01
X8713978Y2471420D02*
G03X8713978Y2471420I-25400J0D01*
G75*
G01
X9483979Y2471420D02*
G03X9483979Y2471420I-25400J0D01*
G75*
G01
X10243972Y2471420D02*
G03X10243972Y2471420I-25400J0D01*
G75*
G01
X11013973Y2471420D02*
G03X11013973Y2471420I-25400J0D01*
G75*
G01
X11793982Y2481428D02*
G03X11793982Y2481428I-25400J0D01*
G75*
G01
X12583973Y2481428D02*
G03X12583973Y2481428I-25400J0D01*
G75*
G01
X13343966Y2491410D02*
G03X13343966Y2491410I-25400J0D01*
M02*
