G04 Layer: TopLayer*
G04 EasyEDA v6.5.48, 2025-01-26 00:11:38*
G04 fc4346687c6f4b058559f65778573f7f,9c8959dc7a574dada6669a69c5c32939,10*
G04 Gerber Generator version 0.2*
G04 Scale: 100 percent, Rotated: No, Reflected: No *
G04 Dimensions in millimeters *
G04 leading zeros omitted , absolute positions ,4 integer and 5 decimal *
%FSLAX45Y45*%
%MOMM*%

%ADD10C,0.2032*%
%ADD11C,0.5000*%
%ADD12C,1.0000*%
%ADD13C,0.2540*%
%ADD14C,2.2000*%
%ADD15C,1.8796*%
%ADD16C,1.5240*%
%ADD17C,2.0000*%
%ADD18C,1.6500*%
%ADD19C,1.8000*%
%ADD20C,3.0000*%
%ADD21C,1.5000*%
%ADD22C,2.5000*%
%ADD23C,0.6200*%
%ADD24C,0.0190*%

%LPD*%
G36*
X5970168Y25908D02*
G01*
X5966256Y26670D01*
X5962954Y28905D01*
X5960770Y32156D01*
X5960008Y36068D01*
X5960008Y546862D01*
X5960313Y549503D01*
X5961329Y551942D01*
X5965444Y559003D01*
X5971692Y573532D01*
X5976213Y588670D01*
X5978956Y604215D01*
X5979871Y620014D01*
X5978956Y635762D01*
X5976213Y651357D01*
X5971641Y666546D01*
X5970828Y670509D01*
X5971590Y674420D01*
X5973775Y677773D01*
X6272123Y976071D01*
X6275374Y978306D01*
X6279286Y979068D01*
X6625742Y979068D01*
X6629755Y978255D01*
X6633108Y975918D01*
X6635292Y972413D01*
X6635902Y968400D01*
X6634886Y964437D01*
X6632397Y961186D01*
X6628841Y959205D01*
X6624675Y957935D01*
X6620611Y956208D01*
X6616649Y954176D01*
X6612890Y951788D01*
X6609384Y949096D01*
X6605930Y945946D01*
X6409639Y749604D01*
X6406489Y747471D01*
X6402781Y746658D01*
X6398971Y747268D01*
X6390944Y750163D01*
X6375603Y753821D01*
X6359906Y755650D01*
X6344107Y755650D01*
X6328410Y753821D01*
X6313017Y750163D01*
X6298184Y744778D01*
X6284061Y737666D01*
X6270853Y728980D01*
X6258763Y718820D01*
X6247892Y707339D01*
X6238443Y694690D01*
X6230569Y680974D01*
X6224320Y666496D01*
X6219748Y651357D01*
X6217005Y635762D01*
X6216091Y620014D01*
X6217005Y604215D01*
X6219748Y588670D01*
X6224320Y573532D01*
X6230569Y559003D01*
X6238443Y545338D01*
X6247892Y532638D01*
X6258763Y521157D01*
X6270853Y510997D01*
X6284061Y502310D01*
X6298184Y495198D01*
X6313017Y489813D01*
X6328410Y486156D01*
X6344107Y484327D01*
X6359906Y484327D01*
X6375603Y486156D01*
X6390944Y489813D01*
X6405829Y495198D01*
X6419951Y502310D01*
X6433159Y510997D01*
X6445250Y521157D01*
X6456070Y532638D01*
X6465519Y545338D01*
X6473444Y559003D01*
X6479692Y573532D01*
X6484213Y588670D01*
X6486956Y604215D01*
X6487871Y620014D01*
X6486956Y635762D01*
X6484213Y651357D01*
X6479641Y666546D01*
X6478828Y670509D01*
X6479590Y674420D01*
X6481775Y677773D01*
X6660235Y856183D01*
X6663486Y858418D01*
X6667398Y859180D01*
X12539776Y859180D01*
X12544399Y859383D01*
X12548819Y859942D01*
X12553137Y860907D01*
X12557404Y862228D01*
X12561468Y863955D01*
X12565430Y865987D01*
X12569190Y868375D01*
X12572695Y871067D01*
X12576149Y874217D01*
X12825780Y1123848D01*
X12828930Y1127302D01*
X12831622Y1130808D01*
X12834010Y1134567D01*
X12836042Y1138529D01*
X12837769Y1142593D01*
X12839090Y1146860D01*
X12840055Y1151178D01*
X12840614Y1155598D01*
X12840817Y1160221D01*
X12840817Y2140813D01*
X12841579Y2144725D01*
X12843814Y2147976D01*
X13047980Y2352192D01*
X13051028Y2354275D01*
X13054634Y2355138D01*
X13058292Y2354681D01*
X13061137Y2353767D01*
X13075462Y2351024D01*
X13089991Y2350109D01*
X13104469Y2351024D01*
X13118795Y2353767D01*
X13132612Y2358237D01*
X13145820Y2364435D01*
X13158063Y2372258D01*
X13169290Y2381504D01*
X13179247Y2392121D01*
X13187832Y2403906D01*
X13194842Y2416657D01*
X13200176Y2430170D01*
X13203783Y2444292D01*
X13205612Y2458720D01*
X13205612Y2473248D01*
X13203783Y2487726D01*
X13200176Y2501798D01*
X13194842Y2515362D01*
X13187832Y2528112D01*
X13179247Y2539847D01*
X13169290Y2550464D01*
X13158063Y2559761D01*
X13145820Y2567533D01*
X13132612Y2573731D01*
X13118795Y2578252D01*
X13104469Y2580995D01*
X13089991Y2581910D01*
X13075462Y2580995D01*
X13061137Y2578252D01*
X13047319Y2573731D01*
X13034162Y2567533D01*
X13021868Y2559761D01*
X13010642Y2550464D01*
X13000685Y2539847D01*
X12992100Y2528112D01*
X12985089Y2515362D01*
X12979755Y2501798D01*
X12976148Y2487726D01*
X12974320Y2473248D01*
X12974320Y2458720D01*
X12976148Y2444292D01*
X12978790Y2434031D01*
X12979044Y2430526D01*
X12978130Y2427173D01*
X12976098Y2424328D01*
X12754051Y2202281D01*
X12750901Y2198827D01*
X12748209Y2195322D01*
X12745821Y2191562D01*
X12743789Y2187600D01*
X12742062Y2183536D01*
X12740741Y2179269D01*
X12739776Y2174951D01*
X12739217Y2170531D01*
X12739014Y2165908D01*
X12739014Y1185316D01*
X12738252Y1181404D01*
X12736017Y1178153D01*
X12521844Y963980D01*
X12518593Y961745D01*
X12514681Y960983D01*
X11706453Y960983D01*
X11702440Y961796D01*
X11699087Y964133D01*
X11696903Y967638D01*
X11696293Y971651D01*
X11697309Y975614D01*
X11699798Y978865D01*
X11703354Y980846D01*
X11707520Y982116D01*
X11711635Y983843D01*
X11715546Y985875D01*
X11719306Y988263D01*
X11722811Y990955D01*
X11726265Y994156D01*
X12095784Y1363929D01*
X12098934Y1367332D01*
X12101626Y1370888D01*
X12104014Y1374597D01*
X12106046Y1378559D01*
X12107773Y1382623D01*
X12109094Y1386890D01*
X12110059Y1391208D01*
X12110618Y1395628D01*
X12110821Y1400251D01*
X12110821Y2160625D01*
X12111583Y2164537D01*
X12113818Y2167788D01*
X12288113Y2342134D01*
X12291212Y2344267D01*
X12294768Y2345131D01*
X12298476Y2344623D01*
X12301169Y2343759D01*
X12315444Y2341016D01*
X12329972Y2340102D01*
X12344501Y2341016D01*
X12358776Y2343759D01*
X12372644Y2348230D01*
X12385802Y2354427D01*
X12398095Y2362250D01*
X12409322Y2371496D01*
X12419279Y2382113D01*
X12427813Y2393899D01*
X12434824Y2406650D01*
X12440208Y2420162D01*
X12443815Y2434285D01*
X12445644Y2448712D01*
X12445644Y2463292D01*
X12443815Y2477719D01*
X12440208Y2491790D01*
X12434824Y2505354D01*
X12427813Y2518105D01*
X12419279Y2529890D01*
X12409322Y2540457D01*
X12398095Y2549753D01*
X12385802Y2557526D01*
X12372644Y2563723D01*
X12358776Y2568244D01*
X12344501Y2570988D01*
X12329972Y2571902D01*
X12315444Y2570988D01*
X12301169Y2568244D01*
X12287300Y2563723D01*
X12274143Y2557526D01*
X12261850Y2549753D01*
X12250623Y2540457D01*
X12240666Y2529890D01*
X12232132Y2518105D01*
X12225121Y2505354D01*
X12219736Y2491790D01*
X12216130Y2477719D01*
X12214301Y2463292D01*
X12214301Y2448712D01*
X12216130Y2434285D01*
X12218822Y2423871D01*
X12219076Y2420366D01*
X12218162Y2417013D01*
X12216130Y2414168D01*
X12024055Y2222093D01*
X12020905Y2218639D01*
X12018213Y2215134D01*
X12015825Y2211374D01*
X12013793Y2207412D01*
X12012066Y2203348D01*
X12010745Y2199081D01*
X12009780Y2194763D01*
X12009221Y2190343D01*
X12009018Y2185720D01*
X12009018Y1425346D01*
X12008256Y1421434D01*
X12006021Y1418132D01*
X11671960Y1083868D01*
X11668658Y1081633D01*
X11664797Y1080871D01*
X6254191Y1080871D01*
X6249568Y1080668D01*
X6245148Y1080109D01*
X6240830Y1079144D01*
X6236563Y1077823D01*
X6232499Y1076096D01*
X6228537Y1074064D01*
X6224778Y1071676D01*
X6221272Y1068984D01*
X6217818Y1065834D01*
X5977331Y825296D01*
X5974029Y823112D01*
X5970168Y822350D01*
X5966256Y823112D01*
X5962954Y825296D01*
X5960770Y828598D01*
X5960008Y832510D01*
X5960008Y1108862D01*
X5960770Y1112723D01*
X5962954Y1116025D01*
X5966256Y1118260D01*
X5970168Y1119022D01*
X11009680Y1119022D01*
X11014303Y1119225D01*
X11018723Y1119784D01*
X11023041Y1120749D01*
X11027308Y1122070D01*
X11031372Y1123797D01*
X11035334Y1125829D01*
X11039094Y1128217D01*
X11042599Y1130909D01*
X11046053Y1134059D01*
X11335816Y1423822D01*
X11338966Y1427276D01*
X11341658Y1430782D01*
X11344046Y1434541D01*
X11346078Y1438503D01*
X11347805Y1442567D01*
X11349126Y1446834D01*
X11350091Y1451152D01*
X11350650Y1455572D01*
X11350853Y1460195D01*
X11350853Y2190851D01*
X11351615Y2194712D01*
X11353850Y2198014D01*
X11498122Y2342134D01*
X11501170Y2344267D01*
X11504777Y2345131D01*
X11508435Y2344623D01*
X11511127Y2343759D01*
X11525453Y2341016D01*
X11539982Y2340102D01*
X11554510Y2341016D01*
X11568785Y2343759D01*
X11582654Y2348230D01*
X11595811Y2354427D01*
X11608104Y2362250D01*
X11619280Y2371496D01*
X11629288Y2382113D01*
X11637822Y2393899D01*
X11644833Y2406650D01*
X11650167Y2420162D01*
X11653824Y2434285D01*
X11655653Y2448712D01*
X11655653Y2463292D01*
X11653824Y2477719D01*
X11650167Y2491790D01*
X11644833Y2505354D01*
X11637822Y2518105D01*
X11629288Y2529890D01*
X11619280Y2540457D01*
X11608104Y2549753D01*
X11595811Y2557526D01*
X11582654Y2563723D01*
X11568785Y2568244D01*
X11554510Y2570988D01*
X11539982Y2571902D01*
X11525453Y2570988D01*
X11511127Y2568244D01*
X11497310Y2563723D01*
X11484152Y2557526D01*
X11471859Y2549753D01*
X11460632Y2540457D01*
X11450675Y2529890D01*
X11442141Y2518105D01*
X11435130Y2505354D01*
X11429746Y2491790D01*
X11426139Y2477719D01*
X11424310Y2463292D01*
X11424310Y2448712D01*
X11426139Y2434285D01*
X11428831Y2423871D01*
X11429085Y2420416D01*
X11428171Y2417013D01*
X11426139Y2414168D01*
X11264138Y2252319D01*
X11260937Y2248865D01*
X11258296Y2245360D01*
X11255857Y2241600D01*
X11253825Y2237689D01*
X11252098Y2233574D01*
X11250777Y2229358D01*
X11249812Y2224989D01*
X11249253Y2220620D01*
X11249050Y2215946D01*
X11249050Y1485290D01*
X11248288Y1481378D01*
X11246053Y1478127D01*
X10991748Y1223822D01*
X10988497Y1221587D01*
X10984585Y1220825D01*
X5970168Y1220825D01*
X5966256Y1221587D01*
X5962954Y1223822D01*
X5960770Y1227124D01*
X5960008Y1230985D01*
X5960008Y1268882D01*
X5960770Y1272743D01*
X5962954Y1276045D01*
X5966256Y1278280D01*
X5970168Y1279042D01*
X10169702Y1279042D01*
X10174325Y1279245D01*
X10178745Y1279804D01*
X10183063Y1280769D01*
X10187330Y1282090D01*
X10191394Y1283817D01*
X10195356Y1285849D01*
X10199116Y1288237D01*
X10202621Y1290929D01*
X10206075Y1294079D01*
X10458500Y1546555D01*
X10461396Y1548587D01*
X10464800Y1549501D01*
X10468813Y1549857D01*
X10477347Y1552143D01*
X10485424Y1555902D01*
X10492689Y1560982D01*
X10498937Y1567230D01*
X10504017Y1574495D01*
X10507776Y1582572D01*
X10510062Y1591106D01*
X10510875Y1600403D01*
X10510875Y2120747D01*
X10511637Y2124659D01*
X10513872Y2127910D01*
X10718088Y2332177D01*
X10721136Y2334260D01*
X10724743Y2335123D01*
X10728401Y2334666D01*
X10731144Y2333752D01*
X10745470Y2331008D01*
X10759998Y2330094D01*
X10774476Y2331008D01*
X10788802Y2333752D01*
X10802620Y2338222D01*
X10815828Y2344420D01*
X10828070Y2352243D01*
X10839297Y2361539D01*
X10849254Y2372106D01*
X10857839Y2383891D01*
X10864850Y2396642D01*
X10870184Y2410206D01*
X10873790Y2424277D01*
X10875619Y2438704D01*
X10875619Y2453284D01*
X10873790Y2467711D01*
X10870184Y2481783D01*
X10864850Y2495346D01*
X10857839Y2508097D01*
X10849254Y2519883D01*
X10839297Y2530500D01*
X10828070Y2539746D01*
X10815828Y2547569D01*
X10802620Y2553766D01*
X10788802Y2558237D01*
X10774476Y2560980D01*
X10759998Y2561894D01*
X10745470Y2560980D01*
X10731144Y2558237D01*
X10717326Y2553766D01*
X10704118Y2547569D01*
X10691876Y2539746D01*
X10680649Y2530500D01*
X10670692Y2519883D01*
X10662107Y2508097D01*
X10655096Y2495346D01*
X10649762Y2481783D01*
X10646156Y2467711D01*
X10644327Y2453284D01*
X10644327Y2438704D01*
X10646156Y2424277D01*
X10648797Y2413914D01*
X10649051Y2410460D01*
X10648137Y2407056D01*
X10646156Y2404211D01*
X10424109Y2182215D01*
X10420959Y2178761D01*
X10418267Y2175256D01*
X10415879Y2171496D01*
X10413847Y2167534D01*
X10412120Y2163470D01*
X10410799Y2159203D01*
X10409834Y2154885D01*
X10409275Y2150465D01*
X10409072Y2145842D01*
X10409072Y1644954D01*
X10408107Y1640687D01*
X10405465Y1637233D01*
X10403636Y1635658D01*
X10151770Y1383842D01*
X10148519Y1381607D01*
X10144607Y1380845D01*
X5970168Y1380845D01*
X5966256Y1381607D01*
X5962954Y1383842D01*
X5960770Y1387144D01*
X5960008Y1391005D01*
X5960008Y1408836D01*
X5960770Y1412697D01*
X5962954Y1415999D01*
X5966256Y1418234D01*
X5970168Y1418996D01*
X7129830Y1418996D01*
X7134453Y1419199D01*
X7138873Y1419758D01*
X7143191Y1420723D01*
X7147458Y1422044D01*
X7151522Y1423771D01*
X7155484Y1425803D01*
X7159244Y1428191D01*
X7162749Y1430883D01*
X7166203Y1434033D01*
X7578191Y1846021D01*
X7581442Y1848256D01*
X7585354Y1849018D01*
X9449866Y1849018D01*
X9454489Y1849221D01*
X9458909Y1849780D01*
X9463227Y1850745D01*
X9467494Y1852066D01*
X9471558Y1853793D01*
X9475520Y1855825D01*
X9479280Y1858213D01*
X9482785Y1860905D01*
X9486239Y1864055D01*
X9952939Y2330805D01*
X9955580Y2332685D01*
X9958730Y2333650D01*
X9962032Y2333599D01*
X9975443Y2331008D01*
X9989972Y2330094D01*
X10004501Y2331008D01*
X10018776Y2333752D01*
X10032644Y2338222D01*
X10045801Y2344420D01*
X10058095Y2352243D01*
X10069322Y2361539D01*
X10079278Y2372106D01*
X10087813Y2383891D01*
X10094823Y2396642D01*
X10100208Y2410206D01*
X10103815Y2424277D01*
X10105644Y2438704D01*
X10105644Y2453284D01*
X10103815Y2467711D01*
X10100208Y2481783D01*
X10094823Y2495346D01*
X10087813Y2508097D01*
X10079278Y2519883D01*
X10069322Y2530500D01*
X10058095Y2539746D01*
X10045801Y2547569D01*
X10032644Y2553766D01*
X10018776Y2558237D01*
X10004501Y2560980D01*
X9989972Y2561894D01*
X9975443Y2560980D01*
X9961168Y2558237D01*
X9947300Y2553766D01*
X9934143Y2547569D01*
X9921849Y2539746D01*
X9910622Y2530500D01*
X9900666Y2519883D01*
X9892131Y2508097D01*
X9885121Y2495346D01*
X9879736Y2481783D01*
X9876129Y2467711D01*
X9874300Y2453284D01*
X9874300Y2438704D01*
X9876129Y2424328D01*
X9880142Y2409088D01*
X9880396Y2405583D01*
X9879482Y2402179D01*
X9877450Y2399334D01*
X9431934Y1953818D01*
X9428683Y1951583D01*
X9424771Y1950821D01*
X7560259Y1950821D01*
X7555636Y1950618D01*
X7551216Y1950059D01*
X7546898Y1949094D01*
X7542631Y1947773D01*
X7538567Y1946046D01*
X7534605Y1944014D01*
X7530846Y1941626D01*
X7527340Y1938934D01*
X7523886Y1935784D01*
X7111898Y1523796D01*
X7108647Y1521561D01*
X7104735Y1520799D01*
X5970168Y1520799D01*
X5966256Y1521561D01*
X5962954Y1523796D01*
X5960770Y1527098D01*
X5960008Y1530959D01*
X5960008Y1579016D01*
X5960770Y1582877D01*
X5962954Y1586179D01*
X5966256Y1588414D01*
X5970168Y1589176D01*
X6949744Y1589176D01*
X6954367Y1589379D01*
X6958787Y1589938D01*
X6963105Y1590903D01*
X6967372Y1592224D01*
X6971436Y1593951D01*
X6975398Y1595983D01*
X6979158Y1598371D01*
X6982663Y1601063D01*
X6986117Y1604213D01*
X7378039Y1996135D01*
X7381290Y1998370D01*
X7385202Y1999132D01*
X8833662Y1999132D01*
X8838285Y1999335D01*
X8842705Y1999894D01*
X8847023Y2000859D01*
X8851290Y2002180D01*
X8855354Y2003907D01*
X8859316Y2005939D01*
X8863076Y2008327D01*
X8866581Y2011019D01*
X8870035Y2014169D01*
X9187992Y2332177D01*
X9191040Y2334260D01*
X9194647Y2335174D01*
X9198356Y2334666D01*
X9201150Y2333752D01*
X9215475Y2331008D01*
X9229953Y2330094D01*
X9244482Y2331008D01*
X9258808Y2333752D01*
X9272625Y2338222D01*
X9285782Y2344420D01*
X9298076Y2352243D01*
X9309303Y2361539D01*
X9319260Y2372106D01*
X9327845Y2383891D01*
X9334855Y2396642D01*
X9340189Y2410206D01*
X9343796Y2424277D01*
X9345625Y2438704D01*
X9345625Y2453284D01*
X9343796Y2467711D01*
X9340189Y2481783D01*
X9334855Y2495346D01*
X9327845Y2508097D01*
X9319260Y2519883D01*
X9309303Y2530500D01*
X9298076Y2539746D01*
X9285782Y2547569D01*
X9272625Y2553766D01*
X9258808Y2558237D01*
X9244482Y2560980D01*
X9229953Y2561894D01*
X9215475Y2560980D01*
X9201150Y2558237D01*
X9187332Y2553766D01*
X9174124Y2547569D01*
X9161881Y2539746D01*
X9150654Y2530500D01*
X9140698Y2519883D01*
X9132112Y2508097D01*
X9125102Y2495346D01*
X9119768Y2481783D01*
X9116161Y2467711D01*
X9114332Y2453284D01*
X9114332Y2438704D01*
X9116161Y2424277D01*
X9118803Y2414016D01*
X9119057Y2410510D01*
X9118142Y2407158D01*
X9116110Y2404262D01*
X8815730Y2103932D01*
X8812479Y2101697D01*
X8808567Y2100935D01*
X7360107Y2100935D01*
X7355484Y2100732D01*
X7351064Y2100173D01*
X7346746Y2099208D01*
X7342479Y2097887D01*
X7338415Y2096160D01*
X7334453Y2094128D01*
X7330694Y2091740D01*
X7327188Y2089048D01*
X7323734Y2085898D01*
X6931812Y1693976D01*
X6928561Y1691741D01*
X6924649Y1690979D01*
X5970168Y1690979D01*
X5966256Y1691741D01*
X5962954Y1693976D01*
X5960770Y1697278D01*
X5960008Y1701139D01*
X5960008Y1878939D01*
X5960770Y1882800D01*
X5962954Y1886102D01*
X5966256Y1888337D01*
X5970168Y1889099D01*
X6659880Y1889099D01*
X6664502Y1889302D01*
X6668922Y1889861D01*
X6673240Y1890826D01*
X6677507Y1892147D01*
X6681571Y1893874D01*
X6685534Y1895906D01*
X6689293Y1898294D01*
X6692798Y1900986D01*
X6696252Y1904136D01*
X7184186Y2392121D01*
X7187488Y2394356D01*
X7191400Y2395118D01*
X7599984Y2395118D01*
X7603490Y2394458D01*
X7606588Y2392629D01*
X7608874Y2389835D01*
X7612125Y2383891D01*
X7620711Y2372106D01*
X7630668Y2361539D01*
X7641844Y2352243D01*
X7654137Y2344420D01*
X7667294Y2338222D01*
X7681163Y2333752D01*
X7695438Y2331008D01*
X7709966Y2330094D01*
X7724495Y2331008D01*
X7738821Y2333752D01*
X7752638Y2338222D01*
X7765796Y2344420D01*
X7778089Y2352243D01*
X7789316Y2361539D01*
X7799273Y2372106D01*
X7807807Y2383891D01*
X7814818Y2396642D01*
X7820202Y2410206D01*
X7823809Y2424277D01*
X7825638Y2438704D01*
X7825638Y2453284D01*
X7823809Y2467711D01*
X7820202Y2481783D01*
X7814818Y2495346D01*
X7807807Y2508097D01*
X7799273Y2519883D01*
X7789316Y2530500D01*
X7778089Y2539746D01*
X7765796Y2547569D01*
X7752638Y2553766D01*
X7738821Y2558237D01*
X7724495Y2560980D01*
X7709966Y2561894D01*
X7695438Y2560980D01*
X7681163Y2558237D01*
X7667294Y2553766D01*
X7654137Y2547569D01*
X7641844Y2539746D01*
X7630668Y2530500D01*
X7620711Y2519883D01*
X7612125Y2508097D01*
X7608874Y2502204D01*
X7606639Y2499410D01*
X7603540Y2497582D01*
X7599984Y2496921D01*
X7166305Y2496921D01*
X7161682Y2496718D01*
X7157262Y2496159D01*
X7152944Y2495194D01*
X7148677Y2493873D01*
X7144613Y2492146D01*
X7140651Y2490114D01*
X7136892Y2487726D01*
X7133386Y2485034D01*
X7129932Y2481884D01*
X6641947Y1993900D01*
X6638696Y1991664D01*
X6634784Y1990902D01*
X5970168Y1990902D01*
X5966256Y1991664D01*
X5962954Y1993900D01*
X5960770Y1997202D01*
X5960008Y2001062D01*
X5960008Y4195013D01*
X5960465Y4198061D01*
X5961786Y4200804D01*
X5963920Y4203039D01*
X7078929Y5069179D01*
X7079996Y5071008D01*
X7079996Y6423964D01*
X7080758Y6427825D01*
X7082942Y6431127D01*
X7086244Y6433362D01*
X7090156Y6434124D01*
X8184286Y6434124D01*
X8188198Y6433362D01*
X8191500Y6431127D01*
X8398306Y6224371D01*
X8407146Y6217310D01*
X8414766Y6212687D01*
X8416950Y6211570D01*
X8425180Y6208166D01*
X8427516Y6207404D01*
X8436152Y6205270D01*
X8438591Y6204864D01*
X8447430Y6204051D01*
X9758934Y6204000D01*
X9762083Y6203492D01*
X9764979Y6202019D01*
X9767214Y6199682D01*
X9777018Y6185916D01*
X9788296Y6173317D01*
X9800894Y6162040D01*
X9814712Y6152235D01*
X9829495Y6144056D01*
X9845141Y6137554D01*
X9861397Y6132880D01*
X9878060Y6130036D01*
X9894976Y6129121D01*
X9911842Y6130036D01*
X9928555Y6132880D01*
X9944811Y6137554D01*
X9960457Y6144056D01*
X9975240Y6152235D01*
X9989058Y6162040D01*
X10001656Y6173317D01*
X10012934Y6185916D01*
X10022738Y6199733D01*
X10030917Y6214516D01*
X10037419Y6230162D01*
X10042093Y6246418D01*
X10044938Y6263081D01*
X10045852Y6279997D01*
X10044938Y6296914D01*
X10042093Y6313576D01*
X10037419Y6329832D01*
X10030917Y6345478D01*
X10022738Y6360261D01*
X10012934Y6374079D01*
X10001656Y6386677D01*
X9989058Y6397955D01*
X9975240Y6407759D01*
X9960457Y6415938D01*
X9944811Y6422440D01*
X9928555Y6427114D01*
X9911842Y6429959D01*
X9894976Y6430873D01*
X9878060Y6429959D01*
X9861397Y6427114D01*
X9845141Y6422440D01*
X9829495Y6415938D01*
X9814712Y6407759D01*
X9800894Y6397955D01*
X9788296Y6386677D01*
X9777018Y6374079D01*
X9767062Y6360109D01*
X9764826Y6357772D01*
X9761982Y6356299D01*
X9758781Y6355791D01*
X8485733Y6355791D01*
X8481822Y6356553D01*
X8478520Y6358788D01*
X8271713Y6565544D01*
X8262874Y6572605D01*
X8255253Y6577228D01*
X8253069Y6578346D01*
X8244840Y6581749D01*
X8242503Y6582511D01*
X8233867Y6584645D01*
X8231428Y6585051D01*
X8222589Y6585864D01*
X7090156Y6585915D01*
X7086244Y6586677D01*
X7082942Y6588912D01*
X7080758Y6592214D01*
X7079996Y6596075D01*
X7079996Y6963918D01*
X7080758Y6967829D01*
X7082942Y6971080D01*
X7086244Y6973316D01*
X7090156Y6974078D01*
X13963904Y6974078D01*
X13967815Y6973316D01*
X13971117Y6971080D01*
X13973301Y6967829D01*
X13974063Y6963918D01*
X13974063Y36068D01*
X13973301Y32156D01*
X13971066Y28905D01*
X13967815Y26670D01*
X13963904Y25908D01*
G37*

%LPC*%
G36*
X13605205Y219151D02*
G01*
X13626185Y220573D01*
X13646962Y223926D01*
X13667333Y229108D01*
X13687094Y236169D01*
X13706195Y244957D01*
X13724382Y255473D01*
X13741552Y267614D01*
X13757554Y281228D01*
X13772286Y296265D01*
X13785545Y312572D01*
X13797280Y329996D01*
X13807338Y348437D01*
X13815720Y367741D01*
X13822324Y387705D01*
X13827048Y408178D01*
X13829893Y429006D01*
X13830858Y449986D01*
X13829893Y470966D01*
X13827048Y491794D01*
X13822324Y512267D01*
X13815720Y532231D01*
X13807338Y551535D01*
X13797280Y569976D01*
X13785545Y587400D01*
X13772286Y603707D01*
X13757554Y618744D01*
X13741552Y632358D01*
X13724382Y644499D01*
X13706195Y655015D01*
X13687094Y663803D01*
X13667333Y670864D01*
X13646962Y676046D01*
X13626185Y679399D01*
X13605205Y680821D01*
X13584224Y680364D01*
X13563346Y677976D01*
X13542772Y673658D01*
X13522655Y667562D01*
X13503198Y659638D01*
X13484504Y649935D01*
X13466826Y638606D01*
X13450214Y625754D01*
X13434872Y611378D01*
X13420851Y595680D01*
X13408355Y578815D01*
X13397433Y560832D01*
X13388187Y541985D01*
X13380719Y522325D01*
X13375030Y502107D01*
X13371220Y481431D01*
X13369290Y460501D01*
X13369290Y439470D01*
X13371220Y418541D01*
X13375030Y397865D01*
X13380719Y377647D01*
X13388187Y357987D01*
X13397433Y339140D01*
X13408355Y321157D01*
X13420851Y304292D01*
X13434872Y288594D01*
X13450214Y274218D01*
X13466826Y261366D01*
X13484504Y250037D01*
X13503198Y240334D01*
X13522655Y232410D01*
X13542772Y226314D01*
X13563346Y221996D01*
X13584224Y219608D01*
G37*
G36*
X10041331Y310337D02*
G01*
X10045801Y312420D01*
X10058095Y320243D01*
X10069322Y329539D01*
X10079278Y340106D01*
X10087813Y351891D01*
X10093706Y362661D01*
X10041331Y362661D01*
G37*
G36*
X8511336Y310337D02*
G01*
X8515807Y312420D01*
X8528100Y320243D01*
X8539327Y329539D01*
X8549284Y340106D01*
X8557818Y351891D01*
X8563711Y362661D01*
X8511336Y362661D01*
G37*
G36*
X10811306Y310337D02*
G01*
X10815828Y312420D01*
X10828070Y320243D01*
X10839297Y329539D01*
X10849254Y340106D01*
X10857839Y351891D01*
X10863732Y362661D01*
X10811306Y362661D01*
G37*
G36*
X9938613Y310337D02*
G01*
X9938613Y362661D01*
X9886238Y362661D01*
X9892131Y351891D01*
X9900666Y340106D01*
X9910622Y329539D01*
X9921849Y320243D01*
X9934143Y312420D01*
G37*
G36*
X9178645Y310337D02*
G01*
X9178645Y362661D01*
X9126220Y362661D01*
X9132112Y351891D01*
X9140698Y340106D01*
X9150654Y329539D01*
X9161881Y320243D01*
X9174124Y312420D01*
G37*
G36*
X9281312Y310337D02*
G01*
X9285782Y312420D01*
X9298076Y320243D01*
X9309303Y329539D01*
X9319260Y340106D01*
X9327845Y351891D01*
X9333738Y362661D01*
X9281312Y362661D01*
G37*
G36*
X8408619Y310337D02*
G01*
X8408619Y362661D01*
X8356244Y362661D01*
X8362137Y351891D01*
X8370671Y340106D01*
X8380628Y329539D01*
X8391855Y320243D01*
X8404148Y312420D01*
G37*
G36*
X7761325Y310337D02*
G01*
X7765796Y312420D01*
X7778089Y320243D01*
X7789316Y329539D01*
X7799273Y340106D01*
X7807807Y351891D01*
X7813751Y362661D01*
X7761325Y362661D01*
G37*
G36*
X10708640Y310337D02*
G01*
X10708640Y362661D01*
X10656214Y362661D01*
X10662107Y351891D01*
X10670692Y340106D01*
X10680649Y329539D01*
X10691876Y320243D01*
X10704118Y312420D01*
G37*
G36*
X7658608Y310337D02*
G01*
X7658608Y362661D01*
X7606233Y362661D01*
X7612125Y351891D01*
X7620711Y340106D01*
X7630668Y329539D01*
X7641844Y320243D01*
X7654137Y312420D01*
G37*
G36*
X12381331Y320344D02*
G01*
X12385802Y322427D01*
X12398095Y330250D01*
X12409322Y339496D01*
X12419279Y350113D01*
X12427813Y361899D01*
X12433706Y372668D01*
X12381331Y372668D01*
G37*
G36*
X11591340Y320344D02*
G01*
X11595811Y322427D01*
X11608104Y330250D01*
X11619280Y339496D01*
X11629288Y350113D01*
X11637822Y361899D01*
X11643715Y372668D01*
X11591340Y372668D01*
G37*
G36*
X12278614Y320344D02*
G01*
X12278614Y372668D01*
X12226239Y372668D01*
X12232132Y361899D01*
X12240666Y350113D01*
X12250623Y339496D01*
X12261850Y330250D01*
X12274143Y322427D01*
G37*
G36*
X11488623Y320344D02*
G01*
X11488623Y372668D01*
X11436197Y372668D01*
X11442141Y361899D01*
X11450675Y350113D01*
X11460632Y339496D01*
X11471859Y330250D01*
X11484152Y322427D01*
G37*
G36*
X13141299Y330352D02*
G01*
X13145820Y332435D01*
X13158063Y340258D01*
X13169290Y349504D01*
X13179247Y360121D01*
X13187832Y371906D01*
X13193725Y382625D01*
X13141299Y382625D01*
G37*
G36*
X13038632Y330352D02*
G01*
X13038632Y382625D01*
X12986207Y382625D01*
X12992100Y371906D01*
X13000685Y360121D01*
X13010642Y349504D01*
X13021868Y340258D01*
X13034162Y332435D01*
G37*
G36*
X10041331Y465328D02*
G01*
X10093706Y465328D01*
X10087813Y476097D01*
X10079278Y487883D01*
X10069322Y498500D01*
X10058095Y507746D01*
X10045801Y515569D01*
X10041331Y517651D01*
G37*
G36*
X8511336Y465328D02*
G01*
X8563711Y465328D01*
X8557818Y476097D01*
X8549284Y487883D01*
X8539327Y498500D01*
X8528100Y507746D01*
X8515807Y515569D01*
X8511336Y517651D01*
G37*
G36*
X9886238Y465328D02*
G01*
X9938613Y465328D01*
X9938613Y517651D01*
X9934143Y515569D01*
X9921849Y507746D01*
X9910622Y498500D01*
X9900666Y487883D01*
X9892131Y476097D01*
G37*
G36*
X10811306Y465328D02*
G01*
X10863732Y465328D01*
X10857839Y476097D01*
X10849254Y487883D01*
X10839297Y498500D01*
X10828070Y507746D01*
X10815828Y515569D01*
X10811306Y517651D01*
G37*
G36*
X9126220Y465328D02*
G01*
X9178645Y465328D01*
X9178645Y517651D01*
X9174124Y515569D01*
X9161881Y507746D01*
X9150654Y498500D01*
X9140698Y487883D01*
X9132112Y476097D01*
G37*
G36*
X9281312Y465328D02*
G01*
X9333738Y465328D01*
X9327845Y476097D01*
X9319260Y487883D01*
X9309303Y498500D01*
X9298076Y507746D01*
X9285782Y515569D01*
X9281312Y517651D01*
G37*
G36*
X7761325Y465328D02*
G01*
X7813751Y465328D01*
X7807807Y476097D01*
X7799273Y487883D01*
X7789316Y498500D01*
X7778089Y507746D01*
X7765796Y515569D01*
X7761325Y517651D01*
G37*
G36*
X7606233Y465328D02*
G01*
X7658608Y465328D01*
X7658608Y517651D01*
X7654137Y515569D01*
X7641844Y507746D01*
X7630668Y498500D01*
X7620711Y487883D01*
X7612125Y476097D01*
G37*
G36*
X8356244Y465328D02*
G01*
X8408619Y465328D01*
X8408619Y517651D01*
X8404148Y515569D01*
X8391855Y507746D01*
X8380628Y498500D01*
X8370671Y487883D01*
X8362137Y476097D01*
G37*
G36*
X10656214Y465328D02*
G01*
X10708640Y465328D01*
X10708640Y517651D01*
X10704118Y515569D01*
X10691876Y507746D01*
X10680649Y498500D01*
X10670692Y487883D01*
X10662107Y476097D01*
G37*
G36*
X11436197Y475335D02*
G01*
X11488623Y475335D01*
X11488623Y527659D01*
X11484152Y525526D01*
X11471859Y517753D01*
X11460632Y508457D01*
X11450675Y497890D01*
X11442141Y486105D01*
G37*
G36*
X12226239Y475335D02*
G01*
X12278614Y475335D01*
X12278614Y527659D01*
X12274143Y525526D01*
X12261850Y517753D01*
X12250623Y508457D01*
X12240666Y497890D01*
X12232132Y486105D01*
G37*
G36*
X11591340Y475335D02*
G01*
X11643715Y475335D01*
X11637822Y486105D01*
X11629288Y497890D01*
X11619280Y508457D01*
X11608104Y517753D01*
X11595811Y525526D01*
X11591340Y527659D01*
G37*
G36*
X12381331Y475335D02*
G01*
X12433706Y475335D01*
X12427813Y486105D01*
X12419279Y497890D01*
X12409322Y508457D01*
X12398095Y517753D01*
X12385802Y525526D01*
X12381331Y527659D01*
G37*
G36*
X6852107Y484327D02*
G01*
X6867906Y484327D01*
X6883603Y486156D01*
X6898944Y489813D01*
X6913829Y495198D01*
X6927951Y502310D01*
X6941159Y510997D01*
X6953250Y521157D01*
X6964070Y532638D01*
X6973519Y545338D01*
X6981444Y559003D01*
X6987692Y573532D01*
X6992213Y588670D01*
X6994956Y604215D01*
X6995871Y620014D01*
X6994956Y635762D01*
X6992213Y651357D01*
X6987692Y666496D01*
X6981444Y680974D01*
X6973519Y694690D01*
X6964070Y707339D01*
X6953250Y718820D01*
X6941159Y728980D01*
X6927951Y737666D01*
X6913829Y744778D01*
X6898944Y750163D01*
X6883603Y753821D01*
X6867906Y755650D01*
X6852107Y755650D01*
X6836409Y753821D01*
X6821017Y750163D01*
X6806184Y744778D01*
X6792061Y737666D01*
X6778853Y728980D01*
X6766763Y718820D01*
X6755892Y707339D01*
X6746443Y694690D01*
X6738569Y680974D01*
X6732320Y666496D01*
X6727748Y651357D01*
X6725005Y635762D01*
X6724091Y620014D01*
X6725005Y604215D01*
X6727748Y588670D01*
X6732320Y573532D01*
X6738569Y559003D01*
X6746443Y545338D01*
X6755892Y532638D01*
X6766763Y521157D01*
X6778853Y510997D01*
X6792061Y502310D01*
X6806184Y495198D01*
X6821017Y489813D01*
X6836409Y486156D01*
G37*
G36*
X13141299Y485343D02*
G01*
X13193725Y485343D01*
X13187832Y496112D01*
X13179247Y507847D01*
X13169290Y518464D01*
X13158063Y527761D01*
X13145820Y535533D01*
X13141299Y537667D01*
G37*
G36*
X12986207Y485343D02*
G01*
X13038632Y485343D01*
X13038632Y537667D01*
X13034162Y535533D01*
X13021868Y527761D01*
X13010642Y518464D01*
X13000685Y507847D01*
X12992100Y496112D01*
G37*
G36*
X8459978Y552094D02*
G01*
X8474506Y553008D01*
X8488781Y555752D01*
X8502650Y560222D01*
X8515807Y566420D01*
X8528100Y574243D01*
X8539327Y583539D01*
X8549284Y594106D01*
X8557818Y605891D01*
X8564829Y618642D01*
X8570214Y632206D01*
X8573820Y646277D01*
X8575649Y660704D01*
X8575649Y675284D01*
X8573820Y689711D01*
X8570214Y703783D01*
X8564829Y717346D01*
X8557818Y730097D01*
X8549284Y741883D01*
X8539327Y752500D01*
X8528100Y761746D01*
X8515807Y769569D01*
X8502650Y775766D01*
X8488781Y780237D01*
X8474506Y782980D01*
X8459978Y783894D01*
X8445449Y782980D01*
X8431174Y780237D01*
X8417306Y775766D01*
X8404148Y769569D01*
X8391855Y761746D01*
X8380628Y752500D01*
X8370671Y741883D01*
X8362137Y730097D01*
X8355126Y717346D01*
X8349742Y703783D01*
X8346135Y689711D01*
X8344306Y675284D01*
X8344306Y660704D01*
X8346135Y646277D01*
X8349742Y632206D01*
X8355126Y618642D01*
X8362137Y605891D01*
X8370671Y594106D01*
X8380628Y583539D01*
X8391855Y574243D01*
X8404148Y566420D01*
X8417306Y560222D01*
X8431174Y555752D01*
X8445449Y553008D01*
G37*
G36*
X9229953Y552094D02*
G01*
X9244482Y553008D01*
X9258808Y555752D01*
X9272625Y560222D01*
X9285782Y566420D01*
X9298076Y574243D01*
X9309303Y583539D01*
X9319260Y594106D01*
X9327845Y605891D01*
X9334855Y618642D01*
X9340189Y632206D01*
X9343796Y646277D01*
X9345625Y660704D01*
X9345625Y675284D01*
X9343796Y689711D01*
X9340189Y703783D01*
X9334855Y717346D01*
X9327845Y730097D01*
X9319260Y741883D01*
X9309303Y752500D01*
X9298076Y761746D01*
X9285782Y769569D01*
X9272625Y775766D01*
X9258808Y780237D01*
X9244482Y782980D01*
X9229953Y783894D01*
X9215475Y782980D01*
X9201150Y780237D01*
X9187332Y775766D01*
X9174124Y769569D01*
X9161881Y761746D01*
X9150654Y752500D01*
X9140698Y741883D01*
X9132112Y730097D01*
X9125102Y717346D01*
X9119768Y703783D01*
X9116161Y689711D01*
X9114332Y675284D01*
X9114332Y660704D01*
X9116161Y646277D01*
X9119768Y632206D01*
X9125102Y618642D01*
X9132112Y605891D01*
X9140698Y594106D01*
X9150654Y583539D01*
X9161881Y574243D01*
X9174124Y566420D01*
X9187332Y560222D01*
X9201150Y555752D01*
X9215475Y553008D01*
G37*
G36*
X10759998Y552094D02*
G01*
X10774476Y553008D01*
X10788802Y555752D01*
X10802620Y560222D01*
X10815828Y566420D01*
X10828070Y574243D01*
X10839297Y583539D01*
X10849254Y594106D01*
X10857839Y605891D01*
X10864850Y618642D01*
X10870184Y632206D01*
X10873790Y646277D01*
X10875619Y660704D01*
X10875619Y675284D01*
X10873790Y689711D01*
X10870184Y703783D01*
X10864850Y717346D01*
X10857839Y730097D01*
X10849254Y741883D01*
X10839297Y752500D01*
X10828070Y761746D01*
X10815828Y769569D01*
X10802620Y775766D01*
X10788802Y780237D01*
X10774476Y782980D01*
X10759998Y783894D01*
X10745470Y782980D01*
X10731144Y780237D01*
X10717326Y775766D01*
X10704118Y769569D01*
X10691876Y761746D01*
X10680649Y752500D01*
X10670692Y741883D01*
X10662107Y730097D01*
X10655096Y717346D01*
X10649762Y703783D01*
X10646156Y689711D01*
X10644327Y675284D01*
X10644327Y660704D01*
X10646156Y646277D01*
X10649762Y632206D01*
X10655096Y618642D01*
X10662107Y605891D01*
X10670692Y594106D01*
X10680649Y583539D01*
X10691876Y574243D01*
X10704118Y566420D01*
X10717326Y560222D01*
X10731144Y555752D01*
X10745470Y553008D01*
G37*
G36*
X9989972Y552094D02*
G01*
X10004501Y553008D01*
X10018776Y555752D01*
X10032644Y560222D01*
X10045801Y566420D01*
X10058095Y574243D01*
X10069322Y583539D01*
X10079278Y594106D01*
X10087813Y605891D01*
X10094823Y618642D01*
X10100208Y632206D01*
X10103815Y646277D01*
X10105644Y660704D01*
X10105644Y675284D01*
X10103815Y689711D01*
X10100208Y703783D01*
X10094823Y717346D01*
X10087813Y730097D01*
X10079278Y741883D01*
X10069322Y752500D01*
X10058095Y761746D01*
X10045801Y769569D01*
X10032644Y775766D01*
X10018776Y780237D01*
X10004501Y782980D01*
X9989972Y783894D01*
X9975443Y782980D01*
X9961168Y780237D01*
X9947300Y775766D01*
X9934143Y769569D01*
X9921849Y761746D01*
X9910622Y752500D01*
X9900666Y741883D01*
X9892131Y730097D01*
X9885121Y717346D01*
X9879736Y703783D01*
X9876129Y689711D01*
X9874300Y675284D01*
X9874300Y660704D01*
X9876129Y646277D01*
X9879736Y632206D01*
X9885121Y618642D01*
X9892131Y605891D01*
X9900666Y594106D01*
X9910622Y583539D01*
X9921849Y574243D01*
X9934143Y566420D01*
X9947300Y560222D01*
X9961168Y555752D01*
X9975443Y553008D01*
G37*
G36*
X7709966Y552094D02*
G01*
X7724495Y553008D01*
X7738821Y555752D01*
X7752638Y560222D01*
X7765796Y566420D01*
X7778089Y574243D01*
X7789316Y583539D01*
X7799273Y594106D01*
X7807807Y605891D01*
X7814818Y618642D01*
X7820202Y632206D01*
X7823809Y646277D01*
X7825638Y660704D01*
X7825638Y675284D01*
X7823809Y689711D01*
X7820202Y703783D01*
X7814818Y717346D01*
X7807807Y730097D01*
X7799273Y741883D01*
X7789316Y752500D01*
X7778089Y761746D01*
X7765796Y769569D01*
X7752638Y775766D01*
X7738821Y780237D01*
X7724495Y782980D01*
X7709966Y783894D01*
X7695438Y782980D01*
X7681163Y780237D01*
X7667294Y775766D01*
X7654137Y769569D01*
X7641844Y761746D01*
X7630668Y752500D01*
X7620711Y741883D01*
X7612125Y730097D01*
X7605115Y717346D01*
X7599781Y703783D01*
X7596124Y689711D01*
X7594295Y675284D01*
X7594295Y660704D01*
X7596124Y646277D01*
X7599781Y632206D01*
X7605115Y618642D01*
X7612125Y605891D01*
X7620711Y594106D01*
X7630668Y583539D01*
X7641844Y574243D01*
X7654137Y566420D01*
X7667294Y560222D01*
X7681163Y555752D01*
X7695438Y553008D01*
G37*
G36*
X11539982Y562102D02*
G01*
X11554510Y563016D01*
X11568785Y565759D01*
X11582654Y570230D01*
X11595811Y576427D01*
X11608104Y584250D01*
X11619280Y593496D01*
X11629288Y604113D01*
X11637822Y615899D01*
X11644833Y628650D01*
X11650167Y642162D01*
X11653824Y656285D01*
X11655653Y670712D01*
X11655653Y685292D01*
X11653824Y699719D01*
X11650167Y713790D01*
X11644833Y727354D01*
X11637822Y740105D01*
X11629288Y751890D01*
X11619280Y762457D01*
X11608104Y771753D01*
X11595811Y779526D01*
X11582654Y785723D01*
X11568785Y790244D01*
X11554510Y792988D01*
X11539982Y793902D01*
X11525453Y792988D01*
X11511127Y790244D01*
X11497310Y785723D01*
X11484152Y779526D01*
X11471859Y771753D01*
X11460632Y762457D01*
X11450675Y751890D01*
X11442141Y740105D01*
X11435130Y727354D01*
X11429746Y713790D01*
X11426139Y699719D01*
X11424310Y685292D01*
X11424310Y670712D01*
X11426139Y656285D01*
X11429746Y642162D01*
X11435130Y628650D01*
X11442141Y615899D01*
X11450675Y604113D01*
X11460632Y593496D01*
X11471859Y584250D01*
X11484152Y576427D01*
X11497310Y570230D01*
X11511127Y565759D01*
X11525453Y563016D01*
G37*
G36*
X12329972Y562102D02*
G01*
X12344501Y563016D01*
X12358776Y565759D01*
X12372644Y570230D01*
X12385802Y576427D01*
X12398095Y584250D01*
X12409322Y593496D01*
X12419279Y604113D01*
X12427813Y615899D01*
X12434824Y628650D01*
X12440208Y642162D01*
X12443815Y656285D01*
X12445644Y670712D01*
X12445644Y685292D01*
X12443815Y699719D01*
X12440208Y713790D01*
X12434824Y727354D01*
X12427813Y740105D01*
X12419279Y751890D01*
X12409322Y762457D01*
X12398095Y771753D01*
X12385802Y779526D01*
X12372644Y785723D01*
X12358776Y790244D01*
X12344501Y792988D01*
X12329972Y793902D01*
X12315444Y792988D01*
X12301169Y790244D01*
X12287300Y785723D01*
X12274143Y779526D01*
X12261850Y771753D01*
X12250623Y762457D01*
X12240666Y751890D01*
X12232132Y740105D01*
X12225121Y727354D01*
X12219736Y713790D01*
X12216130Y699719D01*
X12214301Y685292D01*
X12214301Y670712D01*
X12216130Y656285D01*
X12219736Y642162D01*
X12225121Y628650D01*
X12232132Y615899D01*
X12240666Y604113D01*
X12250623Y593496D01*
X12261850Y584250D01*
X12274143Y576427D01*
X12287300Y570230D01*
X12301169Y565759D01*
X12315444Y563016D01*
G37*
G36*
X13089991Y572109D02*
G01*
X13104469Y573024D01*
X13118795Y575767D01*
X13132612Y580237D01*
X13145820Y586435D01*
X13158063Y594258D01*
X13169290Y603504D01*
X13179247Y614121D01*
X13187832Y625906D01*
X13194842Y638657D01*
X13200176Y652170D01*
X13203783Y666292D01*
X13205612Y680720D01*
X13205612Y695248D01*
X13203783Y709726D01*
X13200176Y723798D01*
X13194842Y737362D01*
X13187832Y750112D01*
X13179247Y761847D01*
X13169290Y772464D01*
X13158063Y781761D01*
X13145820Y789533D01*
X13132612Y795731D01*
X13118795Y800252D01*
X13104469Y802995D01*
X13089991Y803910D01*
X13075462Y802995D01*
X13061137Y800252D01*
X13047319Y795731D01*
X13034162Y789533D01*
X13021868Y781761D01*
X13010642Y772464D01*
X13000685Y761847D01*
X12992100Y750112D01*
X12985089Y737362D01*
X12979755Y723798D01*
X12976148Y709726D01*
X12974320Y695248D01*
X12974320Y680720D01*
X12976148Y666292D01*
X12979755Y652170D01*
X12985089Y638657D01*
X12992100Y625906D01*
X13000685Y614121D01*
X13010642Y603504D01*
X13021868Y594258D01*
X13034162Y586435D01*
X13047319Y580237D01*
X13061137Y575767D01*
X13075462Y573024D01*
G37*
G36*
X7709966Y1568094D02*
G01*
X7724495Y1569008D01*
X7738821Y1571752D01*
X7752638Y1576222D01*
X7765796Y1582420D01*
X7778089Y1590243D01*
X7789316Y1599539D01*
X7799273Y1610106D01*
X7807807Y1621891D01*
X7811109Y1627835D01*
X7813344Y1630629D01*
X7816443Y1632457D01*
X7819999Y1633118D01*
X8349945Y1633118D01*
X8353501Y1632457D01*
X8356600Y1630629D01*
X8358886Y1627835D01*
X8362137Y1621891D01*
X8370671Y1610106D01*
X8380628Y1599539D01*
X8391855Y1590243D01*
X8404148Y1582420D01*
X8417306Y1576222D01*
X8431174Y1571752D01*
X8445449Y1569008D01*
X8459978Y1568094D01*
X8474506Y1569008D01*
X8488781Y1571752D01*
X8502650Y1576222D01*
X8515807Y1582420D01*
X8528100Y1590243D01*
X8539327Y1599539D01*
X8549284Y1610106D01*
X8557818Y1621891D01*
X8561070Y1627835D01*
X8563356Y1630629D01*
X8566454Y1632457D01*
X8570010Y1633118D01*
X9119971Y1633118D01*
X9123476Y1632457D01*
X9126575Y1630629D01*
X9128861Y1627835D01*
X9132112Y1621891D01*
X9140698Y1610106D01*
X9150654Y1599539D01*
X9161881Y1590243D01*
X9174124Y1582420D01*
X9187332Y1576222D01*
X9201150Y1571752D01*
X9215475Y1569008D01*
X9229953Y1568094D01*
X9244482Y1569008D01*
X9258808Y1571752D01*
X9272625Y1576222D01*
X9285782Y1582420D01*
X9298076Y1590243D01*
X9309303Y1599539D01*
X9319260Y1610106D01*
X9327845Y1621891D01*
X9331096Y1627835D01*
X9333331Y1630629D01*
X9336430Y1632457D01*
X9339986Y1633118D01*
X9879939Y1633118D01*
X9883495Y1632457D01*
X9886594Y1630629D01*
X9888880Y1627835D01*
X9892131Y1621891D01*
X9900666Y1610106D01*
X9910622Y1599539D01*
X9921849Y1590243D01*
X9934143Y1582420D01*
X9947300Y1576222D01*
X9961168Y1571752D01*
X9975443Y1569008D01*
X9989972Y1568094D01*
X10004501Y1569008D01*
X10018776Y1571752D01*
X10032644Y1576222D01*
X10045801Y1582420D01*
X10058095Y1590243D01*
X10069322Y1599539D01*
X10079278Y1610106D01*
X10087813Y1621891D01*
X10094823Y1634642D01*
X10100208Y1648206D01*
X10103815Y1662277D01*
X10105644Y1676704D01*
X10105644Y1691284D01*
X10103815Y1705711D01*
X10100208Y1719783D01*
X10094823Y1733346D01*
X10087813Y1746097D01*
X10079278Y1757883D01*
X10069322Y1768500D01*
X10058095Y1777746D01*
X10045700Y1785620D01*
X10043160Y1787906D01*
X10041534Y1790852D01*
X10040975Y1794205D01*
X10040975Y2044801D01*
X10041737Y2048713D01*
X10043972Y2051964D01*
X10608157Y2616149D01*
X10611408Y2618384D01*
X10615320Y2619146D01*
X10884763Y2619146D01*
X10888675Y2618384D01*
X10891926Y2616149D01*
X10986211Y2521864D01*
X10988446Y2518613D01*
X10989208Y2514701D01*
X10989208Y2355240D01*
X10988446Y2351328D01*
X10986211Y2348077D01*
X10714177Y2076043D01*
X10711027Y2072589D01*
X10708335Y2069084D01*
X10705947Y2065324D01*
X10703915Y2061362D01*
X10702188Y2057298D01*
X10700867Y2053031D01*
X10699902Y2048713D01*
X10699343Y2044293D01*
X10699140Y2039670D01*
X10699140Y1787956D01*
X10698581Y1784604D01*
X10696956Y1781657D01*
X10694416Y1779371D01*
X10691876Y1777746D01*
X10680649Y1768500D01*
X10670692Y1757883D01*
X10662107Y1746097D01*
X10655096Y1733346D01*
X10649762Y1719783D01*
X10646156Y1705711D01*
X10644327Y1691284D01*
X10644327Y1676704D01*
X10646156Y1662277D01*
X10649762Y1648206D01*
X10655096Y1634642D01*
X10662107Y1621891D01*
X10670692Y1610106D01*
X10680649Y1599539D01*
X10691876Y1590243D01*
X10704118Y1582420D01*
X10717326Y1576222D01*
X10731144Y1571752D01*
X10745470Y1569008D01*
X10759998Y1568094D01*
X10774476Y1569008D01*
X10788802Y1571752D01*
X10802620Y1576222D01*
X10815828Y1582420D01*
X10828070Y1590243D01*
X10839297Y1599539D01*
X10849254Y1610106D01*
X10857839Y1621891D01*
X10864850Y1634642D01*
X10870184Y1648206D01*
X10873790Y1662277D01*
X10875619Y1676704D01*
X10875619Y1691284D01*
X10873790Y1705711D01*
X10870184Y1719783D01*
X10864850Y1733346D01*
X10857839Y1746097D01*
X10849254Y1757883D01*
X10839297Y1768500D01*
X10828070Y1777746D01*
X10815828Y1785569D01*
X10806785Y1789785D01*
X10803686Y1792020D01*
X10801654Y1795272D01*
X10800943Y1798980D01*
X10800943Y2014575D01*
X10801705Y2018487D01*
X10803940Y2021738D01*
X11075974Y2293772D01*
X11079124Y2297226D01*
X11081816Y2300732D01*
X11084204Y2304491D01*
X11086236Y2308453D01*
X11087963Y2312517D01*
X11089284Y2316784D01*
X11090249Y2321102D01*
X11090808Y2325522D01*
X11091011Y2330145D01*
X11091011Y2539796D01*
X11090808Y2544419D01*
X11090249Y2548839D01*
X11089284Y2553157D01*
X11087963Y2557424D01*
X11086236Y2561488D01*
X11084204Y2565450D01*
X11081816Y2569210D01*
X11079124Y2572715D01*
X11075974Y2576169D01*
X11050320Y2601772D01*
X11048085Y2605074D01*
X11047323Y2608986D01*
X11048085Y2612847D01*
X11050320Y2616149D01*
X11053622Y2618384D01*
X11057483Y2619146D01*
X11674703Y2619146D01*
X11678615Y2618384D01*
X11681866Y2616149D01*
X11776151Y2521864D01*
X11778386Y2518613D01*
X11779148Y2514701D01*
X11779148Y2425344D01*
X11778386Y2421432D01*
X11776151Y2418181D01*
X11504117Y2146147D01*
X11500967Y2142693D01*
X11498275Y2139188D01*
X11495887Y2135428D01*
X11493855Y2131466D01*
X11492128Y2127402D01*
X11490807Y2123135D01*
X11489842Y2118817D01*
X11489283Y2114397D01*
X11489080Y2109774D01*
X11489080Y1804263D01*
X11488521Y1800910D01*
X11486896Y1797964D01*
X11484356Y1795678D01*
X11471859Y1787753D01*
X11460632Y1778457D01*
X11450675Y1767890D01*
X11442141Y1756105D01*
X11435130Y1743354D01*
X11429746Y1729790D01*
X11426139Y1715719D01*
X11424310Y1701292D01*
X11424310Y1686712D01*
X11426139Y1672285D01*
X11429746Y1658162D01*
X11435130Y1644650D01*
X11442141Y1631899D01*
X11450675Y1620113D01*
X11460632Y1609496D01*
X11471859Y1600250D01*
X11484152Y1592427D01*
X11497310Y1586230D01*
X11511127Y1581759D01*
X11525453Y1579016D01*
X11539982Y1578102D01*
X11554510Y1579016D01*
X11568785Y1581759D01*
X11582654Y1586230D01*
X11595811Y1592427D01*
X11608104Y1600250D01*
X11619280Y1609496D01*
X11629288Y1620113D01*
X11637822Y1631899D01*
X11644833Y1644650D01*
X11650167Y1658162D01*
X11653824Y1672285D01*
X11655653Y1686712D01*
X11655653Y1701292D01*
X11653824Y1715719D01*
X11650167Y1729790D01*
X11644833Y1743354D01*
X11637822Y1756105D01*
X11629288Y1767890D01*
X11619280Y1778457D01*
X11608104Y1787753D01*
X11595608Y1795678D01*
X11593068Y1797964D01*
X11591442Y1800910D01*
X11590883Y1804263D01*
X11590883Y2084679D01*
X11591645Y2088591D01*
X11593880Y2091842D01*
X11865914Y2363876D01*
X11869064Y2367330D01*
X11871756Y2370836D01*
X11874144Y2374595D01*
X11876176Y2378557D01*
X11877903Y2382621D01*
X11879224Y2386888D01*
X11880189Y2391206D01*
X11880748Y2395626D01*
X11880951Y2400249D01*
X11880951Y2539796D01*
X11880748Y2544419D01*
X11880189Y2548839D01*
X11879224Y2553157D01*
X11877903Y2557424D01*
X11876176Y2561488D01*
X11874144Y2565450D01*
X11871756Y2569210D01*
X11869064Y2572715D01*
X11865914Y2576169D01*
X11840260Y2601772D01*
X11838025Y2605074D01*
X11837263Y2608986D01*
X11838025Y2612847D01*
X11840260Y2616149D01*
X11843562Y2618384D01*
X11847423Y2619146D01*
X12464643Y2619146D01*
X12468555Y2618384D01*
X12471806Y2616149D01*
X12566091Y2521864D01*
X12568326Y2518613D01*
X12569088Y2514701D01*
X12569088Y2435250D01*
X12568326Y2431338D01*
X12566091Y2428087D01*
X12294057Y2156053D01*
X12290907Y2152599D01*
X12288215Y2149094D01*
X12285827Y2145334D01*
X12283795Y2141372D01*
X12282068Y2137308D01*
X12280747Y2133041D01*
X12279782Y2128723D01*
X12279223Y2124303D01*
X12279020Y2119680D01*
X12279020Y1804212D01*
X12278461Y1800910D01*
X12276836Y1797913D01*
X12274296Y1795627D01*
X12261850Y1787753D01*
X12250623Y1778457D01*
X12240666Y1767890D01*
X12232132Y1756105D01*
X12225121Y1743354D01*
X12219736Y1729790D01*
X12216130Y1715719D01*
X12214301Y1701292D01*
X12214301Y1686712D01*
X12216130Y1672285D01*
X12219736Y1658162D01*
X12225121Y1644650D01*
X12232132Y1631899D01*
X12240666Y1620113D01*
X12250623Y1609496D01*
X12261850Y1600250D01*
X12274143Y1592427D01*
X12287300Y1586230D01*
X12301169Y1581759D01*
X12315444Y1579016D01*
X12329972Y1578102D01*
X12344501Y1579016D01*
X12358776Y1581759D01*
X12372644Y1586230D01*
X12385802Y1592427D01*
X12398095Y1600250D01*
X12409322Y1609496D01*
X12419279Y1620113D01*
X12427813Y1631899D01*
X12434824Y1644650D01*
X12440208Y1658162D01*
X12443815Y1672285D01*
X12445644Y1686712D01*
X12445644Y1701292D01*
X12443815Y1715719D01*
X12440208Y1729790D01*
X12434824Y1743354D01*
X12427813Y1756105D01*
X12419279Y1767890D01*
X12409322Y1778457D01*
X12398095Y1787753D01*
X12385548Y1795729D01*
X12383008Y1797964D01*
X12381382Y1800961D01*
X12380823Y1804314D01*
X12380823Y2094585D01*
X12381585Y2098497D01*
X12383820Y2101748D01*
X12655854Y2373782D01*
X12659004Y2377236D01*
X12661696Y2380742D01*
X12664084Y2384501D01*
X12666116Y2388463D01*
X12667843Y2392527D01*
X12669164Y2396794D01*
X12670129Y2401112D01*
X12670688Y2405532D01*
X12670891Y2410155D01*
X12670891Y2539796D01*
X12670688Y2544419D01*
X12670129Y2548839D01*
X12669164Y2553157D01*
X12667843Y2557424D01*
X12666116Y2561488D01*
X12664084Y2565450D01*
X12661696Y2569210D01*
X12659004Y2572715D01*
X12655854Y2576169D01*
X12630200Y2601772D01*
X12628016Y2605074D01*
X12627203Y2608986D01*
X12628016Y2612847D01*
X12630200Y2616149D01*
X12633502Y2618333D01*
X12637363Y2619146D01*
X13348919Y2619044D01*
X13352780Y2618232D01*
X13356082Y2616047D01*
X13358266Y2612745D01*
X13359028Y2608884D01*
X13359079Y2362301D01*
X13358469Y2358796D01*
X13356691Y2355748D01*
X13051231Y1993239D01*
X13045897Y1985619D01*
X13042138Y1977593D01*
X13039801Y1969058D01*
X13038988Y1959813D01*
X13038988Y1814220D01*
X13038429Y1810867D01*
X13036804Y1807921D01*
X13034263Y1805635D01*
X13021868Y1797761D01*
X13010642Y1788464D01*
X13000685Y1777847D01*
X12992100Y1766112D01*
X12985089Y1753362D01*
X12979755Y1739798D01*
X12976148Y1725726D01*
X12974320Y1711248D01*
X12974320Y1696720D01*
X12976148Y1682292D01*
X12979755Y1668170D01*
X12985089Y1654657D01*
X12992100Y1641906D01*
X13000685Y1630121D01*
X13010642Y1619504D01*
X13021868Y1610258D01*
X13034162Y1602435D01*
X13047319Y1596237D01*
X13061137Y1591767D01*
X13075462Y1589024D01*
X13089991Y1588109D01*
X13104469Y1589024D01*
X13118795Y1591767D01*
X13132612Y1596237D01*
X13145820Y1602435D01*
X13158063Y1610258D01*
X13169290Y1619504D01*
X13179247Y1630121D01*
X13187832Y1641906D01*
X13194842Y1654657D01*
X13200176Y1668170D01*
X13203783Y1682292D01*
X13205612Y1696720D01*
X13205612Y1711248D01*
X13203783Y1725726D01*
X13200176Y1739798D01*
X13194842Y1753362D01*
X13187832Y1766112D01*
X13179247Y1777847D01*
X13169290Y1788464D01*
X13158063Y1797761D01*
X13145516Y1805736D01*
X13142976Y1808022D01*
X13141350Y1810969D01*
X13140791Y1814322D01*
X13140791Y1937816D01*
X13141401Y1941322D01*
X13143179Y1944370D01*
X13448639Y2306828D01*
X13453973Y2314448D01*
X13457732Y2322474D01*
X13460069Y2331059D01*
X13460882Y2340457D01*
X13460831Y3389680D01*
X13460628Y3394303D01*
X13460069Y3398723D01*
X13459104Y3403041D01*
X13457783Y3407308D01*
X13456056Y3411372D01*
X13454024Y3415334D01*
X13451636Y3419094D01*
X13448944Y3422599D01*
X13445794Y3426053D01*
X13203986Y3667861D01*
X13201751Y3671112D01*
X13200989Y3675024D01*
X13200989Y5959906D01*
X13200837Y5963666D01*
X13200176Y5969050D01*
X13199465Y5972454D01*
X13197890Y5977585D01*
X13196569Y5980836D01*
X13194131Y5985611D01*
X13192251Y5988608D01*
X13189051Y5992876D01*
X12876682Y6315252D01*
X12872618Y6319012D01*
X12869875Y6321196D01*
X12865354Y6324092D01*
X12862255Y6325768D01*
X12857327Y6327851D01*
X12853974Y6328918D01*
X12848742Y6330137D01*
X12845288Y6330594D01*
X12839700Y6330899D01*
X12233757Y6330797D01*
X12229896Y6331610D01*
X12226594Y6333794D01*
X12224410Y6337096D01*
X12220905Y6345478D01*
X12212726Y6360261D01*
X12202922Y6374079D01*
X12191644Y6386677D01*
X12179046Y6397955D01*
X12165228Y6407759D01*
X12150445Y6415938D01*
X12134799Y6422440D01*
X12118543Y6427114D01*
X12101880Y6429959D01*
X12084964Y6430873D01*
X12068098Y6429959D01*
X12051385Y6427114D01*
X12035129Y6422440D01*
X12019483Y6415938D01*
X12004700Y6407759D01*
X11990882Y6397955D01*
X11978284Y6386677D01*
X11967006Y6374079D01*
X11957202Y6360261D01*
X11949023Y6345478D01*
X11942572Y6329832D01*
X11937847Y6313576D01*
X11935053Y6296914D01*
X11934088Y6279997D01*
X11935053Y6263081D01*
X11937847Y6246418D01*
X11942572Y6230162D01*
X11949023Y6214516D01*
X11957202Y6199733D01*
X11967006Y6185916D01*
X11978284Y6173317D01*
X11990882Y6162040D01*
X12004700Y6152235D01*
X12019483Y6144056D01*
X12035129Y6137554D01*
X12051385Y6132880D01*
X12068098Y6130036D01*
X12084964Y6129121D01*
X12101880Y6130036D01*
X12118543Y6132880D01*
X12134799Y6137554D01*
X12150445Y6144056D01*
X12165228Y6152235D01*
X12179046Y6162040D01*
X12191644Y6173317D01*
X12202922Y6185916D01*
X12212726Y6199733D01*
X12220905Y6214516D01*
X12224308Y6222746D01*
X12226544Y6226048D01*
X12229795Y6228232D01*
X12233706Y6228994D01*
X12814147Y6229096D01*
X12818110Y6228283D01*
X12821412Y6225997D01*
X13096290Y5942431D01*
X13098424Y5939180D01*
X13099186Y5935370D01*
X13099186Y3649929D01*
X13099389Y3645306D01*
X13099948Y3640886D01*
X13100913Y3636568D01*
X13102234Y3632301D01*
X13103961Y3628237D01*
X13105993Y3624275D01*
X13108381Y3620515D01*
X13111073Y3617010D01*
X13114223Y3613556D01*
X13356031Y3371748D01*
X13358266Y3368497D01*
X13359028Y3364585D01*
X13359028Y2731008D01*
X13358266Y2727096D01*
X13356031Y2723794D01*
X13352729Y2721610D01*
X13348817Y2720848D01*
X12641630Y2720949D01*
X12637211Y2721914D01*
X12633706Y2724708D01*
X12631724Y2728772D01*
X12631674Y2733243D01*
X12633553Y2737307D01*
X12637058Y2740202D01*
X12639802Y2741574D01*
X12647523Y2747314D01*
X12654229Y2754274D01*
X12659614Y2762250D01*
X12663576Y2771038D01*
X12666014Y2780385D01*
X12666827Y2789986D01*
X12666014Y2799588D01*
X12663576Y2808935D01*
X12659614Y2817723D01*
X12654229Y2825699D01*
X12651384Y2828645D01*
X12649301Y2831896D01*
X12648590Y2835706D01*
X12648590Y3185515D01*
X12647777Y3193542D01*
X12645593Y3200806D01*
X12642037Y3207461D01*
X12636906Y3213658D01*
X12143689Y3706876D01*
X12137491Y3712006D01*
X12130786Y3715562D01*
X12123572Y3717747D01*
X12115546Y3718560D01*
X10490098Y3718560D01*
X10486186Y3719322D01*
X10482884Y3721557D01*
X10363301Y3841292D01*
X10361117Y3844544D01*
X10360304Y3848354D01*
X10361066Y3852214D01*
X10364216Y3860190D01*
X10367822Y3874262D01*
X10369651Y3888689D01*
X10369651Y3903268D01*
X10367822Y3917696D01*
X10364216Y3931818D01*
X10361015Y3939794D01*
X10360304Y3943604D01*
X10361117Y3947464D01*
X10363301Y3950715D01*
X10411002Y3998417D01*
X10414304Y4000601D01*
X10418216Y4001363D01*
X10425734Y4001363D01*
X10429748Y4000550D01*
X10433100Y3998163D01*
X10435285Y3994658D01*
X10435844Y3990594D01*
X10434777Y3986631D01*
X10432186Y3983380D01*
X10428630Y3980484D01*
X10418673Y3969867D01*
X10410139Y3958082D01*
X10403128Y3945331D01*
X10397744Y3931818D01*
X10394137Y3917696D01*
X10392308Y3903268D01*
X10392308Y3888689D01*
X10394137Y3874262D01*
X10397744Y3860190D01*
X10403128Y3846626D01*
X10410139Y3833876D01*
X10418673Y3822141D01*
X10428630Y3811524D01*
X10439857Y3802227D01*
X10452150Y3794455D01*
X10465308Y3788257D01*
X10479176Y3783736D01*
X10493451Y3780993D01*
X10507980Y3780078D01*
X10522508Y3780993D01*
X10536783Y3783736D01*
X10550652Y3788257D01*
X10563809Y3794455D01*
X10576102Y3802227D01*
X10587329Y3811524D01*
X10597286Y3822141D01*
X10605820Y3833876D01*
X10612831Y3846626D01*
X10618216Y3860190D01*
X10621822Y3874262D01*
X10623651Y3888689D01*
X10623651Y3903268D01*
X10621822Y3917696D01*
X10618216Y3931818D01*
X10612831Y3945331D01*
X10605820Y3958082D01*
X10597286Y3969867D01*
X10587329Y3980484D01*
X10583773Y3983380D01*
X10581182Y3986631D01*
X10580116Y3990594D01*
X10580674Y3994658D01*
X10582859Y3998163D01*
X10586212Y4000550D01*
X10590225Y4001363D01*
X10679734Y4001363D01*
X10683748Y4000550D01*
X10687100Y3998163D01*
X10689285Y3994658D01*
X10689844Y3990594D01*
X10688777Y3986631D01*
X10686186Y3983380D01*
X10682630Y3980484D01*
X10672673Y3969867D01*
X10664139Y3958082D01*
X10657128Y3945331D01*
X10651744Y3931818D01*
X10648137Y3917696D01*
X10646308Y3903268D01*
X10646308Y3888689D01*
X10648137Y3874262D01*
X10651744Y3860190D01*
X10657128Y3846626D01*
X10664139Y3833876D01*
X10672673Y3822141D01*
X10682630Y3811524D01*
X10693857Y3802227D01*
X10706150Y3794455D01*
X10719308Y3788257D01*
X10733176Y3783736D01*
X10747451Y3780993D01*
X10761980Y3780078D01*
X10776508Y3780993D01*
X10790783Y3783736D01*
X10804652Y3788257D01*
X10817809Y3794455D01*
X10830102Y3802227D01*
X10841329Y3811524D01*
X10851286Y3822141D01*
X10859820Y3833876D01*
X10866831Y3846626D01*
X10872216Y3860190D01*
X10875822Y3874262D01*
X10877651Y3888689D01*
X10877651Y3903268D01*
X10875822Y3917696D01*
X10872216Y3931818D01*
X10866831Y3945331D01*
X10859820Y3958082D01*
X10851286Y3969867D01*
X10841329Y3980484D01*
X10837773Y3983380D01*
X10835182Y3986631D01*
X10834116Y3990594D01*
X10834674Y3994658D01*
X10836859Y3998163D01*
X10840212Y4000550D01*
X10844225Y4001363D01*
X10933734Y4001363D01*
X10937748Y4000550D01*
X10941100Y3998163D01*
X10943285Y3994658D01*
X10943844Y3990594D01*
X10942777Y3986631D01*
X10940186Y3983380D01*
X10936630Y3980484D01*
X10926673Y3969867D01*
X10918139Y3958082D01*
X10911128Y3945331D01*
X10905744Y3931818D01*
X10902137Y3917696D01*
X10900308Y3903268D01*
X10900308Y3888689D01*
X10902137Y3874262D01*
X10905744Y3860190D01*
X10911128Y3846626D01*
X10918139Y3833876D01*
X10926673Y3822141D01*
X10936630Y3811524D01*
X10947857Y3802227D01*
X10960150Y3794455D01*
X10973308Y3788257D01*
X10987176Y3783736D01*
X11001451Y3780993D01*
X11015980Y3780078D01*
X11030508Y3780993D01*
X11044783Y3783736D01*
X11058652Y3788257D01*
X11071809Y3794455D01*
X11084102Y3802227D01*
X11095329Y3811524D01*
X11105286Y3822141D01*
X11113820Y3833876D01*
X11120831Y3846626D01*
X11126216Y3860190D01*
X11129822Y3874262D01*
X11131651Y3888689D01*
X11131651Y3903268D01*
X11129822Y3917696D01*
X11126216Y3931818D01*
X11120831Y3945331D01*
X11113820Y3958082D01*
X11105286Y3969867D01*
X11095329Y3980484D01*
X11091773Y3983380D01*
X11089182Y3986631D01*
X11088116Y3990594D01*
X11088674Y3994658D01*
X11090859Y3998163D01*
X11094212Y4000550D01*
X11098225Y4001363D01*
X11187734Y4001363D01*
X11191748Y4000550D01*
X11195100Y3998163D01*
X11197285Y3994658D01*
X11197844Y3990594D01*
X11196777Y3986631D01*
X11194186Y3983380D01*
X11190630Y3980484D01*
X11180673Y3969867D01*
X11172139Y3958082D01*
X11165128Y3945331D01*
X11159744Y3931818D01*
X11156137Y3917696D01*
X11154308Y3903268D01*
X11154308Y3888689D01*
X11156137Y3874262D01*
X11159744Y3860190D01*
X11165128Y3846626D01*
X11172139Y3833876D01*
X11180673Y3822141D01*
X11190630Y3811524D01*
X11201857Y3802227D01*
X11214150Y3794455D01*
X11227308Y3788257D01*
X11241176Y3783736D01*
X11255451Y3780993D01*
X11269980Y3780078D01*
X11284508Y3780993D01*
X11298783Y3783736D01*
X11312652Y3788257D01*
X11325809Y3794455D01*
X11338102Y3802227D01*
X11349329Y3811524D01*
X11359286Y3822141D01*
X11367820Y3833876D01*
X11374831Y3846626D01*
X11380216Y3860190D01*
X11383822Y3874262D01*
X11385651Y3888689D01*
X11385651Y3903268D01*
X11383822Y3917696D01*
X11380216Y3931818D01*
X11374831Y3945331D01*
X11367820Y3958082D01*
X11359286Y3969867D01*
X11349329Y3980484D01*
X11345773Y3983380D01*
X11343182Y3986631D01*
X11342116Y3990594D01*
X11342674Y3994658D01*
X11344859Y3998163D01*
X11348212Y4000550D01*
X11352225Y4001363D01*
X11441734Y4001363D01*
X11445748Y4000550D01*
X11449100Y3998163D01*
X11451285Y3994658D01*
X11451844Y3990594D01*
X11450777Y3986631D01*
X11448186Y3983380D01*
X11444630Y3980484D01*
X11434673Y3969867D01*
X11426139Y3958082D01*
X11420246Y3947363D01*
X11472621Y3947363D01*
X11472621Y3991203D01*
X11473383Y3995115D01*
X11475618Y3998417D01*
X11478920Y4000601D01*
X11482781Y4001363D01*
X11565178Y4001363D01*
X11569039Y4000601D01*
X11572341Y3998417D01*
X11574576Y3995115D01*
X11575338Y3991203D01*
X11575338Y3947363D01*
X11627713Y3947363D01*
X11621820Y3958082D01*
X11613286Y3969867D01*
X11603329Y3980484D01*
X11599773Y3983380D01*
X11597182Y3986631D01*
X11596116Y3990594D01*
X11596674Y3994658D01*
X11598859Y3998163D01*
X11602212Y4000550D01*
X11606225Y4001363D01*
X11695734Y4001363D01*
X11699748Y4000550D01*
X11703100Y3998163D01*
X11705285Y3994658D01*
X11705844Y3990594D01*
X11704777Y3986631D01*
X11702186Y3983380D01*
X11698630Y3980484D01*
X11688673Y3969867D01*
X11680139Y3958082D01*
X11673128Y3945331D01*
X11667744Y3931818D01*
X11664137Y3917696D01*
X11662308Y3903268D01*
X11662308Y3888689D01*
X11664137Y3874262D01*
X11667744Y3860190D01*
X11673128Y3846626D01*
X11680139Y3833876D01*
X11688673Y3822141D01*
X11698630Y3811524D01*
X11709857Y3802227D01*
X11722150Y3794455D01*
X11735308Y3788257D01*
X11749176Y3783736D01*
X11763451Y3780993D01*
X11777980Y3780078D01*
X11792508Y3780993D01*
X11806783Y3783736D01*
X11820652Y3788257D01*
X11833809Y3794455D01*
X11846102Y3802227D01*
X11857329Y3811524D01*
X11867286Y3822141D01*
X11875820Y3833876D01*
X11882831Y3846626D01*
X11888216Y3860190D01*
X11891822Y3874262D01*
X11893651Y3888689D01*
X11893651Y3903268D01*
X11891822Y3917696D01*
X11888216Y3931818D01*
X11882831Y3945331D01*
X11875820Y3958082D01*
X11867286Y3969867D01*
X11857329Y3980484D01*
X11853773Y3983380D01*
X11851182Y3986631D01*
X11850116Y3990594D01*
X11850674Y3994658D01*
X11852859Y3998163D01*
X11856212Y4000550D01*
X11860225Y4001363D01*
X12441783Y4001363D01*
X12445644Y4000601D01*
X12448946Y3998417D01*
X12629591Y3817823D01*
X12631724Y3814572D01*
X12632537Y3810762D01*
X12631877Y3806951D01*
X12627762Y3796334D01*
X12624155Y3782009D01*
X12622326Y3767378D01*
X12622326Y3752596D01*
X12624155Y3737965D01*
X12627762Y3723640D01*
X12633096Y3709873D01*
X12640056Y3696868D01*
X12648590Y3684828D01*
X12658547Y3673957D01*
X12669723Y3664356D01*
X12682016Y3656177D01*
X12695275Y3649624D01*
X12709194Y3644696D01*
X12723571Y3641547D01*
X12738303Y3640175D01*
X12753035Y3640632D01*
X12767614Y3642918D01*
X12781788Y3646932D01*
X12795402Y3652672D01*
X12808204Y3660089D01*
X12819938Y3668979D01*
X12830556Y3679240D01*
X12839801Y3690721D01*
X12847574Y3703269D01*
X12853771Y3716680D01*
X12858242Y3730751D01*
X12860934Y3745280D01*
X12861848Y3760012D01*
X12860934Y3774744D01*
X12858242Y3789222D01*
X12853771Y3803294D01*
X12847574Y3816705D01*
X12839801Y3829253D01*
X12830556Y3840734D01*
X12819938Y3851046D01*
X12808204Y3859936D01*
X12795402Y3867302D01*
X12781788Y3873042D01*
X12767614Y3877106D01*
X12753035Y3879342D01*
X12738303Y3879799D01*
X12723571Y3878427D01*
X12709194Y3875278D01*
X12694615Y3870147D01*
X12690856Y3869588D01*
X12687147Y3870401D01*
X12684048Y3872534D01*
X12489637Y4066946D01*
X12483388Y4072077D01*
X12476734Y4075633D01*
X12469520Y4077817D01*
X12461494Y4078579D01*
X10398506Y4078579D01*
X10390479Y4077817D01*
X10383215Y4075633D01*
X10376560Y4072077D01*
X10370362Y4066946D01*
X10308844Y4005427D01*
X10305389Y4003141D01*
X10301325Y4002481D01*
X10296652Y4003751D01*
X10282783Y4008221D01*
X10268508Y4010964D01*
X10253980Y4011879D01*
X10239451Y4010964D01*
X10225176Y4008221D01*
X10211308Y4003751D01*
X10198150Y3997553D01*
X10185857Y3989730D01*
X10174630Y3980484D01*
X10164673Y3969867D01*
X10156139Y3958082D01*
X10149128Y3945331D01*
X10143744Y3931818D01*
X10140137Y3917696D01*
X10138308Y3903268D01*
X10138308Y3888689D01*
X10140137Y3874262D01*
X10143744Y3860190D01*
X10149128Y3846626D01*
X10156139Y3833876D01*
X10164673Y3822141D01*
X10174630Y3811524D01*
X10185857Y3802227D01*
X10198150Y3794455D01*
X10211308Y3788257D01*
X10225176Y3783736D01*
X10239451Y3780993D01*
X10253980Y3780078D01*
X10268508Y3780993D01*
X10282783Y3783736D01*
X10296652Y3788257D01*
X10301325Y3789527D01*
X10305389Y3788816D01*
X10308844Y3786530D01*
X10442194Y3653028D01*
X10452049Y3644849D01*
X10453878Y3640785D01*
X10453776Y3636314D01*
X10451744Y3632352D01*
X10448239Y3629609D01*
X10443921Y3628644D01*
X10326268Y3628644D01*
X10322356Y3629406D01*
X10319054Y3631641D01*
X10109352Y3841343D01*
X10107168Y3844594D01*
X10106355Y3848455D01*
X10107066Y3852265D01*
X10110216Y3860190D01*
X10113822Y3874262D01*
X10115651Y3888689D01*
X10115651Y3903268D01*
X10113822Y3917696D01*
X10110216Y3931818D01*
X10107015Y3939794D01*
X10106304Y3943604D01*
X10107117Y3947464D01*
X10109301Y3950715D01*
X10297007Y4138422D01*
X10300309Y4140606D01*
X10304170Y4141368D01*
X12601752Y4141368D01*
X12605664Y4140606D01*
X12608966Y4138422D01*
X12629591Y4117797D01*
X12631724Y4114596D01*
X12632537Y4110786D01*
X12631877Y4106926D01*
X12627762Y4096308D01*
X12624155Y4082034D01*
X12622326Y4067352D01*
X12622326Y4052620D01*
X12624155Y4037990D01*
X12627762Y4023664D01*
X12633096Y4009898D01*
X12640056Y3996893D01*
X12648590Y3984853D01*
X12658547Y3973931D01*
X12669723Y3964330D01*
X12682016Y3956202D01*
X12695275Y3949598D01*
X12709194Y3944721D01*
X12723571Y3941521D01*
X12738303Y3940200D01*
X12753035Y3940657D01*
X12767614Y3942892D01*
X12781788Y3946956D01*
X12795402Y3952697D01*
X12808204Y3960063D01*
X12819938Y3968953D01*
X12830556Y3979214D01*
X12839801Y3990746D01*
X12847574Y4003294D01*
X12853771Y4016705D01*
X12858242Y4030776D01*
X12860934Y4045254D01*
X12861848Y4059986D01*
X12860934Y4074718D01*
X12858242Y4089247D01*
X12853771Y4103268D01*
X12847574Y4116679D01*
X12839801Y4129227D01*
X12830556Y4140758D01*
X12819938Y4151020D01*
X12808204Y4159910D01*
X12795402Y4167276D01*
X12781788Y4173067D01*
X12767614Y4177080D01*
X12753035Y4179366D01*
X12738303Y4179824D01*
X12723571Y4178452D01*
X12709194Y4175302D01*
X12694615Y4170121D01*
X12690856Y4169562D01*
X12687147Y4170426D01*
X12684048Y4172559D01*
X12649606Y4206951D01*
X12643408Y4212031D01*
X12636754Y4215638D01*
X12629489Y4217822D01*
X12621463Y4218584D01*
X10284510Y4218584D01*
X10276484Y4217822D01*
X10269220Y4215638D01*
X10262565Y4212031D01*
X10256316Y4206951D01*
X10054844Y4005427D01*
X10051389Y4003141D01*
X10047325Y4002481D01*
X10042652Y4003751D01*
X10028783Y4008221D01*
X10014508Y4010964D01*
X9999980Y4011879D01*
X9985451Y4010964D01*
X9971176Y4008221D01*
X9957308Y4003751D01*
X9944150Y3997553D01*
X9931857Y3989730D01*
X9920630Y3980484D01*
X9910673Y3969867D01*
X9902139Y3958082D01*
X9895128Y3945331D01*
X9889744Y3931818D01*
X9886137Y3917696D01*
X9884308Y3903268D01*
X9884308Y3888689D01*
X9886137Y3874262D01*
X9889744Y3860190D01*
X9895128Y3846626D01*
X9902139Y3833876D01*
X9910673Y3822141D01*
X9920630Y3811524D01*
X9931857Y3802227D01*
X9944150Y3794455D01*
X9957308Y3788257D01*
X9971176Y3783736D01*
X9985451Y3780993D01*
X9999980Y3780078D01*
X10014508Y3780993D01*
X10028783Y3783736D01*
X10042652Y3788257D01*
X10047376Y3789578D01*
X10051440Y3788867D01*
X10054894Y3786581D01*
X10278414Y3563112D01*
X10288625Y3554729D01*
X10290454Y3550665D01*
X10290352Y3546195D01*
X10288320Y3542233D01*
X10284815Y3539490D01*
X10280497Y3538524D01*
X10120274Y3538474D01*
X10116362Y3539236D01*
X10113060Y3541471D01*
X9841687Y3813098D01*
X9839452Y3816400D01*
X9838690Y3820261D01*
X9838690Y5199786D01*
X9839452Y5203647D01*
X9841636Y5206949D01*
X9945116Y5310530D01*
X9948570Y5312816D01*
X9952634Y5313527D01*
X9957308Y5312257D01*
X9971176Y5307736D01*
X9985451Y5304993D01*
X9999980Y5304078D01*
X10014508Y5304993D01*
X10028783Y5307736D01*
X10042652Y5312257D01*
X10047325Y5313527D01*
X10051389Y5312816D01*
X10054793Y5310530D01*
X11032337Y4333036D01*
X11038535Y4327906D01*
X11045190Y4324350D01*
X11052454Y4322165D01*
X11060480Y4321403D01*
X12621666Y4321403D01*
X12625628Y4320590D01*
X12628981Y4318304D01*
X12631115Y4314901D01*
X12633096Y4309872D01*
X12640056Y4296867D01*
X12648590Y4284827D01*
X12658547Y4273956D01*
X12669723Y4264355D01*
X12682016Y4256176D01*
X12695275Y4249623D01*
X12709194Y4244695D01*
X12723571Y4241546D01*
X12738303Y4240174D01*
X12753035Y4240631D01*
X12767614Y4242917D01*
X12781788Y4246930D01*
X12795402Y4252671D01*
X12808204Y4260088D01*
X12819938Y4268978D01*
X12830556Y4279239D01*
X12839801Y4290720D01*
X12847574Y4303268D01*
X12853771Y4316679D01*
X12858242Y4330750D01*
X12860934Y4345279D01*
X12861848Y4360011D01*
X12860934Y4374743D01*
X12858242Y4389221D01*
X12853771Y4403293D01*
X12847574Y4416704D01*
X12839801Y4429252D01*
X12830556Y4440732D01*
X12819938Y4451045D01*
X12808204Y4459935D01*
X12795402Y4467301D01*
X12781788Y4473041D01*
X12767614Y4477105D01*
X12753035Y4479340D01*
X12738303Y4479798D01*
X12723571Y4478426D01*
X12709194Y4475276D01*
X12695275Y4470400D01*
X12682016Y4463796D01*
X12669723Y4455668D01*
X12658547Y4446066D01*
X12648590Y4435144D01*
X12640056Y4423105D01*
X12633096Y4410100D01*
X12631115Y4405071D01*
X12628981Y4401667D01*
X12625628Y4399381D01*
X12621666Y4398619D01*
X11080191Y4398619D01*
X11076279Y4399381D01*
X11072977Y4401566D01*
X10109301Y5365242D01*
X10107117Y5368493D01*
X10106304Y5372354D01*
X10107015Y5376164D01*
X10110216Y5384190D01*
X10113822Y5398262D01*
X10115651Y5412689D01*
X10115651Y5427268D01*
X10113822Y5441696D01*
X10110216Y5455818D01*
X10104831Y5469331D01*
X10097820Y5482082D01*
X10089286Y5493867D01*
X10079329Y5504484D01*
X10068102Y5513730D01*
X10051897Y5524195D01*
X10049814Y5527548D01*
X10049205Y5531358D01*
X10050068Y5535168D01*
X10052253Y5538368D01*
X10055504Y5540502D01*
X10059365Y5541264D01*
X10073995Y5541264D01*
X10077907Y5540502D01*
X10081209Y5538266D01*
X10144709Y5474766D01*
X10146893Y5471566D01*
X10147655Y5467705D01*
X10146944Y5463844D01*
X10143744Y5455818D01*
X10140137Y5441696D01*
X10138308Y5427268D01*
X10138308Y5412689D01*
X10140137Y5398262D01*
X10143744Y5384190D01*
X10149128Y5370626D01*
X10156139Y5357876D01*
X10164673Y5346141D01*
X10174630Y5335524D01*
X10185857Y5326227D01*
X10198150Y5318455D01*
X10211308Y5312257D01*
X10225176Y5307736D01*
X10239451Y5304993D01*
X10253980Y5304078D01*
X10268508Y5304993D01*
X10282783Y5307736D01*
X10296652Y5312257D01*
X10301325Y5313527D01*
X10305389Y5312816D01*
X10308793Y5310530D01*
X10986312Y4633061D01*
X10992561Y4627930D01*
X10999216Y4624374D01*
X11006429Y4622190D01*
X11014456Y4621377D01*
X12621666Y4621377D01*
X12625628Y4620564D01*
X12628981Y4618278D01*
X12631115Y4614875D01*
X12633096Y4609896D01*
X12640056Y4596892D01*
X12648590Y4584852D01*
X12658547Y4573930D01*
X12669723Y4564329D01*
X12682016Y4556201D01*
X12695275Y4549597D01*
X12709194Y4544720D01*
X12723571Y4541520D01*
X12738303Y4540199D01*
X12753035Y4540656D01*
X12767614Y4542891D01*
X12781788Y4546955D01*
X12795402Y4552696D01*
X12808204Y4560062D01*
X12819938Y4568952D01*
X12830556Y4579213D01*
X12839801Y4590745D01*
X12847574Y4603292D01*
X12853771Y4616704D01*
X12858242Y4630775D01*
X12860934Y4645253D01*
X12861848Y4659985D01*
X12860934Y4674717D01*
X12858242Y4689246D01*
X12853771Y4703267D01*
X12847574Y4716678D01*
X12839801Y4729226D01*
X12830556Y4740757D01*
X12819938Y4751019D01*
X12808204Y4759909D01*
X12795402Y4767275D01*
X12781788Y4773066D01*
X12767614Y4777079D01*
X12753035Y4779365D01*
X12738303Y4779822D01*
X12723571Y4778451D01*
X12709194Y4775301D01*
X12695275Y4770374D01*
X12682016Y4763820D01*
X12669723Y4755642D01*
X12658547Y4746040D01*
X12648590Y4735118D01*
X12640056Y4723079D01*
X12633096Y4710074D01*
X12631115Y4705096D01*
X12628981Y4701692D01*
X12625628Y4699406D01*
X12621666Y4698593D01*
X11034166Y4698593D01*
X11030305Y4699355D01*
X11027003Y4701590D01*
X10363301Y5365242D01*
X10361117Y5368493D01*
X10360304Y5372354D01*
X10361015Y5376164D01*
X10364216Y5384190D01*
X10367822Y5398262D01*
X10369651Y5412689D01*
X10369651Y5427268D01*
X10367822Y5441696D01*
X10364216Y5455818D01*
X10358831Y5469331D01*
X10351820Y5482082D01*
X10343286Y5493867D01*
X10333329Y5504484D01*
X10322102Y5513730D01*
X10309809Y5521553D01*
X10296652Y5527751D01*
X10282783Y5532221D01*
X10268508Y5534964D01*
X10253980Y5535879D01*
X10239451Y5534964D01*
X10225176Y5532221D01*
X10210749Y5527446D01*
X10206736Y5526481D01*
X10202672Y5527192D01*
X10199217Y5529478D01*
X10121849Y5606796D01*
X10115651Y5611926D01*
X10108946Y5615482D01*
X10101732Y5617667D01*
X10093706Y5618480D01*
X9820402Y5618480D01*
X9812375Y5617667D01*
X9805162Y5615482D01*
X9798456Y5611926D01*
X9792258Y5606796D01*
X9653016Y5467553D01*
X9647885Y5461355D01*
X9644329Y5454650D01*
X9642144Y5447436D01*
X9641332Y5439410D01*
X9641332Y3760470D01*
X9642144Y3752443D01*
X9644329Y3745229D01*
X9647885Y3738524D01*
X9653016Y3732326D01*
X10238384Y3146907D01*
X10240619Y3143605D01*
X10241381Y3139694D01*
X10241381Y2837942D01*
X10240822Y2834589D01*
X10239146Y2831592D01*
X10232847Y2823819D01*
X10228173Y2815386D01*
X10224973Y2806293D01*
X10223296Y2796794D01*
X10223296Y2787142D01*
X10224973Y2777642D01*
X10228173Y2768549D01*
X10232847Y2760116D01*
X10238943Y2752648D01*
X10246156Y2746248D01*
X10254386Y2741218D01*
X10263327Y2737612D01*
X10272776Y2735580D01*
X10282377Y2735173D01*
X10291978Y2736392D01*
X10301173Y2739186D01*
X10309809Y2743555D01*
X10317581Y2749296D01*
X10324236Y2756255D01*
X10329621Y2764231D01*
X10333634Y2773019D01*
X10336022Y2782366D01*
X10336834Y2791968D01*
X10336022Y2801569D01*
X10333634Y2810916D01*
X10329621Y2819704D01*
X10324236Y2827731D01*
X10321442Y2830626D01*
X10319308Y2833878D01*
X10318597Y2837688D01*
X10318597Y3159404D01*
X10317784Y3167430D01*
X10315600Y3174695D01*
X10312044Y3181350D01*
X10306913Y3187547D01*
X9721545Y3772966D01*
X9719310Y3776268D01*
X9718548Y3780180D01*
X9718548Y5419699D01*
X9719310Y5423611D01*
X9721545Y5426913D01*
X9832898Y5538266D01*
X9836200Y5540502D01*
X9840112Y5541264D01*
X9940594Y5541264D01*
X9944455Y5540502D01*
X9947706Y5538368D01*
X9949891Y5535168D01*
X9950754Y5531358D01*
X9950145Y5527548D01*
X9948062Y5524195D01*
X9931857Y5513730D01*
X9920630Y5504484D01*
X9910673Y5493867D01*
X9902139Y5482082D01*
X9895128Y5469331D01*
X9889744Y5455818D01*
X9886137Y5441696D01*
X9884308Y5427268D01*
X9884308Y5412689D01*
X9886137Y5398262D01*
X9889744Y5384190D01*
X9892944Y5376214D01*
X9893655Y5372354D01*
X9892842Y5368544D01*
X9890658Y5365292D01*
X9773107Y5247589D01*
X9768027Y5241391D01*
X9764471Y5234686D01*
X9762286Y5227472D01*
X9761474Y5219446D01*
X9761474Y3800601D01*
X9762236Y3792575D01*
X9764471Y3785362D01*
X9768027Y3778707D01*
X9773107Y3772458D01*
X10072370Y3472942D01*
X10078618Y3467811D01*
X10085273Y3464255D01*
X10092537Y3462070D01*
X10100513Y3461258D01*
X10709757Y3461359D01*
X10713669Y3460597D01*
X10716971Y3458413D01*
X11018418Y3156966D01*
X11020602Y3153664D01*
X11021364Y3149803D01*
X11021364Y2835960D01*
X11020806Y2832608D01*
X11019129Y2829610D01*
X11012881Y2821838D01*
X11008156Y2813405D01*
X11004956Y2804312D01*
X11003330Y2794812D01*
X11003330Y2785160D01*
X11004956Y2775661D01*
X11008156Y2766568D01*
X11012881Y2758135D01*
X11018926Y2750667D01*
X11026140Y2744266D01*
X11033455Y2739745D01*
X11036604Y2736748D01*
X11038179Y2732684D01*
X11037925Y2728366D01*
X11035842Y2724505D01*
X11032388Y2721864D01*
X11028121Y2720949D01*
X10590225Y2720949D01*
X10585602Y2720746D01*
X10581182Y2720187D01*
X10576864Y2719222D01*
X10572597Y2717901D01*
X10568533Y2716174D01*
X10564571Y2714142D01*
X10560812Y2711754D01*
X10557306Y2709062D01*
X10553852Y2705912D01*
X9954209Y2106269D01*
X9951059Y2102815D01*
X9948367Y2099310D01*
X9945979Y2095550D01*
X9943947Y2091588D01*
X9942220Y2087524D01*
X9940899Y2083257D01*
X9939934Y2078939D01*
X9939375Y2074519D01*
X9939172Y2069896D01*
X9939172Y1794306D01*
X9938613Y1791004D01*
X9936988Y1788007D01*
X9934448Y1785721D01*
X9921849Y1777746D01*
X9910622Y1768500D01*
X9900666Y1757883D01*
X9892131Y1746097D01*
X9888880Y1740204D01*
X9886594Y1737410D01*
X9883495Y1735582D01*
X9879990Y1734921D01*
X9339986Y1734921D01*
X9336430Y1735582D01*
X9333331Y1737410D01*
X9331045Y1740204D01*
X9327845Y1746097D01*
X9319260Y1757883D01*
X9309303Y1768500D01*
X9298076Y1777746D01*
X9285782Y1785569D01*
X9272625Y1791766D01*
X9258808Y1796237D01*
X9244482Y1798980D01*
X9229953Y1799894D01*
X9215475Y1798980D01*
X9201150Y1796237D01*
X9187332Y1791766D01*
X9174124Y1785569D01*
X9161881Y1777746D01*
X9150654Y1768500D01*
X9140698Y1757883D01*
X9132112Y1746097D01*
X9128861Y1740204D01*
X9126626Y1737410D01*
X9123527Y1735582D01*
X9119971Y1734921D01*
X8569960Y1734921D01*
X8566454Y1735582D01*
X8563356Y1737410D01*
X8561070Y1740204D01*
X8557818Y1746097D01*
X8549284Y1757883D01*
X8539327Y1768500D01*
X8528100Y1777746D01*
X8515807Y1785569D01*
X8502650Y1791766D01*
X8488781Y1796237D01*
X8474506Y1798980D01*
X8459978Y1799894D01*
X8445449Y1798980D01*
X8431174Y1796237D01*
X8417306Y1791766D01*
X8404148Y1785569D01*
X8391855Y1777746D01*
X8380628Y1768500D01*
X8370671Y1757883D01*
X8362137Y1746097D01*
X8358886Y1740204D01*
X8356600Y1737410D01*
X8353501Y1735582D01*
X8349996Y1734921D01*
X7819999Y1734921D01*
X7816443Y1735582D01*
X7813344Y1737410D01*
X7811058Y1740204D01*
X7807807Y1746097D01*
X7799273Y1757883D01*
X7789316Y1768500D01*
X7778089Y1777746D01*
X7765796Y1785569D01*
X7752638Y1791766D01*
X7738821Y1796237D01*
X7724495Y1798980D01*
X7709966Y1799894D01*
X7695438Y1798980D01*
X7681163Y1796237D01*
X7667294Y1791766D01*
X7654137Y1785569D01*
X7641844Y1777746D01*
X7630668Y1768500D01*
X7620711Y1757883D01*
X7612125Y1746097D01*
X7605115Y1733346D01*
X7599781Y1719783D01*
X7596124Y1705711D01*
X7594295Y1691284D01*
X7594295Y1676704D01*
X7596124Y1662277D01*
X7599781Y1648206D01*
X7605115Y1634642D01*
X7612125Y1621891D01*
X7620711Y1610106D01*
X7630668Y1599539D01*
X7641844Y1590243D01*
X7654137Y1582420D01*
X7667294Y1576222D01*
X7681163Y1571752D01*
X7695438Y1569008D01*
G37*
G36*
X6232398Y1733143D02*
G01*
X6241948Y1734413D01*
X6251194Y1737207D01*
X6254851Y1738731D01*
X6257188Y1739036D01*
X6779818Y1739036D01*
X6784492Y1739239D01*
X6788861Y1739798D01*
X6793230Y1740763D01*
X6797446Y1742084D01*
X6801561Y1743811D01*
X6805472Y1745843D01*
X6809231Y1748231D01*
X6812737Y1750923D01*
X6816191Y1754124D01*
X7218019Y2156155D01*
X7221321Y2158390D01*
X7225182Y2159152D01*
X8223808Y2159152D01*
X8228431Y2159355D01*
X8232851Y2159914D01*
X8237169Y2160879D01*
X8241436Y2162200D01*
X8245500Y2163927D01*
X8249462Y2165959D01*
X8253222Y2168347D01*
X8256727Y2171039D01*
X8260181Y2174189D01*
X8418118Y2332177D01*
X8421166Y2334260D01*
X8424773Y2335123D01*
X8428431Y2334615D01*
X8431174Y2333752D01*
X8445449Y2331008D01*
X8459978Y2330094D01*
X8474506Y2331008D01*
X8488781Y2333752D01*
X8502650Y2338222D01*
X8515807Y2344420D01*
X8528100Y2352243D01*
X8539327Y2361539D01*
X8549284Y2372106D01*
X8557818Y2383891D01*
X8564829Y2396642D01*
X8570214Y2410206D01*
X8573820Y2424277D01*
X8575649Y2438704D01*
X8575649Y2453284D01*
X8573820Y2467711D01*
X8570214Y2481783D01*
X8564829Y2495346D01*
X8557818Y2508097D01*
X8549284Y2519883D01*
X8539327Y2530500D01*
X8528100Y2539746D01*
X8515807Y2547569D01*
X8502650Y2553766D01*
X8488781Y2558237D01*
X8474506Y2560980D01*
X8459978Y2561894D01*
X8445449Y2560980D01*
X8431174Y2558237D01*
X8417306Y2553766D01*
X8404148Y2547569D01*
X8391855Y2539746D01*
X8380628Y2530500D01*
X8370671Y2519883D01*
X8362137Y2508097D01*
X8355126Y2495346D01*
X8349742Y2481783D01*
X8346135Y2467711D01*
X8344306Y2453284D01*
X8344306Y2438704D01*
X8346135Y2424277D01*
X8348827Y2413914D01*
X8349081Y2410409D01*
X8348167Y2407056D01*
X8346135Y2404211D01*
X8205876Y2263952D01*
X8202625Y2261717D01*
X8198713Y2260955D01*
X7200087Y2260955D01*
X7195413Y2260752D01*
X7191044Y2260193D01*
X7186675Y2259228D01*
X7182459Y2257907D01*
X7178344Y2256180D01*
X7174433Y2254148D01*
X7170674Y2251760D01*
X7167168Y2249068D01*
X7163714Y2245868D01*
X6761886Y1843836D01*
X6758584Y1841601D01*
X6754723Y1840839D01*
X6257391Y1840839D01*
X6255054Y1841144D01*
X6251194Y1842770D01*
X6241948Y1845564D01*
X6232398Y1846834D01*
X6222746Y1846376D01*
X6213348Y1844344D01*
X6204356Y1840788D01*
X6196177Y1835708D01*
X6188913Y1829358D01*
X6182868Y1821840D01*
X6178143Y1813407D01*
X6174943Y1804314D01*
X6173317Y1794814D01*
X6173317Y1785162D01*
X6174943Y1775663D01*
X6178143Y1766570D01*
X6182868Y1758137D01*
X6188913Y1750618D01*
X6196177Y1744268D01*
X6204356Y1739188D01*
X6213348Y1735632D01*
X6222746Y1733600D01*
G37*
G36*
X9492386Y2733192D02*
G01*
X9501987Y2734411D01*
X9511182Y2737205D01*
X9519818Y2741574D01*
X9527540Y2747314D01*
X9534245Y2754274D01*
X9539630Y2762250D01*
X9543592Y2771038D01*
X9546031Y2780385D01*
X9546844Y2789986D01*
X9546031Y2799588D01*
X9543592Y2808935D01*
X9539630Y2817723D01*
X9534245Y2825699D01*
X9531400Y2828645D01*
X9529318Y2831896D01*
X9528606Y2835706D01*
X9528606Y3004820D01*
X9529064Y3007817D01*
X9530384Y3010560D01*
X9601454Y3113532D01*
X9605365Y3120593D01*
X9607651Y3127756D01*
X9608566Y3136442D01*
X9608566Y5459831D01*
X9609328Y5463743D01*
X9611563Y5467045D01*
X9783114Y5638393D01*
X9786416Y5640578D01*
X9790277Y5641340D01*
X10227716Y5641340D01*
X10231577Y5640578D01*
X10234879Y5638342D01*
X10398658Y5474716D01*
X10400842Y5471464D01*
X10401655Y5467654D01*
X10400944Y5463794D01*
X10397744Y5455818D01*
X10394137Y5441696D01*
X10392308Y5427268D01*
X10392308Y5412689D01*
X10394137Y5398262D01*
X10397744Y5384190D01*
X10403128Y5370626D01*
X10410139Y5357876D01*
X10418673Y5346141D01*
X10428630Y5335524D01*
X10439857Y5326227D01*
X10452150Y5318455D01*
X10465308Y5312257D01*
X10479176Y5307736D01*
X10493451Y5304993D01*
X10507980Y5304078D01*
X10522508Y5304993D01*
X10536783Y5307736D01*
X10550652Y5312257D01*
X10555325Y5313527D01*
X10559389Y5312816D01*
X10562793Y5310530D01*
X10940338Y4933035D01*
X10946536Y4927904D01*
X10953191Y4924348D01*
X10960455Y4922164D01*
X10968482Y4921402D01*
X12621666Y4921402D01*
X12625628Y4920589D01*
X12628981Y4918303D01*
X12631115Y4914900D01*
X12633096Y4909870D01*
X12640056Y4896866D01*
X12648590Y4884826D01*
X12658547Y4873955D01*
X12669723Y4864354D01*
X12682016Y4856175D01*
X12695275Y4849622D01*
X12709194Y4844694D01*
X12723571Y4841544D01*
X12738303Y4840173D01*
X12753035Y4840630D01*
X12767614Y4842916D01*
X12781788Y4846929D01*
X12795402Y4852670D01*
X12808204Y4860086D01*
X12819938Y4868976D01*
X12830556Y4879238D01*
X12839801Y4890719D01*
X12847574Y4903266D01*
X12853771Y4916678D01*
X12858242Y4930749D01*
X12860934Y4945278D01*
X12861848Y4960010D01*
X12860934Y4974742D01*
X12858242Y4989220D01*
X12853771Y5003292D01*
X12847574Y5016703D01*
X12839801Y5029250D01*
X12830556Y5040731D01*
X12819938Y5051044D01*
X12808204Y5059934D01*
X12795402Y5067300D01*
X12781788Y5073040D01*
X12767614Y5077104D01*
X12753035Y5079339D01*
X12738303Y5079796D01*
X12723571Y5078425D01*
X12709194Y5075275D01*
X12695275Y5070398D01*
X12682016Y5063794D01*
X12669723Y5055666D01*
X12658547Y5046065D01*
X12648590Y5035143D01*
X12640056Y5023104D01*
X12633096Y5010099D01*
X12631115Y5005070D01*
X12628981Y5001666D01*
X12625628Y4999380D01*
X12621666Y4998618D01*
X10988192Y4998618D01*
X10984280Y4999380D01*
X10980978Y5001564D01*
X10617301Y5365242D01*
X10615117Y5368493D01*
X10614304Y5372354D01*
X10615015Y5376164D01*
X10618216Y5384190D01*
X10621822Y5398262D01*
X10623651Y5412689D01*
X10623651Y5427268D01*
X10621822Y5441696D01*
X10618216Y5455818D01*
X10612831Y5469331D01*
X10605820Y5482082D01*
X10597286Y5493867D01*
X10587329Y5504484D01*
X10576102Y5513730D01*
X10563809Y5521553D01*
X10550652Y5527751D01*
X10536783Y5532221D01*
X10522508Y5534964D01*
X10507980Y5535879D01*
X10493451Y5534964D01*
X10479176Y5532221D01*
X10465308Y5527751D01*
X10460685Y5526481D01*
X10456621Y5527192D01*
X10453166Y5529427D01*
X10275519Y5706922D01*
X10269321Y5712002D01*
X10262616Y5715558D01*
X10255402Y5717743D01*
X10247376Y5718556D01*
X9770618Y5718556D01*
X9762591Y5717794D01*
X9755378Y5715558D01*
X9748723Y5712002D01*
X9742474Y5706922D01*
X9543034Y5507736D01*
X9537903Y5501487D01*
X9534347Y5494832D01*
X9532162Y5487619D01*
X9531350Y5479592D01*
X9531350Y3151073D01*
X9530892Y3148076D01*
X9529572Y3145282D01*
X9458502Y3042310D01*
X9454591Y3035300D01*
X9452305Y3028137D01*
X9451390Y3019450D01*
X9451390Y2835960D01*
X9450781Y2832608D01*
X9449104Y2829610D01*
X9442856Y2821838D01*
X9438182Y2813405D01*
X9434931Y2804312D01*
X9433306Y2794812D01*
X9433306Y2785160D01*
X9434931Y2775661D01*
X9438182Y2766568D01*
X9442856Y2758135D01*
X9448901Y2750667D01*
X9456166Y2744266D01*
X9464395Y2739186D01*
X9473336Y2735630D01*
X9482734Y2733598D01*
G37*
G36*
X7962392Y2733192D02*
G01*
X7971942Y2734411D01*
X7981188Y2737205D01*
X7989824Y2741574D01*
X7997545Y2747314D01*
X8004251Y2754274D01*
X8009636Y2762250D01*
X8013598Y2771038D01*
X8016036Y2780385D01*
X8016849Y2789986D01*
X8016036Y2799588D01*
X8013598Y2808935D01*
X8009636Y2817723D01*
X8004251Y2825699D01*
X8001558Y2828544D01*
X7999425Y2831795D01*
X7998714Y2835554D01*
X7998714Y3189833D01*
X7999475Y3193745D01*
X8001711Y3197047D01*
X8476792Y3672382D01*
X8481872Y3678580D01*
X8485428Y3685235D01*
X8487613Y3692499D01*
X8488426Y3700526D01*
X8488680Y5009489D01*
X8489442Y5013401D01*
X8491626Y5016703D01*
X9323120Y5848400D01*
X9326422Y5850636D01*
X9330334Y5851398D01*
X10973917Y5851398D01*
X10977829Y5850636D01*
X10981131Y5848400D01*
X11276330Y5553202D01*
X11278514Y5550001D01*
X11279327Y5546242D01*
X11278666Y5542432D01*
X11276634Y5539130D01*
X11273536Y5536844D01*
X11269827Y5535879D01*
X11255451Y5534964D01*
X11241176Y5532221D01*
X11226749Y5527446D01*
X11222736Y5526481D01*
X11218672Y5527192D01*
X11215217Y5529478D01*
X10937697Y5806948D01*
X10931499Y5812078D01*
X10924794Y5815634D01*
X10917580Y5817819D01*
X10909554Y5818632D01*
X9600438Y5818632D01*
X9592411Y5817819D01*
X9585198Y5815634D01*
X9578492Y5812078D01*
X9572294Y5806948D01*
X8613140Y4847793D01*
X8608009Y4841595D01*
X8604453Y4834890D01*
X8602268Y4827676D01*
X8601456Y4819650D01*
X8601557Y3312972D01*
X8602218Y3308350D01*
X8602878Y3305556D01*
X8604453Y3301136D01*
X8605774Y3298240D01*
X8690254Y3132886D01*
X8691067Y3130651D01*
X8691372Y3128264D01*
X8691372Y2845968D01*
X8690813Y2842564D01*
X8689136Y2839567D01*
X8682888Y2831846D01*
X8678164Y2823413D01*
X8674963Y2814320D01*
X8673338Y2804820D01*
X8673338Y2795168D01*
X8674963Y2785668D01*
X8678164Y2776575D01*
X8682888Y2768142D01*
X8688933Y2760624D01*
X8696147Y2754274D01*
X8704376Y2749194D01*
X8713317Y2745638D01*
X8722766Y2743606D01*
X8732418Y2743149D01*
X8741968Y2744419D01*
X8751163Y2747213D01*
X8759799Y2751582D01*
X8767572Y2757322D01*
X8774226Y2764282D01*
X8779611Y2772257D01*
X8783624Y2781046D01*
X8786012Y2790393D01*
X8786876Y2799994D01*
X8786012Y2809595D01*
X8783624Y2818942D01*
X8779611Y2827731D01*
X8774226Y2835706D01*
X8771432Y2838653D01*
X8769299Y2841904D01*
X8768588Y2845714D01*
X8768486Y3142996D01*
X8767826Y3147618D01*
X8767165Y3150412D01*
X8765590Y3154832D01*
X8764270Y3157728D01*
X8679789Y3323082D01*
X8678976Y3325317D01*
X8678672Y3327704D01*
X8678672Y4799939D01*
X8679434Y4803851D01*
X8681669Y4807153D01*
X9612934Y5738418D01*
X9616236Y5740654D01*
X9620148Y5741416D01*
X10889843Y5741416D01*
X10893755Y5740654D01*
X10897057Y5738418D01*
X11160709Y5474766D01*
X11162893Y5471566D01*
X11163655Y5467705D01*
X11162944Y5463844D01*
X11159744Y5455818D01*
X11156137Y5441696D01*
X11154308Y5427268D01*
X11154308Y5412689D01*
X11156137Y5398262D01*
X11159744Y5384190D01*
X11165128Y5370626D01*
X11172139Y5357876D01*
X11180673Y5346141D01*
X11190630Y5335524D01*
X11201857Y5326227D01*
X11214150Y5318455D01*
X11227308Y5312257D01*
X11241176Y5307736D01*
X11255451Y5304993D01*
X11269980Y5304078D01*
X11284508Y5304993D01*
X11298783Y5307736D01*
X11312652Y5312257D01*
X11317325Y5313527D01*
X11321389Y5312816D01*
X11324793Y5310530D01*
X11502339Y5133035D01*
X11508536Y5127904D01*
X11515191Y5124348D01*
X11522456Y5122164D01*
X11530482Y5121402D01*
X12641478Y5121402D01*
X12649504Y5122164D01*
X12656718Y5124348D01*
X12663373Y5127904D01*
X12669621Y5133035D01*
X12684048Y5147462D01*
X12687147Y5149596D01*
X12690856Y5150408D01*
X12694615Y5149850D01*
X12709194Y5144719D01*
X12723571Y5141518D01*
X12738303Y5140198D01*
X12753035Y5140655D01*
X12767614Y5142890D01*
X12781788Y5146954D01*
X12795402Y5152694D01*
X12808204Y5160060D01*
X12819938Y5168950D01*
X12830556Y5179212D01*
X12839801Y5190744D01*
X12847574Y5203291D01*
X12853771Y5216702D01*
X12858242Y5230774D01*
X12860934Y5245252D01*
X12861848Y5259984D01*
X12860934Y5274716D01*
X12858242Y5289245D01*
X12853771Y5303266D01*
X12847574Y5316677D01*
X12839801Y5329224D01*
X12830556Y5340756D01*
X12819938Y5351018D01*
X12808204Y5359908D01*
X12795402Y5367274D01*
X12781788Y5373065D01*
X12767614Y5377078D01*
X12753035Y5379364D01*
X12738303Y5379821D01*
X12723571Y5378450D01*
X12709194Y5375300D01*
X12695275Y5370372D01*
X12682016Y5363819D01*
X12669723Y5355640D01*
X12658547Y5346039D01*
X12648590Y5335117D01*
X12640056Y5323078D01*
X12633096Y5310073D01*
X12627762Y5296306D01*
X12624155Y5282031D01*
X12622326Y5267350D01*
X12622326Y5252618D01*
X12624155Y5237988D01*
X12627762Y5223662D01*
X12631877Y5213045D01*
X12632537Y5209235D01*
X12631724Y5205425D01*
X12628981Y5201564D01*
X12625679Y5199380D01*
X12621768Y5198618D01*
X11550192Y5198618D01*
X11546281Y5199380D01*
X11542979Y5201564D01*
X11379301Y5365242D01*
X11377117Y5368493D01*
X11376304Y5372354D01*
X11377015Y5376164D01*
X11380216Y5384190D01*
X11383822Y5398262D01*
X11385651Y5412689D01*
X11385651Y5419394D01*
X11386413Y5423255D01*
X11388598Y5426557D01*
X11391900Y5428742D01*
X11395811Y5429554D01*
X11399672Y5428742D01*
X11402974Y5426557D01*
X11405362Y5424220D01*
X11407546Y5420918D01*
X11408308Y5417007D01*
X11408308Y5412689D01*
X11410137Y5398262D01*
X11413744Y5384190D01*
X11419128Y5370626D01*
X11426139Y5357876D01*
X11434673Y5346141D01*
X11444630Y5335524D01*
X11455857Y5326227D01*
X11468150Y5318455D01*
X11481308Y5312257D01*
X11495176Y5307736D01*
X11509451Y5304993D01*
X11523980Y5304078D01*
X11538508Y5304993D01*
X11552783Y5307736D01*
X11566652Y5312257D01*
X11571325Y5313527D01*
X11575389Y5312816D01*
X11578793Y5310530D01*
X11646306Y5243017D01*
X11652554Y5237937D01*
X11659209Y5234381D01*
X11666423Y5232146D01*
X11674449Y5231384D01*
X12451486Y5231384D01*
X12459512Y5232146D01*
X12466726Y5234381D01*
X12473381Y5237937D01*
X12479629Y5243017D01*
X12684048Y5447436D01*
X12687147Y5449570D01*
X12690856Y5450433D01*
X12694615Y5449824D01*
X12709194Y5444693D01*
X12723571Y5441543D01*
X12738303Y5440172D01*
X12753035Y5440629D01*
X12767614Y5442915D01*
X12781788Y5446928D01*
X12795402Y5452668D01*
X12808204Y5460085D01*
X12819938Y5468975D01*
X12830556Y5479237D01*
X12839801Y5490718D01*
X12847574Y5503265D01*
X12853771Y5516676D01*
X12858242Y5530748D01*
X12860934Y5545277D01*
X12861848Y5560009D01*
X12860934Y5574741D01*
X12858242Y5589219D01*
X12853771Y5603290D01*
X12847574Y5616702D01*
X12839801Y5629249D01*
X12830556Y5640730D01*
X12819938Y5651042D01*
X12808204Y5659932D01*
X12795402Y5667298D01*
X12781788Y5673039D01*
X12767614Y5677103D01*
X12753035Y5679338D01*
X12738303Y5679795D01*
X12723571Y5678424D01*
X12709194Y5675274D01*
X12695275Y5670397D01*
X12682016Y5663793D01*
X12669723Y5655665D01*
X12658547Y5646064D01*
X12648590Y5635142D01*
X12640056Y5623102D01*
X12633096Y5610098D01*
X12627762Y5596331D01*
X12624155Y5582005D01*
X12622326Y5567375D01*
X12622326Y5552592D01*
X12624155Y5537962D01*
X12627762Y5523636D01*
X12631877Y5513019D01*
X12632537Y5509209D01*
X12631724Y5505399D01*
X12629591Y5502198D01*
X12438938Y5311597D01*
X12435636Y5309362D01*
X12431776Y5308600D01*
X11853011Y5308600D01*
X11848947Y5309412D01*
X11845594Y5311800D01*
X11843461Y5315305D01*
X11842851Y5319420D01*
X11843969Y5323382D01*
X11846509Y5326583D01*
X11857329Y5335524D01*
X11867286Y5346141D01*
X11875820Y5357876D01*
X11882831Y5370626D01*
X11884558Y5374944D01*
X11886742Y5378297D01*
X11890044Y5380583D01*
X11894007Y5381345D01*
X12301474Y5381345D01*
X12309500Y5382158D01*
X12316714Y5384342D01*
X12323368Y5387898D01*
X12329617Y5393029D01*
X12684048Y5747461D01*
X12687147Y5749594D01*
X12690856Y5750407D01*
X12694615Y5749848D01*
X12709194Y5744718D01*
X12723571Y5741517D01*
X12738303Y5740196D01*
X12753035Y5740654D01*
X12767614Y5742889D01*
X12781788Y5746953D01*
X12795402Y5752693D01*
X12808204Y5760059D01*
X12819938Y5768949D01*
X12830556Y5779211D01*
X12839801Y5790742D01*
X12847574Y5803290D01*
X12853771Y5816701D01*
X12858242Y5830773D01*
X12860934Y5845251D01*
X12861848Y5859983D01*
X12860934Y5874715D01*
X12858242Y5889244D01*
X12853771Y5903264D01*
X12847574Y5916676D01*
X12839801Y5929223D01*
X12830556Y5940755D01*
X12819938Y5951016D01*
X12808204Y5959906D01*
X12795402Y5967272D01*
X12781788Y5973064D01*
X12767614Y5977077D01*
X12753035Y5979363D01*
X12738303Y5979820D01*
X12723571Y5978448D01*
X12709194Y5975299D01*
X12695275Y5970371D01*
X12682016Y5963818D01*
X12669723Y5955639D01*
X12658547Y5946038D01*
X12648590Y5935116D01*
X12640056Y5923076D01*
X12633096Y5910072D01*
X12627762Y5896305D01*
X12624155Y5882030D01*
X12622326Y5867349D01*
X12622326Y5852617D01*
X12624155Y5837986D01*
X12627762Y5823661D01*
X12631877Y5813044D01*
X12632537Y5809234D01*
X12631724Y5805424D01*
X12629591Y5802172D01*
X12288926Y5461558D01*
X12285675Y5459374D01*
X12281763Y5458561D01*
X11894007Y5458561D01*
X11890044Y5459374D01*
X11886742Y5461660D01*
X11884558Y5465013D01*
X11882831Y5469331D01*
X11875820Y5482082D01*
X11867286Y5493867D01*
X11857329Y5504484D01*
X11846102Y5513730D01*
X11833809Y5521553D01*
X11820652Y5527751D01*
X11806783Y5532221D01*
X11792508Y5534964D01*
X11777980Y5535879D01*
X11763451Y5534964D01*
X11749176Y5532221D01*
X11734698Y5527446D01*
X11730685Y5526481D01*
X11726621Y5527192D01*
X11723217Y5529478D01*
X11215573Y6036868D01*
X11209375Y6041948D01*
X11202670Y6045504D01*
X11195456Y6047689D01*
X11187430Y6048502D01*
X9200388Y6048502D01*
X9192361Y6047689D01*
X9185148Y6045504D01*
X9178442Y6041948D01*
X9172244Y6036818D01*
X8233156Y5097729D01*
X8228025Y5091531D01*
X8224469Y5084826D01*
X8222284Y5077612D01*
X8221472Y5069586D01*
X8221472Y3835298D01*
X8220608Y3831234D01*
X8218220Y3827881D01*
X8017713Y3641344D01*
X8014512Y3639312D01*
X8010804Y3638600D01*
X7610500Y3638600D01*
X7602474Y3637787D01*
X7595209Y3635603D01*
X7588554Y3632047D01*
X7582357Y3626916D01*
X7193025Y3237636D01*
X7187946Y3231438D01*
X7184339Y3224733D01*
X7182154Y3217519D01*
X7181392Y3209493D01*
X7181392Y2855976D01*
X7180783Y2852572D01*
X7179106Y2849575D01*
X7172858Y2841853D01*
X7168184Y2833420D01*
X7164933Y2824327D01*
X7163308Y2814828D01*
X7163308Y2805176D01*
X7164933Y2795676D01*
X7168184Y2786583D01*
X7172858Y2778150D01*
X7178903Y2770632D01*
X7186168Y2764282D01*
X7194397Y2759202D01*
X7203338Y2755595D01*
X7212787Y2753563D01*
X7222388Y2753156D01*
X7231989Y2754376D01*
X7241184Y2757220D01*
X7249820Y2761589D01*
X7257542Y2767279D01*
X7264247Y2774289D01*
X7269632Y2782265D01*
X7273594Y2791053D01*
X7276033Y2800400D01*
X7276846Y2810002D01*
X7276033Y2819603D01*
X7273594Y2828950D01*
X7269632Y2837738D01*
X7264247Y2845714D01*
X7261402Y2848660D01*
X7259320Y2851912D01*
X7258608Y2855671D01*
X7258608Y3189782D01*
X7259370Y3193694D01*
X7261555Y3196996D01*
X7622997Y3558387D01*
X7626299Y3560622D01*
X7630159Y3561384D01*
X8029600Y3561384D01*
X8036052Y3561892D01*
X8043468Y3563874D01*
X8050225Y3567176D01*
X8056625Y3572052D01*
X8286292Y3785717D01*
X8292134Y3792626D01*
X8295690Y3799332D01*
X8297875Y3806545D01*
X8298688Y3814572D01*
X8298688Y5049875D01*
X8299450Y5053787D01*
X8301685Y5057089D01*
X9212884Y5968288D01*
X9216186Y5970524D01*
X9220098Y5971286D01*
X11167719Y5971286D01*
X11171631Y5970524D01*
X11174933Y5968288D01*
X11668709Y5474766D01*
X11670842Y5471515D01*
X11671655Y5467705D01*
X11670944Y5463844D01*
X11667744Y5455818D01*
X11664137Y5441696D01*
X11662308Y5427268D01*
X11662308Y5412689D01*
X11664137Y5398262D01*
X11667744Y5384190D01*
X11673128Y5370626D01*
X11680139Y5357876D01*
X11688673Y5346141D01*
X11698630Y5335524D01*
X11709450Y5326583D01*
X11711990Y5323382D01*
X11713108Y5319420D01*
X11712498Y5315305D01*
X11710365Y5311800D01*
X11707012Y5309412D01*
X11702948Y5308600D01*
X11694160Y5308600D01*
X11690299Y5309362D01*
X11686997Y5311597D01*
X11633301Y5365242D01*
X11631117Y5368493D01*
X11630304Y5372354D01*
X11631015Y5376164D01*
X11634216Y5384190D01*
X11637822Y5398262D01*
X11639651Y5412689D01*
X11639651Y5427268D01*
X11637822Y5441696D01*
X11634216Y5455818D01*
X11628831Y5469331D01*
X11621820Y5482082D01*
X11613286Y5493867D01*
X11603329Y5504484D01*
X11592102Y5513730D01*
X11579809Y5521553D01*
X11566652Y5527751D01*
X11552783Y5532221D01*
X11538508Y5534964D01*
X11523980Y5535879D01*
X11509451Y5534964D01*
X11495176Y5532221D01*
X11481308Y5527751D01*
X11468150Y5521553D01*
X11455857Y5513730D01*
X11446103Y5505653D01*
X11442852Y5503875D01*
X11439144Y5503367D01*
X11435486Y5504180D01*
X11432438Y5506313D01*
X11021771Y5916930D01*
X11015573Y5922060D01*
X11008868Y5925616D01*
X11001654Y5927801D01*
X10993628Y5928614D01*
X9310624Y5928614D01*
X9302597Y5927801D01*
X9295384Y5925616D01*
X9288678Y5922060D01*
X9282480Y5916930D01*
X8423097Y5057343D01*
X8418017Y5051145D01*
X8414461Y5044490D01*
X8412276Y5037226D01*
X8411464Y5029200D01*
X8411210Y3720236D01*
X8410448Y3716324D01*
X8408263Y3713022D01*
X7933131Y3237687D01*
X7928051Y3231489D01*
X7924495Y3224784D01*
X7922310Y3217570D01*
X7921498Y3209544D01*
X7921498Y2836113D01*
X7920939Y2832760D01*
X7919262Y2829763D01*
X7912862Y2821838D01*
X7908137Y2813405D01*
X7904937Y2804312D01*
X7903311Y2794812D01*
X7903311Y2785160D01*
X7904937Y2775661D01*
X7908137Y2766568D01*
X7912862Y2758135D01*
X7918907Y2750667D01*
X7926171Y2744266D01*
X7934401Y2739186D01*
X7943342Y2735630D01*
X7952740Y2733598D01*
G37*
G36*
X8985961Y2861614D02*
G01*
X9000134Y2862529D01*
X9014002Y2865323D01*
X9027464Y2869844D01*
X9040164Y2876143D01*
X9051950Y2884017D01*
X9062618Y2893364D01*
X9071965Y2904032D01*
X9079839Y2915818D01*
X9086088Y2928518D01*
X9090660Y2941929D01*
X9093454Y2955848D01*
X9094368Y2969971D01*
X9093454Y2984144D01*
X9090660Y2998063D01*
X9086088Y3011474D01*
X9079839Y3024174D01*
X9071965Y3035960D01*
X9062618Y3046628D01*
X9051950Y3055975D01*
X9040164Y3063849D01*
X9027464Y3070148D01*
X9014002Y3074670D01*
X9000134Y3077464D01*
X8985961Y3078378D01*
X8971838Y3077464D01*
X8957919Y3074670D01*
X8944508Y3070148D01*
X8931757Y3063849D01*
X8919972Y3055975D01*
X8909354Y3046628D01*
X8900007Y3035960D01*
X8892082Y3024174D01*
X8885834Y3011474D01*
X8881262Y2998063D01*
X8878519Y2984144D01*
X8877604Y2969971D01*
X8878519Y2955848D01*
X8881262Y2941929D01*
X8885834Y2928518D01*
X8892082Y2915818D01*
X8900007Y2904032D01*
X8909354Y2893364D01*
X8919972Y2884017D01*
X8931757Y2876143D01*
X8944508Y2869844D01*
X8957919Y2865323D01*
X8971838Y2862529D01*
G37*
G36*
X10525963Y2861614D02*
G01*
X10540136Y2862529D01*
X10554004Y2865323D01*
X10567466Y2869844D01*
X10580166Y2876143D01*
X10591952Y2884017D01*
X10602620Y2893364D01*
X10611967Y2904032D01*
X10619841Y2915818D01*
X10626090Y2928518D01*
X10630662Y2941929D01*
X10633405Y2955848D01*
X10634370Y2969971D01*
X10633405Y2984144D01*
X10630662Y2998063D01*
X10626090Y3011474D01*
X10619841Y3024174D01*
X10611967Y3035960D01*
X10602620Y3046628D01*
X10591952Y3055975D01*
X10580166Y3063849D01*
X10567466Y3070148D01*
X10554004Y3074670D01*
X10540136Y3077464D01*
X10525963Y3078378D01*
X10511840Y3077464D01*
X10497921Y3074670D01*
X10484510Y3070148D01*
X10471759Y3063849D01*
X10459974Y3055975D01*
X10449306Y3046628D01*
X10439958Y3035960D01*
X10432084Y3024174D01*
X10425836Y3011474D01*
X10421264Y2998063D01*
X10418521Y2984144D01*
X10417606Y2969971D01*
X10418521Y2955848D01*
X10421264Y2941929D01*
X10425836Y2928518D01*
X10432084Y2915818D01*
X10439958Y2904032D01*
X10449306Y2893364D01*
X10459974Y2884017D01*
X10471759Y2876143D01*
X10484510Y2869844D01*
X10497921Y2865323D01*
X10511840Y2862529D01*
G37*
G36*
X9735972Y2861614D02*
G01*
X9750094Y2862529D01*
X9764014Y2865323D01*
X9777425Y2869844D01*
X9790176Y2876143D01*
X9801961Y2884017D01*
X9812629Y2893364D01*
X9821976Y2904032D01*
X9829850Y2915818D01*
X9836099Y2928518D01*
X9840671Y2941929D01*
X9843414Y2955848D01*
X9844379Y2969971D01*
X9843414Y2984144D01*
X9840671Y2998063D01*
X9836099Y3011474D01*
X9829850Y3024174D01*
X9821976Y3035960D01*
X9812629Y3046628D01*
X9801961Y3055975D01*
X9790176Y3063849D01*
X9777425Y3070148D01*
X9764014Y3074670D01*
X9750094Y3077464D01*
X9735972Y3078378D01*
X9721799Y3077464D01*
X9707930Y3074670D01*
X9694468Y3070148D01*
X9681768Y3063849D01*
X9669983Y3055975D01*
X9659315Y3046628D01*
X9649968Y3035960D01*
X9642094Y3024174D01*
X9635845Y3011474D01*
X9631273Y2998063D01*
X9628530Y2984144D01*
X9627565Y2969971D01*
X9628530Y2955848D01*
X9631273Y2941929D01*
X9635845Y2928518D01*
X9642094Y2915818D01*
X9649968Y2904032D01*
X9659315Y2893364D01*
X9669983Y2884017D01*
X9681768Y2876143D01*
X9694468Y2869844D01*
X9707930Y2865323D01*
X9721799Y2862529D01*
G37*
G36*
X12815976Y2871622D02*
G01*
X12830098Y2872536D01*
X12844018Y2875280D01*
X12857429Y2879852D01*
X12870180Y2886151D01*
X12881965Y2894025D01*
X12892582Y2903372D01*
X12901930Y2913989D01*
X12909804Y2925826D01*
X12916103Y2938526D01*
X12920675Y2951937D01*
X12923418Y2965856D01*
X12924332Y2979978D01*
X12923418Y2994152D01*
X12920675Y3008071D01*
X12916103Y3021482D01*
X12909804Y3034182D01*
X12901930Y3045968D01*
X12892582Y3056636D01*
X12881965Y3065983D01*
X12870180Y3073857D01*
X12857429Y3080105D01*
X12844018Y3084677D01*
X12830098Y3087471D01*
X12815976Y3088386D01*
X12801803Y3087471D01*
X12787934Y3084677D01*
X12774472Y3080105D01*
X12761772Y3073857D01*
X12749987Y3065983D01*
X12739319Y3056636D01*
X12729972Y3045968D01*
X12722098Y3034182D01*
X12715849Y3021482D01*
X12711277Y3008071D01*
X12708483Y2994152D01*
X12707569Y2979978D01*
X12708483Y2965856D01*
X12711277Y2951937D01*
X12715849Y2938526D01*
X12722098Y2925826D01*
X12729972Y2913989D01*
X12739319Y2903372D01*
X12749987Y2894025D01*
X12761772Y2886151D01*
X12774472Y2879852D01*
X12787934Y2875280D01*
X12801803Y2872536D01*
G37*
G36*
X8205978Y2871622D02*
G01*
X8220100Y2872536D01*
X8234019Y2875280D01*
X8247430Y2879852D01*
X8260181Y2886151D01*
X8271967Y2894025D01*
X8282635Y2903372D01*
X8291982Y2913989D01*
X8299856Y2925826D01*
X8306104Y2938526D01*
X8310676Y2951937D01*
X8313420Y2965856D01*
X8314334Y2979978D01*
X8313420Y2994152D01*
X8310676Y3008071D01*
X8306104Y3021482D01*
X8299856Y3034182D01*
X8291982Y3045968D01*
X8282635Y3056636D01*
X8271967Y3065983D01*
X8260181Y3073857D01*
X8247430Y3080105D01*
X8234019Y3084677D01*
X8220100Y3087471D01*
X8205978Y3088386D01*
X8191804Y3087471D01*
X8177936Y3084677D01*
X8164474Y3080105D01*
X8151774Y3073857D01*
X8139988Y3065983D01*
X8129320Y3056636D01*
X8119973Y3045968D01*
X8112099Y3034182D01*
X8105851Y3021482D01*
X8101279Y3008071D01*
X8098536Y2994152D01*
X8097570Y2979978D01*
X8098536Y2965856D01*
X8101279Y2951937D01*
X8105851Y2938526D01*
X8112099Y2925826D01*
X8119973Y2913989D01*
X8129320Y2903372D01*
X8139988Y2894025D01*
X8151774Y2886151D01*
X8164474Y2879852D01*
X8177936Y2875280D01*
X8191804Y2872536D01*
G37*
G36*
X9287560Y2872892D02*
G01*
X9294164Y2876143D01*
X9305950Y2884017D01*
X9316618Y2893364D01*
X9325965Y2904032D01*
X9333839Y2915818D01*
X9337090Y2922371D01*
X9287560Y2922371D01*
G37*
G36*
X10732363Y2872892D02*
G01*
X10732363Y2922371D01*
X10682833Y2922371D01*
X10686084Y2915818D01*
X10693958Y2904032D01*
X10703306Y2893364D01*
X10713974Y2884017D01*
X10725759Y2876143D01*
G37*
G36*
X9942372Y2872892D02*
G01*
X9942372Y2922371D01*
X9892842Y2922371D01*
X9896094Y2915818D01*
X9903968Y2904032D01*
X9913315Y2893364D01*
X9923983Y2884017D01*
X9935768Y2876143D01*
G37*
G36*
X9192361Y2872892D02*
G01*
X9192361Y2922371D01*
X9142831Y2922371D01*
X9146082Y2915818D01*
X9154007Y2904032D01*
X9163354Y2893364D01*
X9173972Y2884017D01*
X9185757Y2876143D01*
G37*
G36*
X10037572Y2872892D02*
G01*
X10044176Y2876143D01*
X10055961Y2884017D01*
X10066629Y2893364D01*
X10075976Y2904032D01*
X10083850Y2915818D01*
X10087102Y2922371D01*
X10037572Y2922371D01*
G37*
G36*
X10827562Y2872892D02*
G01*
X10834166Y2876143D01*
X10845952Y2884017D01*
X10856620Y2893364D01*
X10865967Y2904032D01*
X10873841Y2915818D01*
X10877092Y2922371D01*
X10827562Y2922371D01*
G37*
G36*
X7435951Y2881630D02*
G01*
X7450124Y2882544D01*
X7464044Y2885287D01*
X7477455Y2889859D01*
X7490155Y2896108D01*
X7501940Y2903982D01*
X7512608Y2913329D01*
X7521956Y2923997D01*
X7529830Y2935782D01*
X7536129Y2948533D01*
X7540650Y2961944D01*
X7543444Y2975864D01*
X7544358Y2989986D01*
X7543444Y3004159D01*
X7540650Y3018028D01*
X7536129Y3031490D01*
X7529830Y3044190D01*
X7521956Y3055975D01*
X7512608Y3066643D01*
X7501940Y3075990D01*
X7490155Y3083864D01*
X7477455Y3090113D01*
X7464044Y3094685D01*
X7450124Y3097428D01*
X7435951Y3098393D01*
X7421829Y3097428D01*
X7407909Y3094685D01*
X7394498Y3090113D01*
X7381798Y3083864D01*
X7370013Y3075990D01*
X7359345Y3066643D01*
X7349998Y3055975D01*
X7342124Y3044190D01*
X7335824Y3031490D01*
X7331303Y3018028D01*
X7328509Y3004159D01*
X7327595Y2989986D01*
X7328509Y2975864D01*
X7331303Y2961944D01*
X7335824Y2948533D01*
X7342124Y2935782D01*
X7349998Y2923997D01*
X7359345Y2913329D01*
X7370013Y2903982D01*
X7381798Y2896108D01*
X7394498Y2889859D01*
X7407909Y2885287D01*
X7421829Y2882544D01*
G37*
G36*
X6675983Y2881630D02*
G01*
X6690156Y2882544D01*
X6704025Y2885287D01*
X6717487Y2889859D01*
X6730187Y2896108D01*
X6741972Y2903982D01*
X6752640Y2913329D01*
X6761988Y2923997D01*
X6769862Y2935782D01*
X6776110Y2948533D01*
X6780682Y2961944D01*
X6783425Y2975864D01*
X6784390Y2989986D01*
X6783425Y3004159D01*
X6780682Y3018028D01*
X6776110Y3031490D01*
X6769862Y3044190D01*
X6761988Y3055975D01*
X6752640Y3066643D01*
X6741972Y3075990D01*
X6730187Y3083864D01*
X6717487Y3090113D01*
X6704025Y3094685D01*
X6690156Y3097428D01*
X6675983Y3098393D01*
X6661861Y3097428D01*
X6647942Y3094685D01*
X6634530Y3090113D01*
X6621780Y3083864D01*
X6609994Y3075990D01*
X6599326Y3066643D01*
X6589979Y3055975D01*
X6582105Y3044190D01*
X6575856Y3031490D01*
X6571284Y3018028D01*
X6568541Y3004159D01*
X6567576Y2989986D01*
X6568541Y2975864D01*
X6571284Y2961944D01*
X6575856Y2948533D01*
X6582105Y2935782D01*
X6589979Y2923997D01*
X6599326Y2913329D01*
X6609994Y2903982D01*
X6621780Y2896108D01*
X6634530Y2889859D01*
X6647942Y2885287D01*
X6661861Y2882544D01*
G37*
G36*
X13022376Y2882900D02*
G01*
X13022376Y2932379D01*
X12972846Y2932379D01*
X12976098Y2925826D01*
X12983972Y2913989D01*
X12993319Y2903372D01*
X13003987Y2894025D01*
X13015772Y2886151D01*
G37*
G36*
X8507577Y2882900D02*
G01*
X8514181Y2886151D01*
X8525967Y2894025D01*
X8536635Y2903372D01*
X8545982Y2913989D01*
X8553856Y2925826D01*
X8557107Y2932379D01*
X8507577Y2932379D01*
G37*
G36*
X8412378Y2882900D02*
G01*
X8412378Y2932379D01*
X8362848Y2932379D01*
X8366099Y2925826D01*
X8373973Y2913989D01*
X8383320Y2903372D01*
X8393988Y2894025D01*
X8405774Y2886151D01*
G37*
G36*
X13117576Y2882900D02*
G01*
X13124180Y2886151D01*
X13135965Y2894025D01*
X13146582Y2903372D01*
X13155930Y2913989D01*
X13163804Y2925826D01*
X13167055Y2932379D01*
X13117576Y2932379D01*
G37*
G36*
X6977583Y2892856D02*
G01*
X6984187Y2896108D01*
X6995972Y2903982D01*
X7006640Y2913329D01*
X7015988Y2923997D01*
X7023862Y2935782D01*
X7027113Y2942386D01*
X6977583Y2942386D01*
G37*
G36*
X7642352Y2892856D02*
G01*
X7642352Y2942386D01*
X7592872Y2942386D01*
X7596124Y2935782D01*
X7603998Y2923997D01*
X7613345Y2913329D01*
X7624013Y2903982D01*
X7635798Y2896108D01*
G37*
G36*
X6882384Y2892856D02*
G01*
X6882384Y2942386D01*
X6832853Y2942386D01*
X6836105Y2935782D01*
X6843979Y2923997D01*
X6853326Y2913329D01*
X6863994Y2903982D01*
X6875780Y2896108D01*
G37*
G36*
X7737551Y2892856D02*
G01*
X7744155Y2896108D01*
X7755940Y2903982D01*
X7766608Y2913329D01*
X7775956Y2923997D01*
X7783830Y2935782D01*
X7787081Y2942386D01*
X7737551Y2942386D01*
G37*
G36*
X9287560Y3017570D02*
G01*
X9337090Y3017570D01*
X9333839Y3024174D01*
X9325965Y3035960D01*
X9316618Y3046628D01*
X9305950Y3055975D01*
X9294164Y3063849D01*
X9287560Y3067100D01*
G37*
G36*
X10682833Y3017570D02*
G01*
X10732363Y3017570D01*
X10732363Y3067100D01*
X10725759Y3063849D01*
X10713974Y3055975D01*
X10703306Y3046628D01*
X10693958Y3035960D01*
X10686084Y3024174D01*
G37*
G36*
X9892842Y3017570D02*
G01*
X9942372Y3017570D01*
X9942372Y3067100D01*
X9935768Y3063849D01*
X9923983Y3055975D01*
X9913315Y3046628D01*
X9903968Y3035960D01*
X9896094Y3024174D01*
G37*
G36*
X9142831Y3017570D02*
G01*
X9192361Y3017570D01*
X9192361Y3067100D01*
X9185757Y3063849D01*
X9173972Y3055975D01*
X9163354Y3046628D01*
X9154007Y3035960D01*
X9146082Y3024174D01*
G37*
G36*
X10037572Y3017570D02*
G01*
X10087102Y3017570D01*
X10083850Y3024174D01*
X10075976Y3035960D01*
X10066629Y3046628D01*
X10055961Y3055975D01*
X10044176Y3063849D01*
X10037572Y3067100D01*
G37*
G36*
X10827562Y3017570D02*
G01*
X10877092Y3017570D01*
X10873841Y3024174D01*
X10865967Y3035960D01*
X10856620Y3046628D01*
X10845952Y3055975D01*
X10834166Y3063849D01*
X10827562Y3067100D01*
G37*
G36*
X12972846Y3027578D02*
G01*
X13022376Y3027578D01*
X13022376Y3077108D01*
X13015772Y3073857D01*
X13003987Y3065983D01*
X12993319Y3056636D01*
X12983972Y3045968D01*
X12976098Y3034182D01*
G37*
G36*
X8507577Y3027578D02*
G01*
X8557107Y3027578D01*
X8553856Y3034182D01*
X8545982Y3045968D01*
X8536635Y3056636D01*
X8525967Y3065983D01*
X8514181Y3073857D01*
X8507577Y3077108D01*
G37*
G36*
X8362848Y3027578D02*
G01*
X8412378Y3027578D01*
X8412378Y3077108D01*
X8405774Y3073857D01*
X8393988Y3065983D01*
X8383320Y3056636D01*
X8373973Y3045968D01*
X8366099Y3034182D01*
G37*
G36*
X13117576Y3027578D02*
G01*
X13167055Y3027578D01*
X13163804Y3034182D01*
X13155930Y3045968D01*
X13146582Y3056636D01*
X13135965Y3065983D01*
X13124180Y3073857D01*
X13117576Y3077108D01*
G37*
G36*
X7737551Y3037586D02*
G01*
X7787081Y3037586D01*
X7783830Y3044190D01*
X7775956Y3055975D01*
X7766608Y3066643D01*
X7755940Y3075990D01*
X7744155Y3083864D01*
X7737551Y3087116D01*
G37*
G36*
X6977583Y3037586D02*
G01*
X7027113Y3037586D01*
X7023862Y3044190D01*
X7015988Y3055975D01*
X7006640Y3066643D01*
X6995972Y3075990D01*
X6984187Y3083864D01*
X6977583Y3087116D01*
G37*
G36*
X7592872Y3037586D02*
G01*
X7642352Y3037586D01*
X7642352Y3087116D01*
X7635798Y3083864D01*
X7624013Y3075990D01*
X7613345Y3066643D01*
X7603998Y3055975D01*
X7596124Y3044190D01*
G37*
G36*
X6832853Y3037586D02*
G01*
X6882384Y3037586D01*
X6882384Y3087116D01*
X6875780Y3083864D01*
X6863994Y3075990D01*
X6853326Y3066643D01*
X6843979Y3055975D01*
X6836105Y3044190D01*
G37*
G36*
X13754303Y3640175D02*
G01*
X13769035Y3640632D01*
X13783614Y3642918D01*
X13797788Y3646932D01*
X13811402Y3652672D01*
X13824204Y3660089D01*
X13835938Y3668979D01*
X13846556Y3679240D01*
X13855801Y3690721D01*
X13863574Y3703269D01*
X13869771Y3716680D01*
X13874242Y3730751D01*
X13876934Y3745280D01*
X13877848Y3760012D01*
X13876934Y3774744D01*
X13874242Y3789222D01*
X13869771Y3803294D01*
X13863574Y3816705D01*
X13855801Y3829253D01*
X13846556Y3840734D01*
X13835938Y3851046D01*
X13824204Y3859936D01*
X13811402Y3867302D01*
X13797788Y3873042D01*
X13783614Y3877106D01*
X13769035Y3879342D01*
X13754303Y3879799D01*
X13739571Y3878427D01*
X13725194Y3875278D01*
X13711275Y3870401D01*
X13698016Y3863797D01*
X13685723Y3855669D01*
X13674547Y3846068D01*
X13664590Y3835146D01*
X13656056Y3823106D01*
X13649096Y3810101D01*
X13643762Y3796334D01*
X13640155Y3782009D01*
X13638326Y3767378D01*
X13638326Y3752596D01*
X13640155Y3737965D01*
X13643762Y3723640D01*
X13649096Y3709873D01*
X13656056Y3696868D01*
X13664590Y3684828D01*
X13674547Y3673957D01*
X13685723Y3664356D01*
X13698016Y3656177D01*
X13711275Y3649624D01*
X13725194Y3644696D01*
X13739571Y3641547D01*
G37*
G36*
X11575338Y3792321D02*
G01*
X11579809Y3794455D01*
X11592102Y3802227D01*
X11603329Y3811524D01*
X11613286Y3822141D01*
X11621820Y3833876D01*
X11627713Y3844645D01*
X11575338Y3844645D01*
G37*
G36*
X11472621Y3792321D02*
G01*
X11472621Y3844645D01*
X11420246Y3844645D01*
X11426139Y3833876D01*
X11434673Y3822141D01*
X11444630Y3811524D01*
X11455857Y3802227D01*
X11468150Y3794455D01*
G37*
G36*
X6205677Y3800195D02*
G01*
X6220358Y3801567D01*
X6234785Y3804716D01*
X6248704Y3809593D01*
X6261912Y3816197D01*
X6274206Y3824325D01*
X6285433Y3833926D01*
X6295390Y3844848D01*
X6303924Y3856888D01*
X6310884Y3869893D01*
X6316218Y3883660D01*
X6319824Y3897985D01*
X6321602Y3912615D01*
X6321602Y3927348D01*
X6319824Y3942029D01*
X6316218Y3956354D01*
X6310884Y3970070D01*
X6303924Y3983075D01*
X6295390Y3995115D01*
X6285433Y4006037D01*
X6274206Y4015638D01*
X6261912Y4023817D01*
X6248704Y4030370D01*
X6234785Y4035298D01*
X6220358Y4038447D01*
X6205677Y4039819D01*
X6190945Y4039362D01*
X6176365Y4037076D01*
X6162141Y4033062D01*
X6148578Y4027271D01*
X6135776Y4019905D01*
X6123990Y4011015D01*
X6113424Y4000754D01*
X6104128Y3989273D01*
X6096355Y3976725D01*
X6090208Y3963314D01*
X6085738Y3949242D01*
X6083046Y3934714D01*
X6082131Y3919982D01*
X6083046Y3905250D01*
X6085738Y3890772D01*
X6090208Y3876700D01*
X6096355Y3863289D01*
X6104128Y3850741D01*
X6113424Y3839260D01*
X6123990Y3828948D01*
X6135776Y3820058D01*
X6148578Y3812692D01*
X6162141Y3806951D01*
X6176365Y3802887D01*
X6190945Y3800652D01*
G37*
G36*
X7221677Y3800195D02*
G01*
X7236358Y3801567D01*
X7250785Y3804716D01*
X7264704Y3809593D01*
X7277912Y3816197D01*
X7290206Y3824325D01*
X7301433Y3833926D01*
X7311390Y3844848D01*
X7319924Y3856888D01*
X7326884Y3869893D01*
X7332218Y3883660D01*
X7335824Y3897985D01*
X7337602Y3912615D01*
X7337602Y3927348D01*
X7335824Y3942029D01*
X7332218Y3956354D01*
X7326884Y3970070D01*
X7319924Y3983075D01*
X7311390Y3995115D01*
X7301433Y4006037D01*
X7290206Y4015638D01*
X7277912Y4023817D01*
X7264704Y4030370D01*
X7250785Y4035298D01*
X7236358Y4038447D01*
X7221677Y4039819D01*
X7206945Y4039362D01*
X7192365Y4037076D01*
X7178141Y4033062D01*
X7164578Y4027271D01*
X7151776Y4019905D01*
X7139990Y4011015D01*
X7129424Y4000754D01*
X7120128Y3989273D01*
X7112355Y3976725D01*
X7106208Y3963314D01*
X7101738Y3949242D01*
X7099046Y3934714D01*
X7098131Y3919982D01*
X7099046Y3905250D01*
X7101738Y3890772D01*
X7106208Y3876700D01*
X7112355Y3863289D01*
X7120128Y3850741D01*
X7129424Y3839260D01*
X7139990Y3828948D01*
X7151776Y3820058D01*
X7164578Y3812692D01*
X7178141Y3806951D01*
X7192365Y3802887D01*
X7206945Y3800652D01*
G37*
G36*
X13754303Y3940200D02*
G01*
X13769035Y3940657D01*
X13783614Y3942892D01*
X13797788Y3946956D01*
X13811402Y3952697D01*
X13824204Y3960063D01*
X13835938Y3968953D01*
X13846556Y3979214D01*
X13855801Y3990746D01*
X13863574Y4003294D01*
X13869771Y4016705D01*
X13874242Y4030776D01*
X13876934Y4045254D01*
X13877848Y4059986D01*
X13876934Y4074718D01*
X13874242Y4089247D01*
X13869771Y4103268D01*
X13863574Y4116679D01*
X13855801Y4129227D01*
X13846556Y4140758D01*
X13835938Y4151020D01*
X13824204Y4159910D01*
X13811402Y4167276D01*
X13797788Y4173067D01*
X13783614Y4177080D01*
X13769035Y4179366D01*
X13754303Y4179824D01*
X13739571Y4178452D01*
X13725194Y4175302D01*
X13711275Y4170375D01*
X13698016Y4163822D01*
X13685723Y4155643D01*
X13674547Y4146042D01*
X13664590Y4135120D01*
X13656056Y4123080D01*
X13649096Y4110075D01*
X13643762Y4096308D01*
X13640155Y4082034D01*
X13638326Y4067352D01*
X13638326Y4052620D01*
X13640155Y4037990D01*
X13643762Y4023664D01*
X13649096Y4009898D01*
X13656056Y3996893D01*
X13664590Y3984853D01*
X13674547Y3973931D01*
X13685723Y3964330D01*
X13698016Y3956202D01*
X13711275Y3949598D01*
X13725194Y3944721D01*
X13739571Y3941521D01*
G37*
G36*
X7629550Y4197959D02*
G01*
X7643215Y4198416D01*
X7656626Y4200702D01*
X7669682Y4204716D01*
X7682026Y4210456D01*
X7693558Y4217822D01*
X7703972Y4226610D01*
X7713116Y4236720D01*
X7720838Y4247946D01*
X7726984Y4260138D01*
X7731455Y4273042D01*
X7734147Y4286402D01*
X7735062Y4299966D01*
X7734147Y4313580D01*
X7731455Y4326940D01*
X7726984Y4339844D01*
X7720838Y4352036D01*
X7713116Y4363262D01*
X7703972Y4373372D01*
X7693558Y4382160D01*
X7682026Y4389526D01*
X7669682Y4395266D01*
X7656626Y4399280D01*
X7643215Y4401566D01*
X7629550Y4402023D01*
X7615986Y4400651D01*
X7602728Y4397502D01*
X7590028Y4392574D01*
X7578039Y4386021D01*
X7567066Y4377944D01*
X7557262Y4368444D01*
X7548829Y4357776D01*
X7541869Y4346041D01*
X7536535Y4333494D01*
X7532928Y4320336D01*
X7531150Y4306824D01*
X7531150Y4293158D01*
X7532928Y4279646D01*
X7536535Y4266488D01*
X7541869Y4253941D01*
X7548829Y4242206D01*
X7557262Y4231538D01*
X7567066Y4222038D01*
X7578039Y4213961D01*
X7590028Y4207408D01*
X7602728Y4202480D01*
X7615986Y4199331D01*
G37*
G36*
X7842554Y4208221D02*
G01*
X7842554Y4255516D01*
X7795209Y4255516D01*
X7795869Y4253941D01*
X7802829Y4242206D01*
X7811262Y4231538D01*
X7821066Y4222038D01*
X7832039Y4213961D01*
G37*
G36*
X7931454Y4208322D02*
G01*
X7936026Y4210456D01*
X7947558Y4217822D01*
X7957972Y4226610D01*
X7967116Y4236720D01*
X7974838Y4247946D01*
X7978648Y4255516D01*
X7931454Y4255516D01*
G37*
G36*
X13754303Y4240174D02*
G01*
X13769035Y4240631D01*
X13783614Y4242917D01*
X13797788Y4246930D01*
X13811402Y4252671D01*
X13824204Y4260088D01*
X13835938Y4268978D01*
X13846556Y4279239D01*
X13855801Y4290720D01*
X13863574Y4303268D01*
X13869771Y4316679D01*
X13874242Y4330750D01*
X13876934Y4345279D01*
X13877848Y4360011D01*
X13876934Y4374743D01*
X13874242Y4389221D01*
X13869771Y4403293D01*
X13863574Y4416704D01*
X13855801Y4429252D01*
X13846556Y4440732D01*
X13835938Y4451045D01*
X13824204Y4459935D01*
X13811402Y4467301D01*
X13797788Y4473041D01*
X13783614Y4477105D01*
X13769035Y4479340D01*
X13754303Y4479798D01*
X13739571Y4478426D01*
X13725194Y4475276D01*
X13711275Y4470400D01*
X13698016Y4463796D01*
X13685723Y4455668D01*
X13674547Y4446066D01*
X13664590Y4435144D01*
X13656056Y4423105D01*
X13649096Y4410100D01*
X13643762Y4396333D01*
X13640155Y4382008D01*
X13638326Y4367377D01*
X13638326Y4352594D01*
X13640155Y4337964D01*
X13643762Y4323638D01*
X13649096Y4309872D01*
X13656056Y4296867D01*
X13664590Y4284827D01*
X13674547Y4273956D01*
X13685723Y4264355D01*
X13698016Y4256176D01*
X13711275Y4249623D01*
X13725194Y4244695D01*
X13739571Y4241546D01*
G37*
G36*
X6830009Y4294124D02*
G01*
X6845147Y4295038D01*
X6860133Y4297781D01*
X6874611Y4302302D01*
X6888480Y4308500D01*
X6901484Y4316374D01*
X6913473Y4325772D01*
X6924192Y4336491D01*
X6933590Y4348480D01*
X6941464Y4361484D01*
X6947712Y4375404D01*
X6952234Y4389882D01*
X6954977Y4404817D01*
X6955891Y4420006D01*
X6954977Y4435144D01*
X6952234Y4450130D01*
X6947712Y4464558D01*
X6941464Y4478477D01*
X6933590Y4491482D01*
X6924192Y4503470D01*
X6913473Y4514240D01*
X6901484Y4523587D01*
X6888480Y4531461D01*
X6874611Y4537710D01*
X6860133Y4542231D01*
X6845147Y4544974D01*
X6830009Y4545888D01*
X6814820Y4544974D01*
X6799834Y4542231D01*
X6785356Y4537710D01*
X6771487Y4531461D01*
X6758482Y4523587D01*
X6746494Y4514240D01*
X6735775Y4503470D01*
X6726377Y4491482D01*
X6718503Y4478477D01*
X6712254Y4464608D01*
X6707733Y4450130D01*
X6704990Y4435144D01*
X6704075Y4420006D01*
X6704990Y4404817D01*
X6707733Y4389882D01*
X6712254Y4375353D01*
X6718503Y4361484D01*
X6726377Y4348480D01*
X6735775Y4336491D01*
X6746494Y4325772D01*
X6758482Y4316374D01*
X6771487Y4308500D01*
X6785356Y4302302D01*
X6799834Y4297781D01*
X6814820Y4295038D01*
G37*
G36*
X7140346Y4307535D02*
G01*
X7142480Y4308500D01*
X7155484Y4316374D01*
X7167473Y4325772D01*
X7178192Y4336491D01*
X7187590Y4348480D01*
X7195464Y4361484D01*
X7196429Y4363618D01*
X7140346Y4363618D01*
G37*
G36*
X7027621Y4307535D02*
G01*
X7027621Y4363618D01*
X6971538Y4363618D01*
X6972503Y4361484D01*
X6980377Y4348480D01*
X6989775Y4336491D01*
X7000494Y4325772D01*
X7012482Y4316374D01*
X7025487Y4308500D01*
G37*
G36*
X7931454Y4344416D02*
G01*
X7978648Y4344416D01*
X7974838Y4352036D01*
X7967116Y4363262D01*
X7957972Y4373372D01*
X7947558Y4382160D01*
X7936026Y4389526D01*
X7931454Y4391660D01*
G37*
G36*
X7795209Y4344416D02*
G01*
X7842554Y4344416D01*
X7842554Y4391761D01*
X7832039Y4386021D01*
X7821066Y4377944D01*
X7811262Y4368444D01*
X7802829Y4357776D01*
X7795869Y4346041D01*
G37*
G36*
X7140346Y4476343D02*
G01*
X7196429Y4476343D01*
X7195464Y4478477D01*
X7187590Y4491482D01*
X7178192Y4503470D01*
X7167473Y4514240D01*
X7155484Y4523587D01*
X7142480Y4531461D01*
X7140346Y4532426D01*
G37*
G36*
X6971538Y4476343D02*
G01*
X7027621Y4476343D01*
X7027621Y4532426D01*
X7025487Y4531461D01*
X7012482Y4523587D01*
X7000494Y4514240D01*
X6989775Y4503470D01*
X6980377Y4491482D01*
X6972503Y4478477D01*
G37*
G36*
X13754303Y4540199D02*
G01*
X13769035Y4540656D01*
X13783614Y4542891D01*
X13797788Y4546955D01*
X13811402Y4552696D01*
X13824204Y4560062D01*
X13835938Y4568952D01*
X13846556Y4579213D01*
X13855801Y4590745D01*
X13863574Y4603292D01*
X13869771Y4616704D01*
X13874242Y4630775D01*
X13876934Y4645253D01*
X13877848Y4659985D01*
X13876934Y4674717D01*
X13874242Y4689246D01*
X13869771Y4703267D01*
X13863574Y4716678D01*
X13855801Y4729226D01*
X13846556Y4740757D01*
X13835938Y4751019D01*
X13824204Y4759909D01*
X13811402Y4767275D01*
X13797788Y4773066D01*
X13783614Y4777079D01*
X13769035Y4779365D01*
X13754303Y4779822D01*
X13739571Y4778451D01*
X13725194Y4775301D01*
X13711275Y4770374D01*
X13698016Y4763820D01*
X13685723Y4755642D01*
X13674547Y4746040D01*
X13664590Y4735118D01*
X13656056Y4723079D01*
X13649096Y4710074D01*
X13643762Y4696307D01*
X13640155Y4682032D01*
X13638326Y4667351D01*
X13638326Y4652619D01*
X13640155Y4637989D01*
X13643762Y4623663D01*
X13649096Y4609896D01*
X13656056Y4596892D01*
X13664590Y4584852D01*
X13674547Y4573930D01*
X13685723Y4564329D01*
X13698016Y4556201D01*
X13711275Y4549597D01*
X13725194Y4544720D01*
X13739571Y4541520D01*
G37*
G36*
X13754303Y4840173D02*
G01*
X13769035Y4840630D01*
X13783614Y4842916D01*
X13797788Y4846929D01*
X13811402Y4852670D01*
X13824204Y4860086D01*
X13835938Y4868976D01*
X13846556Y4879238D01*
X13855801Y4890719D01*
X13863574Y4903266D01*
X13869771Y4916678D01*
X13874242Y4930749D01*
X13876934Y4945278D01*
X13877848Y4960010D01*
X13876934Y4974742D01*
X13874242Y4989220D01*
X13869771Y5003292D01*
X13863574Y5016703D01*
X13855801Y5029250D01*
X13846556Y5040731D01*
X13835938Y5051044D01*
X13824204Y5059934D01*
X13811402Y5067300D01*
X13797788Y5073040D01*
X13783614Y5077104D01*
X13769035Y5079339D01*
X13754303Y5079796D01*
X13739571Y5078425D01*
X13725194Y5075275D01*
X13711275Y5070398D01*
X13698016Y5063794D01*
X13685723Y5055666D01*
X13674547Y5046065D01*
X13664590Y5035143D01*
X13656056Y5023104D01*
X13649096Y5010099D01*
X13643762Y4996332D01*
X13640155Y4982006D01*
X13638326Y4967376D01*
X13638326Y4952593D01*
X13640155Y4937963D01*
X13643762Y4923637D01*
X13649096Y4909870D01*
X13656056Y4896866D01*
X13664590Y4884826D01*
X13674547Y4873955D01*
X13685723Y4864354D01*
X13698016Y4856175D01*
X13711275Y4849622D01*
X13725194Y4844694D01*
X13739571Y4841544D01*
G37*
G36*
X9219996Y4844135D02*
G01*
X9235135Y4845050D01*
X9250121Y4847793D01*
X9264650Y4852314D01*
X9278467Y4858512D01*
X9291472Y4866386D01*
X9303461Y4875784D01*
X9314230Y4886502D01*
X9323578Y4898491D01*
X9331452Y4911496D01*
X9337700Y4925364D01*
X9342221Y4939893D01*
X9344964Y4954828D01*
X9345879Y4970018D01*
X9344964Y4985156D01*
X9342221Y5000142D01*
X9337700Y5014620D01*
X9331452Y5028488D01*
X9323578Y5041493D01*
X9314230Y5053482D01*
X9303461Y5064252D01*
X9291472Y5073599D01*
X9278467Y5081473D01*
X9264650Y5087721D01*
X9250121Y5092242D01*
X9235135Y5094986D01*
X9219996Y5095900D01*
X9204807Y5094986D01*
X9189872Y5092242D01*
X9175343Y5087721D01*
X9161475Y5081473D01*
X9148470Y5073599D01*
X9136481Y5064252D01*
X9125762Y5053482D01*
X9116364Y5041493D01*
X9108490Y5028488D01*
X9102293Y5014620D01*
X9097772Y5000142D01*
X9095028Y4985156D01*
X9094114Y4970018D01*
X9095028Y4954828D01*
X9097772Y4939893D01*
X9102293Y4925364D01*
X9108490Y4911496D01*
X9116364Y4898491D01*
X9125762Y4886502D01*
X9136481Y4875784D01*
X9148470Y4866386D01*
X9161475Y4858512D01*
X9175343Y4852314D01*
X9189872Y4847793D01*
X9204807Y4845050D01*
G37*
G36*
X13754303Y5140198D02*
G01*
X13769035Y5140655D01*
X13783614Y5142890D01*
X13797788Y5146954D01*
X13811402Y5152694D01*
X13824204Y5160060D01*
X13835938Y5168950D01*
X13846556Y5179212D01*
X13855801Y5190744D01*
X13863574Y5203291D01*
X13869771Y5216702D01*
X13874242Y5230774D01*
X13876934Y5245252D01*
X13877848Y5259984D01*
X13876934Y5274716D01*
X13874242Y5289245D01*
X13869771Y5303266D01*
X13863574Y5316677D01*
X13855801Y5329224D01*
X13846556Y5340756D01*
X13835938Y5351018D01*
X13824204Y5359908D01*
X13811402Y5367274D01*
X13797788Y5373065D01*
X13783614Y5377078D01*
X13769035Y5379364D01*
X13754303Y5379821D01*
X13739571Y5378450D01*
X13725194Y5375300D01*
X13711275Y5370372D01*
X13698016Y5363819D01*
X13685723Y5355640D01*
X13674547Y5346039D01*
X13664590Y5335117D01*
X13656056Y5323078D01*
X13649096Y5310073D01*
X13643762Y5296306D01*
X13640155Y5282031D01*
X13638326Y5267350D01*
X13638326Y5252618D01*
X13640155Y5237988D01*
X13643762Y5223662D01*
X13649096Y5209895D01*
X13656056Y5196890D01*
X13664590Y5184851D01*
X13674547Y5173929D01*
X13685723Y5164328D01*
X13698016Y5156200D01*
X13711275Y5149596D01*
X13725194Y5144719D01*
X13739571Y5141518D01*
G37*
G36*
X11015980Y5304078D02*
G01*
X11030508Y5304993D01*
X11044783Y5307736D01*
X11058652Y5312257D01*
X11071809Y5318455D01*
X11084102Y5326227D01*
X11095329Y5335524D01*
X11105286Y5346141D01*
X11113820Y5357876D01*
X11120831Y5370626D01*
X11126216Y5384190D01*
X11129822Y5398262D01*
X11131651Y5412689D01*
X11131651Y5427268D01*
X11129822Y5441696D01*
X11126216Y5455818D01*
X11120831Y5469331D01*
X11113820Y5482082D01*
X11105286Y5493867D01*
X11095329Y5504484D01*
X11084102Y5513730D01*
X11071809Y5521553D01*
X11058652Y5527751D01*
X11044783Y5532221D01*
X11030508Y5534964D01*
X11015980Y5535879D01*
X11001451Y5534964D01*
X10987176Y5532221D01*
X10973308Y5527751D01*
X10960150Y5521553D01*
X10947857Y5513730D01*
X10936630Y5504484D01*
X10926673Y5493867D01*
X10918139Y5482082D01*
X10911128Y5469331D01*
X10905744Y5455818D01*
X10902137Y5441696D01*
X10900308Y5427268D01*
X10900308Y5412689D01*
X10902137Y5398262D01*
X10905744Y5384190D01*
X10911128Y5370626D01*
X10918139Y5357876D01*
X10926673Y5346141D01*
X10936630Y5335524D01*
X10947857Y5326227D01*
X10960150Y5318455D01*
X10973308Y5312257D01*
X10987176Y5307736D01*
X11001451Y5304993D01*
G37*
G36*
X10761980Y5304078D02*
G01*
X10776508Y5304993D01*
X10790783Y5307736D01*
X10804652Y5312257D01*
X10817809Y5318455D01*
X10830102Y5326227D01*
X10841329Y5335524D01*
X10851286Y5346141D01*
X10859820Y5357876D01*
X10866831Y5370626D01*
X10872216Y5384190D01*
X10875822Y5398262D01*
X10877651Y5412689D01*
X10877651Y5427268D01*
X10875822Y5441696D01*
X10872216Y5455818D01*
X10866831Y5469331D01*
X10859820Y5482082D01*
X10851286Y5493867D01*
X10841329Y5504484D01*
X10830102Y5513730D01*
X10817809Y5521553D01*
X10804652Y5527751D01*
X10790783Y5532221D01*
X10776508Y5534964D01*
X10761980Y5535879D01*
X10747451Y5534964D01*
X10733176Y5532221D01*
X10719308Y5527751D01*
X10706150Y5521553D01*
X10693857Y5513730D01*
X10682630Y5504484D01*
X10672673Y5493867D01*
X10664139Y5482082D01*
X10657128Y5469331D01*
X10651744Y5455818D01*
X10648137Y5441696D01*
X10646308Y5427268D01*
X10646308Y5412689D01*
X10648137Y5398262D01*
X10651744Y5384190D01*
X10657128Y5370626D01*
X10664139Y5357876D01*
X10672673Y5346141D01*
X10682630Y5335524D01*
X10693857Y5326227D01*
X10706150Y5318455D01*
X10719308Y5312257D01*
X10733176Y5307736D01*
X10747451Y5304993D01*
G37*
G36*
X13754303Y5440172D02*
G01*
X13769035Y5440629D01*
X13783614Y5442915D01*
X13797788Y5446928D01*
X13811402Y5452668D01*
X13824204Y5460085D01*
X13835938Y5468975D01*
X13846556Y5479237D01*
X13855801Y5490718D01*
X13863574Y5503265D01*
X13869771Y5516676D01*
X13874242Y5530748D01*
X13876934Y5545277D01*
X13877848Y5560009D01*
X13876934Y5574741D01*
X13874242Y5589219D01*
X13869771Y5603290D01*
X13863574Y5616702D01*
X13855801Y5629249D01*
X13846556Y5640730D01*
X13835938Y5651042D01*
X13824204Y5659932D01*
X13811402Y5667298D01*
X13797788Y5673039D01*
X13783614Y5677103D01*
X13769035Y5679338D01*
X13754303Y5679795D01*
X13739571Y5678424D01*
X13725194Y5675274D01*
X13711275Y5670397D01*
X13698016Y5663793D01*
X13685723Y5655665D01*
X13674547Y5646064D01*
X13664590Y5635142D01*
X13656056Y5623102D01*
X13649096Y5610098D01*
X13643762Y5596331D01*
X13640155Y5582005D01*
X13638326Y5567375D01*
X13638326Y5552592D01*
X13640155Y5537962D01*
X13643762Y5523636D01*
X13649096Y5509869D01*
X13656056Y5496864D01*
X13664590Y5484825D01*
X13674547Y5473954D01*
X13685723Y5464352D01*
X13698016Y5456174D01*
X13711275Y5449620D01*
X13725194Y5444693D01*
X13739571Y5441543D01*
G37*
G36*
X13754303Y5740196D02*
G01*
X13769035Y5740654D01*
X13783614Y5742889D01*
X13797788Y5746953D01*
X13811402Y5752693D01*
X13824204Y5760059D01*
X13835938Y5768949D01*
X13846556Y5779211D01*
X13855801Y5790742D01*
X13863574Y5803290D01*
X13869771Y5816701D01*
X13874242Y5830773D01*
X13876934Y5845251D01*
X13877848Y5859983D01*
X13876934Y5874715D01*
X13874242Y5889244D01*
X13869771Y5903264D01*
X13863574Y5916676D01*
X13855801Y5929223D01*
X13846556Y5940755D01*
X13835938Y5951016D01*
X13824204Y5959906D01*
X13811402Y5967272D01*
X13797788Y5973064D01*
X13783614Y5977077D01*
X13769035Y5979363D01*
X13754303Y5979820D01*
X13739571Y5978448D01*
X13725194Y5975299D01*
X13711275Y5970371D01*
X13698016Y5963818D01*
X13685723Y5955639D01*
X13674547Y5946038D01*
X13664590Y5935116D01*
X13656056Y5923076D01*
X13649096Y5910072D01*
X13643762Y5896305D01*
X13640155Y5882030D01*
X13638326Y5867349D01*
X13638326Y5852617D01*
X13640155Y5837986D01*
X13643762Y5823661D01*
X13649096Y5809894D01*
X13656056Y5796889D01*
X13664590Y5784850D01*
X13674547Y5773928D01*
X13685723Y5764326D01*
X13698016Y5756198D01*
X13711275Y5749594D01*
X13725194Y5744718D01*
X13739571Y5741517D01*
G37*
G36*
X10662869Y6147003D02*
G01*
X11299037Y6147003D01*
X11305336Y6147714D01*
X11310823Y6149644D01*
X11315700Y6152743D01*
X11319814Y6156807D01*
X11322862Y6161735D01*
X11324793Y6167170D01*
X11325504Y6173520D01*
X11325504Y6386474D01*
X11324793Y6392824D01*
X11322862Y6398260D01*
X11319814Y6403187D01*
X11315700Y6407251D01*
X11310823Y6410350D01*
X11305336Y6412230D01*
X11299037Y6412941D01*
X10662869Y6412941D01*
X10656570Y6412230D01*
X10651083Y6410350D01*
X10646206Y6407251D01*
X10642092Y6403187D01*
X10639044Y6398260D01*
X10637113Y6392824D01*
X10636402Y6386474D01*
X10636402Y6173520D01*
X10637113Y6167170D01*
X10639044Y6161735D01*
X10642092Y6156807D01*
X10646206Y6152743D01*
X10651083Y6149644D01*
X10656570Y6147714D01*
G37*
G36*
X13605205Y6319113D02*
G01*
X13626185Y6320586D01*
X13646962Y6323888D01*
X13667333Y6329121D01*
X13687094Y6336131D01*
X13706195Y6344970D01*
X13724382Y6355486D01*
X13741552Y6367576D01*
X13757554Y6381242D01*
X13772286Y6396278D01*
X13785545Y6412534D01*
X13797280Y6430010D01*
X13807338Y6448450D01*
X13815720Y6467703D01*
X13822324Y6487668D01*
X13827048Y6508140D01*
X13829893Y6528968D01*
X13830858Y6549948D01*
X13829893Y6570980D01*
X13827048Y6591808D01*
X13822324Y6612280D01*
X13815720Y6632244D01*
X13807338Y6651498D01*
X13797280Y6669938D01*
X13785545Y6687362D01*
X13772286Y6703669D01*
X13757554Y6718706D01*
X13741552Y6732371D01*
X13724382Y6744462D01*
X13706195Y6754977D01*
X13687094Y6763816D01*
X13667333Y6770827D01*
X13646962Y6776059D01*
X13626185Y6779361D01*
X13605205Y6780834D01*
X13584224Y6780326D01*
X13563346Y6777939D01*
X13542772Y6773672D01*
X13522655Y6767525D01*
X13503198Y6759600D01*
X13484504Y6749948D01*
X13466826Y6738620D01*
X13450214Y6725716D01*
X13434872Y6711391D01*
X13420851Y6695694D01*
X13408355Y6678777D01*
X13397433Y6660845D01*
X13388187Y6641947D01*
X13380719Y6622338D01*
X13375030Y6602069D01*
X13371220Y6581394D01*
X13369290Y6560464D01*
X13369290Y6539484D01*
X13371220Y6518554D01*
X13375030Y6497878D01*
X13380719Y6477609D01*
X13388187Y6458000D01*
X13397433Y6439103D01*
X13408355Y6421170D01*
X13420851Y6404254D01*
X13434872Y6388557D01*
X13450214Y6374231D01*
X13466826Y6361328D01*
X13484504Y6350000D01*
X13503198Y6340348D01*
X13522655Y6332423D01*
X13542772Y6326276D01*
X13563346Y6322009D01*
X13584224Y6319621D01*
G37*
G36*
X9276334Y6397548D02*
G01*
X9278467Y6398514D01*
X9291472Y6406388D01*
X9303461Y6415786D01*
X9314230Y6426504D01*
X9323578Y6438493D01*
X9331452Y6451498D01*
X9332417Y6453632D01*
X9276334Y6453632D01*
G37*
G36*
X9163659Y6397548D02*
G01*
X9163659Y6453632D01*
X9107525Y6453632D01*
X9108490Y6451498D01*
X9116364Y6438493D01*
X9125762Y6426504D01*
X9136481Y6415786D01*
X9148470Y6406388D01*
X9161475Y6398514D01*
G37*
G36*
X9107525Y6566357D02*
G01*
X9163659Y6566357D01*
X9163659Y6622440D01*
X9161475Y6621475D01*
X9148470Y6613601D01*
X9136481Y6604253D01*
X9125762Y6593484D01*
X9116364Y6581495D01*
X9108490Y6568490D01*
G37*
G36*
X9276334Y6566357D02*
G01*
X9332417Y6566357D01*
X9331452Y6568490D01*
X9323578Y6581495D01*
X9314230Y6593484D01*
X9303461Y6604253D01*
X9291472Y6613601D01*
X9278467Y6621475D01*
X9276334Y6622440D01*
G37*

%LPD*%
G36*
X11871655Y2720949D02*
G01*
X11867235Y2721965D01*
X11863730Y2724708D01*
X11861749Y2728772D01*
X11861698Y2733243D01*
X11863578Y2737307D01*
X11867083Y2740202D01*
X11869775Y2741574D01*
X11877548Y2747314D01*
X11884202Y2754274D01*
X11889638Y2762250D01*
X11893600Y2771038D01*
X11896039Y2780385D01*
X11896852Y2789986D01*
X11896039Y2799588D01*
X11893600Y2808935D01*
X11889638Y2817723D01*
X11884202Y2825699D01*
X11881408Y2828645D01*
X11879326Y2831896D01*
X11878564Y2835706D01*
X11878564Y3205480D01*
X11877802Y3213506D01*
X11875617Y3220720D01*
X11872061Y3227374D01*
X11866930Y3233623D01*
X11483543Y3616960D01*
X11473738Y3625138D01*
X11471910Y3629202D01*
X11472011Y3633673D01*
X11474043Y3637635D01*
X11477548Y3640378D01*
X11481866Y3641344D01*
X12095835Y3641344D01*
X12099747Y3640582D01*
X12103049Y3638346D01*
X12568377Y3173018D01*
X12570612Y3169716D01*
X12571374Y3165856D01*
X12571374Y2835960D01*
X12570764Y2832608D01*
X12569088Y2829610D01*
X12562840Y2821838D01*
X12558166Y2813405D01*
X12554915Y2804312D01*
X12553289Y2794812D01*
X12553289Y2785160D01*
X12554915Y2775661D01*
X12558166Y2766568D01*
X12562840Y2758135D01*
X12568936Y2750667D01*
X12576149Y2744266D01*
X12583464Y2739745D01*
X12586614Y2736748D01*
X12588189Y2732684D01*
X12587935Y2728315D01*
X12585852Y2724505D01*
X12582398Y2721864D01*
X12578130Y2720949D01*
G37*

%LPC*%
G36*
X12065965Y2871622D02*
G01*
X12080087Y2872536D01*
X12094006Y2875280D01*
X12107418Y2879852D01*
X12120168Y2886151D01*
X12131954Y2894025D01*
X12142622Y2903372D01*
X12151969Y2913989D01*
X12159843Y2925826D01*
X12166092Y2938526D01*
X12170664Y2951937D01*
X12173407Y2965856D01*
X12174372Y2979978D01*
X12173407Y2994152D01*
X12170664Y3008071D01*
X12166092Y3021482D01*
X12159843Y3034182D01*
X12151969Y3045968D01*
X12142622Y3056636D01*
X12131954Y3065983D01*
X12120168Y3073857D01*
X12107418Y3080105D01*
X12094006Y3084677D01*
X12080087Y3087471D01*
X12065965Y3088386D01*
X12051842Y3087471D01*
X12037923Y3084677D01*
X12024512Y3080105D01*
X12011761Y3073857D01*
X11999976Y3065983D01*
X11989308Y3056636D01*
X11979960Y3045968D01*
X11972086Y3034182D01*
X11965838Y3021482D01*
X11961266Y3008071D01*
X11958523Y2994152D01*
X11957558Y2979978D01*
X11958523Y2965856D01*
X11961266Y2951937D01*
X11965838Y2938526D01*
X11972086Y2925826D01*
X11979960Y2913989D01*
X11989308Y2903372D01*
X11999976Y2894025D01*
X12011761Y2886151D01*
X12024512Y2879852D01*
X12037923Y2875280D01*
X12051842Y2872536D01*
G37*
G36*
X12272365Y2882900D02*
G01*
X12272365Y2932379D01*
X12222835Y2932379D01*
X12226086Y2925826D01*
X12233960Y2913989D01*
X12243308Y2903372D01*
X12253976Y2894025D01*
X12265761Y2886151D01*
G37*
G36*
X12367564Y2882900D02*
G01*
X12374168Y2886151D01*
X12385954Y2894025D01*
X12396622Y2903372D01*
X12405969Y2913989D01*
X12413843Y2925826D01*
X12417094Y2932379D01*
X12367564Y2932379D01*
G37*
G36*
X12222835Y3027578D02*
G01*
X12272365Y3027578D01*
X12272365Y3077108D01*
X12265761Y3073857D01*
X12253976Y3065983D01*
X12243308Y3056636D01*
X12233960Y3045968D01*
X12226086Y3034182D01*
G37*
G36*
X12367564Y3027578D02*
G01*
X12417094Y3027578D01*
X12413843Y3034182D01*
X12405969Y3045968D01*
X12396622Y3056636D01*
X12385954Y3065983D01*
X12374168Y3073857D01*
X12367564Y3077108D01*
G37*

%LPD*%
G36*
X11715546Y2718968D02*
G01*
X11713108Y2719222D01*
X11708841Y2720187D01*
X11704421Y2720746D01*
X11699798Y2720949D01*
X11091621Y2720949D01*
X11087252Y2721965D01*
X11083747Y2724708D01*
X11081766Y2728772D01*
X11081715Y2733243D01*
X11083594Y2737307D01*
X11087049Y2740202D01*
X11089792Y2741574D01*
X11097564Y2747314D01*
X11104219Y2754274D01*
X11109604Y2762250D01*
X11113617Y2771038D01*
X11116056Y2780385D01*
X11116868Y2789986D01*
X11116056Y2799588D01*
X11113617Y2808935D01*
X11109604Y2817723D01*
X11104219Y2825699D01*
X11101425Y2828645D01*
X11099342Y2831896D01*
X11098580Y2835706D01*
X11098580Y3169513D01*
X11097818Y3177540D01*
X11095583Y3184753D01*
X11092027Y3191408D01*
X11086947Y3197656D01*
X10757611Y3526942D01*
X10747552Y3535222D01*
X10745774Y3539286D01*
X10745876Y3543757D01*
X10747857Y3547719D01*
X10751362Y3550462D01*
X10755731Y3551428D01*
X11435689Y3551428D01*
X11439601Y3550665D01*
X11442903Y3548430D01*
X11798401Y3192932D01*
X11800586Y3189630D01*
X11801348Y3185769D01*
X11801348Y2835960D01*
X11800789Y2832608D01*
X11799112Y2829610D01*
X11792864Y2821838D01*
X11788140Y2813405D01*
X11784939Y2804312D01*
X11783314Y2794812D01*
X11783314Y2785160D01*
X11784939Y2775661D01*
X11788140Y2766568D01*
X11792864Y2758135D01*
X11798909Y2750667D01*
X11806174Y2744266D01*
X11813489Y2739745D01*
X11816588Y2736748D01*
X11818162Y2732684D01*
X11817908Y2728366D01*
X11815876Y2724505D01*
X11812371Y2721864D01*
X11808155Y2720949D01*
X11730431Y2720949D01*
X11721134Y2720136D01*
G37*

%LPC*%
G36*
X11275974Y2861614D02*
G01*
X11290147Y2862529D01*
X11304016Y2865323D01*
X11317478Y2869844D01*
X11330178Y2876143D01*
X11341963Y2884017D01*
X11352631Y2893364D01*
X11361978Y2904032D01*
X11369852Y2915818D01*
X11376101Y2928518D01*
X11380673Y2941929D01*
X11383416Y2955848D01*
X11384381Y2969971D01*
X11383416Y2984144D01*
X11380673Y2998063D01*
X11376101Y3011474D01*
X11369852Y3024174D01*
X11361978Y3035960D01*
X11352631Y3046628D01*
X11341963Y3055975D01*
X11330178Y3063849D01*
X11317478Y3070148D01*
X11304016Y3074670D01*
X11290147Y3077464D01*
X11275974Y3078378D01*
X11261852Y3077464D01*
X11247932Y3074670D01*
X11234521Y3070148D01*
X11221770Y3063849D01*
X11209985Y3055975D01*
X11199317Y3046628D01*
X11189970Y3035960D01*
X11182096Y3024174D01*
X11175847Y3011474D01*
X11171275Y2998063D01*
X11168532Y2984144D01*
X11167567Y2969971D01*
X11168532Y2955848D01*
X11171275Y2941929D01*
X11175847Y2928518D01*
X11182096Y2915818D01*
X11189970Y2904032D01*
X11199317Y2893364D01*
X11209985Y2884017D01*
X11221770Y2876143D01*
X11234521Y2869844D01*
X11247932Y2865323D01*
X11261852Y2862529D01*
G37*
G36*
X11482374Y2872892D02*
G01*
X11482374Y2922371D01*
X11432844Y2922371D01*
X11436096Y2915818D01*
X11443970Y2904032D01*
X11453317Y2893364D01*
X11463985Y2884017D01*
X11475770Y2876143D01*
G37*
G36*
X11577574Y2872892D02*
G01*
X11584178Y2876143D01*
X11595963Y2884017D01*
X11606631Y2893364D01*
X11615978Y2904032D01*
X11623852Y2915818D01*
X11627104Y2922371D01*
X11577574Y2922371D01*
G37*
G36*
X11432844Y3017570D02*
G01*
X11482374Y3017570D01*
X11482374Y3067100D01*
X11475770Y3063849D01*
X11463985Y3055975D01*
X11453317Y3046628D01*
X11443970Y3035960D01*
X11436096Y3024174D01*
G37*
G36*
X11577574Y3017570D02*
G01*
X11627104Y3017570D01*
X11623852Y3024174D01*
X11615978Y3035960D01*
X11606631Y3046628D01*
X11595963Y3055975D01*
X11584178Y3063849D01*
X11577574Y3067100D01*
G37*

%LPD*%
D10*
X10672465Y6376890D02*
G01*
X10672465Y6183088D01*
X10672465Y6376890D02*
G01*
X10792607Y6376890D01*
X10672465Y6284688D02*
G01*
X10746379Y6284688D01*
X10853567Y6312374D02*
G01*
X10853567Y6219918D01*
X10862711Y6192232D01*
X10881253Y6183088D01*
X10908939Y6183088D01*
X10927481Y6192232D01*
X10955167Y6219918D01*
X10955167Y6312374D02*
G01*
X10955167Y6183088D01*
X11117727Y6284688D02*
G01*
X11108329Y6302976D01*
X11080643Y6312374D01*
X11052957Y6312374D01*
X11025271Y6302976D01*
X11016127Y6284688D01*
X11025271Y6266146D01*
X11043813Y6257002D01*
X11090041Y6247604D01*
X11108329Y6238460D01*
X11117727Y6219918D01*
X11117727Y6210774D01*
X11108329Y6192232D01*
X11080643Y6183088D01*
X11052957Y6183088D01*
X11025271Y6192232D01*
X11016127Y6210774D01*
X11178687Y6257002D02*
G01*
X11289431Y6257002D01*
X11289431Y6275290D01*
X11280287Y6293832D01*
X11270889Y6302976D01*
X11252601Y6312374D01*
X11224915Y6312374D01*
X11206373Y6302976D01*
X11187831Y6284688D01*
X11178687Y6257002D01*
X11178687Y6238460D01*
X11187831Y6210774D01*
X11206373Y6192232D01*
X11224915Y6183088D01*
X11252601Y6183088D01*
X11270889Y6192232D01*
X11289431Y6210774D01*
D11*
X12329922Y1693926D02*
G01*
X12329922Y2119884D01*
X12619990Y2409952D01*
X12619990Y2540000D01*
X12489941Y2670047D01*
X11729974Y2670047D01*
X11539981Y1693926D02*
G01*
X11539981Y2109978D01*
X11830050Y2400045D01*
X11830050Y2540000D01*
X11700002Y2670047D01*
X10880090Y2670047D01*
X9990074Y1684020D02*
G01*
X9990074Y2070100D01*
X10590022Y2670047D01*
X10910061Y2670047D01*
X11040109Y2540000D01*
X11040109Y2329942D01*
X10750041Y2039873D01*
X10750041Y1693926D01*
X10759947Y1684020D01*
X13089890Y1704086D02*
G01*
X13089890Y1960118D01*
X13409973Y2339995D01*
X13409973Y2669539D01*
X13339973Y2669994D01*
X12469875Y2670047D01*
X7709915Y2446020D02*
G01*
X7166099Y2446020D01*
X6660078Y1940001D01*
X5550001Y1940001D01*
X9990074Y2446020D02*
G01*
X9990074Y2439923D01*
X9450070Y1899920D01*
X7560056Y1899920D01*
X7130034Y1469897D01*
X5169915Y1469897D01*
X4320031Y620013D01*
X10759947Y2446020D02*
G01*
X10459974Y2146045D01*
X10459974Y1599945D01*
X10439908Y1599945D01*
X10169906Y1329944D01*
X5537961Y1329944D01*
X4828031Y620013D01*
X11539981Y2455926D02*
G01*
X11299952Y2216150D01*
X11299952Y1459992D01*
X11009884Y1169923D01*
X5885941Y1169923D01*
X5336031Y620013D01*
X12329922Y2455926D02*
G01*
X12059920Y2185923D01*
X12059920Y1400047D01*
X11690095Y1029970D01*
X6253988Y1029970D01*
X5844031Y620013D01*
D12*
X6280000Y5489986D02*
G01*
X6280000Y5140002D01*
X5459989Y4319991D01*
X4929990Y4319991D01*
X4469991Y3859992D01*
X4469991Y2210010D01*
X6280000Y5989985D02*
G01*
X5119989Y4829990D01*
X2489995Y4829990D01*
X1469997Y3809992D01*
X1469997Y2210010D01*
D11*
X7709974Y1684014D02*
G01*
X8459967Y1684014D01*
X8459967Y1684014D02*
G01*
X9229968Y1684014D01*
X9229968Y1684014D02*
G01*
X9989972Y1684014D01*
D12*
X1270000Y619988D02*
G01*
X1270000Y2009998D01*
X1470004Y2210003D01*
X4469998Y2210003D02*
G01*
X2590002Y2210003D01*
X1769996Y1389997D01*
X1769996Y619991D01*
D11*
X5550001Y1940001D02*
G01*
X5661870Y1940001D01*
X5661919Y1940049D01*
D12*
X1970024Y5210047D02*
G01*
X2499868Y5739892D01*
X5379974Y5739892D01*
X6150102Y6510020D01*
X8219947Y6510020D01*
X8450072Y6279895D01*
X9895077Y6279895D01*
D11*
X9229852Y2446020D02*
G01*
X8833865Y2050034D01*
X7359904Y2050034D01*
X6949947Y1640078D01*
X4832095Y1640078D01*
X3812031Y620013D01*
X6229858Y1789937D02*
G01*
X6780022Y1789937D01*
X7199884Y2210054D01*
X8224011Y2210054D01*
X8459977Y2446020D01*
X12085065Y6279895D02*
G01*
X12839974Y6279987D01*
X13150088Y5960110D01*
X13150088Y3649726D01*
X13409929Y3389884D01*
X13409929Y2590037D01*
X13089890Y2466086D02*
G01*
X12789915Y2166112D01*
X12789915Y1160018D01*
X12539979Y910081D01*
X6642100Y910081D01*
X6352031Y620013D01*
D13*
X11777979Y5420105D02*
G01*
X11187938Y6009894D01*
X9199879Y6009894D01*
X8260079Y5070094D01*
X8260079Y3814063D01*
X8029983Y3599992D01*
X7609984Y3599992D01*
X7219985Y3209993D01*
X7219985Y2809994D01*
X11269979Y5420105D02*
G01*
X10910061Y5780023D01*
X9599929Y5780023D01*
X8640063Y4820157D01*
X8640063Y3315970D01*
X8729982Y3139993D01*
X8729982Y2799994D01*
X10507979Y5420105D02*
G01*
X10247884Y5679947D01*
X9770109Y5679947D01*
X9569958Y5480050D01*
X9569958Y3135884D01*
X9489981Y3019993D01*
X9489981Y2789994D01*
X10253979Y5420105D02*
G01*
X10094213Y5579871D01*
X9819893Y5579871D01*
X9679940Y5439918D01*
X9679940Y3759962D01*
X10279987Y3159914D01*
X10279987Y2791978D01*
X11473941Y5410200D02*
G01*
X10994136Y5890005D01*
X9310115Y5890005D01*
X8450072Y5029707D01*
X8449818Y3700018D01*
X7960106Y3210052D01*
X7960106Y2789936D01*
X9999979Y5420105D02*
G01*
X9800081Y5219954D01*
X9800081Y3800094D01*
X10100056Y3499865D01*
X10729978Y3499993D01*
X11059977Y3169993D01*
X11059977Y2789994D01*
X9999979Y3896105D02*
G01*
X10306050Y3590036D01*
X11455908Y3590036D01*
X11839976Y3205967D01*
X11839976Y2789994D01*
X10253979Y3896105D02*
G01*
X10469879Y3679952D01*
X12116054Y3679952D01*
X12609974Y3186031D01*
X12609974Y2789994D01*
X11777979Y5419979D02*
G01*
X12301964Y5419979D01*
X12741973Y5859988D01*
X11523979Y5419979D02*
G01*
X11673969Y5269989D01*
X12451974Y5269989D01*
X12741973Y5559988D01*
X11269979Y5419979D02*
G01*
X11529969Y5159989D01*
X12641973Y5159989D01*
X12741973Y5259989D01*
X10507979Y5419979D02*
G01*
X10967968Y4959990D01*
X12741973Y4959990D01*
X10253979Y5419979D02*
G01*
X11013968Y4659990D01*
X12741973Y4659990D01*
X9999979Y5419979D02*
G01*
X11059967Y4359991D01*
X12741973Y4359991D01*
X10253979Y3895979D02*
G01*
X10397992Y4039991D01*
X12461974Y4039991D01*
X12741973Y3759992D01*
X9999979Y3895979D02*
G01*
X10283992Y4179991D01*
X12621973Y4179991D01*
X12741973Y4059991D01*
D14*
G01*
X2799968Y620013D03*
G01*
X3299968Y620013D03*
G01*
X3811981Y620013D03*
G01*
X4319981Y620013D03*
G01*
X4827981Y620013D03*
G01*
X5335981Y620013D03*
G01*
X5843981Y620013D03*
G01*
X6351981Y620013D03*
G01*
X6859981Y620013D03*
D15*
G01*
X12741986Y5859983D03*
G01*
X13757986Y5859983D03*
G01*
X12741986Y5559983D03*
G01*
X13757986Y5559983D03*
G01*
X12741986Y5259984D03*
G01*
X13757986Y5259984D03*
G01*
X12741986Y4959985D03*
G01*
X13757986Y4959985D03*
G01*
X12741986Y4659985D03*
G01*
X13757986Y4659985D03*
G01*
X12741986Y4359986D03*
G01*
X13757986Y4359986D03*
G01*
X12741986Y4059986D03*
G01*
X13757986Y4059986D03*
G01*
X12741986Y3759987D03*
G01*
X13757986Y3759987D03*
G01*
X7217994Y3919981D03*
G01*
X6201994Y3919981D03*
D16*
G01*
X7632979Y4299991D03*
G01*
X7886979Y4299991D03*
D17*
G01*
X6829983Y4419980D03*
G01*
X7083983Y4419980D03*
D18*
G01*
X7436002Y2990011D03*
G01*
X7690002Y2990011D03*
G01*
X8205977Y2980004D03*
G01*
X8459977Y2980004D03*
G01*
X8985986Y2969996D03*
G01*
X9239986Y2969996D03*
G01*
X9735997Y2969996D03*
G01*
X9989997Y2969996D03*
G01*
X10525963Y2969996D03*
G01*
X10779963Y2969996D03*
G01*
X11275974Y2969996D03*
G01*
X11529974Y2969996D03*
G01*
X12065965Y2980004D03*
G01*
X12319965Y2980004D03*
G01*
X12815976Y2980004D03*
G01*
X13069976Y2980004D03*
G01*
X6676009Y2990011D03*
G01*
X6930009Y2990011D03*
D19*
G01*
X11777979Y5419979D03*
G01*
X11523979Y5419979D03*
G01*
X11269979Y5419979D03*
G01*
X11015979Y5419979D03*
G01*
X10761979Y5419979D03*
G01*
X10507979Y5419979D03*
G01*
X10253979Y5419979D03*
G01*
X9999979Y5419979D03*
G01*
X11777979Y3895979D03*
G01*
X11523979Y3895979D03*
G01*
X11269979Y3895979D03*
G01*
X11015979Y3895979D03*
G01*
X10761979Y3895979D03*
G01*
X10507979Y3895979D03*
G01*
X10253979Y3895979D03*
G01*
X9999979Y3895979D03*
G01*
X7709992Y414020D03*
G01*
X7709992Y668020D03*
G01*
X7709992Y1684020D03*
G01*
X7709992Y2446020D03*
G01*
X8459977Y414020D03*
G01*
X8459977Y668020D03*
G01*
X8459977Y1684020D03*
G01*
X8459977Y2446020D03*
G01*
X9229979Y414020D03*
G01*
X9229979Y668020D03*
G01*
X9229979Y1684020D03*
G01*
X9229979Y2446020D03*
G01*
X9989972Y414020D03*
G01*
X9989972Y668020D03*
G01*
X9989972Y1684020D03*
G01*
X9989972Y2446020D03*
G01*
X10759973Y414020D03*
G01*
X10759973Y668020D03*
G01*
X10759973Y1684020D03*
G01*
X10759973Y2446020D03*
G01*
X11539981Y424027D03*
G01*
X11539981Y678027D03*
G01*
X11539981Y1694027D03*
G01*
X11539981Y2456027D03*
G01*
X12329972Y424027D03*
G01*
X12329972Y678027D03*
G01*
X12329972Y1694027D03*
G01*
X12329972Y2456027D03*
G01*
X13089966Y434009D03*
G01*
X13089966Y688009D03*
G01*
X13089966Y1704009D03*
G01*
X13089966Y2466009D03*
D20*
G01*
X5219979Y3710000D03*
G01*
X719988Y3710000D03*
D21*
G01*
X4469993Y2210003D03*
G01*
X1469999Y2210003D03*
G01*
X3969994Y5209997D03*
G01*
X1969998Y5209997D03*
D17*
G01*
X9219996Y4969967D03*
G01*
X9219996Y6509969D03*
G01*
X6279997Y5489981D03*
G01*
X6279997Y5989980D03*
D14*
G01*
X1270000Y619988D03*
G01*
X1769998Y619988D03*
D22*
G01*
X9894976Y6279997D03*
G01*
X12084989Y6279997D03*
D23*
G01*
X9219996Y6509969D03*
G01*
X5550001Y1940001D03*
G01*
X6229984Y1789988D03*
G01*
X7219975Y2810002D03*
G01*
X7959979Y2789986D03*
G01*
X8729979Y2799994D03*
G01*
X9489973Y2789986D03*
G01*
X10279989Y2791968D03*
G01*
X11059972Y2789986D03*
G01*
X11839981Y2789986D03*
G01*
X12609982Y2789986D03*
M02*
