G04 Layer: TopSolderMaskLayer*
G04 EasyEDA v6.5.47, 2025-01-04 10:19:41*
G04 86b62169e94744f6ada2980840dbd0f2,9c8959dc7a574dada6669a69c5c32939,10*
G04 Gerber Generator version 0.2*
G04 Scale: 100 percent, Rotated: No, Reflected: No *
G04 Dimensions in millimeters *
G04 leading zeros omitted , absolute positions ,4 integer and 5 decimal *
%FSLAX45Y45*%
%MOMM*%

%ADD10C,1.6256*%
%ADD11C,2.2032*%
%ADD12C,1.8532*%
%ADD13C,1.9812*%
%ADD14C,1.9016*%
%ADD15C,2.3016*%
%ADD16C,3.1016*%
%ADD17C,1.6016*%
%ADD18C,2.1016*%
%ADD19C,2.6016*%

%LPD*%
D10*
G01*
X6902983Y4199991D03*
G01*
X7156983Y4199991D03*
D11*
G01*
X7689977Y4349978D03*
G01*
X7943977Y4349978D03*
D12*
G01*
X7436002Y2990011D03*
G01*
X7690002Y2990011D03*
G01*
X8205977Y2980004D03*
G01*
X8459977Y2980004D03*
G01*
X8985986Y2969996D03*
G01*
X9239986Y2969996D03*
G01*
X9735997Y2969996D03*
G01*
X9989997Y2969996D03*
G01*
X10525963Y2969996D03*
G01*
X10779963Y2969996D03*
G01*
X11275974Y2969996D03*
G01*
X11529974Y2969996D03*
G01*
X12065965Y2980004D03*
G01*
X12319965Y2980004D03*
G01*
X12815976Y2980004D03*
G01*
X13069976Y2980004D03*
G01*
X6745986Y2990011D03*
G01*
X6999986Y2990011D03*
D13*
G01*
X6239992Y4007993D03*
G01*
X6239992Y2991993D03*
D14*
G01*
X11777979Y5419979D03*
G01*
X11523979Y5419979D03*
G01*
X11269979Y5419979D03*
G01*
X11015979Y5419979D03*
G01*
X10761979Y5419979D03*
G01*
X10507979Y5419979D03*
G01*
X10253979Y5419979D03*
G01*
X9999979Y5419979D03*
G01*
X11777979Y3895979D03*
G01*
X11523979Y3895979D03*
G01*
X11269979Y3895979D03*
G01*
X11015979Y3895979D03*
G01*
X10761979Y3895979D03*
G01*
X10507979Y3895979D03*
G01*
X10253979Y3895979D03*
G01*
X9999979Y3895979D03*
G01*
X7709992Y414020D03*
G01*
X7709992Y668020D03*
G01*
X7709992Y1684020D03*
G01*
X7709992Y2446020D03*
G01*
X8459977Y414020D03*
G01*
X8459977Y668020D03*
G01*
X8459977Y1684020D03*
G01*
X8459977Y2446020D03*
G01*
X9229979Y414020D03*
G01*
X9229979Y668020D03*
G01*
X9229979Y1684020D03*
G01*
X9229979Y2446020D03*
G01*
X9989972Y414020D03*
G01*
X9989972Y668020D03*
G01*
X9989972Y1684020D03*
G01*
X9989972Y2446020D03*
G01*
X10759973Y414020D03*
G01*
X10759973Y668020D03*
G01*
X10759973Y1684020D03*
G01*
X10759973Y2446020D03*
G01*
X11539981Y424027D03*
G01*
X11539981Y678027D03*
G01*
X11539981Y1694027D03*
G01*
X11539981Y2456027D03*
G01*
X12329972Y424027D03*
G01*
X12329972Y678027D03*
G01*
X12329972Y1694027D03*
G01*
X12329972Y2456027D03*
G01*
X13089966Y434009D03*
G01*
X13089966Y688009D03*
G01*
X13089966Y1704009D03*
G01*
X13089966Y2466009D03*
D15*
G01*
X2799994Y619988D03*
G01*
X3299993Y619988D03*
G01*
X3812006Y619988D03*
G01*
X4320006Y619988D03*
G01*
X4828006Y619988D03*
G01*
X5336006Y619988D03*
G01*
X5844006Y619988D03*
G01*
X6352006Y619988D03*
G01*
X6860006Y619988D03*
D16*
G01*
X5219979Y3710000D03*
G01*
X719988Y3710000D03*
D17*
G01*
X4469993Y2210003D03*
G01*
X1469999Y2210003D03*
G01*
X3969994Y5209997D03*
G01*
X1969998Y5209997D03*
D18*
G01*
X9219996Y4969967D03*
G01*
X9219996Y6509969D03*
G01*
X6279997Y5489981D03*
G01*
X6279997Y5989980D03*
D15*
G01*
X1270000Y619988D03*
G01*
X1769998Y619988D03*
D19*
G01*
X9894976Y6279997D03*
G01*
X12084989Y6279997D03*
M02*
