G04 Layer: TopSilkscreenLayer*
G04 EasyEDA v6.5.48, 2025-01-26 00:11:38*
G04 fc4346687c6f4b058559f65778573f7f,9c8959dc7a574dada6669a69c5c32939,10*
G04 Gerber Generator version 0.2*
G04 Scale: 100 percent, Rotated: No, Reflected: No *
G04 Dimensions in millimeters *
G04 leading zeros omitted , absolute positions ,4 integer and 5 decimal *
%FSLAX45Y45*%
%MOMM*%

%ADD10C,0.2032*%
%ADD11C,0.1524*%
%ADD12C,0.1500*%
%ADD13C,0.2540*%

%LPD*%
D10*
X13815042Y3091553D02*
G01*
X13815042Y2989953D01*
X13741128Y3045325D01*
X13741128Y3017639D01*
X13731984Y2999097D01*
X13722586Y2989953D01*
X13694900Y2980555D01*
X13676358Y2980555D01*
X13648672Y2989953D01*
X13630384Y3008495D01*
X13620986Y3036181D01*
X13620986Y3063867D01*
X13630384Y3091553D01*
X13639528Y3100697D01*
X13658070Y3110095D01*
X13815042Y2864223D02*
G01*
X13805898Y2891909D01*
X13777958Y2910451D01*
X13731984Y2919595D01*
X13704298Y2919595D01*
X13658070Y2910451D01*
X13630384Y2891909D01*
X13620986Y2864223D01*
X13620986Y2845935D01*
X13630384Y2817995D01*
X13658070Y2799707D01*
X13704298Y2790309D01*
X13731984Y2790309D01*
X13777958Y2799707D01*
X13805898Y2817995D01*
X13815042Y2845935D01*
X13815042Y2864223D01*
X13815042Y2729349D02*
G01*
X13620986Y2729349D01*
X13713442Y2729349D02*
G01*
X13741128Y2701663D01*
X13750272Y2683375D01*
X13750272Y2655435D01*
X13741128Y2637147D01*
X13713442Y2627749D01*
X13620986Y2627749D01*
X13750272Y2520815D02*
G01*
X13741128Y2539103D01*
X13722586Y2557645D01*
X13694900Y2566789D01*
X13676358Y2566789D01*
X13648672Y2557645D01*
X13630384Y2539103D01*
X13620986Y2520815D01*
X13620986Y2492875D01*
X13630384Y2474587D01*
X13648672Y2456045D01*
X13676358Y2446901D01*
X13694900Y2446901D01*
X13722586Y2456045D01*
X13741128Y2474587D01*
X13750272Y2492875D01*
X13750272Y2520815D01*
X13750272Y2385941D02*
G01*
X13658070Y2385941D01*
X13630384Y2376543D01*
X13620986Y2358255D01*
X13620986Y2330315D01*
X13630384Y2312027D01*
X13658070Y2284341D01*
X13750272Y2284341D02*
G01*
X13620986Y2284341D01*
X13750272Y2223381D02*
G01*
X13620986Y2223381D01*
X13694900Y2223381D02*
G01*
X13722586Y2213983D01*
X13741128Y2195695D01*
X13750272Y2177153D01*
X13750272Y2149467D01*
X13722586Y1986907D02*
G01*
X13741128Y1996051D01*
X13750272Y2023737D01*
X13750272Y2051423D01*
X13741128Y2079109D01*
X13722586Y2088507D01*
X13704298Y2079109D01*
X13694900Y2060821D01*
X13685756Y2014593D01*
X13676358Y1996051D01*
X13658070Y1986907D01*
X13648672Y1986907D01*
X13630384Y1996051D01*
X13620986Y2023737D01*
X13620986Y2051423D01*
X13630384Y2079109D01*
X13648672Y2088507D01*
X13667214Y1916549D02*
G01*
X13658070Y1925947D01*
X13648672Y1916549D01*
X13658070Y1907405D01*
X13667214Y1916549D01*
X13815042Y1735701D02*
G01*
X13620986Y1735701D01*
X13722586Y1735701D02*
G01*
X13741128Y1753989D01*
X13750272Y1772531D01*
X13750272Y1800217D01*
X13741128Y1818759D01*
X13722586Y1837301D01*
X13694900Y1846445D01*
X13676358Y1846445D01*
X13648672Y1837301D01*
X13630384Y1818759D01*
X13620986Y1800217D01*
X13620986Y1772531D01*
X13630384Y1753989D01*
X13648672Y1735701D01*
X13694900Y1674741D02*
G01*
X13694900Y1563743D01*
X13713442Y1563743D01*
X13731984Y1573141D01*
X13741128Y1582285D01*
X13750272Y1600827D01*
X13750272Y1628513D01*
X13741128Y1647055D01*
X13722586Y1665343D01*
X13694900Y1674741D01*
X13676358Y1674741D01*
X13648672Y1665343D01*
X13630384Y1647055D01*
X13620986Y1628513D01*
X13620986Y1600827D01*
X13630384Y1582285D01*
X13648672Y1563743D01*
X13750272Y1502783D02*
G01*
X13620986Y1447411D01*
X13750272Y1392039D02*
G01*
X13620986Y1447411D01*
X1290065Y6645147D02*
G01*
X1290065Y6451092D01*
X1351026Y6645147D02*
G01*
X1351026Y6451092D01*
X1351026Y6645147D02*
G01*
X1434084Y6645147D01*
X1461770Y6635750D01*
X1470913Y6626605D01*
X1480312Y6608063D01*
X1480312Y6589521D01*
X1470913Y6571234D01*
X1461770Y6561836D01*
X1434084Y6552692D01*
X1351026Y6552692D01*
X1415542Y6552692D02*
G01*
X1480312Y6451092D01*
X1541271Y6645147D02*
G01*
X1541271Y6451092D01*
X1541271Y6645147D02*
G01*
X1624329Y6645147D01*
X1652015Y6635750D01*
X1661413Y6626605D01*
X1670557Y6608063D01*
X1670557Y6589521D01*
X1661413Y6571234D01*
X1652015Y6561836D01*
X1624329Y6552692D01*
X1541271Y6552692D01*
X1605787Y6552692D02*
G01*
X1670557Y6451092D01*
X1731518Y6645147D02*
G01*
X1731518Y6451092D01*
X1930908Y6598920D02*
G01*
X1921763Y6617208D01*
X1903221Y6635750D01*
X1884934Y6645147D01*
X1847850Y6645147D01*
X1829307Y6635750D01*
X1811020Y6617208D01*
X1801621Y6598920D01*
X1792478Y6571234D01*
X1792478Y6525005D01*
X1801621Y6497320D01*
X1811020Y6478778D01*
X1829307Y6460236D01*
X1847850Y6451092D01*
X1884934Y6451092D01*
X1903221Y6460236D01*
X1921763Y6478778D01*
X1930908Y6497320D01*
X1930908Y6525005D01*
X1884934Y6525005D02*
G01*
X1930908Y6525005D01*
X2065781Y6645147D02*
G01*
X1991868Y6451092D01*
X2065781Y6645147D02*
G01*
X2139695Y6451092D01*
X2019554Y6515607D02*
G01*
X2112009Y6515607D01*
X2265425Y6645147D02*
G01*
X2265425Y6451092D01*
X2200656Y6645147D02*
G01*
X2329941Y6645147D01*
X2390902Y6645147D02*
G01*
X2390902Y6451092D01*
X2507234Y6645147D02*
G01*
X2488945Y6635750D01*
X2470404Y6617208D01*
X2461259Y6598920D01*
X2451861Y6571234D01*
X2451861Y6525005D01*
X2461259Y6497320D01*
X2470404Y6478778D01*
X2488945Y6460236D01*
X2507234Y6451092D01*
X2544318Y6451092D01*
X2562859Y6460236D01*
X2581147Y6478778D01*
X2590545Y6497320D01*
X2599690Y6525005D01*
X2599690Y6571234D01*
X2590545Y6598920D01*
X2581147Y6617208D01*
X2562859Y6635750D01*
X2544318Y6645147D01*
X2507234Y6645147D01*
X2660650Y6645147D02*
G01*
X2660650Y6451092D01*
X2660650Y6645147D02*
G01*
X2789936Y6451092D01*
X2789936Y6645147D02*
G01*
X2789936Y6451092D01*
X3131820Y6598920D02*
G01*
X3122422Y6617208D01*
X3104134Y6635750D01*
X3085591Y6645147D01*
X3048508Y6645147D01*
X3030220Y6635750D01*
X3011677Y6617208D01*
X3002534Y6598920D01*
X2993136Y6571234D01*
X2993136Y6525005D01*
X3002534Y6497320D01*
X3011677Y6478778D01*
X3030220Y6460236D01*
X3048508Y6451092D01*
X3085591Y6451092D01*
X3104134Y6460236D01*
X3122422Y6478778D01*
X3131820Y6497320D01*
X3248152Y6645147D02*
G01*
X3229609Y6635750D01*
X3211068Y6617208D01*
X3201924Y6598920D01*
X3192779Y6571234D01*
X3192779Y6525005D01*
X3201924Y6497320D01*
X3211068Y6478778D01*
X3229609Y6460236D01*
X3248152Y6451092D01*
X3284981Y6451092D01*
X3303524Y6460236D01*
X3322065Y6478778D01*
X3331209Y6497320D01*
X3340354Y6525005D01*
X3340354Y6571234D01*
X3331209Y6598920D01*
X3322065Y6617208D01*
X3303524Y6635750D01*
X3284981Y6645147D01*
X3248152Y6645147D01*
X3401313Y6645147D02*
G01*
X3401313Y6451092D01*
X3401313Y6645147D02*
G01*
X3530854Y6451092D01*
X3530854Y6645147D02*
G01*
X3530854Y6451092D01*
X3656329Y6645147D02*
G01*
X3656329Y6451092D01*
X3591813Y6645147D02*
G01*
X3721100Y6645147D01*
X3782059Y6645147D02*
G01*
X3782059Y6451092D01*
X3782059Y6645147D02*
G01*
X3865118Y6645147D01*
X3892804Y6635750D01*
X3901947Y6626605D01*
X3911345Y6608063D01*
X3911345Y6589521D01*
X3901947Y6571234D01*
X3892804Y6561836D01*
X3865118Y6552692D01*
X3782059Y6552692D01*
X3846575Y6552692D02*
G01*
X3911345Y6451092D01*
X4027677Y6645147D02*
G01*
X4009136Y6635750D01*
X3990593Y6617208D01*
X3981450Y6598920D01*
X3972306Y6571234D01*
X3972306Y6525005D01*
X3981450Y6497320D01*
X3990593Y6478778D01*
X4009136Y6460236D01*
X4027677Y6451092D01*
X4064508Y6451092D01*
X4083050Y6460236D01*
X4101591Y6478778D01*
X4110736Y6497320D01*
X4120134Y6525005D01*
X4120134Y6571234D01*
X4110736Y6598920D01*
X4101591Y6617208D01*
X4083050Y6635750D01*
X4064508Y6645147D01*
X4027677Y6645147D01*
X4181093Y6645147D02*
G01*
X4181093Y6451092D01*
X4181093Y6451092D02*
G01*
X4291838Y6451092D01*
X4352797Y6645147D02*
G01*
X4352797Y6451092D01*
X4352797Y6451092D02*
G01*
X4463541Y6451092D01*
X4524502Y6645147D02*
G01*
X4524502Y6451092D01*
X4524502Y6645147D02*
G01*
X4644643Y6645147D01*
X4524502Y6552692D02*
G01*
X4598415Y6552692D01*
X4524502Y6451092D02*
G01*
X4644643Y6451092D01*
X4705604Y6645147D02*
G01*
X4705604Y6451092D01*
X4705604Y6645147D02*
G01*
X4788661Y6645147D01*
X4816347Y6635750D01*
X4825745Y6626605D01*
X4834890Y6608063D01*
X4834890Y6589521D01*
X4825745Y6571234D01*
X4816347Y6561836D01*
X4788661Y6552692D01*
X4705604Y6552692D01*
X4770374Y6552692D02*
G01*
X4834890Y6451092D01*
X5038090Y6580378D02*
G01*
X5093461Y6451092D01*
X5148834Y6580378D02*
G01*
X5093461Y6451092D01*
X5228336Y6645147D02*
G01*
X5329936Y6645147D01*
X5274563Y6571234D01*
X5302250Y6571234D01*
X5320791Y6561836D01*
X5329936Y6552692D01*
X5339334Y6525005D01*
X5339334Y6506463D01*
X5329936Y6478778D01*
X5311393Y6460236D01*
X5283708Y6451092D01*
X5256022Y6451092D01*
X5228336Y6460236D01*
X5219191Y6469634D01*
X5209793Y6487921D01*
X2769870Y174950D02*
G01*
X2781554Y180792D01*
X2798825Y198064D01*
X2798825Y76906D01*
X3245865Y169362D02*
G01*
X3245865Y174950D01*
X3251454Y186634D01*
X3257295Y192476D01*
X3268979Y198064D01*
X3291840Y198064D01*
X3303524Y192476D01*
X3309365Y186634D01*
X3314954Y174950D01*
X3314954Y163520D01*
X3309365Y152090D01*
X3297681Y134564D01*
X3240024Y76906D01*
X3320795Y76906D01*
X3761486Y198064D02*
G01*
X3824986Y198064D01*
X3790441Y152090D01*
X3807713Y152090D01*
X3819143Y146248D01*
X3824986Y140406D01*
X3830827Y123134D01*
X3830827Y111450D01*
X3824986Y94178D01*
X3813556Y82748D01*
X3796284Y76906D01*
X3778758Y76906D01*
X3761486Y82748D01*
X3755643Y88590D01*
X3750056Y100020D01*
X4307840Y198064D02*
G01*
X4249927Y117292D01*
X4336541Y117292D01*
X4307840Y198064D02*
G01*
X4307840Y76906D01*
X4839208Y198064D02*
G01*
X4781550Y198064D01*
X4775708Y146248D01*
X4781550Y152090D01*
X4798822Y157678D01*
X4816093Y157678D01*
X4833365Y152090D01*
X4845050Y140406D01*
X4850891Y123134D01*
X4850891Y111450D01*
X4845050Y94178D01*
X4833365Y82748D01*
X4816093Y76906D01*
X4798822Y76906D01*
X4781550Y82748D01*
X4775708Y88590D01*
X4769865Y100020D01*
X5339334Y180792D02*
G01*
X5333491Y192476D01*
X5316220Y198064D01*
X5304536Y198064D01*
X5287263Y192476D01*
X5275834Y174950D01*
X5269991Y146248D01*
X5269991Y117292D01*
X5275834Y94178D01*
X5287263Y82748D01*
X5304536Y76906D01*
X5310377Y76906D01*
X5327650Y82748D01*
X5339334Y94178D01*
X5344922Y111450D01*
X5344922Y117292D01*
X5339334Y134564D01*
X5327650Y146248D01*
X5310377Y152090D01*
X5304536Y152090D01*
X5287263Y146248D01*
X5275834Y134564D01*
X5269991Y117292D01*
X5850890Y198064D02*
G01*
X5792977Y76906D01*
X5769863Y198064D02*
G01*
X5850890Y198064D01*
X6318758Y198064D02*
G01*
X6301486Y192476D01*
X6295643Y180792D01*
X6295643Y169362D01*
X6301486Y157678D01*
X6313170Y152090D01*
X6336284Y146248D01*
X6353556Y140406D01*
X6364986Y128976D01*
X6370827Y117292D01*
X6370827Y100020D01*
X6364986Y88590D01*
X6359143Y82748D01*
X6341872Y76906D01*
X6318758Y76906D01*
X6301486Y82748D01*
X6295643Y88590D01*
X6290056Y100020D01*
X6290056Y117292D01*
X6295643Y128976D01*
X6307327Y140406D01*
X6324600Y146248D01*
X6347713Y152090D01*
X6359143Y157678D01*
X6364986Y169362D01*
X6364986Y180792D01*
X6359143Y192476D01*
X6341872Y198064D01*
X6318758Y198064D01*
X6876541Y169362D02*
G01*
X6870700Y180792D01*
X6859270Y192476D01*
X6847840Y198064D01*
X6824725Y198064D01*
X6813041Y192476D01*
X6801611Y180792D01*
X6795770Y169362D01*
X6789927Y152090D01*
X6789927Y123134D01*
X6795770Y105862D01*
X6801611Y94178D01*
X6813041Y82748D01*
X6824725Y76906D01*
X6847840Y76906D01*
X6859270Y82748D01*
X6870700Y94178D01*
X6876541Y105862D01*
X6876541Y123134D01*
X6847840Y123134D02*
G01*
X6876541Y123134D01*
X1250055Y178112D02*
G01*
X1250055Y56954D01*
X1250055Y56954D02*
G01*
X1319143Y56954D01*
X1729994Y178064D02*
G01*
X1729994Y56906D01*
X1729994Y178064D02*
G01*
X1810765Y56906D01*
X1810765Y178064D02*
G01*
X1810765Y56906D01*
D11*
X4719965Y1195339D02*
G01*
X4719965Y1117361D01*
X4725299Y1101867D01*
X4735459Y1091453D01*
X4751207Y1086119D01*
X4761621Y1086119D01*
X4777115Y1091453D01*
X4787529Y1101867D01*
X4792609Y1117361D01*
X4792609Y1195339D01*
X4826899Y1174511D02*
G01*
X4837313Y1179845D01*
X4853061Y1195339D01*
X4853061Y1086119D01*
X4918339Y1195339D02*
G01*
X4902845Y1190259D01*
X4892431Y1174511D01*
X4887351Y1148603D01*
X4887351Y1133109D01*
X4892431Y1106947D01*
X4902845Y1091453D01*
X4918339Y1086119D01*
X4928753Y1086119D01*
X4944501Y1091453D01*
X4954915Y1106947D01*
X4959995Y1133109D01*
X4959995Y1148603D01*
X4954915Y1174511D01*
X4944501Y1190259D01*
X4928753Y1195339D01*
X4918339Y1195339D01*
X12459975Y5905304D02*
G01*
X12459975Y5796338D01*
X12459975Y5905304D02*
G01*
X12506711Y5905304D01*
X12522205Y5900224D01*
X12527539Y5894890D01*
X12532619Y5884476D01*
X12532619Y5874062D01*
X12527539Y5863648D01*
X12522205Y5858568D01*
X12506711Y5853488D01*
X12459975Y5853488D01*
X12496297Y5853488D02*
G01*
X12532619Y5796338D01*
X12566909Y5884476D02*
G01*
X12577323Y5889810D01*
X12593071Y5905304D01*
X12593071Y5796338D01*
X12419975Y5615304D02*
G01*
X12419975Y5506338D01*
X12419975Y5615304D02*
G01*
X12466711Y5615304D01*
X12482205Y5610225D01*
X12487539Y5604890D01*
X12492619Y5594477D01*
X12492619Y5584062D01*
X12487539Y5573648D01*
X12482205Y5568569D01*
X12466711Y5563488D01*
X12419975Y5563488D01*
X12456297Y5563488D02*
G01*
X12492619Y5506338D01*
X12532243Y5589396D02*
G01*
X12532243Y5594477D01*
X12537323Y5604890D01*
X12542657Y5610225D01*
X12553071Y5615304D01*
X12573645Y5615304D01*
X12584059Y5610225D01*
X12589393Y5604890D01*
X12594473Y5594477D01*
X12594473Y5584062D01*
X12589393Y5573648D01*
X12578979Y5558154D01*
X12526909Y5506338D01*
X12599807Y5506338D01*
X12429975Y5315305D02*
G01*
X12429975Y5206339D01*
X12429975Y5315305D02*
G01*
X12476711Y5315305D01*
X12492205Y5310225D01*
X12497539Y5304891D01*
X12502619Y5294477D01*
X12502619Y5284063D01*
X12497539Y5273649D01*
X12492205Y5268569D01*
X12476711Y5263489D01*
X12429975Y5263489D01*
X12466297Y5263489D02*
G01*
X12502619Y5206339D01*
X12547323Y5315305D02*
G01*
X12604473Y5315305D01*
X12573485Y5273649D01*
X12588979Y5273649D01*
X12599393Y5268569D01*
X12604473Y5263489D01*
X12609807Y5247741D01*
X12609807Y5237327D01*
X12604473Y5221833D01*
X12594059Y5211419D01*
X12578565Y5206339D01*
X12563071Y5206339D01*
X12547323Y5211419D01*
X12542243Y5216499D01*
X12536909Y5226913D01*
X12439975Y5015306D02*
G01*
X12439975Y4906340D01*
X12439975Y5015306D02*
G01*
X12486711Y5015306D01*
X12502205Y5010226D01*
X12507539Y5004892D01*
X12512619Y4994478D01*
X12512619Y4984064D01*
X12507539Y4973650D01*
X12502205Y4968570D01*
X12486711Y4963490D01*
X12439975Y4963490D01*
X12476297Y4963490D02*
G01*
X12512619Y4906340D01*
X12598979Y5015306D02*
G01*
X12546909Y4942662D01*
X12624887Y4942662D01*
X12598979Y5015306D02*
G01*
X12598979Y4906340D01*
X12429975Y4715306D02*
G01*
X12429975Y4606340D01*
X12429975Y4715306D02*
G01*
X12476711Y4715306D01*
X12492205Y4710226D01*
X12497539Y4704892D01*
X12502619Y4694478D01*
X12502619Y4684064D01*
X12497539Y4673650D01*
X12492205Y4668570D01*
X12476711Y4663490D01*
X12429975Y4663490D01*
X12466297Y4663490D02*
G01*
X12502619Y4606340D01*
X12599393Y4715306D02*
G01*
X12547323Y4715306D01*
X12542243Y4668570D01*
X12547323Y4673650D01*
X12563071Y4678984D01*
X12578565Y4678984D01*
X12594059Y4673650D01*
X12604473Y4663490D01*
X12609807Y4647742D01*
X12609807Y4637328D01*
X12604473Y4621834D01*
X12594059Y4611420D01*
X12578565Y4606340D01*
X12563071Y4606340D01*
X12547323Y4611420D01*
X12542243Y4616500D01*
X12536909Y4626914D01*
X12429975Y4415307D02*
G01*
X12429975Y4306341D01*
X12429975Y4415307D02*
G01*
X12476711Y4415307D01*
X12492205Y4410227D01*
X12497539Y4404893D01*
X12502619Y4394479D01*
X12502619Y4384065D01*
X12497539Y4373651D01*
X12492205Y4368571D01*
X12476711Y4363491D01*
X12429975Y4363491D01*
X12466297Y4363491D02*
G01*
X12502619Y4306341D01*
X12599393Y4399813D02*
G01*
X12594059Y4410227D01*
X12578565Y4415307D01*
X12568151Y4415307D01*
X12552657Y4410227D01*
X12542243Y4394479D01*
X12536909Y4368571D01*
X12536909Y4342663D01*
X12542243Y4321835D01*
X12552657Y4311421D01*
X12568151Y4306341D01*
X12573485Y4306341D01*
X12588979Y4311421D01*
X12599393Y4321835D01*
X12604473Y4337329D01*
X12604473Y4342663D01*
X12599393Y4358157D01*
X12588979Y4368571D01*
X12573485Y4373651D01*
X12568151Y4373651D01*
X12552657Y4368571D01*
X12542243Y4358157D01*
X12536909Y4342663D01*
X12439975Y4125307D02*
G01*
X12439975Y4016341D01*
X12439975Y4125307D02*
G01*
X12486711Y4125307D01*
X12502205Y4120227D01*
X12507539Y4114893D01*
X12512619Y4104479D01*
X12512619Y4094065D01*
X12507539Y4083651D01*
X12502205Y4078571D01*
X12486711Y4073491D01*
X12439975Y4073491D01*
X12476297Y4073491D02*
G01*
X12512619Y4016341D01*
X12619807Y4125307D02*
G01*
X12567737Y4016341D01*
X12546909Y4125307D02*
G01*
X12619807Y4125307D01*
X12429975Y3825308D02*
G01*
X12429975Y3716342D01*
X12429975Y3825308D02*
G01*
X12476711Y3825308D01*
X12492205Y3820228D01*
X12497539Y3814894D01*
X12502619Y3804480D01*
X12502619Y3794066D01*
X12497539Y3783652D01*
X12492205Y3778572D01*
X12476711Y3773492D01*
X12429975Y3773492D01*
X12466297Y3773492D02*
G01*
X12502619Y3716342D01*
X12563071Y3825308D02*
G01*
X12547323Y3820228D01*
X12542243Y3809814D01*
X12542243Y3799400D01*
X12547323Y3788986D01*
X12557737Y3783652D01*
X12578565Y3778572D01*
X12594059Y3773492D01*
X12604473Y3763078D01*
X12609807Y3752664D01*
X12609807Y3736916D01*
X12604473Y3726502D01*
X12599393Y3721422D01*
X12583645Y3716342D01*
X12563071Y3716342D01*
X12547323Y3721422D01*
X12542243Y3726502D01*
X12536909Y3736916D01*
X12536909Y3752664D01*
X12542243Y3763078D01*
X12552657Y3773492D01*
X12568151Y3778572D01*
X12588979Y3783652D01*
X12599393Y3788986D01*
X12604473Y3799400D01*
X12604473Y3809814D01*
X12599393Y3820228D01*
X12583645Y3825308D01*
X12563071Y3825308D01*
X6390012Y4215434D02*
G01*
X6390012Y4106214D01*
X6390012Y4215434D02*
G01*
X6436748Y4215434D01*
X6452242Y4210100D01*
X6457576Y4205020D01*
X6462656Y4194606D01*
X6462656Y4184192D01*
X6457576Y4173778D01*
X6452242Y4168444D01*
X6436748Y4163364D01*
X6390012Y4163364D01*
X6426334Y4163364D02*
G01*
X6462656Y4106214D01*
X6564510Y4178858D02*
G01*
X6559430Y4163364D01*
X6549016Y4152950D01*
X6533268Y4147870D01*
X6528188Y4147870D01*
X6512694Y4152950D01*
X6502280Y4163364D01*
X6496946Y4178858D01*
X6496946Y4184192D01*
X6502280Y4199686D01*
X6512694Y4210100D01*
X6528188Y4215434D01*
X6533268Y4215434D01*
X6549016Y4210100D01*
X6559430Y4199686D01*
X6564510Y4178858D01*
X6564510Y4152950D01*
X6559430Y4127042D01*
X6549016Y4111294D01*
X6533268Y4106214D01*
X6523108Y4106214D01*
X6507360Y4111294D01*
X6502280Y4121708D01*
X7757965Y3889400D02*
G01*
X7752631Y3899814D01*
X7742217Y3910228D01*
X7732057Y3915308D01*
X7711229Y3915308D01*
X7700815Y3910228D01*
X7690401Y3899814D01*
X7685067Y3889400D01*
X7679987Y3873652D01*
X7679987Y3847744D01*
X7685067Y3832250D01*
X7690401Y3821836D01*
X7700815Y3811422D01*
X7711229Y3806342D01*
X7732057Y3806342D01*
X7742217Y3811422D01*
X7752631Y3821836D01*
X7757965Y3832250D01*
X7792255Y3894480D02*
G01*
X7802669Y3899814D01*
X7818163Y3915308D01*
X7818163Y3806342D01*
D10*
X7627650Y4496841D02*
G01*
X7627650Y4431309D01*
X7594884Y4464075D02*
G01*
X7660416Y4464075D01*
X7848884Y4464075D02*
G01*
X7914416Y4464075D01*
X7658384Y4150385D02*
G01*
X7665750Y4153941D01*
X7676672Y4164863D01*
X7676672Y4088409D01*
X7722392Y4164863D02*
G01*
X7711470Y4161307D01*
X7704104Y4150385D01*
X7700548Y4132097D01*
X7700548Y4121175D01*
X7704104Y4102887D01*
X7711470Y4091965D01*
X7722392Y4088409D01*
X7729758Y4088409D01*
X7740680Y4091965D01*
X7747792Y4102887D01*
X7751348Y4121175D01*
X7751348Y4132097D01*
X7747792Y4150385D01*
X7740680Y4161307D01*
X7729758Y4164863D01*
X7722392Y4164863D01*
X7775478Y4139463D02*
G01*
X7775478Y4102887D01*
X7779034Y4091965D01*
X7786400Y4088409D01*
X7797322Y4088409D01*
X7804688Y4091965D01*
X7815356Y4102887D01*
X7815356Y4139463D02*
G01*
X7815356Y4088409D01*
X7868442Y4164863D02*
G01*
X7861330Y4164863D01*
X7853964Y4161307D01*
X7850408Y4150385D01*
X7850408Y4088409D01*
X7839486Y4139463D02*
G01*
X7864886Y4139463D01*
D11*
X6517972Y4519411D02*
G01*
X6512638Y4529825D01*
X6502224Y4540239D01*
X6492064Y4545319D01*
X6471236Y4545319D01*
X6460822Y4540239D01*
X6450408Y4529825D01*
X6445074Y4519411D01*
X6439994Y4503663D01*
X6439994Y4477755D01*
X6445074Y4462261D01*
X6450408Y4451847D01*
X6460822Y4441433D01*
X6471236Y4436353D01*
X6492064Y4436353D01*
X6502224Y4441433D01*
X6512638Y4451847D01*
X6517972Y4462261D01*
X6557342Y4519411D02*
G01*
X6557342Y4524491D01*
X6562676Y4534905D01*
X6567756Y4540239D01*
X6578170Y4545319D01*
X6598998Y4545319D01*
X6609412Y4540239D01*
X6614492Y4534905D01*
X6619826Y4524491D01*
X6619826Y4514077D01*
X6614492Y4503663D01*
X6604078Y4488169D01*
X6552262Y4436353D01*
X6624906Y4436353D01*
D12*
X6829986Y4248795D02*
G01*
X6839130Y4253367D01*
X6852592Y4266829D01*
X6852592Y4171325D01*
X6909996Y4266829D02*
G01*
X6896280Y4262257D01*
X6887136Y4248795D01*
X6882818Y4225935D01*
X6882818Y4212473D01*
X6887136Y4189613D01*
X6896280Y4175897D01*
X6909996Y4171325D01*
X6919140Y4171325D01*
X6932602Y4175897D01*
X6941746Y4189613D01*
X6946318Y4212473D01*
X6946318Y4225935D01*
X6941746Y4248795D01*
X6932602Y4262257D01*
X6919140Y4266829D01*
X6909996Y4266829D01*
X6976290Y4235079D02*
G01*
X6976290Y4171325D01*
X6976290Y4216791D02*
G01*
X6990006Y4230507D01*
X6999150Y4235079D01*
X7012612Y4235079D01*
X7021756Y4230507D01*
X7026328Y4216791D01*
X7026328Y4171325D01*
X7056300Y4266829D02*
G01*
X7056300Y4171325D01*
X7056300Y4266829D02*
G01*
X7115482Y4266829D01*
X7056300Y4221363D02*
G01*
X7092622Y4221363D01*
D11*
X7537574Y3384710D02*
G01*
X7537574Y3275744D01*
X7537574Y3275744D02*
G01*
X7599804Y3275744D01*
X7634094Y3384710D02*
G01*
X7634094Y3275744D01*
X7634094Y3384710D02*
G01*
X7701658Y3384710D01*
X7634094Y3332894D02*
G01*
X7675750Y3332894D01*
X7634094Y3275744D02*
G01*
X7701658Y3275744D01*
X7735948Y3384710D02*
G01*
X7735948Y3275744D01*
X7735948Y3384710D02*
G01*
X7772524Y3384710D01*
X7788018Y3379630D01*
X7798432Y3369216D01*
X7803512Y3358802D01*
X7808846Y3343054D01*
X7808846Y3317146D01*
X7803512Y3301652D01*
X7798432Y3291238D01*
X7788018Y3280824D01*
X7772524Y3275744D01*
X7735948Y3275744D01*
X7843136Y3363882D02*
G01*
X7853550Y3369216D01*
X7869044Y3384710D01*
X7869044Y3275744D01*
D10*
X7494140Y3161444D02*
G01*
X7494140Y3095912D01*
X7461374Y3128678D02*
G01*
X7526906Y3128678D01*
D11*
X8307572Y3374710D02*
G01*
X8307572Y3265744D01*
X8307572Y3265744D02*
G01*
X8369802Y3265744D01*
X8404092Y3374710D02*
G01*
X8404092Y3265744D01*
X8404092Y3374710D02*
G01*
X8471656Y3374710D01*
X8404092Y3322894D02*
G01*
X8445748Y3322894D01*
X8404092Y3265744D02*
G01*
X8471656Y3265744D01*
X8505946Y3374710D02*
G01*
X8505946Y3265744D01*
X8505946Y3374710D02*
G01*
X8542522Y3374710D01*
X8558016Y3369630D01*
X8568430Y3359216D01*
X8573510Y3348802D01*
X8578844Y3333054D01*
X8578844Y3307146D01*
X8573510Y3291652D01*
X8568430Y3281238D01*
X8558016Y3270824D01*
X8542522Y3265744D01*
X8505946Y3265744D01*
X8618214Y3348802D02*
G01*
X8618214Y3353882D01*
X8623548Y3364296D01*
X8628628Y3369630D01*
X8639042Y3374710D01*
X8659870Y3374710D01*
X8670284Y3369630D01*
X8675364Y3364296D01*
X8680698Y3353882D01*
X8680698Y3343468D01*
X8675364Y3333054D01*
X8664950Y3317560D01*
X8613134Y3265744D01*
X8685778Y3265744D01*
D10*
X8264138Y3151444D02*
G01*
X8264138Y3085912D01*
X8231372Y3118678D02*
G01*
X8296904Y3118678D01*
D11*
X9087571Y3364710D02*
G01*
X9087571Y3255744D01*
X9087571Y3255744D02*
G01*
X9149801Y3255744D01*
X9184091Y3364710D02*
G01*
X9184091Y3255744D01*
X9184091Y3364710D02*
G01*
X9251655Y3364710D01*
X9184091Y3312894D02*
G01*
X9225747Y3312894D01*
X9184091Y3255744D02*
G01*
X9251655Y3255744D01*
X9285945Y3364710D02*
G01*
X9285945Y3255744D01*
X9285945Y3364710D02*
G01*
X9322521Y3364710D01*
X9338015Y3359630D01*
X9348429Y3349216D01*
X9353509Y3338802D01*
X9358843Y3323054D01*
X9358843Y3297146D01*
X9353509Y3281652D01*
X9348429Y3271238D01*
X9338015Y3260824D01*
X9322521Y3255744D01*
X9285945Y3255744D01*
X9403547Y3364710D02*
G01*
X9460697Y3364710D01*
X9429455Y3323054D01*
X9444949Y3323054D01*
X9455363Y3317974D01*
X9460697Y3312894D01*
X9465777Y3297146D01*
X9465777Y3286732D01*
X9460697Y3271238D01*
X9450283Y3260824D01*
X9434535Y3255744D01*
X9419041Y3255744D01*
X9403547Y3260824D01*
X9398213Y3265904D01*
X9393133Y3276318D01*
D10*
X9044137Y3141444D02*
G01*
X9044137Y3075912D01*
X9011371Y3108678D02*
G01*
X9076903Y3108678D01*
D11*
X9837569Y3364710D02*
G01*
X9837569Y3255744D01*
X9837569Y3255744D02*
G01*
X9899799Y3255744D01*
X9934089Y3364710D02*
G01*
X9934089Y3255744D01*
X9934089Y3364710D02*
G01*
X10001653Y3364710D01*
X9934089Y3312894D02*
G01*
X9975745Y3312894D01*
X9934089Y3255744D02*
G01*
X10001653Y3255744D01*
X10035943Y3364710D02*
G01*
X10035943Y3255744D01*
X10035943Y3364710D02*
G01*
X10072519Y3364710D01*
X10088013Y3359630D01*
X10098427Y3349216D01*
X10103507Y3338802D01*
X10108841Y3323054D01*
X10108841Y3297146D01*
X10103507Y3281652D01*
X10098427Y3271238D01*
X10088013Y3260824D01*
X10072519Y3255744D01*
X10035943Y3255744D01*
X10194947Y3364710D02*
G01*
X10143131Y3292066D01*
X10221109Y3292066D01*
X10194947Y3364710D02*
G01*
X10194947Y3255744D01*
D10*
X9794135Y3141444D02*
G01*
X9794135Y3075912D01*
X9761369Y3108678D02*
G01*
X9826901Y3108678D01*
D11*
X10627568Y3364710D02*
G01*
X10627568Y3255744D01*
X10627568Y3255744D02*
G01*
X10689798Y3255744D01*
X10724088Y3364710D02*
G01*
X10724088Y3255744D01*
X10724088Y3364710D02*
G01*
X10791652Y3364710D01*
X10724088Y3312894D02*
G01*
X10765744Y3312894D01*
X10724088Y3255744D02*
G01*
X10791652Y3255744D01*
X10825942Y3364710D02*
G01*
X10825942Y3255744D01*
X10825942Y3364710D02*
G01*
X10862518Y3364710D01*
X10878012Y3359630D01*
X10888426Y3349216D01*
X10893506Y3338802D01*
X10898840Y3323054D01*
X10898840Y3297146D01*
X10893506Y3281652D01*
X10888426Y3271238D01*
X10878012Y3260824D01*
X10862518Y3255744D01*
X10825942Y3255744D01*
X10995360Y3364710D02*
G01*
X10943544Y3364710D01*
X10938210Y3317974D01*
X10943544Y3323054D01*
X10959038Y3328388D01*
X10974532Y3328388D01*
X10990280Y3323054D01*
X11000694Y3312894D01*
X11005774Y3297146D01*
X11005774Y3286732D01*
X11000694Y3271238D01*
X10990280Y3260824D01*
X10974532Y3255744D01*
X10959038Y3255744D01*
X10943544Y3260824D01*
X10938210Y3265904D01*
X10933130Y3276318D01*
D10*
X10584134Y3141444D02*
G01*
X10584134Y3075912D01*
X10551368Y3108678D02*
G01*
X10616900Y3108678D01*
D11*
X11377576Y3364710D02*
G01*
X11377576Y3255744D01*
X11377576Y3255744D02*
G01*
X11439806Y3255744D01*
X11474096Y3364710D02*
G01*
X11474096Y3255744D01*
X11474096Y3364710D02*
G01*
X11541660Y3364710D01*
X11474096Y3312894D02*
G01*
X11515752Y3312894D01*
X11474096Y3255744D02*
G01*
X11541660Y3255744D01*
X11575950Y3364710D02*
G01*
X11575950Y3255744D01*
X11575950Y3364710D02*
G01*
X11612526Y3364710D01*
X11628020Y3359630D01*
X11638434Y3349216D01*
X11643514Y3338802D01*
X11648848Y3323054D01*
X11648848Y3297146D01*
X11643514Y3281652D01*
X11638434Y3271238D01*
X11628020Y3260824D01*
X11612526Y3255744D01*
X11575950Y3255744D01*
X11745368Y3349216D02*
G01*
X11740288Y3359630D01*
X11724540Y3364710D01*
X11714126Y3364710D01*
X11698632Y3359630D01*
X11688218Y3343882D01*
X11683138Y3317974D01*
X11683138Y3292066D01*
X11688218Y3271238D01*
X11698632Y3260824D01*
X11714126Y3255744D01*
X11719460Y3255744D01*
X11734954Y3260824D01*
X11745368Y3271238D01*
X11750702Y3286732D01*
X11750702Y3292066D01*
X11745368Y3307560D01*
X11734954Y3317974D01*
X11719460Y3323054D01*
X11714126Y3323054D01*
X11698632Y3317974D01*
X11688218Y3307560D01*
X11683138Y3292066D01*
D10*
X11334142Y3141444D02*
G01*
X11334142Y3075912D01*
X11301376Y3108678D02*
G01*
X11366908Y3108678D01*
D11*
X12167565Y3374710D02*
G01*
X12167565Y3265744D01*
X12167565Y3265744D02*
G01*
X12229795Y3265744D01*
X12264085Y3374710D02*
G01*
X12264085Y3265744D01*
X12264085Y3374710D02*
G01*
X12331649Y3374710D01*
X12264085Y3322894D02*
G01*
X12305741Y3322894D01*
X12264085Y3265744D02*
G01*
X12331649Y3265744D01*
X12365939Y3374710D02*
G01*
X12365939Y3265744D01*
X12365939Y3374710D02*
G01*
X12402515Y3374710D01*
X12418009Y3369630D01*
X12428423Y3359216D01*
X12433503Y3348802D01*
X12438837Y3333054D01*
X12438837Y3307146D01*
X12433503Y3291652D01*
X12428423Y3281238D01*
X12418009Y3270824D01*
X12402515Y3265744D01*
X12365939Y3265744D01*
X12545771Y3374710D02*
G01*
X12493955Y3265744D01*
X12473127Y3374710D02*
G01*
X12545771Y3374710D01*
D10*
X12124131Y3151444D02*
G01*
X12124131Y3085912D01*
X12091365Y3118678D02*
G01*
X12156897Y3118678D01*
D11*
X12917563Y3374710D02*
G01*
X12917563Y3265744D01*
X12917563Y3265744D02*
G01*
X12979793Y3265744D01*
X13014083Y3374710D02*
G01*
X13014083Y3265744D01*
X13014083Y3374710D02*
G01*
X13081647Y3374710D01*
X13014083Y3322894D02*
G01*
X13055739Y3322894D01*
X13014083Y3265744D02*
G01*
X13081647Y3265744D01*
X13115937Y3374710D02*
G01*
X13115937Y3265744D01*
X13115937Y3374710D02*
G01*
X13152513Y3374710D01*
X13168007Y3369630D01*
X13178421Y3359216D01*
X13183501Y3348802D01*
X13188835Y3333054D01*
X13188835Y3307146D01*
X13183501Y3291652D01*
X13178421Y3281238D01*
X13168007Y3270824D01*
X13152513Y3265744D01*
X13115937Y3265744D01*
X13249033Y3374710D02*
G01*
X13233539Y3369630D01*
X13228205Y3359216D01*
X13228205Y3348802D01*
X13233539Y3338388D01*
X13243953Y3333054D01*
X13264527Y3327974D01*
X13280275Y3322894D01*
X13290689Y3312480D01*
X13295769Y3302066D01*
X13295769Y3286318D01*
X13290689Y3275904D01*
X13285355Y3270824D01*
X13269861Y3265744D01*
X13249033Y3265744D01*
X13233539Y3270824D01*
X13228205Y3275904D01*
X13223125Y3286318D01*
X13223125Y3302066D01*
X13228205Y3312480D01*
X13238619Y3322894D01*
X13254113Y3327974D01*
X13274941Y3333054D01*
X13285355Y3338388D01*
X13290689Y3348802D01*
X13290689Y3359216D01*
X13285355Y3369630D01*
X13269861Y3374710D01*
X13249033Y3374710D01*
D10*
X12874129Y3151444D02*
G01*
X12874129Y3085912D01*
X12841363Y3118678D02*
G01*
X12906895Y3118678D01*
D11*
X6777586Y3384710D02*
G01*
X6777586Y3275744D01*
X6777586Y3275744D02*
G01*
X6839816Y3275744D01*
X6874106Y3384710D02*
G01*
X6874106Y3275744D01*
X6874106Y3384710D02*
G01*
X6941670Y3384710D01*
X6874106Y3332894D02*
G01*
X6915762Y3332894D01*
X6874106Y3275744D02*
G01*
X6941670Y3275744D01*
X6975960Y3384710D02*
G01*
X6975960Y3275744D01*
X6975960Y3384710D02*
G01*
X7012536Y3384710D01*
X7028030Y3379630D01*
X7038444Y3369216D01*
X7043524Y3358802D01*
X7048858Y3343054D01*
X7048858Y3317146D01*
X7043524Y3301652D01*
X7038444Y3291238D01*
X7028030Y3280824D01*
X7012536Y3275744D01*
X6975960Y3275744D01*
X7150712Y3348388D02*
G01*
X7145378Y3332894D01*
X7134964Y3322480D01*
X7119470Y3317146D01*
X7114136Y3317146D01*
X7098642Y3322480D01*
X7088228Y3332894D01*
X7083148Y3348388D01*
X7083148Y3353468D01*
X7088228Y3369216D01*
X7098642Y3379630D01*
X7114136Y3384710D01*
X7119470Y3384710D01*
X7134964Y3379630D01*
X7145378Y3369216D01*
X7150712Y3348388D01*
X7150712Y3322480D01*
X7145378Y3296318D01*
X7134964Y3280824D01*
X7119470Y3275744D01*
X7109056Y3275744D01*
X7093562Y3280824D01*
X7088228Y3291238D01*
D10*
X6734152Y3161444D02*
G01*
X6734152Y3095912D01*
X6701386Y3128678D02*
G01*
X6766918Y3128678D01*
D11*
X12205291Y5209999D02*
G01*
X12127313Y5209999D01*
X12111819Y5204919D01*
X12101405Y5194505D01*
X12096325Y5178757D01*
X12096325Y5168343D01*
X12101405Y5152849D01*
X12111819Y5142435D01*
X12127313Y5137355D01*
X12205291Y5137355D01*
X12184463Y5103065D02*
G01*
X12189797Y5092651D01*
X12205291Y5076903D01*
X12096325Y5076903D01*
D10*
X11881358Y4886589D02*
G01*
X11742927Y4886589D01*
X11715241Y4877445D01*
X11696700Y4858903D01*
X11687556Y4831217D01*
X11687556Y4812675D01*
X11696700Y4784989D01*
X11715241Y4766447D01*
X11742927Y4757303D01*
X11881358Y4757303D01*
X11853672Y4567057D02*
G01*
X11872213Y4585599D01*
X11881358Y4613285D01*
X11881358Y4650115D01*
X11872213Y4677801D01*
X11853672Y4696343D01*
X11835129Y4696343D01*
X11816841Y4687199D01*
X11807443Y4677801D01*
X11798300Y4659259D01*
X11779758Y4603887D01*
X11770613Y4585599D01*
X11761470Y4576201D01*
X11742927Y4567057D01*
X11715241Y4567057D01*
X11696700Y4585599D01*
X11687556Y4613285D01*
X11687556Y4650115D01*
X11696700Y4677801D01*
X11715241Y4696343D01*
X11881358Y4506097D02*
G01*
X11687556Y4506097D01*
X11881358Y4506097D02*
G01*
X11881358Y4423039D01*
X11872213Y4395099D01*
X11863070Y4385955D01*
X11844527Y4376811D01*
X11825986Y4376811D01*
X11807443Y4385955D01*
X11798300Y4395099D01*
X11789156Y4423039D01*
X11789156Y4506097D02*
G01*
X11789156Y4423039D01*
X11779758Y4395099D01*
X11770613Y4385955D01*
X11752072Y4376811D01*
X11724386Y4376811D01*
X11705843Y4385955D01*
X11696700Y4395099D01*
X11687556Y4423039D01*
X11687556Y4506097D01*
D11*
X7144164Y1430797D02*
G01*
X7222142Y1430797D01*
X7237636Y1435877D01*
X7248050Y1446291D01*
X7253130Y1462039D01*
X7253130Y1472453D01*
X7248050Y1487947D01*
X7237636Y1498361D01*
X7222142Y1503441D01*
X7144164Y1503441D01*
X7170072Y1543065D02*
G01*
X7164992Y1543065D01*
X7154578Y1548145D01*
X7149244Y1553479D01*
X7144164Y1563893D01*
X7144164Y1584467D01*
X7149244Y1594881D01*
X7154578Y1600215D01*
X7164992Y1605295D01*
X7175406Y1605295D01*
X7185820Y1600215D01*
X7201314Y1589801D01*
X7253130Y1537731D01*
X7253130Y1610629D01*
X7894162Y1430797D02*
G01*
X7972140Y1430797D01*
X7987634Y1435877D01*
X7998048Y1446291D01*
X8003128Y1462039D01*
X8003128Y1472453D01*
X7998048Y1487947D01*
X7987634Y1498361D01*
X7972140Y1503441D01*
X7894162Y1503441D01*
X7894162Y1548145D02*
G01*
X7894162Y1605295D01*
X7935818Y1574307D01*
X7935818Y1589801D01*
X7940898Y1600215D01*
X7945978Y1605295D01*
X7961726Y1610629D01*
X7972140Y1610629D01*
X7987634Y1605295D01*
X7998048Y1594881D01*
X8003128Y1579387D01*
X8003128Y1563893D01*
X7998048Y1548145D01*
X7992968Y1543065D01*
X7982554Y1537731D01*
X8664160Y1430797D02*
G01*
X8742138Y1430797D01*
X8757632Y1435877D01*
X8768046Y1446291D01*
X8773126Y1462039D01*
X8773126Y1472453D01*
X8768046Y1487947D01*
X8757632Y1498361D01*
X8742138Y1503441D01*
X8664160Y1503441D01*
X8664160Y1589801D02*
G01*
X8736804Y1537731D01*
X8736804Y1615709D01*
X8664160Y1589801D02*
G01*
X8773126Y1589801D01*
X9424159Y1430797D02*
G01*
X9502137Y1430797D01*
X9517631Y1435877D01*
X9528045Y1446291D01*
X9533125Y1462039D01*
X9533125Y1472453D01*
X9528045Y1487947D01*
X9517631Y1498361D01*
X9502137Y1503441D01*
X9424159Y1503441D01*
X9424159Y1600215D02*
G01*
X9424159Y1548145D01*
X9470895Y1543065D01*
X9465815Y1548145D01*
X9460481Y1563893D01*
X9460481Y1579387D01*
X9465815Y1594881D01*
X9475975Y1605295D01*
X9491723Y1610629D01*
X9502137Y1610629D01*
X9517631Y1605295D01*
X9528045Y1594881D01*
X9533125Y1579387D01*
X9533125Y1563893D01*
X9528045Y1548145D01*
X9522965Y1543065D01*
X9512551Y1537731D01*
X10194157Y1430797D02*
G01*
X10272135Y1430797D01*
X10287629Y1435877D01*
X10298043Y1446291D01*
X10303123Y1462039D01*
X10303123Y1472453D01*
X10298043Y1487947D01*
X10287629Y1498361D01*
X10272135Y1503441D01*
X10194157Y1503441D01*
X10209651Y1600215D02*
G01*
X10199237Y1594881D01*
X10194157Y1579387D01*
X10194157Y1568973D01*
X10199237Y1553479D01*
X10214985Y1543065D01*
X10240893Y1537731D01*
X10266801Y1537731D01*
X10287629Y1543065D01*
X10298043Y1553479D01*
X10303123Y1568973D01*
X10303123Y1574307D01*
X10298043Y1589801D01*
X10287629Y1600215D01*
X10272135Y1605295D01*
X10266801Y1605295D01*
X10251307Y1600215D01*
X10240893Y1589801D01*
X10235813Y1574307D01*
X10235813Y1568973D01*
X10240893Y1553479D01*
X10251307Y1543065D01*
X10266801Y1537731D01*
X10974156Y1440797D02*
G01*
X11052134Y1440797D01*
X11067628Y1445877D01*
X11078042Y1456291D01*
X11083122Y1472039D01*
X11083122Y1482453D01*
X11078042Y1497947D01*
X11067628Y1508361D01*
X11052134Y1513441D01*
X10974156Y1513441D01*
X10974156Y1620629D02*
G01*
X11083122Y1568559D01*
X10974156Y1547731D02*
G01*
X10974156Y1620629D01*
X11764154Y1440797D02*
G01*
X11842132Y1440797D01*
X11857626Y1445877D01*
X11868040Y1456291D01*
X11873120Y1472039D01*
X11873120Y1482453D01*
X11868040Y1497947D01*
X11857626Y1508361D01*
X11842132Y1513441D01*
X11764154Y1513441D01*
X11764154Y1573893D02*
G01*
X11769234Y1558145D01*
X11779648Y1553065D01*
X11790062Y1553065D01*
X11800476Y1558145D01*
X11805810Y1568559D01*
X11810890Y1589387D01*
X11815970Y1604881D01*
X11826384Y1615295D01*
X11836798Y1620629D01*
X11852546Y1620629D01*
X11862960Y1615295D01*
X11868040Y1610215D01*
X11873120Y1594467D01*
X11873120Y1573893D01*
X11868040Y1558145D01*
X11862960Y1553065D01*
X11852546Y1547731D01*
X11836798Y1547731D01*
X11826384Y1553065D01*
X11815970Y1563479D01*
X11810890Y1578973D01*
X11805810Y1599801D01*
X11800476Y1610215D01*
X11790062Y1615295D01*
X11779648Y1615295D01*
X11769234Y1610215D01*
X11764154Y1594467D01*
X11764154Y1573893D01*
X12524153Y1450797D02*
G01*
X12602131Y1450797D01*
X12617625Y1455877D01*
X12628039Y1466291D01*
X12633119Y1482039D01*
X12633119Y1492453D01*
X12628039Y1507947D01*
X12617625Y1518361D01*
X12602131Y1523441D01*
X12524153Y1523441D01*
X12560475Y1625295D02*
G01*
X12575969Y1620215D01*
X12586383Y1609801D01*
X12591717Y1594307D01*
X12591717Y1588973D01*
X12586383Y1573479D01*
X12575969Y1563065D01*
X12560475Y1557731D01*
X12555395Y1557731D01*
X12539647Y1563065D01*
X12529233Y1573479D01*
X12524153Y1588973D01*
X12524153Y1594307D01*
X12529233Y1609801D01*
X12539647Y1620215D01*
X12560475Y1625295D01*
X12586383Y1625295D01*
X12612545Y1620215D01*
X12628039Y1609801D01*
X12633119Y1594307D01*
X12633119Y1583893D01*
X12628039Y1568145D01*
X12617625Y1563065D01*
X190002Y1285321D02*
G01*
X190002Y1207343D01*
X195082Y1191849D01*
X205496Y1181435D01*
X221244Y1176355D01*
X231658Y1176355D01*
X247152Y1181435D01*
X257566Y1191849D01*
X262646Y1207343D01*
X262646Y1285321D01*
X296936Y1264493D02*
G01*
X307350Y1269827D01*
X323098Y1285321D01*
X323098Y1176355D01*
X357388Y1264493D02*
G01*
X367802Y1269827D01*
X383296Y1285321D01*
X383296Y1176355D01*
X8799984Y4665332D02*
G01*
X8799984Y4587354D01*
X8805064Y4571860D01*
X8815478Y4561446D01*
X8831226Y4556366D01*
X8841640Y4556366D01*
X8857134Y4561446D01*
X8867548Y4571860D01*
X8872628Y4587354D01*
X8872628Y4665332D01*
X8906918Y4644504D02*
G01*
X8917332Y4649838D01*
X8933080Y4665332D01*
X8933080Y4556366D01*
X8972450Y4639424D02*
G01*
X8972450Y4644504D01*
X8977784Y4654918D01*
X8982864Y4660252D01*
X8993278Y4665332D01*
X9014106Y4665332D01*
X9024520Y4660252D01*
X9029600Y4654918D01*
X9034934Y4644504D01*
X9034934Y4634090D01*
X9029600Y4623676D01*
X9019186Y4608182D01*
X8967370Y4556366D01*
X9040014Y4556366D01*
X1399994Y1165324D02*
G01*
X1399994Y1087346D01*
X1405074Y1071852D01*
X1415488Y1061438D01*
X1431236Y1056358D01*
X1441650Y1056358D01*
X1457144Y1061438D01*
X1467558Y1071852D01*
X1472638Y1087346D01*
X1472638Y1165324D01*
X1506928Y1144496D02*
G01*
X1517342Y1149830D01*
X1533090Y1165324D01*
X1533090Y1056358D01*
X1577794Y1165324D02*
G01*
X1634944Y1165324D01*
X1603702Y1123668D01*
X1619196Y1123668D01*
X1629610Y1118588D01*
X1634944Y1113508D01*
X1640024Y1097760D01*
X1640024Y1087346D01*
X1634944Y1071852D01*
X1624530Y1061438D01*
X1608782Y1056358D01*
X1593288Y1056358D01*
X1577794Y1061438D01*
X1572460Y1066518D01*
X1567380Y1076932D01*
X12349960Y6735325D02*
G01*
X12349960Y6657347D01*
X12355040Y6641853D01*
X12365454Y6631439D01*
X12381202Y6626359D01*
X12391616Y6626359D01*
X12407110Y6631439D01*
X12417524Y6641853D01*
X12422604Y6657347D01*
X12422604Y6735325D01*
X12456894Y6714497D02*
G01*
X12467308Y6719831D01*
X12483056Y6735325D01*
X12483056Y6626359D01*
X12569162Y6735325D02*
G01*
X12517346Y6662681D01*
X12595070Y6662681D01*
X12569162Y6735325D02*
G01*
X12569162Y6626359D01*
D13*
X7099960Y782614D02*
G01*
X7162759Y782614D01*
X7162764Y886713D01*
X7099960Y886713D01*
X2549966Y250014D02*
G01*
X7099960Y250014D01*
X2549966Y435513D02*
G01*
X7099960Y435513D01*
X2549966Y840112D02*
G01*
X7099960Y840112D01*
X7099960Y1020013D02*
G01*
X7099960Y250014D01*
X2549966Y1020013D02*
G01*
X7099960Y1020013D01*
X2549966Y1020013D02*
G01*
X2549966Y250014D01*
X12935013Y5740608D02*
G01*
X12935013Y5979368D01*
X12935013Y5979368D02*
G01*
X13564933Y5979368D01*
X13564933Y5979368D02*
G01*
X13564933Y5740608D01*
X13564933Y5740608D02*
G01*
X12935013Y5740608D01*
X12935013Y5440608D02*
G01*
X12935013Y5679368D01*
X12935013Y5679368D02*
G01*
X13564933Y5679368D01*
X13564933Y5679368D02*
G01*
X13564933Y5440608D01*
X13564933Y5440608D02*
G01*
X12935013Y5440608D01*
X12935013Y5140609D02*
G01*
X12935013Y5379369D01*
X12935013Y5379369D02*
G01*
X13564933Y5379369D01*
X13564933Y5379369D02*
G01*
X13564933Y5140609D01*
X13564933Y5140609D02*
G01*
X12935013Y5140609D01*
X12935013Y4840610D02*
G01*
X12935013Y5079370D01*
X12935013Y5079370D02*
G01*
X13564933Y5079370D01*
X13564933Y5079370D02*
G01*
X13564933Y4840610D01*
X13564933Y4840610D02*
G01*
X12935013Y4840610D01*
X12935013Y4540610D02*
G01*
X12935013Y4779370D01*
X12935013Y4779370D02*
G01*
X13564933Y4779370D01*
X13564933Y4779370D02*
G01*
X13564933Y4540610D01*
X13564933Y4540610D02*
G01*
X12935013Y4540610D01*
X12935013Y4240611D02*
G01*
X12935013Y4479371D01*
X12935013Y4479371D02*
G01*
X13564933Y4479371D01*
X13564933Y4479371D02*
G01*
X13564933Y4240611D01*
X13564933Y4240611D02*
G01*
X12935013Y4240611D01*
X12935013Y3940611D02*
G01*
X12935013Y4179371D01*
X12935013Y4179371D02*
G01*
X13564933Y4179371D01*
X13564933Y4179371D02*
G01*
X13564933Y3940611D01*
X13564933Y3940611D02*
G01*
X12935013Y3940611D01*
X12935013Y3640612D02*
G01*
X12935013Y3879372D01*
X12935013Y3879372D02*
G01*
X13564933Y3879372D01*
X13564933Y3879372D02*
G01*
X13564933Y3640612D01*
X13564933Y3640612D02*
G01*
X12935013Y3640612D01*
X7024946Y4039372D02*
G01*
X7024946Y3800612D01*
X7024946Y3800612D02*
G01*
X6395026Y3800612D01*
X6395026Y3800612D02*
G01*
X6395026Y4039372D01*
X6395026Y4039372D02*
G01*
X7024946Y4039372D01*
X6702986Y4546991D02*
G01*
X7210986Y4546991D01*
X7210986Y4292991D01*
X6702986Y4292991D01*
X6702986Y4546991D01*
X7753220Y2863199D02*
G01*
X7753753Y3117987D01*
X8523218Y2853199D02*
G01*
X8523752Y3107987D01*
X9303217Y2843199D02*
G01*
X9303750Y3097987D01*
X10053215Y2843199D02*
G01*
X10053749Y3097987D01*
X10843214Y2843199D02*
G01*
X10843747Y3097987D01*
X11593222Y2843199D02*
G01*
X11593756Y3097987D01*
X12383211Y2853199D02*
G01*
X12383744Y3107987D01*
X13133209Y2853199D02*
G01*
X13133743Y3107987D01*
X6993232Y2863199D02*
G01*
X6993765Y3117987D01*
X12031979Y5572389D02*
G01*
X12031979Y3768989D01*
X9745979Y3768989D01*
X9745979Y5572389D01*
X12031979Y5572389D01*
X12285979Y5000889D02*
G01*
X12285979Y4276989D01*
X11536679Y4276989D01*
X11536679Y5000889D01*
X12285979Y5000889D01*
X7290577Y210799D02*
G01*
X7290577Y2649199D01*
X7849377Y2649199D01*
X7849377Y210799D01*
X7290577Y210799D01*
X8040575Y210799D02*
G01*
X8040575Y2649199D01*
X8599375Y2649199D01*
X8599375Y210799D01*
X8040575Y210799D01*
X8810574Y210799D02*
G01*
X8810574Y2649199D01*
X9369374Y2649199D01*
X9369374Y210799D01*
X8810574Y210799D01*
X9570572Y210799D02*
G01*
X9570572Y2649199D01*
X10129372Y2649199D01*
X10129372Y210799D01*
X9570572Y210799D01*
X10340571Y210799D02*
G01*
X10340571Y2649199D01*
X10899371Y2649199D01*
X10899371Y210799D01*
X10340571Y210799D01*
X11120569Y220799D02*
G01*
X11120569Y2659199D01*
X11679369Y2659199D01*
X11679369Y220799D01*
X11120569Y220799D01*
X11910568Y220799D02*
G01*
X11910568Y2659199D01*
X12469368Y2659199D01*
X12469368Y220799D01*
X11910568Y220799D01*
X12670566Y230799D02*
G01*
X12670566Y2669199D01*
X13229366Y2669199D01*
X13229366Y230799D01*
X12670566Y230799D01*
X5814794Y1347792D02*
G01*
X174800Y1347792D01*
X174800Y6077780D01*
X5814794Y6077780D01*
X5814794Y1347792D01*
X6025984Y6760001D02*
G01*
X9480384Y6760001D01*
X9480384Y4728001D01*
X6025984Y4728001D01*
X6025984Y6760001D01*
X1019995Y1019997D02*
G01*
X2019995Y1019997D01*
X2019995Y1019997D02*
G01*
X2019995Y249999D01*
X1019995Y1019997D02*
G01*
X1019995Y249999D01*
X1019995Y249999D02*
G01*
X2019995Y249999D01*
X1019995Y840054D02*
G01*
X2019995Y840054D01*
X1019995Y435538D02*
G01*
X2019995Y435538D01*
X2027996Y886698D02*
G01*
X2090795Y886698D01*
X2090795Y782637D01*
X2027996Y782637D01*
X9694565Y6764985D02*
G01*
X12294560Y6764985D01*
X12294560Y5794984D01*
X9694565Y5794984D01*
X9694565Y6764985D01*
G75*
G01*
X7753220Y3116740D02*
G03*
X7753220Y2863248I-190245J-126746D01*
G75*
G01*
X8523219Y3106740D02*
G03*
X8523219Y2853248I-190246J-126746D01*
G75*
G01*
X9303217Y3096740D02*
G03*
X9303217Y2843248I-190245J-126746D01*
G75*
G01*
X10053216Y3096740D02*
G03*
X10053216Y2843248I-190246J-126746D01*
G75*
G01*
X10843214Y3096740D02*
G03*
X10843214Y2843248I-190245J-126746D01*
G75*
G01*
X11593223Y3096740D02*
G03*
X11593223Y2843248I-190246J-126746D01*
G75*
G01*
X12383211Y3106740D02*
G03*
X12383211Y2853248I-190245J-126746D01*
G75*
G01*
X13133210Y3106740D02*
G03*
X13133210Y2853248I-190246J-126746D01*
G75*
G01*
X6993232Y3116740D02*
G03*
X6993232Y2863248I-190246J-126746D01*
G75*
G01
X8074990Y4299991D02*
G03X8074990Y4299991I-315011J0D01*
G75*
G01
X7963992Y2471420D02*
G03X7963992Y2471420I-25400J0D01*
G75*
G01
X8713978Y2471420D02*
G03X8713978Y2471420I-25400J0D01*
G75*
G01
X9483979Y2471420D02*
G03X9483979Y2471420I-25400J0D01*
G75*
G01
X10243972Y2471420D02*
G03X10243972Y2471420I-25400J0D01*
G75*
G01
X11013973Y2471420D02*
G03X11013973Y2471420I-25400J0D01*
G75*
G01
X11793982Y2481428D02*
G03X11793982Y2481428I-25400J0D01*
G75*
G01
X12583973Y2481428D02*
G03X12583973Y2481428I-25400J0D01*
G75*
G01
X13343966Y2491410D02*
G03X13343966Y2491410I-25400J0D01*
M02*
