G04 Layer: BottomLayer*
G04 EasyEDA v6.5.48, 2025-01-17 00:15:48*
G04 c49acdadf4e844e4a0faf736a1285ea8,9c8959dc7a574dada6669a69c5c32939,10*
G04 Gerber Generator version 0.2*
G04 Scale: 100 percent, Rotated: No, Reflected: No *
G04 Dimensions in millimeters *
G04 leading zeros omitted , absolute positions ,4 integer and 5 decimal *
%FSLAX45Y45*%
%MOMM*%

%ADD10C,0.5000*%
%ADD11C,1.0000*%
%ADD12C,0.2540*%
%ADD13C,1.5240*%
%ADD14C,2.0000*%
%ADD15C,1.6500*%
%ADD16C,1.8796*%
%ADD17C,1.8000*%
%ADD18C,2.2000*%
%ADD19C,3.0000*%
%ADD20C,1.5000*%
%ADD21C,2.5000*%
%ADD22C,0.6200*%
%ADD23C,0.0150*%

%LPD*%
G36*
X5970168Y25908D02*
G01*
X5966256Y26670D01*
X5962954Y28905D01*
X5960770Y32156D01*
X5960008Y36068D01*
X5960008Y144068D01*
X5960770Y147929D01*
X5962954Y151231D01*
X5966256Y153466D01*
X5970168Y154228D01*
X6472783Y154279D01*
X6481622Y155092D01*
X6484061Y155498D01*
X6492697Y157632D01*
X6495034Y158394D01*
X6503263Y161798D01*
X6505448Y162915D01*
X6513068Y167538D01*
X6521907Y174599D01*
X6830364Y483006D01*
X6832803Y484784D01*
X6835698Y485800D01*
X6838746Y485901D01*
X6852107Y484327D01*
X6867906Y484327D01*
X6883603Y486156D01*
X6898944Y489813D01*
X6913829Y495198D01*
X6927951Y502310D01*
X6941159Y510997D01*
X6953250Y521157D01*
X6964070Y532638D01*
X6973519Y545338D01*
X6981444Y559003D01*
X6987692Y573532D01*
X6992213Y588670D01*
X6994956Y604215D01*
X6995871Y620014D01*
X6994956Y635762D01*
X6992213Y651357D01*
X6987692Y666496D01*
X6981444Y680974D01*
X6973519Y694690D01*
X6964070Y707339D01*
X6953250Y718820D01*
X6941159Y728980D01*
X6927951Y737666D01*
X6913829Y744778D01*
X6898944Y750163D01*
X6883603Y753821D01*
X6867906Y755650D01*
X6852107Y755650D01*
X6836409Y753821D01*
X6821017Y750163D01*
X6806184Y744778D01*
X6792061Y737666D01*
X6778853Y728980D01*
X6766763Y718820D01*
X6755892Y707339D01*
X6746443Y694690D01*
X6738569Y680974D01*
X6732320Y666496D01*
X6727748Y651357D01*
X6725005Y635762D01*
X6724091Y620014D01*
X6725005Y604215D01*
X6725869Y599338D01*
X6725920Y596087D01*
X6724954Y593039D01*
X6723075Y590397D01*
X6441694Y309016D01*
X6438392Y306781D01*
X6434480Y306019D01*
X5970168Y306019D01*
X5966256Y306781D01*
X5962954Y309016D01*
X5960770Y312318D01*
X5960008Y316179D01*
X5960008Y546862D01*
X5960313Y549503D01*
X5961329Y551942D01*
X5965444Y559003D01*
X5971692Y573532D01*
X5976213Y588670D01*
X5978956Y604215D01*
X5979871Y620014D01*
X5978956Y635762D01*
X5976213Y651357D01*
X5971692Y666496D01*
X5965444Y680974D01*
X5961329Y688035D01*
X5960313Y690524D01*
X5960008Y693115D01*
X5960008Y1728927D01*
X5960770Y1732788D01*
X5962954Y1736089D01*
X5966256Y1738325D01*
X5970168Y1739087D01*
X6202730Y1739087D01*
X6206540Y1738325D01*
X6213348Y1735632D01*
X6222746Y1733600D01*
X6232398Y1733194D01*
X6241948Y1734413D01*
X6251194Y1737207D01*
X6259830Y1741576D01*
X6267551Y1747316D01*
X6274257Y1754276D01*
X6279642Y1762252D01*
X6283604Y1771040D01*
X6286042Y1780387D01*
X6286855Y1789988D01*
X6286042Y1799589D01*
X6283604Y1808937D01*
X6279642Y1817725D01*
X6274257Y1825701D01*
X6267551Y1832711D01*
X6259830Y1838401D01*
X6251194Y1842770D01*
X6241948Y1845614D01*
X6232398Y1846834D01*
X6222746Y1846427D01*
X6213348Y1844395D01*
X6206490Y1841652D01*
X6202730Y1840890D01*
X5970168Y1840890D01*
X5966256Y1841652D01*
X5962954Y1843887D01*
X5960770Y1847189D01*
X5960008Y1851050D01*
X5960008Y4195013D01*
X5960465Y4198061D01*
X5961786Y4200804D01*
X5963920Y4203039D01*
X7078878Y5069128D01*
X7079945Y5070957D01*
X7079996Y6963918D01*
X7080758Y6967829D01*
X7082942Y6971080D01*
X7086244Y6973316D01*
X7090156Y6974078D01*
X13963904Y6974078D01*
X13967815Y6973316D01*
X13971117Y6971080D01*
X13973301Y6967829D01*
X13974063Y6963918D01*
X13974063Y36068D01*
X13973301Y32156D01*
X13971066Y28905D01*
X13967815Y26670D01*
X13963904Y25908D01*
G37*

%LPC*%
G36*
X13605205Y219151D02*
G01*
X13626185Y220573D01*
X13646962Y223926D01*
X13667333Y229108D01*
X13687094Y236169D01*
X13706195Y244957D01*
X13724382Y255473D01*
X13741552Y267614D01*
X13757554Y281228D01*
X13772286Y296265D01*
X13785545Y312572D01*
X13797280Y329996D01*
X13807338Y348437D01*
X13815720Y367741D01*
X13822324Y387705D01*
X13827048Y408178D01*
X13829893Y429006D01*
X13830858Y449986D01*
X13829893Y470966D01*
X13827048Y491794D01*
X13822324Y512267D01*
X13815720Y532231D01*
X13807338Y551535D01*
X13797280Y569976D01*
X13785545Y587400D01*
X13772286Y603707D01*
X13757554Y618744D01*
X13741552Y632358D01*
X13724382Y644499D01*
X13706195Y655015D01*
X13687094Y663803D01*
X13667333Y670864D01*
X13646962Y676046D01*
X13626185Y679399D01*
X13605205Y680821D01*
X13584224Y680364D01*
X13563346Y677976D01*
X13542772Y673658D01*
X13522655Y667562D01*
X13503198Y659638D01*
X13484504Y649935D01*
X13466826Y638606D01*
X13450214Y625754D01*
X13434872Y611378D01*
X13420851Y595680D01*
X13408355Y578815D01*
X13397433Y560832D01*
X13388187Y541985D01*
X13380719Y522325D01*
X13375030Y502107D01*
X13371220Y481431D01*
X13369290Y460501D01*
X13369290Y439470D01*
X13371220Y418541D01*
X13375030Y397865D01*
X13380719Y377647D01*
X13388187Y357987D01*
X13397433Y339140D01*
X13408355Y321157D01*
X13420851Y304292D01*
X13434872Y288594D01*
X13450214Y274218D01*
X13466826Y261366D01*
X13484504Y250037D01*
X13503198Y240334D01*
X13522655Y232410D01*
X13542772Y226314D01*
X13563346Y221996D01*
X13584224Y219608D01*
G37*
G36*
X9178645Y310337D02*
G01*
X9178645Y362661D01*
X9126220Y362661D01*
X9132112Y351891D01*
X9140698Y340106D01*
X9150654Y329539D01*
X9161881Y320243D01*
X9174124Y312420D01*
G37*
G36*
X9938613Y310337D02*
G01*
X9938613Y362661D01*
X9886238Y362661D01*
X9892131Y351891D01*
X9900666Y340106D01*
X9910622Y329539D01*
X9921849Y320243D01*
X9934143Y312420D01*
G37*
G36*
X8408619Y310337D02*
G01*
X8408619Y362661D01*
X8356244Y362661D01*
X8362137Y351891D01*
X8370671Y340106D01*
X8380628Y329539D01*
X8391855Y320243D01*
X8404148Y312420D01*
G37*
G36*
X10811306Y310337D02*
G01*
X10815828Y312420D01*
X10828070Y320243D01*
X10839297Y329539D01*
X10849254Y340106D01*
X10857839Y351891D01*
X10863732Y362661D01*
X10811306Y362661D01*
G37*
G36*
X8511336Y310337D02*
G01*
X8515807Y312420D01*
X8528100Y320243D01*
X8539327Y329539D01*
X8549284Y340106D01*
X8557818Y351891D01*
X8563711Y362661D01*
X8511336Y362661D01*
G37*
G36*
X9281312Y310337D02*
G01*
X9285782Y312420D01*
X9298076Y320243D01*
X9309303Y329539D01*
X9319260Y340106D01*
X9327845Y351891D01*
X9333738Y362661D01*
X9281312Y362661D01*
G37*
G36*
X7761325Y310337D02*
G01*
X7765796Y312420D01*
X7778089Y320243D01*
X7789316Y329539D01*
X7799273Y340106D01*
X7807807Y351891D01*
X7813751Y362661D01*
X7761325Y362661D01*
G37*
G36*
X10708640Y310337D02*
G01*
X10708640Y362661D01*
X10656214Y362661D01*
X10662107Y351891D01*
X10670692Y340106D01*
X10680649Y329539D01*
X10691876Y320243D01*
X10704118Y312420D01*
G37*
G36*
X10041331Y310337D02*
G01*
X10045801Y312420D01*
X10058095Y320243D01*
X10069322Y329539D01*
X10079278Y340106D01*
X10087813Y351891D01*
X10093706Y362661D01*
X10041331Y362661D01*
G37*
G36*
X7658608Y310337D02*
G01*
X7658608Y362661D01*
X7606233Y362661D01*
X7612125Y351891D01*
X7620711Y340106D01*
X7630668Y329539D01*
X7641844Y320243D01*
X7654137Y312420D01*
G37*
G36*
X12381331Y320344D02*
G01*
X12385802Y322427D01*
X12398095Y330250D01*
X12409322Y339496D01*
X12419279Y350113D01*
X12427813Y361899D01*
X12433706Y372668D01*
X12381331Y372668D01*
G37*
G36*
X11591340Y320344D02*
G01*
X11595811Y322427D01*
X11608104Y330250D01*
X11619280Y339496D01*
X11629288Y350113D01*
X11637822Y361899D01*
X11643715Y372668D01*
X11591340Y372668D01*
G37*
G36*
X12278614Y320344D02*
G01*
X12278614Y372668D01*
X12226239Y372668D01*
X12232132Y361899D01*
X12240666Y350113D01*
X12250623Y339496D01*
X12261850Y330250D01*
X12274143Y322427D01*
G37*
G36*
X11488623Y320344D02*
G01*
X11488623Y372668D01*
X11436197Y372668D01*
X11442141Y361899D01*
X11450675Y350113D01*
X11460632Y339496D01*
X11471859Y330250D01*
X11484152Y322427D01*
G37*
G36*
X13141299Y330352D02*
G01*
X13145820Y332435D01*
X13158063Y340258D01*
X13169290Y349504D01*
X13179247Y360121D01*
X13187832Y371906D01*
X13193725Y382625D01*
X13141299Y382625D01*
G37*
G36*
X13038632Y330352D02*
G01*
X13038632Y382625D01*
X12986207Y382625D01*
X12992100Y371906D01*
X13000685Y360121D01*
X13010642Y349504D01*
X13021868Y340258D01*
X13034162Y332435D01*
G37*
G36*
X9126220Y465328D02*
G01*
X9178645Y465328D01*
X9178645Y517651D01*
X9174124Y515569D01*
X9161881Y507746D01*
X9150654Y498500D01*
X9140698Y487883D01*
X9132112Y476097D01*
G37*
G36*
X9886238Y465328D02*
G01*
X9938613Y465328D01*
X9938613Y517651D01*
X9934143Y515569D01*
X9921849Y507746D01*
X9910622Y498500D01*
X9900666Y487883D01*
X9892131Y476097D01*
G37*
G36*
X8356244Y465328D02*
G01*
X8408619Y465328D01*
X8408619Y517651D01*
X8404148Y515569D01*
X8391855Y507746D01*
X8380628Y498500D01*
X8370671Y487883D01*
X8362137Y476097D01*
G37*
G36*
X10811306Y465328D02*
G01*
X10863732Y465328D01*
X10857839Y476097D01*
X10849254Y487883D01*
X10839297Y498500D01*
X10828070Y507746D01*
X10815828Y515569D01*
X10811306Y517651D01*
G37*
G36*
X8511336Y465328D02*
G01*
X8563711Y465328D01*
X8557818Y476097D01*
X8549284Y487883D01*
X8539327Y498500D01*
X8528100Y507746D01*
X8515807Y515569D01*
X8511336Y517651D01*
G37*
G36*
X7606233Y465328D02*
G01*
X7658608Y465328D01*
X7658608Y517651D01*
X7654137Y515569D01*
X7641844Y507746D01*
X7630668Y498500D01*
X7620711Y487883D01*
X7612125Y476097D01*
G37*
G36*
X9281312Y465328D02*
G01*
X9333738Y465328D01*
X9327845Y476097D01*
X9319260Y487883D01*
X9309303Y498500D01*
X9298076Y507746D01*
X9285782Y515569D01*
X9281312Y517651D01*
G37*
G36*
X7761325Y465328D02*
G01*
X7813751Y465328D01*
X7807807Y476097D01*
X7799273Y487883D01*
X7789316Y498500D01*
X7778089Y507746D01*
X7765796Y515569D01*
X7761325Y517651D01*
G37*
G36*
X10656214Y465328D02*
G01*
X10708640Y465328D01*
X10708640Y517651D01*
X10704118Y515569D01*
X10691876Y507746D01*
X10680649Y498500D01*
X10670692Y487883D01*
X10662107Y476097D01*
G37*
G36*
X10041331Y465328D02*
G01*
X10093706Y465328D01*
X10087813Y476097D01*
X10079278Y487883D01*
X10069322Y498500D01*
X10058095Y507746D01*
X10045801Y515569D01*
X10041331Y517651D01*
G37*
G36*
X12381331Y475335D02*
G01*
X12433706Y475335D01*
X12427813Y486105D01*
X12419279Y497890D01*
X12409322Y508457D01*
X12398095Y517753D01*
X12385802Y525526D01*
X12381331Y527659D01*
G37*
G36*
X11436197Y475335D02*
G01*
X11488623Y475335D01*
X11488623Y527659D01*
X11484152Y525526D01*
X11471859Y517753D01*
X11460632Y508457D01*
X11450675Y497890D01*
X11442141Y486105D01*
G37*
G36*
X11591340Y475335D02*
G01*
X11643715Y475335D01*
X11637822Y486105D01*
X11629288Y497890D01*
X11619280Y508457D01*
X11608104Y517753D01*
X11595811Y525526D01*
X11591340Y527659D01*
G37*
G36*
X12226239Y475335D02*
G01*
X12278614Y475335D01*
X12278614Y527659D01*
X12274143Y525526D01*
X12261850Y517753D01*
X12250623Y508457D01*
X12240666Y497890D01*
X12232132Y486105D01*
G37*
G36*
X6344107Y484327D02*
G01*
X6359906Y484327D01*
X6375603Y486156D01*
X6390944Y489813D01*
X6405829Y495198D01*
X6419951Y502310D01*
X6433159Y510997D01*
X6445250Y521157D01*
X6456070Y532638D01*
X6465519Y545338D01*
X6473444Y559003D01*
X6479692Y573532D01*
X6484213Y588670D01*
X6486956Y604215D01*
X6487871Y620014D01*
X6486956Y635762D01*
X6484213Y651357D01*
X6479692Y666496D01*
X6473444Y680974D01*
X6465519Y694690D01*
X6456070Y707339D01*
X6445250Y718820D01*
X6433159Y728980D01*
X6419951Y737666D01*
X6405829Y744778D01*
X6390944Y750163D01*
X6375603Y753821D01*
X6359906Y755650D01*
X6344107Y755650D01*
X6328410Y753821D01*
X6313017Y750163D01*
X6298184Y744778D01*
X6284061Y737666D01*
X6270853Y728980D01*
X6258763Y718820D01*
X6247892Y707339D01*
X6238443Y694690D01*
X6230569Y680974D01*
X6224320Y666496D01*
X6219748Y651357D01*
X6217005Y635762D01*
X6216091Y620014D01*
X6217005Y604215D01*
X6219748Y588670D01*
X6224320Y573532D01*
X6230569Y559003D01*
X6238443Y545338D01*
X6247892Y532638D01*
X6258763Y521157D01*
X6270853Y510997D01*
X6284061Y502310D01*
X6298184Y495198D01*
X6313017Y489813D01*
X6328410Y486156D01*
G37*
G36*
X13141299Y485343D02*
G01*
X13193725Y485343D01*
X13187832Y496112D01*
X13179247Y507847D01*
X13169290Y518464D01*
X13158063Y527761D01*
X13145820Y535533D01*
X13141299Y537667D01*
G37*
G36*
X12986207Y485343D02*
G01*
X13038632Y485343D01*
X13038632Y537667D01*
X13034162Y535533D01*
X13021868Y527761D01*
X13010642Y518464D01*
X13000685Y507847D01*
X12992100Y496112D01*
G37*
G36*
X7709966Y552094D02*
G01*
X7724495Y553008D01*
X7738821Y555752D01*
X7752638Y560222D01*
X7765796Y566420D01*
X7778089Y574243D01*
X7789316Y583539D01*
X7799273Y594106D01*
X7807807Y605891D01*
X7814818Y618642D01*
X7820202Y632206D01*
X7823809Y646277D01*
X7825638Y660704D01*
X7825638Y675284D01*
X7823809Y689711D01*
X7820202Y703783D01*
X7814818Y717346D01*
X7807807Y730097D01*
X7799273Y741883D01*
X7789316Y752500D01*
X7778089Y761746D01*
X7765796Y769569D01*
X7752638Y775766D01*
X7738821Y780237D01*
X7724495Y782980D01*
X7709966Y783894D01*
X7695438Y782980D01*
X7681163Y780237D01*
X7667294Y775766D01*
X7662621Y774446D01*
X7658557Y775157D01*
X7655102Y777443D01*
X7559497Y873048D01*
X7557262Y876350D01*
X7556500Y880262D01*
X7556500Y2797911D01*
X7557262Y2801823D01*
X7559497Y2805074D01*
X7640929Y2886456D01*
X7644028Y2888538D01*
X7647686Y2889402D01*
X7651394Y2888894D01*
X7661909Y2885287D01*
X7675829Y2882544D01*
X7689951Y2881630D01*
X7704124Y2882544D01*
X7718044Y2885287D01*
X7731455Y2889859D01*
X7744155Y2896108D01*
X7755940Y2903982D01*
X7766608Y2913329D01*
X7775956Y2923997D01*
X7783830Y2935782D01*
X7790129Y2948533D01*
X7794650Y2961944D01*
X7797444Y2975864D01*
X7798358Y2989986D01*
X7797444Y3004159D01*
X7794650Y3018028D01*
X7790129Y3031490D01*
X7783830Y3044190D01*
X7775956Y3055975D01*
X7766608Y3066643D01*
X7755940Y3075990D01*
X7744155Y3083864D01*
X7731455Y3090113D01*
X7718044Y3094685D01*
X7704124Y3097428D01*
X7689951Y3098393D01*
X7675829Y3097428D01*
X7661909Y3094685D01*
X7648498Y3090113D01*
X7635798Y3083864D01*
X7624013Y3075990D01*
X7613345Y3066643D01*
X7603998Y3055975D01*
X7596124Y3044190D01*
X7589824Y3031490D01*
X7585303Y3018028D01*
X7582509Y3004159D01*
X7581595Y2989986D01*
X7582509Y2975864D01*
X7585303Y2961944D01*
X7588808Y2951530D01*
X7589367Y2947822D01*
X7588503Y2944164D01*
X7586370Y2941066D01*
X7490968Y2845816D01*
X7485837Y2839567D01*
X7482281Y2832912D01*
X7480096Y2825699D01*
X7479284Y2817672D01*
X7479284Y860552D01*
X7480096Y852525D01*
X7482281Y845312D01*
X7485837Y838606D01*
X7490968Y832408D01*
X7600645Y722680D01*
X7602829Y719429D01*
X7603642Y715619D01*
X7602931Y711758D01*
X7599781Y703783D01*
X7596124Y689711D01*
X7594295Y675284D01*
X7594295Y660704D01*
X7596124Y646277D01*
X7599781Y632206D01*
X7605115Y618642D01*
X7612125Y605891D01*
X7620711Y594106D01*
X7630668Y583539D01*
X7641844Y574243D01*
X7654137Y566420D01*
X7667294Y560222D01*
X7681163Y555752D01*
X7695438Y553008D01*
G37*
G36*
X8459978Y552094D02*
G01*
X8474506Y553008D01*
X8488781Y555752D01*
X8502650Y560222D01*
X8515807Y566420D01*
X8528100Y574243D01*
X8539327Y583539D01*
X8549284Y594106D01*
X8557818Y605891D01*
X8564829Y618642D01*
X8570214Y632206D01*
X8573820Y646277D01*
X8575649Y660704D01*
X8575649Y675284D01*
X8573820Y689711D01*
X8570214Y703783D01*
X8564829Y717346D01*
X8557818Y730097D01*
X8549284Y741883D01*
X8539327Y752500D01*
X8528100Y761746D01*
X8515807Y769569D01*
X8502650Y775766D01*
X8488781Y780237D01*
X8474506Y782980D01*
X8459978Y783894D01*
X8445449Y782980D01*
X8431174Y780237D01*
X8417306Y775766D01*
X8412632Y774496D01*
X8408568Y775157D01*
X8405164Y777443D01*
X8301532Y881024D01*
X8299348Y884326D01*
X8298586Y888237D01*
X8298586Y2759811D01*
X8299348Y2763672D01*
X8301532Y2766974D01*
X8411006Y2876397D01*
X8414105Y2878531D01*
X8417712Y2879394D01*
X8421420Y2878836D01*
X8431936Y2875280D01*
X8445804Y2872536D01*
X8459978Y2871622D01*
X8474100Y2872536D01*
X8488019Y2875280D01*
X8501430Y2879852D01*
X8514181Y2886151D01*
X8525967Y2894025D01*
X8536635Y2903372D01*
X8545982Y2913989D01*
X8553856Y2925826D01*
X8560104Y2938526D01*
X8564676Y2951937D01*
X8567420Y2965856D01*
X8568334Y2979978D01*
X8567420Y2994152D01*
X8564676Y3008071D01*
X8560104Y3021482D01*
X8553856Y3034182D01*
X8545982Y3045968D01*
X8536635Y3056636D01*
X8525967Y3065983D01*
X8514181Y3073857D01*
X8501430Y3080105D01*
X8488019Y3084677D01*
X8474100Y3087471D01*
X8459978Y3088386D01*
X8445804Y3087471D01*
X8431936Y3084677D01*
X8418474Y3080105D01*
X8405774Y3073857D01*
X8393988Y3065983D01*
X8383320Y3056636D01*
X8373973Y3045968D01*
X8366099Y3034182D01*
X8359851Y3021482D01*
X8355279Y3008071D01*
X8352536Y2994152D01*
X8351570Y2979978D01*
X8352536Y2965856D01*
X8355279Y2951937D01*
X8358835Y2941472D01*
X8359343Y2937764D01*
X8358530Y2934106D01*
X8356396Y2931007D01*
X8233003Y2807665D01*
X8227923Y2801416D01*
X8224367Y2794762D01*
X8222132Y2787497D01*
X8221370Y2779471D01*
X8221370Y868527D01*
X8222132Y860501D01*
X8224367Y853236D01*
X8227923Y846582D01*
X8233003Y840384D01*
X8350656Y722731D01*
X8352840Y719480D01*
X8353653Y715619D01*
X8352942Y711809D01*
X8349742Y703783D01*
X8346135Y689711D01*
X8344306Y675284D01*
X8344306Y660704D01*
X8346135Y646277D01*
X8349742Y632206D01*
X8355126Y618642D01*
X8362137Y605891D01*
X8370671Y594106D01*
X8380628Y583539D01*
X8391855Y574243D01*
X8404148Y566420D01*
X8417306Y560222D01*
X8431174Y555752D01*
X8445449Y553008D01*
G37*
G36*
X9229953Y552094D02*
G01*
X9244482Y553008D01*
X9258808Y555752D01*
X9272625Y560222D01*
X9285782Y566420D01*
X9298076Y574243D01*
X9309303Y583539D01*
X9319260Y594106D01*
X9327845Y605891D01*
X9334855Y618642D01*
X9340189Y632206D01*
X9343796Y646277D01*
X9345625Y660704D01*
X9345625Y675284D01*
X9343796Y689711D01*
X9340189Y703783D01*
X9334855Y717346D01*
X9327845Y730097D01*
X9319260Y741883D01*
X9309303Y752500D01*
X9298076Y761746D01*
X9285782Y769569D01*
X9272625Y775766D01*
X9258808Y780237D01*
X9244482Y782980D01*
X9229953Y783894D01*
X9215475Y782980D01*
X9201150Y780237D01*
X9187332Y775766D01*
X9174378Y769670D01*
X9170416Y768705D01*
X9166352Y769416D01*
X9162897Y771702D01*
X9041536Y893013D01*
X9039352Y896315D01*
X9038590Y900176D01*
X9038590Y2709773D01*
X9039352Y2713685D01*
X9041536Y2716987D01*
X9190990Y2866440D01*
X9194088Y2868523D01*
X9197746Y2869387D01*
X9201454Y2868879D01*
X9211919Y2865323D01*
X9225838Y2862529D01*
X9239961Y2861614D01*
X9254134Y2862529D01*
X9268002Y2865323D01*
X9281464Y2869844D01*
X9294164Y2876143D01*
X9305950Y2884017D01*
X9316618Y2893364D01*
X9325965Y2904032D01*
X9333839Y2915818D01*
X9340088Y2928518D01*
X9344660Y2941929D01*
X9347454Y2955848D01*
X9348368Y2969971D01*
X9347454Y2984144D01*
X9344660Y2998063D01*
X9340088Y3011474D01*
X9333839Y3024174D01*
X9325965Y3035960D01*
X9316618Y3046628D01*
X9305950Y3055975D01*
X9294164Y3063849D01*
X9281464Y3070148D01*
X9268002Y3074670D01*
X9254134Y3077464D01*
X9239961Y3078378D01*
X9225838Y3077464D01*
X9211919Y3074670D01*
X9198508Y3070148D01*
X9185757Y3063849D01*
X9173972Y3055975D01*
X9163354Y3046628D01*
X9154007Y3035960D01*
X9146082Y3024174D01*
X9139834Y3011474D01*
X9135262Y2998063D01*
X9132519Y2984144D01*
X9131604Y2969971D01*
X9132519Y2955848D01*
X9135262Y2941929D01*
X9138818Y2931464D01*
X9139377Y2927756D01*
X9138513Y2924098D01*
X9136380Y2921000D01*
X8973007Y2757627D01*
X8967927Y2751429D01*
X8964320Y2744724D01*
X8962136Y2737510D01*
X8961374Y2729484D01*
X8961374Y880516D01*
X8962136Y872490D01*
X8964320Y865225D01*
X8967927Y858570D01*
X8973007Y852322D01*
X9116009Y709320D01*
X9118041Y706475D01*
X9118955Y703122D01*
X9118701Y699617D01*
X9116161Y689711D01*
X9114332Y675284D01*
X9114332Y660704D01*
X9116161Y646277D01*
X9119768Y632206D01*
X9125102Y618642D01*
X9132112Y605891D01*
X9140698Y594106D01*
X9150654Y583539D01*
X9161881Y574243D01*
X9174124Y566420D01*
X9187332Y560222D01*
X9201150Y555752D01*
X9215475Y553008D01*
G37*
G36*
X9989972Y552094D02*
G01*
X10004501Y553008D01*
X10018776Y555752D01*
X10032644Y560222D01*
X10045801Y566420D01*
X10058095Y574243D01*
X10069322Y583539D01*
X10079278Y594106D01*
X10087813Y605891D01*
X10094823Y618642D01*
X10100208Y632206D01*
X10103815Y646277D01*
X10105644Y660704D01*
X10105644Y675284D01*
X10103815Y689711D01*
X10100208Y703783D01*
X10094823Y717346D01*
X10087813Y730097D01*
X10079278Y741883D01*
X10069322Y752500D01*
X10058095Y761746D01*
X10045801Y769569D01*
X10032644Y775766D01*
X10018776Y780237D01*
X10004501Y782980D01*
X9989972Y783894D01*
X9975443Y782980D01*
X9961168Y780237D01*
X9947300Y775766D01*
X9934143Y769569D01*
X9921849Y761746D01*
X9913112Y754481D01*
X9909810Y752703D01*
X9906152Y752195D01*
X9902494Y753008D01*
X9899446Y755142D01*
X9751568Y903020D01*
X9749332Y906322D01*
X9748570Y910183D01*
X9748570Y2669794D01*
X9749332Y2673654D01*
X9751568Y2676956D01*
X9941001Y2866440D01*
X9944100Y2868523D01*
X9947757Y2869387D01*
X9951466Y2868879D01*
X9961930Y2865323D01*
X9975799Y2862529D01*
X9989972Y2861614D01*
X10004094Y2862529D01*
X10018014Y2865323D01*
X10031425Y2869844D01*
X10044176Y2876143D01*
X10055961Y2884017D01*
X10066629Y2893364D01*
X10075976Y2904032D01*
X10083850Y2915818D01*
X10090099Y2928518D01*
X10094671Y2941929D01*
X10097414Y2955848D01*
X10098379Y2969971D01*
X10097414Y2984144D01*
X10094671Y2998063D01*
X10090099Y3011474D01*
X10083850Y3024174D01*
X10075976Y3035960D01*
X10066629Y3046628D01*
X10055961Y3055975D01*
X10044176Y3063849D01*
X10031425Y3070148D01*
X10018014Y3074670D01*
X10004094Y3077464D01*
X9989972Y3078378D01*
X9975799Y3077464D01*
X9961930Y3074670D01*
X9948468Y3070148D01*
X9935768Y3063849D01*
X9923983Y3055975D01*
X9913315Y3046628D01*
X9903968Y3035960D01*
X9896094Y3024174D01*
X9889845Y3011474D01*
X9885273Y2998063D01*
X9882530Y2984144D01*
X9881565Y2969971D01*
X9882530Y2955848D01*
X9885273Y2941929D01*
X9888829Y2931464D01*
X9889388Y2927756D01*
X9888524Y2924098D01*
X9886391Y2921000D01*
X9683038Y2717647D01*
X9677908Y2711399D01*
X9674352Y2704744D01*
X9672167Y2697530D01*
X9671354Y2689504D01*
X9671354Y890473D01*
X9672167Y882497D01*
X9674352Y875233D01*
X9677908Y868578D01*
X9683038Y862330D01*
X9871354Y674014D01*
X9873538Y670712D01*
X9874300Y666851D01*
X9874300Y660704D01*
X9876129Y646277D01*
X9879736Y632206D01*
X9885121Y618642D01*
X9892131Y605891D01*
X9900666Y594106D01*
X9910622Y583539D01*
X9921849Y574243D01*
X9934143Y566420D01*
X9947300Y560222D01*
X9961168Y555752D01*
X9975443Y553008D01*
G37*
G36*
X10759998Y552094D02*
G01*
X10774476Y553008D01*
X10788802Y555752D01*
X10802620Y560222D01*
X10815828Y566420D01*
X10828070Y574243D01*
X10839297Y583539D01*
X10849254Y594106D01*
X10857839Y605891D01*
X10864850Y618642D01*
X10870184Y632206D01*
X10873790Y646277D01*
X10875619Y660704D01*
X10875619Y675284D01*
X10873790Y689711D01*
X10870184Y703783D01*
X10864850Y717346D01*
X10857839Y730097D01*
X10849254Y741883D01*
X10839297Y752500D01*
X10828070Y761746D01*
X10815828Y769569D01*
X10802620Y775766D01*
X10788802Y780237D01*
X10774476Y782980D01*
X10759998Y783894D01*
X10745470Y782980D01*
X10731144Y780237D01*
X10717326Y775766D01*
X10704118Y769569D01*
X10691876Y761746D01*
X10680649Y752500D01*
X10670692Y741883D01*
X10661700Y729488D01*
X10658449Y726592D01*
X10654284Y725322D01*
X10649966Y725932D01*
X10646308Y728268D01*
X10481564Y893013D01*
X10479328Y896315D01*
X10478566Y900176D01*
X10478566Y2609799D01*
X10479328Y2613710D01*
X10481564Y2617012D01*
X10730992Y2866440D01*
X10734090Y2868523D01*
X10737748Y2869387D01*
X10741456Y2868879D01*
X10751921Y2865323D01*
X10765840Y2862529D01*
X10779963Y2861614D01*
X10794136Y2862529D01*
X10808004Y2865323D01*
X10821466Y2869844D01*
X10834166Y2876143D01*
X10845952Y2884017D01*
X10856620Y2893364D01*
X10865967Y2904032D01*
X10873841Y2915818D01*
X10880090Y2928518D01*
X10884662Y2941929D01*
X10887405Y2955848D01*
X10888370Y2969971D01*
X10887405Y2984144D01*
X10884662Y2998063D01*
X10880090Y3011474D01*
X10873841Y3024174D01*
X10865967Y3035960D01*
X10856620Y3046628D01*
X10845952Y3055975D01*
X10834166Y3063849D01*
X10821466Y3070148D01*
X10808004Y3074670D01*
X10794136Y3077464D01*
X10779963Y3078378D01*
X10765840Y3077464D01*
X10751921Y3074670D01*
X10738510Y3070148D01*
X10725759Y3063849D01*
X10713974Y3055975D01*
X10703306Y3046628D01*
X10693958Y3035960D01*
X10686084Y3024174D01*
X10679836Y3011474D01*
X10675264Y2998063D01*
X10672521Y2984144D01*
X10671606Y2969971D01*
X10672521Y2955848D01*
X10675264Y2941929D01*
X10678820Y2931464D01*
X10679379Y2927756D01*
X10678515Y2924098D01*
X10676382Y2921050D01*
X10413034Y2657652D01*
X10407904Y2651404D01*
X10404348Y2644749D01*
X10402163Y2637536D01*
X10401350Y2629509D01*
X10401350Y880516D01*
X10402163Y872490D01*
X10404348Y865225D01*
X10407904Y858570D01*
X10413034Y852322D01*
X10624312Y641045D01*
X10630509Y635965D01*
X10637215Y632409D01*
X10648188Y629158D01*
X10651134Y626922D01*
X10653064Y623824D01*
X10655096Y618642D01*
X10662107Y605891D01*
X10670692Y594106D01*
X10680649Y583539D01*
X10691876Y574243D01*
X10704118Y566420D01*
X10717326Y560222D01*
X10731144Y555752D01*
X10745470Y553008D01*
G37*
G36*
X11539982Y562102D02*
G01*
X11554510Y563016D01*
X11568785Y565759D01*
X11582654Y570230D01*
X11595811Y576427D01*
X11608104Y584250D01*
X11619280Y593496D01*
X11629288Y604113D01*
X11637822Y615899D01*
X11644833Y628650D01*
X11650167Y642162D01*
X11653824Y656285D01*
X11655653Y670712D01*
X11655653Y685292D01*
X11653824Y699719D01*
X11650167Y713790D01*
X11644833Y727354D01*
X11637822Y740105D01*
X11629288Y751890D01*
X11619280Y762457D01*
X11608104Y771753D01*
X11595811Y779526D01*
X11582654Y785723D01*
X11568785Y790244D01*
X11554510Y792988D01*
X11539982Y793902D01*
X11525453Y792988D01*
X11511127Y790244D01*
X11497310Y785723D01*
X11484152Y779526D01*
X11471859Y771753D01*
X11460632Y762457D01*
X11458854Y760577D01*
X11455552Y758240D01*
X11451590Y757326D01*
X11447627Y758088D01*
X11444224Y760323D01*
X11281562Y923036D01*
X11279327Y926287D01*
X11278565Y930198D01*
X11278565Y2659786D01*
X11279327Y2663698D01*
X11281562Y2667000D01*
X11481003Y2866440D01*
X11484102Y2868523D01*
X11487708Y2869387D01*
X11491417Y2868879D01*
X11501932Y2865323D01*
X11515801Y2862529D01*
X11529974Y2861614D01*
X11544096Y2862529D01*
X11558016Y2865323D01*
X11571427Y2869844D01*
X11584178Y2876143D01*
X11595963Y2884017D01*
X11606631Y2893364D01*
X11615978Y2904032D01*
X11623852Y2915818D01*
X11630101Y2928518D01*
X11634673Y2941929D01*
X11637416Y2955848D01*
X11638330Y2969971D01*
X11637416Y2984144D01*
X11634673Y2998063D01*
X11630101Y3011474D01*
X11623852Y3024174D01*
X11615978Y3035960D01*
X11606631Y3046628D01*
X11595963Y3055975D01*
X11584178Y3063849D01*
X11571427Y3070148D01*
X11558016Y3074670D01*
X11544096Y3077464D01*
X11529974Y3078378D01*
X11515801Y3077464D01*
X11501932Y3074670D01*
X11488470Y3070148D01*
X11475770Y3063849D01*
X11463985Y3055975D01*
X11453317Y3046628D01*
X11443970Y3035960D01*
X11436096Y3024174D01*
X11429847Y3011474D01*
X11425275Y2998063D01*
X11422532Y2984144D01*
X11421567Y2969971D01*
X11422532Y2955848D01*
X11425275Y2941929D01*
X11428831Y2931464D01*
X11429339Y2927756D01*
X11428526Y2924098D01*
X11426393Y2921050D01*
X11213033Y2707640D01*
X11207902Y2701442D01*
X11204346Y2694736D01*
X11202162Y2687523D01*
X11201349Y2679496D01*
X11201349Y910488D01*
X11202162Y902462D01*
X11204346Y895248D01*
X11207902Y888593D01*
X11213033Y882345D01*
X11421821Y673557D01*
X11423751Y670864D01*
X11424716Y667664D01*
X11426139Y656285D01*
X11429746Y642162D01*
X11435130Y628650D01*
X11442141Y615899D01*
X11450675Y604113D01*
X11460632Y593496D01*
X11471859Y584250D01*
X11484152Y576427D01*
X11497310Y570230D01*
X11511127Y565759D01*
X11525453Y563016D01*
G37*
G36*
X12329972Y562102D02*
G01*
X12344501Y563016D01*
X12358776Y565759D01*
X12372644Y570230D01*
X12385802Y576427D01*
X12398095Y584250D01*
X12409322Y593496D01*
X12419279Y604113D01*
X12427813Y615899D01*
X12434824Y628650D01*
X12440208Y642162D01*
X12443815Y656285D01*
X12445644Y670712D01*
X12445644Y685292D01*
X12443815Y699719D01*
X12440208Y713790D01*
X12434824Y727354D01*
X12427813Y740105D01*
X12419279Y751890D01*
X12409322Y762457D01*
X12398095Y771753D01*
X12385802Y779526D01*
X12372644Y785723D01*
X12358776Y790244D01*
X12344501Y792988D01*
X12329972Y793902D01*
X12315444Y792988D01*
X12301169Y790244D01*
X12287300Y785723D01*
X12274143Y779526D01*
X12261850Y771753D01*
X12258548Y769010D01*
X12255296Y767232D01*
X12251588Y766724D01*
X12247981Y767537D01*
X12244882Y769670D01*
X12061545Y953008D01*
X12059361Y956310D01*
X12058548Y960221D01*
X12058548Y2659786D01*
X12059361Y2663698D01*
X12061545Y2667000D01*
X12270994Y2876397D01*
X12274092Y2878531D01*
X12277750Y2879394D01*
X12281458Y2878836D01*
X12291923Y2875280D01*
X12305842Y2872536D01*
X12319965Y2871622D01*
X12334087Y2872536D01*
X12348006Y2875280D01*
X12361418Y2879852D01*
X12374168Y2886151D01*
X12385954Y2894025D01*
X12396622Y2903372D01*
X12405969Y2913989D01*
X12413843Y2925826D01*
X12420092Y2938526D01*
X12424664Y2951937D01*
X12427407Y2965856D01*
X12428372Y2979978D01*
X12427407Y2994152D01*
X12424664Y3008071D01*
X12420092Y3021482D01*
X12413843Y3034182D01*
X12405969Y3045968D01*
X12396622Y3056636D01*
X12385954Y3065983D01*
X12374168Y3073857D01*
X12361418Y3080105D01*
X12348006Y3084677D01*
X12334087Y3087471D01*
X12319965Y3088386D01*
X12305842Y3087471D01*
X12291923Y3084677D01*
X12278512Y3080105D01*
X12265761Y3073857D01*
X12253976Y3065983D01*
X12243308Y3056636D01*
X12233960Y3045968D01*
X12226086Y3034182D01*
X12219838Y3021482D01*
X12215266Y3008071D01*
X12212523Y2994152D01*
X12211558Y2979978D01*
X12212523Y2965856D01*
X12215266Y2951937D01*
X12218822Y2941472D01*
X12219381Y2937764D01*
X12218517Y2934106D01*
X12216384Y2931007D01*
X11993016Y2707640D01*
X11987885Y2701442D01*
X11984329Y2694736D01*
X11982145Y2687523D01*
X11981332Y2679496D01*
X11981332Y940511D01*
X11982145Y932484D01*
X11984329Y925220D01*
X11987885Y918565D01*
X11993016Y912368D01*
X12211456Y693928D01*
X12213285Y691438D01*
X12214250Y688543D01*
X12214301Y670712D01*
X12216130Y656285D01*
X12219736Y642162D01*
X12225121Y628650D01*
X12232132Y615899D01*
X12240666Y604113D01*
X12250623Y593496D01*
X12261850Y584250D01*
X12274143Y576427D01*
X12287300Y570230D01*
X12301169Y565759D01*
X12315444Y563016D01*
G37*
G36*
X13089991Y572109D02*
G01*
X13104469Y573024D01*
X13118795Y575767D01*
X13132612Y580237D01*
X13145820Y586435D01*
X13158063Y594258D01*
X13169290Y603504D01*
X13179247Y614121D01*
X13187832Y625906D01*
X13194842Y638657D01*
X13200176Y652170D01*
X13203783Y666292D01*
X13205612Y680720D01*
X13205612Y695248D01*
X13203783Y709726D01*
X13200176Y723798D01*
X13194842Y737362D01*
X13187832Y750112D01*
X13179247Y761847D01*
X13169290Y772464D01*
X13158063Y781761D01*
X13145820Y789533D01*
X13132612Y795731D01*
X13118795Y800252D01*
X13104469Y802995D01*
X13089991Y803910D01*
X13075462Y802995D01*
X13061137Y800252D01*
X13047319Y795731D01*
X13034162Y789533D01*
X13021868Y781761D01*
X13018566Y779018D01*
X13015315Y777240D01*
X13011607Y776681D01*
X13007949Y777544D01*
X13004901Y779678D01*
X12861544Y923036D01*
X12859359Y926287D01*
X12858546Y930198D01*
X12858546Y2709773D01*
X12859359Y2713685D01*
X12861544Y2716987D01*
X13021005Y2876397D01*
X13024104Y2878531D01*
X13027710Y2879394D01*
X13031419Y2878836D01*
X13041934Y2875280D01*
X13055803Y2872536D01*
X13069976Y2871622D01*
X13084098Y2872536D01*
X13098018Y2875280D01*
X13111429Y2879852D01*
X13124180Y2886151D01*
X13135965Y2894025D01*
X13146582Y2903372D01*
X13155930Y2913989D01*
X13163804Y2925826D01*
X13170103Y2938526D01*
X13174675Y2951937D01*
X13177418Y2965856D01*
X13178332Y2979978D01*
X13177418Y2994152D01*
X13174675Y3008071D01*
X13170103Y3021482D01*
X13163804Y3034182D01*
X13155930Y3045968D01*
X13146582Y3056636D01*
X13135965Y3065983D01*
X13124180Y3073857D01*
X13111429Y3080105D01*
X13098018Y3084677D01*
X13084098Y3087471D01*
X13069976Y3088386D01*
X13055803Y3087471D01*
X13041934Y3084677D01*
X13028472Y3080105D01*
X13015772Y3073857D01*
X13003987Y3065983D01*
X12993319Y3056636D01*
X12983972Y3045968D01*
X12976098Y3034182D01*
X12969849Y3021482D01*
X12965277Y3008071D01*
X12962483Y2994152D01*
X12961569Y2979978D01*
X12962483Y2965856D01*
X12965277Y2951937D01*
X12968833Y2941472D01*
X12969341Y2937764D01*
X12968528Y2934106D01*
X12966395Y2931007D01*
X12793014Y2757627D01*
X12787884Y2751429D01*
X12784328Y2744724D01*
X12782143Y2737510D01*
X12781330Y2729484D01*
X12781330Y910488D01*
X12782143Y902462D01*
X12784328Y895248D01*
X12787884Y888593D01*
X12793014Y882345D01*
X12971424Y703935D01*
X12973253Y701446D01*
X12974269Y698550D01*
X12974320Y680720D01*
X12976148Y666292D01*
X12979755Y652170D01*
X12985089Y638657D01*
X12992100Y625906D01*
X13000685Y614121D01*
X13010642Y603504D01*
X13021868Y594258D01*
X13034162Y586435D01*
X13047319Y580237D01*
X13061137Y575767D01*
X13075462Y573024D01*
G37*
G36*
X9229953Y1568094D02*
G01*
X9244482Y1569008D01*
X9258808Y1571752D01*
X9272625Y1576222D01*
X9285782Y1582420D01*
X9298076Y1590243D01*
X9309303Y1599539D01*
X9319260Y1610106D01*
X9327845Y1621891D01*
X9334855Y1634642D01*
X9340189Y1648206D01*
X9343796Y1662277D01*
X9345625Y1676704D01*
X9345625Y1691284D01*
X9343796Y1705711D01*
X9340189Y1719783D01*
X9334855Y1733346D01*
X9327845Y1746097D01*
X9319260Y1757883D01*
X9309303Y1768500D01*
X9298076Y1777746D01*
X9285782Y1785569D01*
X9272625Y1791766D01*
X9258808Y1796237D01*
X9244482Y1798980D01*
X9229953Y1799894D01*
X9215475Y1798980D01*
X9201150Y1796237D01*
X9187332Y1791766D01*
X9174124Y1785569D01*
X9161881Y1777746D01*
X9150654Y1768500D01*
X9140698Y1757883D01*
X9132112Y1746097D01*
X9125102Y1733346D01*
X9119768Y1719783D01*
X9116161Y1705711D01*
X9114332Y1691284D01*
X9114332Y1676704D01*
X9116161Y1662277D01*
X9119768Y1648206D01*
X9125102Y1634642D01*
X9132112Y1621891D01*
X9140698Y1610106D01*
X9150654Y1599539D01*
X9161881Y1590243D01*
X9174124Y1582420D01*
X9187332Y1576222D01*
X9201150Y1571752D01*
X9215475Y1569008D01*
G37*
G36*
X7709966Y1568094D02*
G01*
X7724495Y1569008D01*
X7738821Y1571752D01*
X7752638Y1576222D01*
X7765796Y1582420D01*
X7778089Y1590243D01*
X7789316Y1599539D01*
X7799273Y1610106D01*
X7807807Y1621891D01*
X7814818Y1634642D01*
X7820202Y1648206D01*
X7823809Y1662277D01*
X7825638Y1676704D01*
X7825638Y1691284D01*
X7823809Y1705711D01*
X7820202Y1719783D01*
X7814818Y1733346D01*
X7807807Y1746097D01*
X7799273Y1757883D01*
X7789316Y1768500D01*
X7778089Y1777746D01*
X7765796Y1785569D01*
X7752638Y1791766D01*
X7738821Y1796237D01*
X7724495Y1798980D01*
X7709966Y1799894D01*
X7695438Y1798980D01*
X7681163Y1796237D01*
X7667294Y1791766D01*
X7654137Y1785569D01*
X7641844Y1777746D01*
X7630668Y1768500D01*
X7620711Y1757883D01*
X7612125Y1746097D01*
X7605115Y1733346D01*
X7599781Y1719783D01*
X7596124Y1705711D01*
X7594295Y1691284D01*
X7594295Y1676704D01*
X7596124Y1662277D01*
X7599781Y1648206D01*
X7605115Y1634642D01*
X7612125Y1621891D01*
X7620711Y1610106D01*
X7630668Y1599539D01*
X7641844Y1590243D01*
X7654137Y1582420D01*
X7667294Y1576222D01*
X7681163Y1571752D01*
X7695438Y1569008D01*
G37*
G36*
X8459978Y1568094D02*
G01*
X8474506Y1569008D01*
X8488781Y1571752D01*
X8502650Y1576222D01*
X8515807Y1582420D01*
X8528100Y1590243D01*
X8539327Y1599539D01*
X8549284Y1610106D01*
X8557818Y1621891D01*
X8564829Y1634642D01*
X8570214Y1648206D01*
X8573820Y1662277D01*
X8575649Y1676704D01*
X8575649Y1691284D01*
X8573820Y1705711D01*
X8570214Y1719783D01*
X8564829Y1733346D01*
X8557818Y1746097D01*
X8549284Y1757883D01*
X8539327Y1768500D01*
X8528100Y1777746D01*
X8515807Y1785569D01*
X8502650Y1791766D01*
X8488781Y1796237D01*
X8474506Y1798980D01*
X8459978Y1799894D01*
X8445449Y1798980D01*
X8431174Y1796237D01*
X8417306Y1791766D01*
X8404148Y1785569D01*
X8391855Y1777746D01*
X8380628Y1768500D01*
X8370671Y1757883D01*
X8362137Y1746097D01*
X8355126Y1733346D01*
X8349742Y1719783D01*
X8346135Y1705711D01*
X8344306Y1691284D01*
X8344306Y1676704D01*
X8346135Y1662277D01*
X8349742Y1648206D01*
X8355126Y1634642D01*
X8362137Y1621891D01*
X8370671Y1610106D01*
X8380628Y1599539D01*
X8391855Y1590243D01*
X8404148Y1582420D01*
X8417306Y1576222D01*
X8431174Y1571752D01*
X8445449Y1569008D01*
G37*
G36*
X9989972Y1568094D02*
G01*
X10004501Y1569008D01*
X10018776Y1571752D01*
X10032644Y1576222D01*
X10045801Y1582420D01*
X10058095Y1590243D01*
X10069322Y1599539D01*
X10079278Y1610106D01*
X10087813Y1621891D01*
X10094823Y1634642D01*
X10100208Y1648206D01*
X10103815Y1662277D01*
X10105644Y1676704D01*
X10105644Y1691284D01*
X10103815Y1705711D01*
X10100208Y1719783D01*
X10094823Y1733346D01*
X10087813Y1746097D01*
X10079278Y1757883D01*
X10069322Y1768500D01*
X10058095Y1777746D01*
X10045801Y1785569D01*
X10032644Y1791766D01*
X10018776Y1796237D01*
X10004501Y1798980D01*
X9989972Y1799894D01*
X9975443Y1798980D01*
X9961168Y1796237D01*
X9947300Y1791766D01*
X9934143Y1785569D01*
X9921849Y1777746D01*
X9910622Y1768500D01*
X9900666Y1757883D01*
X9892131Y1746097D01*
X9885121Y1733346D01*
X9879736Y1719783D01*
X9876129Y1705711D01*
X9874300Y1691284D01*
X9874300Y1676704D01*
X9876129Y1662277D01*
X9879736Y1648206D01*
X9885121Y1634642D01*
X9892131Y1621891D01*
X9900666Y1610106D01*
X9910622Y1599539D01*
X9921849Y1590243D01*
X9934143Y1582420D01*
X9947300Y1576222D01*
X9961168Y1571752D01*
X9975443Y1569008D01*
G37*
G36*
X10759998Y1568094D02*
G01*
X10774476Y1569008D01*
X10788802Y1571752D01*
X10802620Y1576222D01*
X10815828Y1582420D01*
X10828070Y1590243D01*
X10839297Y1599539D01*
X10849254Y1610106D01*
X10857839Y1621891D01*
X10864850Y1634642D01*
X10870184Y1648206D01*
X10873790Y1662277D01*
X10875619Y1676704D01*
X10875619Y1691284D01*
X10873790Y1705711D01*
X10870184Y1719783D01*
X10864850Y1733346D01*
X10857839Y1746097D01*
X10849254Y1757883D01*
X10839297Y1768500D01*
X10828070Y1777746D01*
X10815828Y1785569D01*
X10802620Y1791766D01*
X10788802Y1796237D01*
X10774476Y1798980D01*
X10759998Y1799894D01*
X10745470Y1798980D01*
X10731144Y1796237D01*
X10717326Y1791766D01*
X10704118Y1785569D01*
X10691876Y1777746D01*
X10680649Y1768500D01*
X10670692Y1757883D01*
X10662107Y1746097D01*
X10655096Y1733346D01*
X10649762Y1719783D01*
X10646156Y1705711D01*
X10644327Y1691284D01*
X10644327Y1676704D01*
X10646156Y1662277D01*
X10649762Y1648206D01*
X10655096Y1634642D01*
X10662107Y1621891D01*
X10670692Y1610106D01*
X10680649Y1599539D01*
X10691876Y1590243D01*
X10704118Y1582420D01*
X10717326Y1576222D01*
X10731144Y1571752D01*
X10745470Y1569008D01*
G37*
G36*
X12329972Y1578102D02*
G01*
X12344501Y1579016D01*
X12358776Y1581759D01*
X12372644Y1586230D01*
X12385802Y1592427D01*
X12398095Y1600250D01*
X12409322Y1609496D01*
X12419279Y1620113D01*
X12427813Y1631899D01*
X12434824Y1644650D01*
X12440208Y1658162D01*
X12443815Y1672285D01*
X12445644Y1686712D01*
X12445644Y1701292D01*
X12443815Y1715719D01*
X12440208Y1729790D01*
X12434824Y1743354D01*
X12427813Y1756105D01*
X12419279Y1767890D01*
X12409322Y1778457D01*
X12398095Y1787753D01*
X12385802Y1795525D01*
X12372644Y1801723D01*
X12358776Y1806244D01*
X12344501Y1808988D01*
X12329972Y1809902D01*
X12315444Y1808988D01*
X12301169Y1806244D01*
X12287300Y1801723D01*
X12274143Y1795525D01*
X12261850Y1787753D01*
X12250623Y1778457D01*
X12240666Y1767890D01*
X12232132Y1756105D01*
X12225121Y1743354D01*
X12219736Y1729790D01*
X12216130Y1715719D01*
X12214301Y1701292D01*
X12214301Y1686712D01*
X12216130Y1672285D01*
X12219736Y1658162D01*
X12225121Y1644650D01*
X12232132Y1631899D01*
X12240666Y1620113D01*
X12250623Y1609496D01*
X12261850Y1600250D01*
X12274143Y1592427D01*
X12287300Y1586230D01*
X12301169Y1581759D01*
X12315444Y1579016D01*
G37*
G36*
X11539982Y1578102D02*
G01*
X11554510Y1579016D01*
X11568785Y1581759D01*
X11582654Y1586230D01*
X11595811Y1592427D01*
X11608104Y1600250D01*
X11619280Y1609496D01*
X11629288Y1620113D01*
X11637822Y1631899D01*
X11644833Y1644650D01*
X11650167Y1658162D01*
X11653824Y1672285D01*
X11655653Y1686712D01*
X11655653Y1701292D01*
X11653824Y1715719D01*
X11650167Y1729790D01*
X11644833Y1743354D01*
X11637822Y1756105D01*
X11629288Y1767890D01*
X11619280Y1778457D01*
X11608104Y1787753D01*
X11595811Y1795525D01*
X11582654Y1801723D01*
X11568785Y1806244D01*
X11554510Y1808988D01*
X11539982Y1809902D01*
X11525453Y1808988D01*
X11511127Y1806244D01*
X11497310Y1801723D01*
X11484152Y1795525D01*
X11471859Y1787753D01*
X11460632Y1778457D01*
X11450675Y1767890D01*
X11442141Y1756105D01*
X11435130Y1743354D01*
X11429746Y1729790D01*
X11426139Y1715719D01*
X11424310Y1701292D01*
X11424310Y1686712D01*
X11426139Y1672285D01*
X11429746Y1658162D01*
X11435130Y1644650D01*
X11442141Y1631899D01*
X11450675Y1620113D01*
X11460632Y1609496D01*
X11471859Y1600250D01*
X11484152Y1592427D01*
X11497310Y1586230D01*
X11511127Y1581759D01*
X11525453Y1579016D01*
G37*
G36*
X13089991Y1588109D02*
G01*
X13104469Y1589024D01*
X13118795Y1591767D01*
X13132612Y1596237D01*
X13145820Y1602435D01*
X13158063Y1610258D01*
X13169290Y1619504D01*
X13179247Y1630121D01*
X13187832Y1641906D01*
X13194842Y1654657D01*
X13200176Y1668170D01*
X13203783Y1682292D01*
X13205612Y1696720D01*
X13205612Y1711248D01*
X13203783Y1725726D01*
X13200176Y1739798D01*
X13194842Y1753362D01*
X13187832Y1766112D01*
X13179247Y1777847D01*
X13169290Y1788464D01*
X13158063Y1797761D01*
X13145820Y1805533D01*
X13132612Y1811731D01*
X13118795Y1816252D01*
X13104469Y1818995D01*
X13089991Y1819910D01*
X13075462Y1818995D01*
X13061137Y1816252D01*
X13047319Y1811731D01*
X13034162Y1805533D01*
X13021868Y1797761D01*
X13010642Y1788464D01*
X13000685Y1777847D01*
X12992100Y1766112D01*
X12985089Y1753362D01*
X12979755Y1739798D01*
X12976148Y1725726D01*
X12974320Y1711248D01*
X12974320Y1696720D01*
X12976148Y1682292D01*
X12979755Y1668170D01*
X12985089Y1654657D01*
X12992100Y1641906D01*
X13000685Y1630121D01*
X13010642Y1619504D01*
X13021868Y1610258D01*
X13034162Y1602435D01*
X13047319Y1596237D01*
X13061137Y1591767D01*
X13075462Y1589024D01*
G37*
G36*
X10759998Y2330094D02*
G01*
X10774476Y2331008D01*
X10788802Y2333752D01*
X10802620Y2338222D01*
X10815828Y2344420D01*
X10828070Y2352243D01*
X10839297Y2361539D01*
X10849254Y2372106D01*
X10857839Y2383891D01*
X10864850Y2396642D01*
X10870184Y2410206D01*
X10873790Y2424277D01*
X10875619Y2438704D01*
X10875619Y2453284D01*
X10873790Y2467711D01*
X10870184Y2481783D01*
X10864850Y2495346D01*
X10857839Y2508097D01*
X10849254Y2519883D01*
X10839297Y2530500D01*
X10828070Y2539746D01*
X10815828Y2547569D01*
X10802620Y2553766D01*
X10788802Y2558237D01*
X10774476Y2560980D01*
X10759998Y2561894D01*
X10745470Y2560980D01*
X10731144Y2558237D01*
X10717326Y2553766D01*
X10704118Y2547569D01*
X10691876Y2539746D01*
X10680649Y2530500D01*
X10670692Y2519883D01*
X10662107Y2508097D01*
X10655096Y2495346D01*
X10649762Y2481783D01*
X10646156Y2467711D01*
X10644327Y2453284D01*
X10644327Y2438704D01*
X10646156Y2424277D01*
X10649762Y2410206D01*
X10655096Y2396642D01*
X10662107Y2383891D01*
X10670692Y2372106D01*
X10680649Y2361539D01*
X10691876Y2352243D01*
X10704118Y2344420D01*
X10717326Y2338222D01*
X10731144Y2333752D01*
X10745470Y2331008D01*
G37*
G36*
X7709966Y2330094D02*
G01*
X7724495Y2331008D01*
X7738821Y2333752D01*
X7752638Y2338222D01*
X7765796Y2344420D01*
X7778089Y2352243D01*
X7789316Y2361539D01*
X7799273Y2372106D01*
X7807807Y2383891D01*
X7814818Y2396642D01*
X7820202Y2410206D01*
X7823809Y2424277D01*
X7825638Y2438704D01*
X7825638Y2453284D01*
X7823809Y2467711D01*
X7820202Y2481783D01*
X7814818Y2495346D01*
X7807807Y2508097D01*
X7799273Y2519883D01*
X7789316Y2530500D01*
X7778089Y2539746D01*
X7765796Y2547569D01*
X7752638Y2553766D01*
X7738821Y2558237D01*
X7724495Y2560980D01*
X7709966Y2561894D01*
X7695438Y2560980D01*
X7681163Y2558237D01*
X7667294Y2553766D01*
X7654137Y2547569D01*
X7641844Y2539746D01*
X7630668Y2530500D01*
X7620711Y2519883D01*
X7612125Y2508097D01*
X7605115Y2495346D01*
X7599781Y2481783D01*
X7596124Y2467711D01*
X7594295Y2453284D01*
X7594295Y2438704D01*
X7596124Y2424277D01*
X7599781Y2410206D01*
X7605115Y2396642D01*
X7612125Y2383891D01*
X7620711Y2372106D01*
X7630668Y2361539D01*
X7641844Y2352243D01*
X7654137Y2344420D01*
X7667294Y2338222D01*
X7681163Y2333752D01*
X7695438Y2331008D01*
G37*
G36*
X8459978Y2330094D02*
G01*
X8474506Y2331008D01*
X8488781Y2333752D01*
X8502650Y2338222D01*
X8515807Y2344420D01*
X8528100Y2352243D01*
X8539327Y2361539D01*
X8549284Y2372106D01*
X8557818Y2383891D01*
X8564829Y2396642D01*
X8570214Y2410206D01*
X8573820Y2424277D01*
X8575649Y2438704D01*
X8575649Y2453284D01*
X8573820Y2467711D01*
X8570214Y2481783D01*
X8564829Y2495346D01*
X8557818Y2508097D01*
X8549284Y2519883D01*
X8539327Y2530500D01*
X8528100Y2539746D01*
X8515807Y2547569D01*
X8502650Y2553766D01*
X8488781Y2558237D01*
X8474506Y2560980D01*
X8459978Y2561894D01*
X8445449Y2560980D01*
X8431174Y2558237D01*
X8417306Y2553766D01*
X8404148Y2547569D01*
X8391855Y2539746D01*
X8380628Y2530500D01*
X8370671Y2519883D01*
X8362137Y2508097D01*
X8355126Y2495346D01*
X8349742Y2481783D01*
X8346135Y2467711D01*
X8344306Y2453284D01*
X8344306Y2438704D01*
X8346135Y2424277D01*
X8349742Y2410206D01*
X8355126Y2396642D01*
X8362137Y2383891D01*
X8370671Y2372106D01*
X8380628Y2361539D01*
X8391855Y2352243D01*
X8404148Y2344420D01*
X8417306Y2338222D01*
X8431174Y2333752D01*
X8445449Y2331008D01*
G37*
G36*
X9989972Y2330094D02*
G01*
X10004501Y2331008D01*
X10018776Y2333752D01*
X10032644Y2338222D01*
X10045801Y2344420D01*
X10058095Y2352243D01*
X10069322Y2361539D01*
X10079278Y2372106D01*
X10087813Y2383891D01*
X10094823Y2396642D01*
X10100208Y2410206D01*
X10103815Y2424277D01*
X10105644Y2438704D01*
X10105644Y2453284D01*
X10103815Y2467711D01*
X10100208Y2481783D01*
X10094823Y2495346D01*
X10087813Y2508097D01*
X10079278Y2519883D01*
X10069322Y2530500D01*
X10058095Y2539746D01*
X10045801Y2547569D01*
X10032644Y2553766D01*
X10018776Y2558237D01*
X10004501Y2560980D01*
X9989972Y2561894D01*
X9975443Y2560980D01*
X9961168Y2558237D01*
X9947300Y2553766D01*
X9934143Y2547569D01*
X9921849Y2539746D01*
X9910622Y2530500D01*
X9900666Y2519883D01*
X9892131Y2508097D01*
X9885121Y2495346D01*
X9879736Y2481783D01*
X9876129Y2467711D01*
X9874300Y2453284D01*
X9874300Y2438704D01*
X9876129Y2424277D01*
X9879736Y2410206D01*
X9885121Y2396642D01*
X9892131Y2383891D01*
X9900666Y2372106D01*
X9910622Y2361539D01*
X9921849Y2352243D01*
X9934143Y2344420D01*
X9947300Y2338222D01*
X9961168Y2333752D01*
X9975443Y2331008D01*
G37*
G36*
X9229953Y2330094D02*
G01*
X9244482Y2331008D01*
X9258808Y2333752D01*
X9272625Y2338222D01*
X9285782Y2344420D01*
X9298076Y2352243D01*
X9309303Y2361539D01*
X9319260Y2372106D01*
X9327845Y2383891D01*
X9334855Y2396642D01*
X9340189Y2410206D01*
X9343796Y2424277D01*
X9345625Y2438704D01*
X9345625Y2453284D01*
X9343796Y2467711D01*
X9340189Y2481783D01*
X9334855Y2495346D01*
X9327845Y2508097D01*
X9319260Y2519883D01*
X9309303Y2530500D01*
X9298076Y2539746D01*
X9285782Y2547569D01*
X9272625Y2553766D01*
X9258808Y2558237D01*
X9244482Y2560980D01*
X9229953Y2561894D01*
X9215475Y2560980D01*
X9201150Y2558237D01*
X9187332Y2553766D01*
X9174124Y2547569D01*
X9161881Y2539746D01*
X9150654Y2530500D01*
X9140698Y2519883D01*
X9132112Y2508097D01*
X9125102Y2495346D01*
X9119768Y2481783D01*
X9116161Y2467711D01*
X9114332Y2453284D01*
X9114332Y2438704D01*
X9116161Y2424277D01*
X9119768Y2410206D01*
X9125102Y2396642D01*
X9132112Y2383891D01*
X9140698Y2372106D01*
X9150654Y2361539D01*
X9161881Y2352243D01*
X9174124Y2344420D01*
X9187332Y2338222D01*
X9201150Y2333752D01*
X9215475Y2331008D01*
G37*
G36*
X11539982Y2340102D02*
G01*
X11554510Y2341016D01*
X11568785Y2343759D01*
X11582654Y2348230D01*
X11595811Y2354427D01*
X11608104Y2362250D01*
X11619280Y2371496D01*
X11629288Y2382113D01*
X11637822Y2393899D01*
X11644833Y2406650D01*
X11650167Y2420162D01*
X11653824Y2434285D01*
X11655653Y2448712D01*
X11655653Y2463292D01*
X11653824Y2477719D01*
X11650167Y2491790D01*
X11644833Y2505354D01*
X11637822Y2518105D01*
X11629288Y2529890D01*
X11619280Y2540457D01*
X11608104Y2549753D01*
X11595811Y2557526D01*
X11582654Y2563723D01*
X11568785Y2568244D01*
X11554510Y2570988D01*
X11539982Y2571902D01*
X11525453Y2570988D01*
X11511127Y2568244D01*
X11497310Y2563723D01*
X11484152Y2557526D01*
X11471859Y2549753D01*
X11460632Y2540457D01*
X11450675Y2529890D01*
X11442141Y2518105D01*
X11435130Y2505354D01*
X11429746Y2491790D01*
X11426139Y2477719D01*
X11424310Y2463292D01*
X11424310Y2448712D01*
X11426139Y2434285D01*
X11429746Y2420162D01*
X11435130Y2406650D01*
X11442141Y2393899D01*
X11450675Y2382113D01*
X11460632Y2371496D01*
X11471859Y2362250D01*
X11484152Y2354427D01*
X11497310Y2348230D01*
X11511127Y2343759D01*
X11525453Y2341016D01*
G37*
G36*
X12329972Y2340102D02*
G01*
X12344501Y2341016D01*
X12358776Y2343759D01*
X12372644Y2348230D01*
X12385802Y2354427D01*
X12398095Y2362250D01*
X12409322Y2371496D01*
X12419279Y2382113D01*
X12427813Y2393899D01*
X12434824Y2406650D01*
X12440208Y2420162D01*
X12443815Y2434285D01*
X12445644Y2448712D01*
X12445644Y2463292D01*
X12443815Y2477719D01*
X12440208Y2491790D01*
X12434824Y2505354D01*
X12427813Y2518105D01*
X12419279Y2529890D01*
X12409322Y2540457D01*
X12398095Y2549753D01*
X12385802Y2557526D01*
X12372644Y2563723D01*
X12358776Y2568244D01*
X12344501Y2570988D01*
X12329972Y2571902D01*
X12315444Y2570988D01*
X12301169Y2568244D01*
X12287300Y2563723D01*
X12274143Y2557526D01*
X12261850Y2549753D01*
X12250623Y2540457D01*
X12240666Y2529890D01*
X12232132Y2518105D01*
X12225121Y2505354D01*
X12219736Y2491790D01*
X12216130Y2477719D01*
X12214301Y2463292D01*
X12214301Y2448712D01*
X12216130Y2434285D01*
X12219736Y2420162D01*
X12225121Y2406650D01*
X12232132Y2393899D01*
X12240666Y2382113D01*
X12250623Y2371496D01*
X12261850Y2362250D01*
X12274143Y2354427D01*
X12287300Y2348230D01*
X12301169Y2343759D01*
X12315444Y2341016D01*
G37*
G36*
X13089991Y2350109D02*
G01*
X13104469Y2351024D01*
X13118795Y2353767D01*
X13132612Y2358237D01*
X13145820Y2364435D01*
X13158063Y2372258D01*
X13169290Y2381504D01*
X13179247Y2392121D01*
X13187832Y2403906D01*
X13194842Y2416657D01*
X13200176Y2430170D01*
X13203783Y2444292D01*
X13205612Y2458720D01*
X13205612Y2473248D01*
X13203783Y2487726D01*
X13200176Y2501798D01*
X13194842Y2515362D01*
X13187832Y2528112D01*
X13179247Y2539847D01*
X13169290Y2550464D01*
X13158063Y2559761D01*
X13145820Y2567533D01*
X13132612Y2573731D01*
X13118795Y2578252D01*
X13104469Y2580995D01*
X13089991Y2581910D01*
X13075462Y2580995D01*
X13061137Y2578252D01*
X13047319Y2573731D01*
X13034162Y2567533D01*
X13021868Y2559761D01*
X13010642Y2550464D01*
X13000685Y2539847D01*
X12992100Y2528112D01*
X12985089Y2515362D01*
X12979755Y2501798D01*
X12976148Y2487726D01*
X12974320Y2473248D01*
X12974320Y2458720D01*
X12976148Y2444292D01*
X12979755Y2430170D01*
X12985089Y2416657D01*
X12992100Y2403906D01*
X13000685Y2392121D01*
X13010642Y2381504D01*
X13021868Y2372258D01*
X13034162Y2364435D01*
X13047319Y2358237D01*
X13061137Y2353767D01*
X13075462Y2351024D01*
G37*
G36*
X9735972Y2861614D02*
G01*
X9750094Y2862529D01*
X9764014Y2865323D01*
X9777425Y2869844D01*
X9790176Y2876143D01*
X9801961Y2884017D01*
X9812629Y2893364D01*
X9821976Y2904032D01*
X9829850Y2915818D01*
X9836099Y2928518D01*
X9840671Y2941929D01*
X9843414Y2955848D01*
X9844379Y2969971D01*
X9843414Y2984144D01*
X9840671Y2998063D01*
X9836099Y3011474D01*
X9829850Y3024174D01*
X9821976Y3035960D01*
X9812629Y3046628D01*
X9801961Y3055975D01*
X9790176Y3063849D01*
X9777425Y3070148D01*
X9764014Y3074670D01*
X9750094Y3077464D01*
X9735972Y3078378D01*
X9721799Y3077464D01*
X9707930Y3074670D01*
X9694468Y3070148D01*
X9681768Y3063849D01*
X9669983Y3055975D01*
X9659315Y3046628D01*
X9649968Y3035960D01*
X9642094Y3024174D01*
X9635845Y3011474D01*
X9631273Y2998063D01*
X9628530Y2984144D01*
X9627565Y2969971D01*
X9628530Y2955848D01*
X9631273Y2941929D01*
X9635845Y2928518D01*
X9642094Y2915818D01*
X9649968Y2904032D01*
X9659315Y2893364D01*
X9669983Y2884017D01*
X9681768Y2876143D01*
X9694468Y2869844D01*
X9707930Y2865323D01*
X9721799Y2862529D01*
G37*
G36*
X10525963Y2861614D02*
G01*
X10540136Y2862529D01*
X10554004Y2865323D01*
X10567466Y2869844D01*
X10580166Y2876143D01*
X10591952Y2884017D01*
X10602620Y2893364D01*
X10611967Y2904032D01*
X10619841Y2915818D01*
X10626090Y2928518D01*
X10630662Y2941929D01*
X10633405Y2955848D01*
X10634370Y2969971D01*
X10633405Y2984144D01*
X10630662Y2998063D01*
X10626090Y3011474D01*
X10619841Y3024174D01*
X10611967Y3035960D01*
X10602620Y3046628D01*
X10591952Y3055975D01*
X10580166Y3063849D01*
X10567466Y3070148D01*
X10554004Y3074670D01*
X10540136Y3077464D01*
X10525963Y3078378D01*
X10511840Y3077464D01*
X10497921Y3074670D01*
X10484510Y3070148D01*
X10471759Y3063849D01*
X10459974Y3055975D01*
X10449306Y3046628D01*
X10439958Y3035960D01*
X10432084Y3024174D01*
X10425836Y3011474D01*
X10421264Y2998063D01*
X10418521Y2984144D01*
X10417606Y2969971D01*
X10418521Y2955848D01*
X10421264Y2941929D01*
X10425836Y2928518D01*
X10432084Y2915818D01*
X10439958Y2904032D01*
X10449306Y2893364D01*
X10459974Y2884017D01*
X10471759Y2876143D01*
X10484510Y2869844D01*
X10497921Y2865323D01*
X10511840Y2862529D01*
G37*
G36*
X8985961Y2861614D02*
G01*
X9000134Y2862529D01*
X9014002Y2865323D01*
X9027464Y2869844D01*
X9040164Y2876143D01*
X9051950Y2884017D01*
X9062618Y2893364D01*
X9071965Y2904032D01*
X9079839Y2915818D01*
X9086088Y2928518D01*
X9090660Y2941929D01*
X9093454Y2955848D01*
X9094368Y2969971D01*
X9093454Y2984144D01*
X9090660Y2998063D01*
X9086088Y3011474D01*
X9079839Y3024174D01*
X9071965Y3035960D01*
X9062618Y3046628D01*
X9051950Y3055975D01*
X9040164Y3063849D01*
X9027464Y3070148D01*
X9014002Y3074670D01*
X9000134Y3077464D01*
X8985961Y3078378D01*
X8971838Y3077464D01*
X8957919Y3074670D01*
X8944508Y3070148D01*
X8931757Y3063849D01*
X8919972Y3055975D01*
X8909354Y3046628D01*
X8900007Y3035960D01*
X8892082Y3024174D01*
X8885834Y3011474D01*
X8881262Y2998063D01*
X8878519Y2984144D01*
X8877604Y2969971D01*
X8878519Y2955848D01*
X8881262Y2941929D01*
X8885834Y2928518D01*
X8892082Y2915818D01*
X8900007Y2904032D01*
X8909354Y2893364D01*
X8919972Y2884017D01*
X8931757Y2876143D01*
X8944508Y2869844D01*
X8957919Y2865323D01*
X8971838Y2862529D01*
G37*
G36*
X11275974Y2861614D02*
G01*
X11290096Y2862529D01*
X11304016Y2865323D01*
X11317427Y2869844D01*
X11330178Y2876143D01*
X11341963Y2884017D01*
X11352631Y2893364D01*
X11361978Y2904032D01*
X11369852Y2915818D01*
X11376101Y2928518D01*
X11380673Y2941929D01*
X11383416Y2955848D01*
X11384330Y2969971D01*
X11383416Y2984144D01*
X11380673Y2998063D01*
X11376101Y3011474D01*
X11369852Y3024174D01*
X11361978Y3035960D01*
X11352631Y3046628D01*
X11341963Y3055975D01*
X11330178Y3063849D01*
X11317427Y3070148D01*
X11304016Y3074670D01*
X11290096Y3077464D01*
X11275974Y3078378D01*
X11261801Y3077464D01*
X11247932Y3074670D01*
X11234470Y3070148D01*
X11221770Y3063849D01*
X11209985Y3055975D01*
X11199317Y3046628D01*
X11189970Y3035960D01*
X11182096Y3024174D01*
X11175847Y3011474D01*
X11171275Y2998063D01*
X11168532Y2984144D01*
X11167567Y2969971D01*
X11168532Y2955848D01*
X11171275Y2941929D01*
X11175847Y2928518D01*
X11182096Y2915818D01*
X11189970Y2904032D01*
X11199317Y2893364D01*
X11209985Y2884017D01*
X11221770Y2876143D01*
X11234470Y2869844D01*
X11247932Y2865323D01*
X11261801Y2862529D01*
G37*
G36*
X12065965Y2871622D02*
G01*
X12080087Y2872536D01*
X12094006Y2875280D01*
X12107418Y2879852D01*
X12120168Y2886151D01*
X12131954Y2894025D01*
X12142622Y2903372D01*
X12151969Y2913989D01*
X12159843Y2925826D01*
X12166092Y2938526D01*
X12170664Y2951937D01*
X12173407Y2965856D01*
X12174372Y2979978D01*
X12173407Y2994152D01*
X12170664Y3008071D01*
X12166092Y3021482D01*
X12159843Y3034182D01*
X12151969Y3045968D01*
X12142622Y3056636D01*
X12131954Y3065983D01*
X12120168Y3073857D01*
X12107418Y3080105D01*
X12094006Y3084677D01*
X12080087Y3087471D01*
X12065965Y3088386D01*
X12051842Y3087471D01*
X12037923Y3084677D01*
X12024512Y3080105D01*
X12011761Y3073857D01*
X11999976Y3065983D01*
X11989308Y3056636D01*
X11979960Y3045968D01*
X11972086Y3034182D01*
X11965838Y3021482D01*
X11961266Y3008071D01*
X11958523Y2994152D01*
X11957558Y2979978D01*
X11958523Y2965856D01*
X11961266Y2951937D01*
X11965838Y2938526D01*
X11972086Y2925826D01*
X11979960Y2913989D01*
X11989308Y2903372D01*
X11999976Y2894025D01*
X12011761Y2886151D01*
X12024512Y2879852D01*
X12037923Y2875280D01*
X12051842Y2872536D01*
G37*
G36*
X12815976Y2871622D02*
G01*
X12830098Y2872536D01*
X12844018Y2875280D01*
X12857429Y2879852D01*
X12870180Y2886151D01*
X12881965Y2894025D01*
X12892582Y2903372D01*
X12901930Y2913989D01*
X12909804Y2925826D01*
X12916103Y2938526D01*
X12920675Y2951937D01*
X12923418Y2965856D01*
X12924332Y2979978D01*
X12923418Y2994152D01*
X12920675Y3008071D01*
X12916103Y3021482D01*
X12909804Y3034182D01*
X12901930Y3045968D01*
X12892582Y3056636D01*
X12881965Y3065983D01*
X12870180Y3073857D01*
X12857429Y3080105D01*
X12844018Y3084677D01*
X12830098Y3087471D01*
X12815976Y3088386D01*
X12801803Y3087471D01*
X12787934Y3084677D01*
X12774472Y3080105D01*
X12761772Y3073857D01*
X12749987Y3065983D01*
X12739319Y3056636D01*
X12729972Y3045968D01*
X12722098Y3034182D01*
X12715849Y3021482D01*
X12711277Y3008071D01*
X12708483Y2994152D01*
X12707569Y2979978D01*
X12708483Y2965856D01*
X12711277Y2951937D01*
X12715849Y2938526D01*
X12722098Y2925826D01*
X12729972Y2913989D01*
X12739319Y2903372D01*
X12749987Y2894025D01*
X12761772Y2886151D01*
X12774472Y2879852D01*
X12787934Y2875280D01*
X12801803Y2872536D01*
G37*
G36*
X8205978Y2871622D02*
G01*
X8220100Y2872536D01*
X8234019Y2875280D01*
X8247430Y2879852D01*
X8260181Y2886151D01*
X8271967Y2894025D01*
X8282635Y2903372D01*
X8291982Y2913989D01*
X8299856Y2925826D01*
X8306104Y2938526D01*
X8310676Y2951937D01*
X8313420Y2965856D01*
X8314334Y2979978D01*
X8313420Y2994152D01*
X8310676Y3008071D01*
X8306104Y3021482D01*
X8299856Y3034182D01*
X8291982Y3045968D01*
X8282635Y3056636D01*
X8271967Y3065983D01*
X8260181Y3073857D01*
X8247430Y3080105D01*
X8234019Y3084677D01*
X8220100Y3087471D01*
X8205978Y3088386D01*
X8191804Y3087471D01*
X8177936Y3084677D01*
X8164474Y3080105D01*
X8151774Y3073857D01*
X8139988Y3065983D01*
X8129320Y3056636D01*
X8119973Y3045968D01*
X8112099Y3034182D01*
X8105851Y3021482D01*
X8101279Y3008071D01*
X8098536Y2994152D01*
X8097570Y2979978D01*
X8098536Y2965856D01*
X8101279Y2951937D01*
X8105851Y2938526D01*
X8112099Y2925826D01*
X8119973Y2913989D01*
X8129320Y2903372D01*
X8139988Y2894025D01*
X8151774Y2886151D01*
X8164474Y2879852D01*
X8177936Y2875280D01*
X8191804Y2872536D01*
G37*
G36*
X6239967Y2872130D02*
G01*
X6254699Y2873044D01*
X6269228Y2875737D01*
X6283299Y2880207D01*
X6296710Y2886405D01*
X6309258Y2894177D01*
X6320739Y2903423D01*
X6331000Y2913989D01*
X6339890Y2925775D01*
X6347307Y2938576D01*
X6350812Y2946806D01*
X6352997Y2950108D01*
X6356299Y2952292D01*
X6360210Y2953004D01*
X6637883Y2951937D01*
X6641541Y2951226D01*
X6644741Y2949244D01*
X6646976Y2946247D01*
X6652107Y2935782D01*
X6659981Y2923997D01*
X6669328Y2913329D01*
X6679996Y2903982D01*
X6691782Y2896108D01*
X6704482Y2889859D01*
X6717944Y2885287D01*
X6731812Y2882544D01*
X6745986Y2881630D01*
X6760108Y2882544D01*
X6774027Y2885287D01*
X6787438Y2889859D01*
X6800189Y2896108D01*
X6811975Y2903982D01*
X6822592Y2913329D01*
X6831939Y2923997D01*
X6839864Y2935782D01*
X6846112Y2948533D01*
X6850684Y2961944D01*
X6853428Y2975864D01*
X6854342Y2989986D01*
X6853428Y3004159D01*
X6850684Y3018028D01*
X6846112Y3031490D01*
X6839864Y3044190D01*
X6831939Y3055975D01*
X6822592Y3066643D01*
X6811975Y3075990D01*
X6800189Y3083864D01*
X6787438Y3090113D01*
X6774027Y3094685D01*
X6760108Y3097428D01*
X6745986Y3098393D01*
X6731812Y3097428D01*
X6717944Y3094685D01*
X6704482Y3090113D01*
X6691782Y3083864D01*
X6679996Y3075990D01*
X6669328Y3066643D01*
X6659981Y3055975D01*
X6652107Y3044190D01*
X6647484Y3034792D01*
X6645198Y3031794D01*
X6642049Y3029813D01*
X6638340Y3029153D01*
X6360515Y3030220D01*
X6356451Y3031083D01*
X6353098Y3033471D01*
X6350965Y3037027D01*
X6350355Y3038703D01*
X6343802Y3051911D01*
X6335623Y3064205D01*
X6326022Y3075432D01*
X6315151Y3085388D01*
X6303111Y3093923D01*
X6290106Y3100882D01*
X6276340Y3106216D01*
X6262014Y3109823D01*
X6247384Y3111652D01*
X6232601Y3111652D01*
X6217970Y3109823D01*
X6203645Y3106216D01*
X6189878Y3100882D01*
X6176873Y3093923D01*
X6164834Y3085388D01*
X6153912Y3075432D01*
X6144310Y3064205D01*
X6136182Y3051911D01*
X6129578Y3038703D01*
X6124702Y3024784D01*
X6121552Y3010357D01*
X6120180Y2995676D01*
X6120638Y2980944D01*
X6122873Y2966364D01*
X6126937Y2952140D01*
X6132677Y2938576D01*
X6140043Y2925775D01*
X6148933Y2913989D01*
X6159246Y2903423D01*
X6170726Y2894177D01*
X6183274Y2886405D01*
X6196685Y2880207D01*
X6210757Y2875737D01*
X6225235Y2873044D01*
G37*
G36*
X7435951Y2881630D02*
G01*
X7450124Y2882544D01*
X7464044Y2885287D01*
X7477455Y2889859D01*
X7490155Y2896108D01*
X7501940Y2903982D01*
X7512608Y2913329D01*
X7521956Y2923997D01*
X7529830Y2935782D01*
X7536129Y2948533D01*
X7540650Y2961944D01*
X7543444Y2975864D01*
X7544358Y2989986D01*
X7543444Y3004159D01*
X7540650Y3018028D01*
X7536129Y3031490D01*
X7529830Y3044190D01*
X7521956Y3055975D01*
X7512608Y3066643D01*
X7501940Y3075990D01*
X7490155Y3083864D01*
X7477455Y3090113D01*
X7464044Y3094685D01*
X7450124Y3097428D01*
X7435951Y3098393D01*
X7421829Y3097428D01*
X7407909Y3094685D01*
X7394498Y3090113D01*
X7381798Y3083864D01*
X7370013Y3075990D01*
X7359345Y3066643D01*
X7349998Y3055975D01*
X7342124Y3044190D01*
X7335824Y3031490D01*
X7331303Y3018028D01*
X7328509Y3004159D01*
X7327595Y2989986D01*
X7328509Y2975864D01*
X7331303Y2961944D01*
X7335824Y2948533D01*
X7342124Y2935782D01*
X7349998Y2923997D01*
X7359345Y2913329D01*
X7370013Y2903982D01*
X7381798Y2896108D01*
X7394498Y2889859D01*
X7407909Y2885287D01*
X7421829Y2882544D01*
G37*
G36*
X7047585Y2892856D02*
G01*
X7054189Y2896108D01*
X7065975Y2903982D01*
X7076592Y2913329D01*
X7085939Y2923997D01*
X7093864Y2935782D01*
X7097115Y2942386D01*
X7047585Y2942386D01*
G37*
G36*
X6952386Y2892856D02*
G01*
X6952386Y2942386D01*
X6902856Y2942386D01*
X6906107Y2935782D01*
X6913981Y2923997D01*
X6923328Y2913329D01*
X6933996Y2903982D01*
X6945782Y2896108D01*
G37*
G36*
X7047585Y3037586D02*
G01*
X7097115Y3037586D01*
X7093864Y3044190D01*
X7085939Y3055975D01*
X7076592Y3066643D01*
X7065975Y3075990D01*
X7054189Y3083864D01*
X7047585Y3087116D01*
G37*
G36*
X6902856Y3037586D02*
G01*
X6952386Y3037586D01*
X6952386Y3087116D01*
X6945782Y3083864D01*
X6933996Y3075990D01*
X6923328Y3066643D01*
X6913981Y3055975D01*
X6906107Y3044190D01*
G37*
G36*
X6488480Y3721404D02*
G01*
X7919466Y3721404D01*
X7927492Y3722166D01*
X7934756Y3724351D01*
X7941411Y3727907D01*
X7947659Y3733037D01*
X8393023Y4178401D01*
X8396274Y4180586D01*
X8400186Y4181398D01*
X10539780Y4181398D01*
X10543641Y4180586D01*
X10546943Y4178401D01*
X10710672Y4014724D01*
X10712856Y4011472D01*
X10713618Y4007713D01*
X10712958Y4003903D01*
X10710926Y4000601D01*
X10707827Y3998315D01*
X10706150Y3997553D01*
X10693857Y3989730D01*
X10682630Y3980484D01*
X10672673Y3969867D01*
X10664139Y3958082D01*
X10657128Y3945331D01*
X10651744Y3931818D01*
X10648137Y3917696D01*
X10646308Y3903268D01*
X10646308Y3888689D01*
X10648137Y3874262D01*
X10651744Y3860190D01*
X10657128Y3846626D01*
X10664139Y3833876D01*
X10672673Y3822141D01*
X10682630Y3811524D01*
X10693857Y3802227D01*
X10706150Y3794455D01*
X10719308Y3788257D01*
X10733176Y3783736D01*
X10747451Y3780993D01*
X10761980Y3780078D01*
X10776508Y3780993D01*
X10790783Y3783736D01*
X10804652Y3788257D01*
X10817809Y3794455D01*
X10830102Y3802227D01*
X10841329Y3811524D01*
X10851286Y3822141D01*
X10859820Y3833876D01*
X10866831Y3846626D01*
X10872216Y3860190D01*
X10875822Y3874262D01*
X10877651Y3888689D01*
X10877651Y3903268D01*
X10875822Y3917696D01*
X10872216Y3931818D01*
X10866831Y3945331D01*
X10859820Y3958082D01*
X10851286Y3969867D01*
X10841329Y3980484D01*
X10830102Y3989730D01*
X10817809Y3997553D01*
X10806430Y4002887D01*
X10803331Y4005122D01*
X10801299Y4008374D01*
X10800588Y4012082D01*
X10800588Y4017518D01*
X10799775Y4025493D01*
X10797590Y4032758D01*
X10794034Y4039412D01*
X10788904Y4045661D01*
X10587634Y4246930D01*
X10581386Y4252061D01*
X10574731Y4255617D01*
X10567517Y4257802D01*
X10559491Y4258614D01*
X8380475Y4258614D01*
X8372449Y4257802D01*
X8365236Y4255617D01*
X8358581Y4252061D01*
X8352332Y4246930D01*
X7906969Y3801567D01*
X7903667Y3799382D01*
X7899806Y3798620D01*
X6508191Y3798620D01*
X6504330Y3799382D01*
X6501028Y3801567D01*
X6352336Y3950258D01*
X6350152Y3953560D01*
X6349390Y3957472D01*
X6350203Y3961384D01*
X6353048Y3968140D01*
X6357061Y3982364D01*
X6359347Y3996944D01*
X6359804Y4011676D01*
X6358432Y4026357D01*
X6355283Y4040784D01*
X6350355Y4054703D01*
X6343802Y4067911D01*
X6335623Y4080205D01*
X6326022Y4091432D01*
X6315151Y4101388D01*
X6303111Y4109923D01*
X6290106Y4116882D01*
X6276340Y4122216D01*
X6262014Y4125823D01*
X6247384Y4127652D01*
X6232601Y4127652D01*
X6217970Y4125823D01*
X6203645Y4122216D01*
X6189878Y4116882D01*
X6176873Y4109923D01*
X6164834Y4101388D01*
X6153912Y4091432D01*
X6144310Y4080205D01*
X6136182Y4067911D01*
X6129578Y4054703D01*
X6124702Y4040784D01*
X6121552Y4026357D01*
X6120180Y4011676D01*
X6120638Y3996944D01*
X6122873Y3982364D01*
X6126937Y3968140D01*
X6132677Y3954576D01*
X6140043Y3941775D01*
X6148933Y3929989D01*
X6159246Y3919423D01*
X6170726Y3910177D01*
X6183274Y3902405D01*
X6196685Y3896207D01*
X6210757Y3891737D01*
X6225235Y3889044D01*
X6239967Y3888130D01*
X6254699Y3889044D01*
X6269228Y3891737D01*
X6283299Y3896207D01*
X6286398Y3897629D01*
X6290360Y3898544D01*
X6294374Y3897833D01*
X6297828Y3895598D01*
X6460337Y3733037D01*
X6466586Y3727907D01*
X6473240Y3724351D01*
X6480505Y3722166D01*
G37*
G36*
X10253980Y3780078D02*
G01*
X10268508Y3780993D01*
X10282783Y3783736D01*
X10296652Y3788257D01*
X10309809Y3794455D01*
X10322102Y3802227D01*
X10333329Y3811524D01*
X10343286Y3822141D01*
X10351820Y3833876D01*
X10358831Y3846626D01*
X10364216Y3860190D01*
X10367822Y3874262D01*
X10369651Y3888689D01*
X10369651Y3903268D01*
X10367822Y3917696D01*
X10364216Y3931818D01*
X10358831Y3945331D01*
X10351820Y3958082D01*
X10343286Y3969867D01*
X10333329Y3980484D01*
X10322102Y3989730D01*
X10309809Y3997553D01*
X10296652Y4003751D01*
X10282783Y4008221D01*
X10268508Y4010964D01*
X10253980Y4011879D01*
X10239451Y4010964D01*
X10225176Y4008221D01*
X10211308Y4003751D01*
X10198150Y3997553D01*
X10185857Y3989730D01*
X10174630Y3980484D01*
X10164673Y3969867D01*
X10156139Y3958082D01*
X10149128Y3945331D01*
X10143744Y3931818D01*
X10140137Y3917696D01*
X10138308Y3903268D01*
X10138308Y3888689D01*
X10140137Y3874262D01*
X10143744Y3860190D01*
X10149128Y3846626D01*
X10156139Y3833876D01*
X10164673Y3822141D01*
X10174630Y3811524D01*
X10185857Y3802227D01*
X10198150Y3794455D01*
X10211308Y3788257D01*
X10225176Y3783736D01*
X10239451Y3780993D01*
G37*
G36*
X9999980Y3780078D02*
G01*
X10014508Y3780993D01*
X10028783Y3783736D01*
X10042652Y3788257D01*
X10055809Y3794455D01*
X10068102Y3802227D01*
X10079329Y3811524D01*
X10089286Y3822141D01*
X10097820Y3833876D01*
X10104831Y3846626D01*
X10110216Y3860190D01*
X10113822Y3874262D01*
X10115651Y3888689D01*
X10115651Y3903268D01*
X10113822Y3917696D01*
X10110216Y3931818D01*
X10104831Y3945331D01*
X10097820Y3958082D01*
X10089286Y3969867D01*
X10079329Y3980484D01*
X10068102Y3989730D01*
X10055809Y3997553D01*
X10042652Y4003751D01*
X10028783Y4008221D01*
X10014508Y4010964D01*
X9999980Y4011879D01*
X9985451Y4010964D01*
X9971176Y4008221D01*
X9957308Y4003751D01*
X9944150Y3997553D01*
X9931857Y3989730D01*
X9920630Y3980484D01*
X9910673Y3969867D01*
X9902139Y3958082D01*
X9895128Y3945331D01*
X9889744Y3931818D01*
X9886137Y3917696D01*
X9884308Y3903268D01*
X9884308Y3888689D01*
X9886137Y3874262D01*
X9889744Y3860190D01*
X9895128Y3846626D01*
X9902139Y3833876D01*
X9910673Y3822141D01*
X9920630Y3811524D01*
X9931857Y3802227D01*
X9944150Y3794455D01*
X9957308Y3788257D01*
X9971176Y3783736D01*
X9985451Y3780993D01*
G37*
G36*
X11777980Y3780078D02*
G01*
X11792508Y3780993D01*
X11806783Y3783736D01*
X11820652Y3788257D01*
X11833809Y3794455D01*
X11846102Y3802227D01*
X11857329Y3811524D01*
X11867286Y3822141D01*
X11875820Y3833876D01*
X11882831Y3846626D01*
X11888216Y3860190D01*
X11891822Y3874262D01*
X11893651Y3888689D01*
X11893651Y3903268D01*
X11891822Y3917696D01*
X11888216Y3931818D01*
X11882831Y3945331D01*
X11875820Y3958082D01*
X11867286Y3969867D01*
X11857329Y3980484D01*
X11846102Y3989730D01*
X11833809Y3997553D01*
X11820652Y4003751D01*
X11806783Y4008221D01*
X11792508Y4010964D01*
X11777980Y4011879D01*
X11763451Y4010964D01*
X11749176Y4008221D01*
X11735308Y4003751D01*
X11722150Y3997553D01*
X11709857Y3989730D01*
X11698630Y3980484D01*
X11688673Y3969867D01*
X11680139Y3958082D01*
X11673128Y3945331D01*
X11667744Y3931818D01*
X11664137Y3917696D01*
X11662308Y3903268D01*
X11662308Y3888689D01*
X11664137Y3874262D01*
X11667744Y3860190D01*
X11673128Y3846626D01*
X11680139Y3833876D01*
X11688673Y3822141D01*
X11698630Y3811524D01*
X11709857Y3802227D01*
X11722150Y3794455D01*
X11735308Y3788257D01*
X11749176Y3783736D01*
X11763451Y3780993D01*
G37*
G36*
X10507980Y3780078D02*
G01*
X10522508Y3780993D01*
X10536783Y3783736D01*
X10550652Y3788257D01*
X10563809Y3794455D01*
X10576102Y3802227D01*
X10587329Y3811524D01*
X10597286Y3822141D01*
X10605820Y3833876D01*
X10612831Y3846626D01*
X10618216Y3860190D01*
X10621822Y3874262D01*
X10623651Y3888689D01*
X10623651Y3903268D01*
X10621822Y3917696D01*
X10618216Y3931818D01*
X10612831Y3945331D01*
X10605820Y3958082D01*
X10597286Y3969867D01*
X10587329Y3980484D01*
X10576102Y3989730D01*
X10563809Y3997553D01*
X10550652Y4003751D01*
X10536783Y4008221D01*
X10522508Y4010964D01*
X10507980Y4011879D01*
X10493451Y4010964D01*
X10479176Y4008221D01*
X10465308Y4003751D01*
X10452150Y3997553D01*
X10439857Y3989730D01*
X10428630Y3980484D01*
X10418673Y3969867D01*
X10410139Y3958082D01*
X10403128Y3945331D01*
X10397744Y3931818D01*
X10394137Y3917696D01*
X10392308Y3903268D01*
X10392308Y3888689D01*
X10394137Y3874262D01*
X10397744Y3860190D01*
X10403128Y3846626D01*
X10410139Y3833876D01*
X10418673Y3822141D01*
X10428630Y3811524D01*
X10439857Y3802227D01*
X10452150Y3794455D01*
X10465308Y3788257D01*
X10479176Y3783736D01*
X10493451Y3780993D01*
G37*
G36*
X11015980Y3780078D02*
G01*
X11030508Y3780993D01*
X11044783Y3783736D01*
X11058652Y3788257D01*
X11071809Y3794455D01*
X11084102Y3802227D01*
X11095329Y3811524D01*
X11105286Y3822141D01*
X11113820Y3833876D01*
X11120831Y3846626D01*
X11126216Y3860190D01*
X11129822Y3874262D01*
X11131651Y3888689D01*
X11131651Y3903268D01*
X11129822Y3917696D01*
X11126216Y3931818D01*
X11120577Y3945940D01*
X11119866Y3949801D01*
X11120678Y3953662D01*
X11122914Y3956913D01*
X11126216Y3959098D01*
X11130076Y3959860D01*
X11133937Y3959047D01*
X11137239Y3956862D01*
X11156188Y3937914D01*
X11158169Y3935069D01*
X11159134Y3931665D01*
X11158829Y3928211D01*
X11156137Y3917696D01*
X11154308Y3903268D01*
X11154308Y3888689D01*
X11156137Y3874262D01*
X11159744Y3860190D01*
X11165128Y3846626D01*
X11172139Y3833876D01*
X11180673Y3822141D01*
X11190630Y3811524D01*
X11201857Y3802227D01*
X11214150Y3794455D01*
X11227308Y3788257D01*
X11241176Y3783736D01*
X11255451Y3780993D01*
X11269980Y3780078D01*
X11284508Y3780993D01*
X11298783Y3783736D01*
X11312652Y3788257D01*
X11325809Y3794455D01*
X11338102Y3802227D01*
X11349329Y3811524D01*
X11359286Y3822141D01*
X11367820Y3833876D01*
X11374831Y3846626D01*
X11380216Y3860190D01*
X11383822Y3874262D01*
X11385651Y3888689D01*
X11385651Y3903268D01*
X11383822Y3917696D01*
X11380216Y3931818D01*
X11374831Y3945331D01*
X11367820Y3958082D01*
X11359286Y3969867D01*
X11349329Y3980484D01*
X11338102Y3989730D01*
X11325809Y3997553D01*
X11312652Y4003751D01*
X11298783Y4008221D01*
X11284508Y4010964D01*
X11269980Y4011879D01*
X11255451Y4010964D01*
X11241176Y4008221D01*
X11238534Y4007408D01*
X11234877Y4006900D01*
X11231270Y4007764D01*
X11228222Y4009847D01*
X10782147Y4455972D01*
X10778693Y4459122D01*
X10775188Y4461814D01*
X10771428Y4464202D01*
X10767466Y4466234D01*
X10763402Y4467961D01*
X10759135Y4469282D01*
X10754817Y4470247D01*
X10750397Y4470806D01*
X10745774Y4471009D01*
X9679736Y4470908D01*
X9676739Y4471365D01*
X9673996Y4472686D01*
X9671761Y4474819D01*
X9334804Y4905756D01*
X9333128Y4909007D01*
X9332671Y4912614D01*
X9333534Y4916170D01*
X9337700Y4925364D01*
X9342221Y4939893D01*
X9344964Y4954828D01*
X9345879Y4970018D01*
X9344964Y4985156D01*
X9342221Y5000142D01*
X9337700Y5014620D01*
X9331452Y5028488D01*
X9323578Y5041493D01*
X9314230Y5053482D01*
X9303461Y5064252D01*
X9291472Y5073599D01*
X9278467Y5081473D01*
X9264650Y5087721D01*
X9250121Y5092242D01*
X9235135Y5094986D01*
X9219996Y5095900D01*
X9204807Y5094986D01*
X9189872Y5092242D01*
X9175343Y5087721D01*
X9161475Y5081473D01*
X9148470Y5073599D01*
X9136481Y5064252D01*
X9125762Y5053482D01*
X9116364Y5041493D01*
X9108490Y5028488D01*
X9107779Y5026863D01*
X9105544Y5023713D01*
X9102293Y5021630D01*
X9098534Y5020868D01*
X7673187Y5020868D01*
X7668514Y5020665D01*
X7664145Y5020106D01*
X7659776Y5019141D01*
X7655559Y5017820D01*
X7651445Y5016093D01*
X7647533Y5014061D01*
X7643774Y5011674D01*
X7640218Y5008981D01*
X7636814Y5005832D01*
X6933488Y4302455D01*
X6930847Y4300575D01*
X6927799Y4299610D01*
X6924598Y4299661D01*
X6913219Y4301540D01*
X6899554Y4301998D01*
X6885990Y4300677D01*
X6872731Y4297476D01*
X6860031Y4292600D01*
X6848043Y4286046D01*
X6837070Y4277969D01*
X6827266Y4268470D01*
X6818833Y4257751D01*
X6811873Y4246016D01*
X6806539Y4233468D01*
X6802932Y4220311D01*
X6801103Y4206798D01*
X6801103Y4193184D01*
X6802932Y4179671D01*
X6806539Y4166514D01*
X6811873Y4153966D01*
X6818833Y4142232D01*
X6827266Y4131513D01*
X6837070Y4122013D01*
X6848043Y4113936D01*
X6860031Y4107383D01*
X6872731Y4102506D01*
X6885990Y4099306D01*
X6899554Y4097985D01*
X6913219Y4098442D01*
X6926630Y4100677D01*
X6939686Y4104741D01*
X6952030Y4110482D01*
X6963562Y4117797D01*
X6973976Y4126585D01*
X6983120Y4136745D01*
X6990842Y4147972D01*
X6996988Y4160113D01*
X7001459Y4173016D01*
X7004151Y4186377D01*
X7005066Y4199991D01*
X7004151Y4213606D01*
X7002627Y4221175D01*
X7002475Y4224528D01*
X7003440Y4227677D01*
X7005370Y4230420D01*
X7604709Y4829708D01*
X7608011Y4831943D01*
X7611872Y4832705D01*
X7615783Y4831943D01*
X7619085Y4829708D01*
X7621270Y4826406D01*
X7622031Y4822545D01*
X7622031Y4461357D01*
X7621574Y4458309D01*
X7620253Y4455566D01*
X7618171Y4453331D01*
X7606487Y4444238D01*
X7595768Y4433468D01*
X7586370Y4421479D01*
X7578496Y4408474D01*
X7572298Y4394657D01*
X7567777Y4380128D01*
X7565034Y4365142D01*
X7564120Y4350004D01*
X7565034Y4334814D01*
X7567777Y4319879D01*
X7572298Y4305350D01*
X7578496Y4291482D01*
X7586370Y4278477D01*
X7595768Y4266488D01*
X7606487Y4255770D01*
X7618475Y4246372D01*
X7631480Y4238498D01*
X7645349Y4232300D01*
X7659878Y4227779D01*
X7674813Y4225036D01*
X7690002Y4224121D01*
X7705140Y4225036D01*
X7720126Y4227779D01*
X7734604Y4232300D01*
X7748473Y4238498D01*
X7761478Y4246372D01*
X7773466Y4255770D01*
X7784236Y4266488D01*
X7793583Y4278477D01*
X7801457Y4291482D01*
X7807706Y4305401D01*
X7812227Y4319879D01*
X7814970Y4334814D01*
X7815884Y4350004D01*
X7814970Y4365142D01*
X7812227Y4380128D01*
X7807706Y4394555D01*
X7801457Y4408474D01*
X7793583Y4421479D01*
X7784236Y4433468D01*
X7773466Y4444238D01*
X7761478Y4453585D01*
X7748473Y4461459D01*
X7734604Y4467707D01*
X7730998Y4468825D01*
X7727289Y4470908D01*
X7724749Y4474362D01*
X7723886Y4478528D01*
X7723886Y4908905D01*
X7724648Y4912817D01*
X7726832Y4916068D01*
X7730134Y4918303D01*
X7734046Y4919065D01*
X9098534Y4919065D01*
X9102344Y4918354D01*
X9105595Y4916220D01*
X9116364Y4898491D01*
X9125762Y4886502D01*
X9136481Y4875784D01*
X9148470Y4866386D01*
X9161475Y4858512D01*
X9175343Y4852314D01*
X9189872Y4847793D01*
X9204807Y4845050D01*
X9219996Y4844135D01*
X9235135Y4845050D01*
X9244736Y4846777D01*
X9248444Y4846777D01*
X9251848Y4845507D01*
X9254591Y4843068D01*
X9610750Y4387545D01*
X9617303Y4381042D01*
X9624568Y4375912D01*
X9632594Y4372203D01*
X9641128Y4369917D01*
X9650425Y4369104D01*
X10720679Y4369206D01*
X10724591Y4368444D01*
X10727893Y4366209D01*
X11077397Y4016705D01*
X11079581Y4013352D01*
X11080343Y4009390D01*
X11079480Y4005478D01*
X11077194Y4002176D01*
X11073739Y4000042D01*
X11069777Y3999382D01*
X11065865Y4000347D01*
X11058652Y4003751D01*
X11044783Y4008221D01*
X11030508Y4010964D01*
X11015980Y4011879D01*
X11001451Y4010964D01*
X10987176Y4008221D01*
X10973308Y4003751D01*
X10960150Y3997553D01*
X10947857Y3989730D01*
X10936630Y3980484D01*
X10926673Y3969867D01*
X10918139Y3958082D01*
X10911128Y3945331D01*
X10905744Y3931818D01*
X10902137Y3917696D01*
X10900308Y3903268D01*
X10900308Y3888689D01*
X10902137Y3874262D01*
X10905744Y3860190D01*
X10911128Y3846626D01*
X10918139Y3833876D01*
X10926673Y3822141D01*
X10936630Y3811524D01*
X10947857Y3802227D01*
X10960150Y3794455D01*
X10973308Y3788257D01*
X10987176Y3783736D01*
X11001451Y3780993D01*
G37*
G36*
X11472621Y3792321D02*
G01*
X11472621Y3844645D01*
X11420246Y3844645D01*
X11426139Y3833876D01*
X11434673Y3822141D01*
X11444630Y3811524D01*
X11455857Y3802227D01*
X11468150Y3794455D01*
G37*
G36*
X11575338Y3792321D02*
G01*
X11579809Y3794455D01*
X11592102Y3802227D01*
X11603329Y3811524D01*
X11613286Y3822141D01*
X11621820Y3833876D01*
X11627713Y3844645D01*
X11575338Y3844645D01*
G37*
G36*
X11420246Y3947363D02*
G01*
X11472621Y3947363D01*
X11472621Y3999636D01*
X11468150Y3997553D01*
X11455857Y3989730D01*
X11444630Y3980484D01*
X11434673Y3969867D01*
X11426139Y3958082D01*
G37*
G36*
X11575338Y3947363D02*
G01*
X11627713Y3947363D01*
X11621820Y3958082D01*
X11613286Y3969867D01*
X11603329Y3980484D01*
X11592102Y3989730D01*
X11579809Y3997553D01*
X11575338Y3999636D01*
G37*
G36*
X7112558Y4108196D02*
G01*
X7112558Y4155541D01*
X7065213Y4155541D01*
X7065873Y4153966D01*
X7072833Y4142232D01*
X7081266Y4131513D01*
X7091070Y4122013D01*
X7102043Y4113936D01*
G37*
G36*
X7201458Y4108348D02*
G01*
X7206030Y4110482D01*
X7217562Y4117797D01*
X7227976Y4126585D01*
X7237120Y4136745D01*
X7244842Y4147972D01*
X7248652Y4155541D01*
X7201458Y4155541D01*
G37*
G36*
X8000339Y4237532D02*
G01*
X8002473Y4238498D01*
X8015478Y4246372D01*
X8027466Y4255770D01*
X8038236Y4266488D01*
X8047583Y4278477D01*
X8055457Y4291482D01*
X8056422Y4293616D01*
X8000339Y4293616D01*
G37*
G36*
X7887614Y4237532D02*
G01*
X7887614Y4293616D01*
X7831531Y4293616D01*
X7832496Y4291482D01*
X7840370Y4278477D01*
X7849768Y4266488D01*
X7860487Y4255770D01*
X7872475Y4246372D01*
X7885480Y4238498D01*
G37*
G36*
X7201458Y4244441D02*
G01*
X7248652Y4244441D01*
X7244842Y4252010D01*
X7237120Y4263237D01*
X7227976Y4273397D01*
X7217562Y4282186D01*
X7206030Y4289501D01*
X7201458Y4291634D01*
G37*
G36*
X7065213Y4244441D02*
G01*
X7112558Y4244441D01*
X7112558Y4291787D01*
X7102043Y4286046D01*
X7091070Y4277969D01*
X7081266Y4268470D01*
X7072833Y4257751D01*
X7065873Y4246016D01*
G37*
G36*
X7831531Y4406341D02*
G01*
X7887614Y4406341D01*
X7887614Y4462424D01*
X7885480Y4461459D01*
X7872475Y4453585D01*
X7860487Y4444238D01*
X7849768Y4433468D01*
X7840370Y4421479D01*
X7832496Y4408474D01*
G37*
G36*
X8000339Y4406341D02*
G01*
X8056422Y4406341D01*
X8055457Y4408474D01*
X8047583Y4421479D01*
X8038236Y4433468D01*
X8027466Y4444238D01*
X8015478Y4453585D01*
X8002473Y4461459D01*
X8000339Y4462424D01*
G37*
G36*
X11269980Y5304078D02*
G01*
X11284508Y5304993D01*
X11298783Y5307736D01*
X11312652Y5312257D01*
X11325809Y5318455D01*
X11338102Y5326227D01*
X11349329Y5335524D01*
X11359286Y5346141D01*
X11367820Y5357876D01*
X11374831Y5370626D01*
X11380216Y5384190D01*
X11383822Y5398262D01*
X11385651Y5412689D01*
X11385651Y5427268D01*
X11383822Y5441696D01*
X11380216Y5455818D01*
X11374831Y5469331D01*
X11367820Y5482082D01*
X11359286Y5493867D01*
X11349329Y5504484D01*
X11338102Y5513730D01*
X11325809Y5521553D01*
X11312652Y5527751D01*
X11298783Y5532221D01*
X11284508Y5534964D01*
X11269980Y5535879D01*
X11255451Y5534964D01*
X11241176Y5532221D01*
X11227308Y5527751D01*
X11214150Y5521553D01*
X11201857Y5513730D01*
X11190630Y5504484D01*
X11180673Y5493867D01*
X11172139Y5482082D01*
X11165128Y5469331D01*
X11159744Y5455818D01*
X11156137Y5441696D01*
X11154308Y5427268D01*
X11154308Y5412689D01*
X11156137Y5398262D01*
X11159744Y5384190D01*
X11165128Y5370626D01*
X11172139Y5357876D01*
X11180673Y5346141D01*
X11190630Y5335524D01*
X11201857Y5326227D01*
X11214150Y5318455D01*
X11227308Y5312257D01*
X11241176Y5307736D01*
X11255451Y5304993D01*
G37*
G36*
X11523980Y5304078D02*
G01*
X11538508Y5304993D01*
X11552783Y5307736D01*
X11566652Y5312257D01*
X11579809Y5318455D01*
X11592102Y5326227D01*
X11603329Y5335524D01*
X11613286Y5346141D01*
X11621820Y5357876D01*
X11628831Y5370626D01*
X11634216Y5384190D01*
X11637822Y5398262D01*
X11639651Y5412689D01*
X11639651Y5427268D01*
X11637822Y5441696D01*
X11634216Y5455818D01*
X11628831Y5469331D01*
X11621820Y5482082D01*
X11613286Y5493867D01*
X11603329Y5504484D01*
X11592102Y5513730D01*
X11579809Y5521553D01*
X11566652Y5527751D01*
X11552783Y5532221D01*
X11538508Y5534964D01*
X11523980Y5535879D01*
X11509451Y5534964D01*
X11495176Y5532221D01*
X11481308Y5527751D01*
X11468150Y5521553D01*
X11455857Y5513730D01*
X11444630Y5504484D01*
X11434673Y5493867D01*
X11426139Y5482082D01*
X11419128Y5469331D01*
X11413744Y5455818D01*
X11410137Y5441696D01*
X11408308Y5427268D01*
X11408308Y5412689D01*
X11410137Y5398262D01*
X11413744Y5384190D01*
X11419128Y5370626D01*
X11426139Y5357876D01*
X11434673Y5346141D01*
X11444630Y5335524D01*
X11455857Y5326227D01*
X11468150Y5318455D01*
X11481308Y5312257D01*
X11495176Y5307736D01*
X11509451Y5304993D01*
G37*
G36*
X10253980Y5304078D02*
G01*
X10268508Y5304993D01*
X10282783Y5307736D01*
X10296652Y5312257D01*
X10309809Y5318455D01*
X10322102Y5326227D01*
X10333329Y5335524D01*
X10343286Y5346141D01*
X10351820Y5357876D01*
X10358831Y5370626D01*
X10364216Y5384190D01*
X10367822Y5398262D01*
X10369651Y5412689D01*
X10369651Y5427268D01*
X10367822Y5441696D01*
X10364216Y5455818D01*
X10358831Y5469331D01*
X10351820Y5482082D01*
X10343286Y5493867D01*
X10333329Y5504484D01*
X10322102Y5513730D01*
X10309809Y5521553D01*
X10296652Y5527751D01*
X10282783Y5532221D01*
X10268508Y5534964D01*
X10253980Y5535879D01*
X10239451Y5534964D01*
X10225176Y5532221D01*
X10211308Y5527751D01*
X10198150Y5521553D01*
X10185857Y5513730D01*
X10174630Y5504484D01*
X10164673Y5493867D01*
X10156139Y5482082D01*
X10149128Y5469331D01*
X10143744Y5455818D01*
X10140137Y5441696D01*
X10138308Y5427268D01*
X10138308Y5412689D01*
X10140137Y5398262D01*
X10143744Y5384190D01*
X10149128Y5370626D01*
X10156139Y5357876D01*
X10164673Y5346141D01*
X10174630Y5335524D01*
X10185857Y5326227D01*
X10198150Y5318455D01*
X10211308Y5312257D01*
X10225176Y5307736D01*
X10239451Y5304993D01*
G37*
G36*
X10507980Y5304078D02*
G01*
X10522508Y5304993D01*
X10536783Y5307736D01*
X10550652Y5312257D01*
X10563809Y5318455D01*
X10576102Y5326227D01*
X10587329Y5335524D01*
X10597286Y5346141D01*
X10605820Y5357876D01*
X10612831Y5370626D01*
X10618216Y5384190D01*
X10621822Y5398262D01*
X10623651Y5412689D01*
X10623651Y5427268D01*
X10621822Y5441696D01*
X10618216Y5455818D01*
X10612831Y5469331D01*
X10605820Y5482082D01*
X10597286Y5493867D01*
X10587329Y5504484D01*
X10576102Y5513730D01*
X10563809Y5521553D01*
X10550652Y5527751D01*
X10536783Y5532221D01*
X10522508Y5534964D01*
X10507980Y5535879D01*
X10493451Y5534964D01*
X10479176Y5532221D01*
X10465308Y5527751D01*
X10452150Y5521553D01*
X10439857Y5513730D01*
X10428630Y5504484D01*
X10418673Y5493867D01*
X10410139Y5482082D01*
X10403128Y5469331D01*
X10397744Y5455818D01*
X10394137Y5441696D01*
X10392308Y5427268D01*
X10392308Y5412689D01*
X10394137Y5398262D01*
X10397744Y5384190D01*
X10403128Y5370626D01*
X10410139Y5357876D01*
X10418673Y5346141D01*
X10428630Y5335524D01*
X10439857Y5326227D01*
X10452150Y5318455D01*
X10465308Y5312257D01*
X10479176Y5307736D01*
X10493451Y5304993D01*
G37*
G36*
X9999980Y5304078D02*
G01*
X10014508Y5304993D01*
X10028783Y5307736D01*
X10042652Y5312257D01*
X10055809Y5318455D01*
X10068102Y5326227D01*
X10079329Y5335524D01*
X10089286Y5346141D01*
X10097820Y5357876D01*
X10104831Y5370626D01*
X10110216Y5384190D01*
X10113822Y5398262D01*
X10115651Y5412689D01*
X10115651Y5427268D01*
X10113822Y5441696D01*
X10110216Y5455818D01*
X10104831Y5469331D01*
X10097820Y5482082D01*
X10089286Y5493867D01*
X10079329Y5504484D01*
X10068102Y5513730D01*
X10055809Y5521553D01*
X10042652Y5527751D01*
X10028783Y5532221D01*
X10014508Y5534964D01*
X9999980Y5535879D01*
X9985451Y5534964D01*
X9971176Y5532221D01*
X9957308Y5527751D01*
X9944150Y5521553D01*
X9931857Y5513730D01*
X9920630Y5504484D01*
X9910673Y5493867D01*
X9902139Y5482082D01*
X9895128Y5469331D01*
X9889744Y5455818D01*
X9886137Y5441696D01*
X9884308Y5427268D01*
X9884308Y5412689D01*
X9886137Y5398262D01*
X9889744Y5384190D01*
X9895128Y5370626D01*
X9902139Y5357876D01*
X9910673Y5346141D01*
X9920630Y5335524D01*
X9931857Y5326227D01*
X9944150Y5318455D01*
X9957308Y5312257D01*
X9971176Y5307736D01*
X9985451Y5304993D01*
G37*
G36*
X11777980Y5304078D02*
G01*
X11792508Y5304993D01*
X11806783Y5307736D01*
X11820652Y5312257D01*
X11833809Y5318455D01*
X11846102Y5326227D01*
X11857329Y5335524D01*
X11867286Y5346141D01*
X11875820Y5357876D01*
X11882831Y5370626D01*
X11888216Y5384190D01*
X11891822Y5398262D01*
X11893651Y5412689D01*
X11893651Y5427268D01*
X11891822Y5441696D01*
X11888216Y5455818D01*
X11882831Y5469331D01*
X11875820Y5482082D01*
X11867286Y5493867D01*
X11857329Y5504484D01*
X11846102Y5513730D01*
X11833809Y5521553D01*
X11820652Y5527751D01*
X11806783Y5532221D01*
X11792508Y5534964D01*
X11777980Y5535879D01*
X11763451Y5534964D01*
X11749176Y5532221D01*
X11735308Y5527751D01*
X11722150Y5521553D01*
X11709857Y5513730D01*
X11698630Y5504484D01*
X11688673Y5493867D01*
X11680139Y5482082D01*
X11673128Y5469331D01*
X11667744Y5455818D01*
X11664137Y5441696D01*
X11662308Y5427268D01*
X11662308Y5412689D01*
X11664137Y5398262D01*
X11667744Y5384190D01*
X11673128Y5370626D01*
X11680139Y5357876D01*
X11688673Y5346141D01*
X11698630Y5335524D01*
X11709857Y5326227D01*
X11722150Y5318455D01*
X11735308Y5312257D01*
X11749176Y5307736D01*
X11763451Y5304993D01*
G37*
G36*
X11015980Y5304078D02*
G01*
X11030508Y5304993D01*
X11044783Y5307736D01*
X11058652Y5312257D01*
X11071809Y5318455D01*
X11084102Y5326227D01*
X11095329Y5335524D01*
X11105286Y5346141D01*
X11113820Y5357876D01*
X11120831Y5370626D01*
X11126216Y5384190D01*
X11129822Y5398262D01*
X11131651Y5412689D01*
X11131651Y5427268D01*
X11129822Y5441696D01*
X11126216Y5455818D01*
X11120831Y5469331D01*
X11113820Y5482082D01*
X11105286Y5493867D01*
X11095329Y5504484D01*
X11084102Y5513730D01*
X11071809Y5521553D01*
X11058652Y5527751D01*
X11044783Y5532221D01*
X11030508Y5534964D01*
X11015980Y5535879D01*
X11001451Y5534964D01*
X10987176Y5532221D01*
X10973308Y5527751D01*
X10960150Y5521553D01*
X10947857Y5513730D01*
X10936630Y5504484D01*
X10926673Y5493867D01*
X10918139Y5482082D01*
X10911128Y5469331D01*
X10905744Y5455818D01*
X10902137Y5441696D01*
X10900308Y5427268D01*
X10900308Y5412689D01*
X10902137Y5398262D01*
X10905744Y5384190D01*
X10911128Y5370626D01*
X10918139Y5357876D01*
X10926673Y5346141D01*
X10936630Y5335524D01*
X10947857Y5326227D01*
X10960150Y5318455D01*
X10973308Y5312257D01*
X10987176Y5307736D01*
X11001451Y5304993D01*
G37*
G36*
X10761980Y5304078D02*
G01*
X10776508Y5304993D01*
X10790783Y5307736D01*
X10804652Y5312257D01*
X10817809Y5318455D01*
X10830102Y5326227D01*
X10841329Y5335524D01*
X10851286Y5346141D01*
X10859820Y5357876D01*
X10866831Y5370626D01*
X10872216Y5384190D01*
X10875822Y5398262D01*
X10877651Y5412689D01*
X10877651Y5427268D01*
X10875822Y5441696D01*
X10872216Y5455818D01*
X10866831Y5469331D01*
X10859820Y5482082D01*
X10851286Y5493867D01*
X10841329Y5504484D01*
X10830102Y5513730D01*
X10817809Y5521553D01*
X10804652Y5527751D01*
X10790783Y5532221D01*
X10776508Y5534964D01*
X10761980Y5535879D01*
X10747451Y5534964D01*
X10733176Y5532221D01*
X10719308Y5527751D01*
X10706150Y5521553D01*
X10693857Y5513730D01*
X10682630Y5504484D01*
X10672673Y5493867D01*
X10664139Y5482082D01*
X10657128Y5469331D01*
X10651744Y5455818D01*
X10648137Y5441696D01*
X10646308Y5427268D01*
X10646308Y5412689D01*
X10648137Y5398262D01*
X10651744Y5384190D01*
X10657128Y5370626D01*
X10664139Y5357876D01*
X10672673Y5346141D01*
X10682630Y5335524D01*
X10693857Y5326227D01*
X10706150Y5318455D01*
X10719308Y5312257D01*
X10733176Y5307736D01*
X10747451Y5304993D01*
G37*
G36*
X12084964Y6129121D02*
G01*
X12101880Y6130036D01*
X12118543Y6132880D01*
X12134799Y6137554D01*
X12150445Y6144056D01*
X12165228Y6152235D01*
X12179046Y6162040D01*
X12191644Y6173317D01*
X12202922Y6185916D01*
X12212726Y6199733D01*
X12220905Y6214516D01*
X12227407Y6230162D01*
X12232081Y6246418D01*
X12234926Y6263081D01*
X12235840Y6279997D01*
X12234926Y6296914D01*
X12232081Y6313576D01*
X12227407Y6329832D01*
X12220905Y6345478D01*
X12212726Y6360261D01*
X12202922Y6374079D01*
X12191644Y6386677D01*
X12179046Y6397955D01*
X12165228Y6407759D01*
X12150445Y6415938D01*
X12134799Y6422440D01*
X12118543Y6427114D01*
X12101880Y6429959D01*
X12084964Y6430873D01*
X12068098Y6429959D01*
X12051385Y6427114D01*
X12035129Y6422440D01*
X12019483Y6415938D01*
X12004700Y6407759D01*
X11990882Y6397955D01*
X11978284Y6386677D01*
X11967006Y6374079D01*
X11957202Y6360261D01*
X11949023Y6345478D01*
X11942572Y6329832D01*
X11937847Y6313576D01*
X11935053Y6296914D01*
X11934088Y6279997D01*
X11935053Y6263081D01*
X11937847Y6246418D01*
X11942572Y6230162D01*
X11949023Y6214516D01*
X11957202Y6199733D01*
X11967006Y6185916D01*
X11978284Y6173317D01*
X11990882Y6162040D01*
X12004700Y6152235D01*
X12019483Y6144056D01*
X12035129Y6137554D01*
X12051385Y6132880D01*
X12068098Y6130036D01*
G37*
G36*
X9894976Y6129121D02*
G01*
X9911842Y6130036D01*
X9928555Y6132880D01*
X9944811Y6137554D01*
X9960457Y6144056D01*
X9975240Y6152235D01*
X9989058Y6162040D01*
X10001656Y6173317D01*
X10012934Y6185916D01*
X10022738Y6199733D01*
X10030917Y6214516D01*
X10037419Y6230162D01*
X10042093Y6246418D01*
X10044938Y6263081D01*
X10045852Y6279997D01*
X10044938Y6296914D01*
X10042093Y6313576D01*
X10037419Y6329832D01*
X10030917Y6345478D01*
X10022738Y6360261D01*
X10012934Y6374079D01*
X10001656Y6386677D01*
X9989058Y6397955D01*
X9975240Y6407759D01*
X9960457Y6415938D01*
X9944811Y6422440D01*
X9928555Y6427114D01*
X9911842Y6429959D01*
X9894976Y6430873D01*
X9878060Y6429959D01*
X9861397Y6427114D01*
X9845141Y6422440D01*
X9829495Y6415938D01*
X9814712Y6407759D01*
X9800894Y6397955D01*
X9788296Y6386677D01*
X9777018Y6374079D01*
X9767214Y6360261D01*
X9759035Y6345478D01*
X9752533Y6329832D01*
X9747859Y6313576D01*
X9745014Y6296914D01*
X9744100Y6279997D01*
X9745014Y6263081D01*
X9747859Y6246418D01*
X9752533Y6230162D01*
X9759035Y6214516D01*
X9767214Y6199733D01*
X9777018Y6185916D01*
X9788296Y6173317D01*
X9800894Y6162040D01*
X9814712Y6152235D01*
X9829495Y6144056D01*
X9845141Y6137554D01*
X9861397Y6132880D01*
X9878060Y6130036D01*
G37*
G36*
X13605205Y6319113D02*
G01*
X13626185Y6320586D01*
X13646962Y6323888D01*
X13667333Y6329121D01*
X13687094Y6336131D01*
X13706195Y6344970D01*
X13724382Y6355486D01*
X13741552Y6367576D01*
X13757554Y6381242D01*
X13772286Y6396278D01*
X13785545Y6412534D01*
X13797280Y6430010D01*
X13807338Y6448450D01*
X13815720Y6467703D01*
X13822324Y6487668D01*
X13827048Y6508140D01*
X13829893Y6528968D01*
X13830858Y6549948D01*
X13829893Y6570980D01*
X13827048Y6591808D01*
X13822324Y6612280D01*
X13815720Y6632244D01*
X13807338Y6651498D01*
X13797280Y6669938D01*
X13785545Y6687362D01*
X13772286Y6703669D01*
X13757554Y6718706D01*
X13741552Y6732371D01*
X13724382Y6744462D01*
X13706195Y6754977D01*
X13687094Y6763816D01*
X13667333Y6770827D01*
X13646962Y6776059D01*
X13626185Y6779361D01*
X13605205Y6780834D01*
X13584224Y6780326D01*
X13563346Y6777939D01*
X13542772Y6773672D01*
X13522655Y6767525D01*
X13503198Y6759600D01*
X13484504Y6749948D01*
X13466826Y6738620D01*
X13450214Y6725716D01*
X13434872Y6711391D01*
X13420851Y6695694D01*
X13408355Y6678777D01*
X13397433Y6660845D01*
X13388187Y6641947D01*
X13380719Y6622338D01*
X13375030Y6602069D01*
X13371220Y6581394D01*
X13369290Y6560464D01*
X13369290Y6539484D01*
X13371220Y6518554D01*
X13375030Y6497878D01*
X13380719Y6477609D01*
X13388187Y6458000D01*
X13397433Y6439103D01*
X13408355Y6421170D01*
X13420851Y6404254D01*
X13434872Y6388557D01*
X13450214Y6374231D01*
X13466826Y6361328D01*
X13484504Y6350000D01*
X13503198Y6340348D01*
X13522655Y6332423D01*
X13542772Y6326276D01*
X13563346Y6322009D01*
X13584224Y6319621D01*
G37*
G36*
X9276334Y6397548D02*
G01*
X9278467Y6398514D01*
X9291472Y6406388D01*
X9303461Y6415786D01*
X9314230Y6426504D01*
X9323578Y6438493D01*
X9331452Y6451498D01*
X9332417Y6453632D01*
X9276334Y6453632D01*
G37*
G36*
X9163659Y6397548D02*
G01*
X9163659Y6453632D01*
X9107525Y6453632D01*
X9108490Y6451498D01*
X9116364Y6438493D01*
X9125762Y6426504D01*
X9136481Y6415786D01*
X9148470Y6406388D01*
X9161475Y6398514D01*
G37*
G36*
X9276334Y6566357D02*
G01*
X9332417Y6566357D01*
X9331452Y6568490D01*
X9323578Y6581495D01*
X9314230Y6593484D01*
X9303461Y6604253D01*
X9291472Y6613601D01*
X9278467Y6621475D01*
X9276334Y6622440D01*
G37*
G36*
X9107525Y6566357D02*
G01*
X9163659Y6566357D01*
X9163659Y6622440D01*
X9161475Y6621475D01*
X9148470Y6613601D01*
X9136481Y6604253D01*
X9125762Y6593484D01*
X9116364Y6581495D01*
X9108490Y6568490D01*
G37*

%LPD*%
D10*
X6229984Y1789988D02*
G01*
X5739942Y1789988D01*
X4970015Y1020061D01*
X3700015Y1020061D01*
X3299965Y620011D01*
X5550001Y1940001D02*
G01*
X5399994Y1940001D01*
X4699993Y1239997D01*
X3420008Y1239997D01*
X2799989Y619986D01*
D11*
X6860031Y620013D02*
G01*
X6470141Y230123D01*
X2759963Y230123D01*
X2540000Y450087D01*
X2540000Y3780028D01*
X3970020Y5210047D01*
D12*
X13089961Y688014D02*
G01*
X13041952Y688014D01*
X12819961Y909998D01*
X12819961Y2729992D01*
X13069968Y2979994D01*
X12329970Y678017D02*
G01*
X12281949Y678017D01*
X12019963Y940000D01*
X12019963Y2679999D01*
X12319962Y2979994D01*
X11539966Y678017D02*
G01*
X11471953Y678017D01*
X11239967Y909998D01*
X11239967Y2680004D01*
X11529959Y2969996D01*
X10759970Y668014D02*
G01*
X10651947Y668014D01*
X10439966Y879995D01*
X10439966Y2630004D01*
X10779963Y2969996D01*
X9989972Y668014D02*
G01*
X9931953Y668014D01*
X9709975Y889998D01*
X9709975Y2689989D01*
X9989982Y2969996D01*
X9229968Y668014D02*
G01*
X9211960Y668014D01*
X8999966Y879995D01*
X8999966Y2729992D01*
X9239976Y2969996D01*
X8459967Y2979994D02*
G01*
X8259968Y2779991D01*
X8259968Y868017D01*
X8459967Y668014D01*
X7690104Y2990087D02*
G01*
X7517891Y2818129D01*
X7517891Y860044D01*
X7709915Y668020D01*
D10*
X9219999Y4969972D02*
G01*
X7672959Y4969972D01*
X6902980Y4199994D01*
X7672959Y4969972D02*
G01*
X7672959Y4367004D01*
X7689984Y4349978D01*
D12*
X10761974Y3895979D02*
G01*
X10761974Y4017995D01*
X10559978Y4219991D01*
X8379983Y4219991D01*
X7919984Y3759992D01*
X6488003Y3759992D01*
X6239997Y4007998D01*
X6240018Y2992120D02*
G01*
X6745986Y2990087D01*
D10*
X11269979Y3896105D02*
G01*
X10745977Y4420107D01*
X9649980Y4419991D01*
X9219945Y4970018D01*
D13*
G01*
X6902983Y4199991D03*
G01*
X7156983Y4199991D03*
D14*
G01*
X7689977Y4349978D03*
G01*
X7943977Y4349978D03*
D15*
G01*
X7436002Y2990011D03*
G01*
X7690002Y2990011D03*
G01*
X8205977Y2980004D03*
G01*
X8459977Y2980004D03*
G01*
X8985986Y2969996D03*
G01*
X9239986Y2969996D03*
G01*
X9735997Y2969996D03*
G01*
X9989997Y2969996D03*
G01*
X10525963Y2969996D03*
G01*
X10779963Y2969996D03*
G01*
X11275974Y2969996D03*
G01*
X11529974Y2969996D03*
G01*
X12065965Y2980004D03*
G01*
X12319965Y2980004D03*
G01*
X12815976Y2980004D03*
G01*
X13069976Y2980004D03*
G01*
X6745986Y2990011D03*
G01*
X6999986Y2990011D03*
D16*
G01*
X6239992Y4007993D03*
G01*
X6239992Y2991993D03*
D17*
G01*
X11777979Y5419979D03*
G01*
X11523979Y5419979D03*
G01*
X11269979Y5419979D03*
G01*
X11015979Y5419979D03*
G01*
X10761979Y5419979D03*
G01*
X10507979Y5419979D03*
G01*
X10253979Y5419979D03*
G01*
X9999979Y5419979D03*
G01*
X11777979Y3895979D03*
G01*
X11523979Y3895979D03*
G01*
X11269979Y3895979D03*
G01*
X11015979Y3895979D03*
G01*
X10761979Y3895979D03*
G01*
X10507979Y3895979D03*
G01*
X10253979Y3895979D03*
G01*
X9999979Y3895979D03*
G01*
X7709992Y414020D03*
G01*
X7709992Y668020D03*
G01*
X7709992Y1684020D03*
G01*
X7709992Y2446020D03*
G01*
X8459977Y414020D03*
G01*
X8459977Y668020D03*
G01*
X8459977Y1684020D03*
G01*
X8459977Y2446020D03*
G01*
X9229979Y414020D03*
G01*
X9229979Y668020D03*
G01*
X9229979Y1684020D03*
G01*
X9229979Y2446020D03*
G01*
X9989972Y414020D03*
G01*
X9989972Y668020D03*
G01*
X9989972Y1684020D03*
G01*
X9989972Y2446020D03*
G01*
X10759973Y414020D03*
G01*
X10759973Y668020D03*
G01*
X10759973Y1684020D03*
G01*
X10759973Y2446020D03*
G01*
X11539981Y424027D03*
G01*
X11539981Y678027D03*
G01*
X11539981Y1694027D03*
G01*
X11539981Y2456027D03*
G01*
X12329972Y424027D03*
G01*
X12329972Y678027D03*
G01*
X12329972Y1694027D03*
G01*
X12329972Y2456027D03*
G01*
X13089966Y434009D03*
G01*
X13089966Y688009D03*
G01*
X13089966Y1704009D03*
G01*
X13089966Y2466009D03*
D18*
G01*
X2799994Y619988D03*
G01*
X3299993Y619988D03*
G01*
X3812006Y619988D03*
G01*
X4320006Y619988D03*
G01*
X4828006Y619988D03*
G01*
X5336006Y619988D03*
G01*
X5844006Y619988D03*
G01*
X6352006Y619988D03*
G01*
X6860006Y619988D03*
D19*
G01*
X5219979Y3710000D03*
G01*
X719988Y3710000D03*
D20*
G01*
X4469993Y2210003D03*
G01*
X1469999Y2210003D03*
G01*
X3969994Y5209997D03*
G01*
X1969998Y5209997D03*
D14*
G01*
X9219996Y4969967D03*
G01*
X9219996Y6509969D03*
G01*
X6279997Y5489981D03*
G01*
X6279997Y5989980D03*
D18*
G01*
X1270000Y619988D03*
G01*
X1769998Y619988D03*
D21*
G01*
X9894976Y6279997D03*
G01*
X12084989Y6279997D03*
D22*
G01*
X9219996Y6509969D03*
G01*
X5550001Y1940001D03*
G01*
X6229984Y1789988D03*
M02*
